M48
; DRILL file KiCad 10.0.5 date 2026-09-18T07:30:35
; FORMAT={-:-/ absolute / metric / decimal}
; #@! TF.CreationDate,2026-09-18T07:30:35+09:00
; #@! TF.GenerationSoftware,Kicad,Pcbnew,10.0.5
; #@! TF.FileFunction,Plated,1,4,PTH
FMAT,2
METRIC
; #@! TA.AperFunction,Plated,PTH,ViaDrill
T1C0.300
; #@! TA.AperFunction,Plated,PTH,ComponentDrill
T2C0.600
; #@! TA.AperFunction,Plated,PTH,ComponentDrill
T3C1.020
%
G90
G05
T1
X102.37Y-112.45
X102.37Y-115.2
X102.37Y-118.8
X102.37Y-121.55
X104.407Y-118.25
X104.97Y-121.55
X105.763Y-125.646
X106.234Y-119.764
X107.17Y-113.6
X107.45Y-118.55
X107.45Y-119.55
X107.922Y-123.888
X108.25Y-119.1
X109.008Y-124.378
X110.125Y-122.225
X110.233Y-126.428
X111.0Y-122.6
X111.2Y-120.9
X111.25Y-126.45
X111.433Y-116.785
X112.0Y-120.9
X112.0Y-127.3
X113.5Y-116.3
X114.2Y-121.0
X114.3Y-127.4
X114.4Y-102.6
X114.76Y-124.73
X115.0Y-121.0
X115.26Y-104.68
X115.6Y-102.0
X117.485Y-104.233
X117.61Y-126.4
X117.63Y-124.2
X118.4Y-102.0
X121.147Y-124.834
X122.086Y-124.573
X122.175Y-105.6
X122.51Y-107.4
X123.621Y-113.277
X124.159Y-114.818
X124.32Y-119.76
X124.32Y-120.96
X124.326Y-124.375
X125.72Y-117.2
X126.323Y-119.765
X126.52Y-110.16
X127.159Y-121.718
X127.414Y-116.0
X127.416Y-117.104
X128.716Y-117.605
X128.732Y-121.447
X129.2Y-114.2
X129.2Y-115.8
X129.335Y-112.423
X130.05Y-127.55
X130.061Y-117.361
X130.097Y-120.238
X130.46Y-122.28
X130.8Y-114.2
X130.8Y-115.8
X131.258Y-110.543
X131.56Y-124.08
X132.336Y-114.958
X132.357Y-112.474
X132.379Y-119.377
X132.557Y-105.669
X132.599Y-116.4
X132.781Y-129.787
X132.785Y-128.572
X133.192Y-107.45
X133.194Y-111.55
X133.557Y-118.438
X134.282Y-114.4
X135.013Y-114.945
X135.2Y-115.6
X136.51Y-110.1
X136.71Y-118.5
X137.151Y-102.724
X137.604Y-118.344
X138.755Y-114.733
X138.98Y-129.787
X139.068Y-105.726
X139.773Y-105.77
X140.755Y-109.927
X141.039Y-102.826
X141.874Y-106.265
X142.373Y-107.74
X142.718Y-106.394
X143.4Y-117.0
X143.4Y-117.8
X144.2Y-117.0
X144.2Y-117.8
X144.25Y-113.025
X144.508Y-105.676
X144.6Y-124.3
X145.0Y-117.0
X145.0Y-117.8
X145.354Y-105.643
X145.4Y-124.3
X145.8Y-117.0
X145.8Y-117.8
X146.0Y-111.5
X146.2Y-124.3
X146.6Y-113.1
X146.6Y-117.0
X146.6Y-117.8
X146.605Y-102.722
X146.75Y-129.8
X146.94Y-109.346
X147.4Y-117.0
X147.4Y-117.8
X148.273Y-108.468
X148.285Y-105.765
X149.877Y-119.102
X151.65Y-105.01
X151.87Y-102.99
X152.05Y-114.75
X153.264Y-118.659
X153.3Y-117.4
X153.411Y-105.517
X153.95Y-116.0
X154.1Y-114.55
X154.3Y-118.319
X154.309Y-104.93
X154.65Y-131.2
X154.854Y-105.804
X155.228Y-121.135
X155.349Y-120.469
X156.164Y-123.039
X156.38Y-117.808
X156.603Y-120.731
X159.55Y-119.35
X159.6Y-117.0
X159.75Y-118.25
X159.9Y-132.6
X160.3Y-117.5
X160.731Y-126.343
X160.8Y-132.6
X160.85Y-119.05
X161.475Y-124.25
X161.475Y-129.05
X161.497Y-106.367
X161.6Y-131.4
X161.701Y-111.203
X162.027Y-111.81
X162.6Y-120.4
X162.61Y-118.07
X162.675Y-114.6
X164.302Y-105.804
X165.31Y-116.0
X165.31Y-117.2
X166.42Y-104.26
X166.532Y-108.583
X166.759Y-105.418
X167.4Y-108.4
X167.51Y-118.4
X168.033Y-116.087
X169.17Y-123.29
X169.4Y-106.25
X169.81Y-105.3
X169.81Y-106.7
X171.2Y-101.1
X171.21Y-105.3
X171.21Y-106.7
X171.434Y-110.256
X172.44Y-104.0
X172.9Y-112.8
X173.3Y-125.138
X173.4Y-104.75
X173.4Y-105.75
X173.5Y-107.3
X173.948Y-106.75
X174.23Y-108.6
X174.659Y-111.918
X174.927Y-110.241
X175.983Y-107.041
X176.05Y-111.8
X176.3Y-110.1
X176.3Y-114.5
X177.1Y-110.1
X177.1Y-114.5
X178.331Y-116.05
X178.6Y-101.3
X178.75Y-109.5
X178.75Y-114.6
X178.9Y-117.8
X179.025Y-106.8
X179.75Y-113.25
X179.9Y-109.55
X179.9Y-110.55
X179.9Y-114.45
X179.95Y-111.55
X179.974Y-108.064
X180.35Y-112.35
X180.7Y-109.55
X180.7Y-114.45
X181.2Y-110.6
X181.2Y-112.9
X181.373Y-108.24
X181.681Y-118.781
X181.83Y-120.0
X181.916Y-115.939
X183.0Y-121.2
X184.0Y-117.4
X184.275Y-124.15
X184.4Y-125.3
X185.0Y-121.2
X185.3Y-102.3
X188.1Y-118.8
X189.289Y-128.089
T3
X173.0Y-130.0
X175.54Y-130.0
X178.08Y-130.0
X180.62Y-130.0
T2
X182.97Y-107.68G85X184.07Y-107.68
G05
X182.97Y-116.32G85X184.07Y-116.32
G05
X187.4Y-107.68G85X188.0Y-107.68
G05
X187.4Y-116.32G85X188.0Y-116.32
G05
M30
