G04 #@! TF.GenerationSoftware,KiCad,Pcbnew,10.0.5*
G04 #@! TF.CreationDate,2026-09-18T10:25:02+09:00*
G04 #@! TF.ProjectId,fanctl_a,66616e63-746c-45f6-912e-6b696361645f,rev?*
G04 #@! TF.SameCoordinates,Original*
G04 #@! TF.FileFunction,Copper,L4,Bot*
G04 #@! TF.FilePolarity,Positive*
%FSLAX46Y46*%
G04 Gerber Fmt 4.6, Leading zero omitted, Abs format (unit mm)*
G04 Created by KiCad (PCBNEW 10.0.5) date 2026-09-18 10:25:02*
%MOMM*%
%LPD*%
G01*
G04 APERTURE LIST*
G04 #@! TA.AperFunction,ComponentPad*
%ADD10R,1.730000X2.030000*%
G04 #@! TD*
G04 #@! TA.AperFunction,ComponentPad*
%ADD11O,1.730000X2.030000*%
G04 #@! TD*
G04 #@! TA.AperFunction,ComponentPad*
%ADD12R,1.600000X1.600000*%
G04 #@! TD*
G04 #@! TA.AperFunction,ComponentPad*
%ADD13C,1.600000*%
G04 #@! TD*
G04 #@! TA.AperFunction,ComponentPad*
%ADD14C,3.000000*%
G04 #@! TD*
G04 #@! TA.AperFunction,ComponentPad*
%ADD15O,2.100000X1.000000*%
G04 #@! TD*
G04 #@! TA.AperFunction,ComponentPad*
%ADD16O,1.600000X1.000000*%
G04 #@! TD*
G04 #@! TA.AperFunction,ViaPad*
%ADD17C,0.500000*%
G04 #@! TD*
G04 #@! TA.AperFunction,Conductor*
%ADD18C,0.300000*%
G04 #@! TD*
G04 #@! TA.AperFunction,Conductor*
%ADD19C,0.200000*%
G04 #@! TD*
G04 #@! TA.AperFunction,Conductor*
%ADD20C,0.250000*%
G04 #@! TD*
G04 APERTURE END LIST*
D10*
G04 #@! TO.P,J3,1*
G04 #@! TO.N,GND*
X173000000Y-130000000D03*
D11*
G04 #@! TO.P,J3,2*
G04 #@! TO.N,+12V*
X175540000Y-130000000D03*
G04 #@! TO.P,J3,3*
G04 #@! TO.N,FAN_TACH*
X178080000Y-130000000D03*
G04 #@! TO.P,J3,4*
G04 #@! TO.N,FAN_PWM*
X180620000Y-130000000D03*
G04 #@! TD*
D12*
G04 #@! TO.P,J1,1*
G04 #@! TO.N,VBUS_PC*
X103880000Y-120500000D03*
D13*
G04 #@! TO.P,J1,2*
G04 #@! TO.N,USB_DM_CONN*
X103880000Y-118000000D03*
G04 #@! TO.P,J1,3*
G04 #@! TO.N,USB_DP_CONN*
X103880000Y-116000000D03*
G04 #@! TO.P,J1,4*
G04 #@! TO.N,GND*
X103880000Y-113500000D03*
D14*
G04 #@! TO.P,J1,5*
X101720000Y-111050000D03*
G04 #@! TO.P,J1,6*
X101720000Y-122950000D03*
G04 #@! TD*
D15*
G04 #@! TO.P,J2,SH*
G04 #@! TO.N,GND*
X183520000Y-116320000D03*
D16*
X187700000Y-116320000D03*
D15*
X183520000Y-107680000D03*
D16*
X187700000Y-107680000D03*
G04 #@! TD*
D17*
G04 #@! TO.N,VBUS_EXT*
X184000000Y-117400000D03*
X171200000Y-101100000D03*
X179900000Y-109550000D03*
X178750000Y-114600000D03*
X178600000Y-101300000D03*
X180700000Y-114450000D03*
X178900000Y-117800000D03*
X179900000Y-114450000D03*
X180700000Y-109550000D03*
X167400000Y-108400000D03*
X178750000Y-109500000D03*
G04 #@! TO.N,GND*
X174230000Y-108600000D03*
X181830000Y-120000000D03*
X189289000Y-128089000D03*
X162675000Y-114600000D03*
X154650000Y-131199999D03*
X176050000Y-111800000D03*
X152050000Y-114750000D03*
X110233000Y-126428000D03*
X172440000Y-104000000D03*
X139068000Y-105726000D03*
X166759000Y-105418000D03*
X169170000Y-123290000D03*
X167510000Y-118400000D03*
X166420000Y-104260000D03*
X161475000Y-124250000D03*
X173400000Y-104750000D03*
X117730000Y-111300000D03*
X155349000Y-120469000D03*
X165310000Y-117200000D03*
X129199999Y-114200000D03*
X162610000Y-118070000D03*
X173300000Y-125138000D03*
X115260000Y-104680000D03*
X130800000Y-114200000D03*
X136710000Y-118500000D03*
X146750000Y-129800000D03*
X151870000Y-102990000D03*
X144250000Y-113025000D03*
X169810000Y-106700000D03*
X138980000Y-129787000D03*
X131560000Y-124080000D03*
X166532000Y-108583000D03*
X156380000Y-117808000D03*
X165310000Y-116000000D03*
X171209999Y-106700000D03*
X117610000Y-126400000D03*
X117630000Y-124200000D03*
X129199999Y-115800000D03*
X169400000Y-106250000D03*
X133192000Y-107450000D03*
X130800000Y-115800000D03*
X130460000Y-122280000D03*
X169810000Y-105300000D03*
X185300000Y-102300000D03*
X126520000Y-110160000D03*
X188100000Y-118800000D03*
X161475000Y-129050000D03*
X124320000Y-120960000D03*
X173400000Y-105750000D03*
X110125000Y-122225000D03*
X114760000Y-124730000D03*
X136510000Y-110100000D03*
X160300000Y-117500000D03*
X162600000Y-120400000D03*
X122510000Y-107400000D03*
X156164000Y-123039000D03*
X171209999Y-105300000D03*
X179025000Y-106800000D03*
X141039000Y-102826000D03*
X113750000Y-117000000D03*
X124320000Y-119760000D03*
X124159000Y-114818000D03*
X184275000Y-124150000D03*
X130050000Y-127550000D03*
X148273000Y-108468000D03*
X127159000Y-121718000D03*
X181373000Y-108240000D03*
X174659000Y-111918000D03*
X117485000Y-104233000D03*
X122175000Y-105600000D03*
X181916000Y-115939000D03*
G04 #@! TO.N,BB_LDRV*
X146000000Y-111500000D03*
X154100000Y-114550000D03*
G04 #@! TO.N,FAN_TACH*
X155956100Y-106395200D03*
G04 #@! TO.N,FAN_TACH_MCU*
X151677300Y-105867300D03*
X147121600Y-109640500D03*
G04 #@! TO.N,+3V3*
X129800000Y-112400900D03*
X132152800Y-114267300D03*
G04 #@! TO.N,I2C_SDA*
X140028400Y-109088200D03*
X135959300Y-115085900D03*
X151300000Y-118650000D03*
X173147100Y-107866300D03*
G04 #@! TO.N,QSPI_SS*
X132781100Y-129787500D03*
X133097000Y-118489100D03*
G04 #@! TO.N,QSPI_SD1*
X133048300Y-119131300D03*
X132792200Y-128729600D03*
G04 #@! TO.N,CC1_EXT*
X180641300Y-107536700D03*
X181200000Y-112900000D03*
G04 #@! TO.N,CC2_EXT*
X181200000Y-110600000D03*
X175961600Y-107056000D03*
G04 #@! TO.N,I2C_SCL*
X140652500Y-105697000D03*
X152200000Y-118000000D03*
X173500000Y-107300000D03*
X161729500Y-110907800D03*
X132587400Y-115820400D03*
X168799200Y-110907800D03*
G04 #@! TO.N,PD_ATTACH*
X144798500Y-106897800D03*
X143327400Y-102472700D03*
X144482500Y-105690000D03*
G04 #@! TO.N,PD_ALERT*
X153738700Y-102623800D03*
X145306000Y-105861000D03*
G04 #@! TO.N,FAN_PWM_MCU*
X140080100Y-117933000D03*
X160506700Y-126342700D03*
G04 #@! TO.N,BB_EN*
X135200000Y-115600000D03*
X152784700Y-105480700D03*
X153300000Y-117400000D03*
G04 #@! TO.N,BB_INT*
X139934200Y-115086600D03*
X156150800Y-121282400D03*
X134607000Y-115090900D03*
X159750000Y-118250000D03*
X141619400Y-105686200D03*
G04 #@! TO.N,PC_EN*
X116871300Y-117406300D03*
X111000000Y-122600000D03*
X132586900Y-114800000D03*
X123146800Y-117406300D03*
G04 #@! TO.N,PC_FLT*
X138460300Y-114400000D03*
X111250000Y-126450000D03*
X142112600Y-106268000D03*
X117000000Y-131000000D03*
X138767300Y-119513500D03*
X139222500Y-115098900D03*
G04 #@! TO.N,EXT_FLT*
X148376000Y-106589900D03*
X179900000Y-110550000D03*
G04 #@! TO.N,LED*
X139663700Y-102794900D03*
X143628700Y-105769400D03*
G04 #@! TO.N,XIN*
X133000100Y-110870100D03*
X131258000Y-110543300D03*
G04 #@! TO.N,ADC_IOUT*
X141179200Y-116784300D03*
X162386700Y-115264700D03*
X142315200Y-117677100D03*
X125250000Y-117400000D03*
G04 #@! TO.N,ADC_ILM_EXT*
X172900000Y-112800000D03*
X127637000Y-116852900D03*
G04 #@! TO.N,USB_DM*
X122599800Y-119055100D03*
X128695600Y-119947900D03*
G04 #@! TO.N,USB_DP*
X122272300Y-118459000D03*
X129095200Y-119382800D03*
G04 #@! TO.N,BB_HDRV*
X153950000Y-116000000D03*
X146600000Y-113100000D03*
G04 #@! TO.N,VSYS*
X177100000Y-114500000D03*
X115000000Y-121000000D03*
X145000000Y-117000000D03*
X114300000Y-127400000D03*
X146600000Y-117000000D03*
X145800000Y-117800000D03*
X145800000Y-117000000D03*
X143400000Y-117000000D03*
X144600000Y-124300000D03*
X147400000Y-117000000D03*
X143400000Y-117800000D03*
X177100000Y-110100000D03*
X176300000Y-114500000D03*
X146600000Y-117800000D03*
X144200000Y-117000000D03*
X144200000Y-117800000D03*
X147400000Y-117800000D03*
X115600000Y-113200000D03*
X114200000Y-121000000D03*
X146200000Y-124300000D03*
X145000000Y-117800000D03*
X145400000Y-124300000D03*
X176300000Y-110100000D03*
G04 #@! TO.N,+12V*
X159900000Y-132600000D03*
X160800000Y-132600000D03*
X183000000Y-121200000D03*
X159550000Y-119350000D03*
X185000000Y-121200000D03*
X184400000Y-125300000D03*
X161600000Y-131400000D03*
G04 #@! TO.N,BB_CDC*
X160850000Y-119050000D03*
X159600000Y-117000000D03*
G04 #@! TO.N,AUX_OFF*
X148297200Y-105585700D03*
X179950000Y-111550000D03*
X112738700Y-119755500D03*
G04 #@! TO.N,VBUS_PC*
X112000000Y-127300000D03*
X109300000Y-117000000D03*
X112000000Y-120900000D03*
X111200000Y-120900000D03*
X115600000Y-102000000D03*
X114400000Y-102600000D03*
X118400000Y-102000000D03*
G04 #@! TO.N,USB_DM_CONN*
X112843200Y-118846600D03*
G04 #@! TO.N,EXT_EN*
X179750000Y-113250000D03*
X178331400Y-116049800D03*
G04 #@! TO.N,EXT_OVLO*
X180350000Y-112350000D03*
X181681000Y-118781500D03*
G04 #@! TD*
G04 #@! TO.N,VBUS_EXT*
D18*
X178750000Y-114600000D02*
X178900000Y-114750000D01*
X178400000Y-101100000D02*
X178600000Y-101300000D01*
X167400000Y-104900000D02*
X171200000Y-101100000D01*
X167400000Y-108400000D02*
X167400000Y-104900000D01*
X178900000Y-114750000D02*
X178900000Y-117800000D01*
X180700000Y-115500300D02*
X180700000Y-114450000D01*
X182599700Y-117400000D02*
X180700000Y-115500300D01*
X184000000Y-117400000D02*
X182599700Y-117400000D01*
X171200000Y-101100000D02*
X178400000Y-101100000D01*
G04 #@! TO.N,GND*
X113750000Y-119918400D02*
X111621000Y-122047400D01*
X171210000Y-105300000D02*
X171210000Y-106700000D01*
X155349000Y-122224000D02*
X156164000Y-123039000D01*
X186900000Y-120000000D02*
X184864700Y-120000000D01*
X174230000Y-111489000D02*
X174659000Y-111918000D01*
X122175000Y-107065000D02*
X122175000Y-105600000D01*
X126520000Y-110160000D02*
X127802000Y-111442000D01*
X163480000Y-117200000D02*
X162610000Y-118070000D01*
X129200000Y-114200000D02*
X129200000Y-111442000D01*
X152050000Y-114750000D02*
X146016800Y-114750000D01*
X189289000Y-128089000D02*
X186900000Y-125700000D01*
X162675000Y-114600000D02*
X163910000Y-114600000D01*
X135774900Y-126581900D02*
X131560000Y-126581900D01*
X143087000Y-105898400D02*
X143087000Y-105993700D01*
X126520000Y-110160000D02*
X123760000Y-107400000D01*
X146016800Y-114750000D02*
X144291800Y-113025000D01*
X159046000Y-117600000D02*
X159046000Y-116745000D01*
X117630000Y-126380000D02*
X117630000Y-124200000D01*
X181373000Y-106227000D02*
X181373000Y-106800000D01*
X121080000Y-124200000D02*
X124320000Y-120960000D01*
X151870000Y-104871000D02*
X151870000Y-102990000D01*
X124159000Y-114818000D02*
X126520000Y-112457000D01*
X188100000Y-118800000D02*
X186900000Y-120000000D01*
X117730000Y-105600000D02*
X117730000Y-104478000D01*
X183730200Y-110597200D02*
X181373000Y-108240000D01*
X138980000Y-129787000D02*
X135774900Y-126581900D01*
X162600000Y-120400000D02*
X162610000Y-120390000D01*
X140991300Y-103802700D02*
X139068000Y-105726000D01*
X156380000Y-117808000D02*
X156588000Y-117600000D01*
X155349000Y-120469000D02*
X155349000Y-122224000D01*
X160300000Y-117500000D02*
X160200000Y-117600000D01*
X122510000Y-107400000D02*
X122175000Y-107065000D01*
X113750000Y-117000000D02*
X113750000Y-114283500D01*
X148273000Y-108468000D02*
X151870000Y-104871000D01*
X141039000Y-102826000D02*
X141039000Y-103755000D01*
X156380000Y-119438000D02*
X156380000Y-117808000D01*
X141039000Y-103755000D02*
X140991300Y-103802700D01*
X140991300Y-103802700D02*
X143087000Y-105898400D01*
X115707000Y-104233000D02*
X117485000Y-104233000D01*
X169400000Y-106250000D02*
X169810000Y-106660000D01*
X181830000Y-121705000D02*
X181830000Y-120000000D01*
X144291800Y-113025000D02*
X144291800Y-109737500D01*
X139068000Y-105726000D02*
X136510000Y-108284000D01*
X115260000Y-104680000D02*
X115707000Y-104233000D01*
X169170000Y-123290000D02*
X167510000Y-121630000D01*
X184864700Y-120000000D02*
X184864700Y-114610600D01*
X113750000Y-117000000D02*
X113750000Y-119918400D01*
X131830000Y-123380000D02*
X131560000Y-123380000D01*
X184378900Y-114124800D02*
X183730200Y-114124800D01*
X126520000Y-112457000D02*
X126520000Y-110160000D01*
X145561300Y-108468000D02*
X148273000Y-108468000D01*
X117610000Y-126400000D02*
X117630000Y-126380000D01*
X126401000Y-120960000D02*
X127159000Y-121718000D01*
X173190000Y-104750000D02*
X172440000Y-104000000D01*
X165310000Y-117200000D02*
X166510000Y-118400000D01*
X136710000Y-118500000D02*
X131830000Y-123380000D01*
X185300000Y-102300000D02*
X181373000Y-106227000D01*
X117630000Y-124200000D02*
X115290000Y-124200000D01*
X154650000Y-131200000D02*
X154650000Y-124553000D01*
X166510000Y-118400000D02*
X167510000Y-118400000D01*
X173400000Y-105750000D02*
X173400000Y-104750000D01*
X172440000Y-104000000D02*
X171210000Y-105230000D01*
X171210000Y-105230000D02*
X171210000Y-105300000D01*
X130050000Y-127550000D02*
X131018100Y-126581900D01*
X131018100Y-126581900D02*
X131560000Y-126581900D01*
X174230000Y-108600000D02*
X174230000Y-111489000D01*
X136510000Y-110100000D02*
X135842000Y-110100000D01*
X171452000Y-123290000D02*
X169170000Y-123290000D01*
X143087000Y-105993700D02*
X145561300Y-108468000D01*
X159339400Y-116451600D02*
X160991600Y-116451600D01*
X186900000Y-125700000D02*
X186900000Y-120000000D01*
X136510000Y-108284000D02*
X136510000Y-110100000D01*
X144291800Y-109737500D02*
X145561300Y-108468000D01*
X124320000Y-120960000D02*
X124320000Y-119760000D01*
X160264000Y-123039000D02*
X156164000Y-123039000D01*
X184864700Y-120000000D02*
X181830000Y-120000000D01*
X160200000Y-117600000D02*
X159046000Y-117600000D01*
X160991600Y-116451600D02*
X162610000Y-118070000D01*
X184864700Y-114610600D02*
X184378900Y-114124800D01*
X173300000Y-125138000D02*
X171452000Y-123290000D01*
X113750000Y-114283500D02*
X116733500Y-111300000D01*
X166759000Y-105418000D02*
X166532000Y-105645000D01*
X183730200Y-114124800D02*
X183730200Y-110597200D01*
X167510000Y-121630000D02*
X167510000Y-118400000D01*
X159046000Y-116745000D02*
X159339400Y-116451600D01*
X163910000Y-114600000D02*
X165310000Y-116000000D01*
X169400000Y-105710000D02*
X169400000Y-106250000D01*
X117730000Y-105600000D02*
X122175000Y-105600000D01*
X161475000Y-124250000D02*
X161475000Y-129050000D01*
X117730000Y-104478000D02*
X117485000Y-104233000D01*
X166759000Y-105418000D02*
X166420000Y-105079000D01*
X130460000Y-122280000D02*
X131560000Y-123380000D01*
X133192000Y-107450000D02*
X129200000Y-111442000D01*
X181373000Y-106800000D02*
X181373000Y-108240000D01*
X116733500Y-111300000D02*
X117730000Y-111300000D01*
X131560000Y-126581900D02*
X131560000Y-124080000D01*
X154650000Y-124553000D02*
X156164000Y-123039000D01*
X173400000Y-104750000D02*
X173190000Y-104750000D01*
X169810000Y-106660000D02*
X169810000Y-106700000D01*
X165310000Y-117200000D02*
X163480000Y-117200000D01*
X179025000Y-106800000D02*
X181373000Y-106800000D01*
X129200000Y-115800000D02*
X129200000Y-114200000D01*
X123760000Y-107400000D02*
X122510000Y-107400000D01*
X110302600Y-122047400D02*
X110125000Y-122225000D01*
X166532000Y-105645000D02*
X166532000Y-108583000D01*
X144250000Y-113025000D02*
X144291800Y-113025000D01*
X117630000Y-124200000D02*
X121080000Y-124200000D01*
X169810000Y-105300000D02*
X169400000Y-105710000D01*
X115290000Y-124200000D02*
X114760000Y-124730000D01*
X166420000Y-105079000D02*
X166420000Y-104260000D01*
X130800000Y-114200000D02*
X130800000Y-115800000D01*
X131560000Y-123380000D02*
X131560000Y-124080000D01*
X117730000Y-111300000D02*
X117730000Y-105600000D01*
X135842000Y-110100000D02*
X133192000Y-107450000D01*
X184275000Y-124150000D02*
X181830000Y-121705000D01*
X156588000Y-117600000D02*
X159046000Y-117600000D01*
X127802000Y-111442000D02*
X129200000Y-111442000D01*
X165310000Y-117200000D02*
X165310000Y-116000000D01*
X183730200Y-114124800D02*
X181916000Y-115939000D01*
X155349000Y-120469000D02*
X156380000Y-119438000D01*
X111621000Y-122047400D02*
X110302600Y-122047400D01*
X162610000Y-120390000D02*
X162610000Y-118070000D01*
X124320000Y-120960000D02*
X126401000Y-120960000D01*
X161475000Y-124250000D02*
X160264000Y-123039000D01*
G04 #@! TO.N,BB_LDRV*
X152600000Y-112400000D02*
X148200000Y-112400000D01*
X154100000Y-114550000D02*
X152600000Y-112400000D01*
X148200000Y-112400000D02*
X146000000Y-111500000D01*
G04 #@! TO.N,FAN_TACH*
D19*
X159327100Y-109766200D02*
X169287800Y-109766200D01*
X155956100Y-106395200D02*
X159327100Y-109766200D01*
X175289800Y-127209800D02*
X178080000Y-130000000D01*
X175289800Y-108354400D02*
X175289800Y-127209800D01*
X173724400Y-106789000D02*
X175289800Y-108354400D01*
X169287800Y-109766200D02*
X172265000Y-106789000D01*
X172265000Y-106789000D02*
X173724400Y-106789000D01*
G04 #@! TO.N,FAN_TACH_MCU*
X147904100Y-109640500D02*
X151677300Y-105867300D01*
X147121600Y-109640500D02*
X147904100Y-109640500D01*
G04 #@! TO.N,+3V3*
X129800000Y-112400900D02*
X131666300Y-114267200D01*
X131666300Y-114267200D02*
X132152800Y-114267200D01*
X132152800Y-114267200D02*
X132152800Y-114267300D01*
G04 #@! TO.N,I2C_SDA*
X168423000Y-112590400D02*
X159730400Y-112590400D01*
X140028400Y-109088200D02*
X135959300Y-113157300D01*
X135959300Y-113157300D02*
X135959300Y-115085900D01*
X159730400Y-112590400D02*
X153670800Y-118650000D01*
X153670800Y-118650000D02*
X151300000Y-118650000D01*
X173147100Y-107866300D02*
X168423000Y-112590400D01*
G04 #@! TO.N,QSPI_SS*
X132963600Y-118489100D02*
X133097000Y-118489100D01*
X131092800Y-129787500D02*
X129154000Y-127848700D01*
X129154000Y-127848700D02*
X129154000Y-122298700D01*
X132781100Y-129787500D02*
X131092800Y-129787500D01*
X129154000Y-122298700D02*
X132963600Y-118489100D01*
G04 #@! TO.N,QSPI_SD1*
X132792200Y-128729600D02*
X130518100Y-128729600D01*
X132844400Y-119131300D02*
X133048300Y-119131300D01*
X129525700Y-127737200D02*
X129525700Y-122450000D01*
X129525700Y-122450000D02*
X132844400Y-119131300D01*
X130518100Y-128729600D02*
X129525700Y-127737200D01*
G04 #@! TO.N,CC1_EXT*
X182148200Y-111951800D02*
X182148200Y-109762200D01*
X182148200Y-109762200D02*
X180641300Y-108255300D01*
X180641300Y-108255300D02*
X180641300Y-107536700D01*
X181200000Y-112900000D02*
X182148200Y-111951800D01*
G04 #@! TO.N,CC2_EXT*
X177039700Y-107056000D02*
X175961600Y-107056000D01*
X179350000Y-109730400D02*
X179350000Y-109366300D01*
X180650000Y-110050000D02*
X179669600Y-110050000D01*
X179350000Y-109366300D02*
X177039700Y-107056000D01*
X179669600Y-110050000D02*
X179350000Y-109730400D01*
X181200000Y-110600000D02*
X180650000Y-110050000D01*
G04 #@! TO.N,I2C_SCL*
X133514500Y-114893300D02*
X132587400Y-115820400D01*
X153538800Y-118000000D02*
X152200000Y-118000000D01*
X172407000Y-107300000D02*
X173500000Y-107300000D01*
X161729500Y-110907800D02*
X160631000Y-110907800D01*
X168799200Y-110907800D02*
X172407000Y-107300000D01*
X140652500Y-107285600D02*
X133702200Y-114235900D01*
X160631000Y-110907800D02*
X153538800Y-118000000D01*
X133702200Y-114235900D02*
X133702200Y-114893300D01*
X133702200Y-114893300D02*
X133514500Y-114893300D01*
X140652500Y-105697000D02*
X140652500Y-107285600D01*
X140670100Y-116114900D02*
X134923800Y-116114900D01*
X140834100Y-115950900D02*
X140670100Y-116114900D01*
X134923800Y-116114900D02*
X133702200Y-114893300D01*
X150150900Y-115950900D02*
X140834100Y-115950900D01*
X152200000Y-118000000D02*
X150150900Y-115950900D01*
G04 #@! TO.N,PD_ATTACH*
X144482500Y-105690000D02*
X144482500Y-103627800D01*
X144482500Y-103627800D02*
X143327400Y-102472700D01*
X144482500Y-105690000D02*
X144798500Y-106006000D01*
X144798500Y-106006000D02*
X144798500Y-106897800D01*
G04 #@! TO.N,PD_ALERT*
X151657700Y-102471800D02*
X151249300Y-102880200D01*
X153586700Y-102471800D02*
X151657700Y-102471800D01*
X153738700Y-102623800D02*
X153586700Y-102471800D01*
X148615900Y-107112700D02*
X146557700Y-107112700D01*
X151249300Y-102880200D02*
X151249300Y-104479300D01*
X151249300Y-104479300D02*
X148615900Y-107112700D01*
X146557700Y-107112700D02*
X145306000Y-105861000D01*
G04 #@! TO.N,FAN_PWM_MCU*
X140618200Y-117933000D02*
X140080100Y-117933000D01*
X154383700Y-131698500D02*
X140618200Y-117933000D01*
X160506700Y-126342700D02*
X155150900Y-131698500D01*
X155150900Y-131698500D02*
X154383700Y-131698500D01*
G04 #@! TO.N,BB_EN*
X152784700Y-105480700D02*
X154596500Y-107292500D01*
X135200000Y-115600000D02*
X152800000Y-115600000D01*
X152800000Y-115600000D02*
X153300000Y-117400000D01*
X154596500Y-116103500D02*
X153300000Y-117400000D01*
X154596500Y-107292500D02*
X154596500Y-116103500D01*
G04 #@! TO.N,BB_INT*
X141619400Y-106802000D02*
X141619400Y-105686200D01*
X134607000Y-113814400D02*
X141619400Y-106802000D01*
X156150800Y-121282400D02*
X159183200Y-118250000D01*
X159183200Y-118250000D02*
X159750000Y-118250000D01*
X142615300Y-106067700D02*
X142615300Y-112405500D01*
X134607000Y-115090900D02*
X134607000Y-113814400D01*
X141619400Y-105686200D02*
X142233800Y-105686200D01*
X142233800Y-105686200D02*
X142615300Y-106067700D01*
X142615300Y-112405500D02*
X139934200Y-115086600D01*
G04 #@! TO.N,PC_EN*
X131025700Y-116361200D02*
X124191900Y-116361200D01*
X111677600Y-122600000D02*
X116871300Y-117406300D01*
X124191900Y-116361200D02*
X123146800Y-117406300D01*
X132586900Y-114800000D02*
X131025700Y-116361200D01*
X111000000Y-122600000D02*
X111677600Y-122600000D01*
G04 #@! TO.N,PC_FLT*
X119806500Y-131000000D02*
X132818800Y-117987700D01*
X142112600Y-111336300D02*
X139048900Y-114400000D01*
X132818800Y-117987700D02*
X137241500Y-117987700D01*
X137241500Y-117987700D02*
X138767300Y-119513500D01*
X111250000Y-130000000D02*
X117000000Y-131000000D01*
X139048900Y-114400000D02*
X139048900Y-114925300D01*
X139048900Y-114925300D02*
X139222500Y-115098900D01*
X138460300Y-114400000D02*
X139048900Y-114400000D01*
X111250000Y-126450000D02*
X111250000Y-130000000D01*
X117000000Y-131000000D02*
X119806500Y-131000000D01*
X142112600Y-106268000D02*
X142112600Y-111336300D01*
G04 #@! TO.N,EXT_FLT*
X158663900Y-102130100D02*
X165958300Y-109424500D01*
X170880700Y-103484800D02*
X172838800Y-103484800D01*
X148376000Y-106589900D02*
X150737600Y-104228300D01*
X175229300Y-105875300D02*
X175229300Y-107052000D01*
X175229300Y-107052000D02*
X178727300Y-110550000D01*
X178727300Y-110550000D02*
X179900000Y-110550000D01*
X150737600Y-102908700D02*
X151516200Y-102130100D01*
X150737600Y-104228300D02*
X150737600Y-102908700D01*
X165958300Y-109424500D02*
X167598600Y-109424500D01*
X168845400Y-108177700D02*
X168845400Y-105520100D01*
X151516200Y-102130100D02*
X158663900Y-102130100D01*
X168845400Y-105520100D02*
X170880700Y-103484800D01*
X172838800Y-103484800D02*
X175229300Y-105875300D01*
X167598600Y-109424500D02*
X168845400Y-108177700D01*
G04 #@! TO.N,LED*
X143628700Y-105769400D02*
X143628700Y-104706200D01*
X140158100Y-102300500D02*
X139663700Y-102794900D01*
X141223000Y-102300500D02*
X140158100Y-102300500D01*
X143628700Y-104706200D02*
X141223000Y-102300500D01*
G04 #@! TO.N,XIN*
X133000100Y-110870100D02*
X131584800Y-110870100D01*
X131584800Y-110870100D02*
X131258000Y-110543300D01*
G04 #@! TO.N,ADC_IOUT*
X131618700Y-117400000D02*
X125250000Y-117400000D01*
X141110600Y-116852900D02*
X132165800Y-116852900D01*
X132165800Y-116852900D02*
X131618700Y-117400000D01*
X158177700Y-115264700D02*
X153903200Y-119539200D01*
X144177300Y-119539200D02*
X142315200Y-117677100D01*
X153903200Y-119539200D02*
X144177300Y-119539200D01*
X162386700Y-115264700D02*
X158177700Y-115264700D01*
X141179200Y-116784300D02*
X141110600Y-116852900D01*
G04 #@! TO.N,ADC_ILM_EXT*
X158850900Y-114108300D02*
X153797000Y-119162200D01*
X151102700Y-119162200D02*
X148233100Y-116292600D01*
X148233100Y-116292600D02*
X140975600Y-116292600D01*
X140811600Y-116456600D02*
X131758700Y-116456600D01*
X153797000Y-119162200D02*
X151102700Y-119162200D01*
X131758700Y-116456600D02*
X131362400Y-116852900D01*
X171591700Y-114108300D02*
X158850900Y-114108300D01*
X140975600Y-116292600D02*
X140811600Y-116456600D01*
X172900000Y-112800000D02*
X171591700Y-114108300D01*
X131362400Y-116852900D02*
X127637000Y-116852900D01*
G04 #@! TO.N,USB_DM*
X122599800Y-119055100D02*
X127802800Y-119055100D01*
X127802800Y-119055100D02*
X128695600Y-119947900D01*
G04 #@! TO.N,USB_DP*
X122272300Y-118459000D02*
X128171400Y-118459000D01*
X128171400Y-118459000D02*
X129095200Y-119382800D01*
G04 #@! TO.N,BB_HDRV*
D18*
X147600000Y-113600000D02*
X146600000Y-113100000D01*
X152400000Y-113600000D02*
X147600000Y-113600000D01*
X153950000Y-116000000D02*
X152400000Y-113600000D01*
G04 #@! TO.N,VSYS*
X145800000Y-117000000D02*
X145800000Y-117800000D01*
X122561400Y-117982000D02*
X122496700Y-117917300D01*
X114200000Y-127300000D02*
X114200000Y-121000000D01*
X114300000Y-127400000D02*
X114200000Y-127300000D01*
X147400000Y-117000000D02*
X147400000Y-117800000D01*
X145000000Y-117000000D02*
X145000000Y-117800000D01*
X143400000Y-117800000D02*
X142735400Y-117135400D01*
X118037000Y-117963000D02*
X115000000Y-121000000D01*
X132270600Y-117982000D02*
X122561400Y-117982000D01*
X143400000Y-117000000D02*
X143400000Y-117800000D01*
X141835000Y-117391300D02*
X132861300Y-117391300D01*
X142090900Y-117135400D02*
X141835000Y-117391300D01*
X122496700Y-117917300D02*
X118037000Y-117917300D01*
X118037000Y-115637000D02*
X118037000Y-117917300D01*
X146600000Y-117000000D02*
X146600000Y-117800000D01*
X118037000Y-117917300D02*
X118037000Y-117963000D01*
X115600000Y-113200000D02*
X118037000Y-115637000D01*
X132861300Y-117391300D02*
X132270600Y-117982000D01*
X142735400Y-117135400D02*
X142090900Y-117135400D01*
X144200000Y-117000000D02*
X144200000Y-117800000D01*
G04 #@! TO.N,+12V*
D20*
X159550000Y-119350000D02*
X162400000Y-121000000D01*
D18*
X184400000Y-128012600D02*
X184400000Y-125300000D01*
X185000000Y-124700000D02*
X185000000Y-121200000D01*
X175540000Y-130000000D02*
X176696700Y-130000000D01*
X181088100Y-131324500D02*
X184400000Y-128012600D01*
D20*
X162400000Y-121000000D02*
X162400000Y-130000000D01*
D18*
X176696700Y-130433800D02*
X177587400Y-131324500D01*
X184400000Y-125300000D02*
X185000000Y-124700000D01*
X176696700Y-130000000D02*
X176696700Y-130433800D01*
X177587400Y-131324500D02*
X181088100Y-131324500D01*
D20*
X162400000Y-130000000D02*
X161600000Y-131400000D01*
G04 #@! TO.N,BB_CDC*
D19*
X159600000Y-117000000D02*
X160850000Y-117000000D01*
X160850000Y-117000000D02*
X160850000Y-119050000D01*
G04 #@! TO.N,AUX_OFF*
X166270000Y-109082800D02*
X158923200Y-101736000D01*
X179950000Y-111550000D02*
X180994700Y-111550000D01*
X168050400Y-108489500D02*
X167457100Y-109082800D01*
X174335900Y-103143100D02*
X170739200Y-103143100D01*
X181748500Y-110796200D02*
X181748500Y-109874300D01*
X117784300Y-103481300D02*
X115751400Y-103481300D01*
X168050400Y-105831900D02*
X168050400Y-108489500D01*
X148297200Y-105585700D02*
X144670300Y-101958800D01*
X179580900Y-107706700D02*
X178899500Y-107706700D01*
X113335000Y-117696900D02*
X113335000Y-119159200D01*
X144670300Y-101958800D02*
X119306800Y-101958800D01*
X151426700Y-101736000D02*
X148297200Y-104865500D01*
X181748500Y-109874300D02*
X179580900Y-107706700D01*
X119306800Y-101958800D02*
X117784300Y-103481300D01*
X170739200Y-103143100D02*
X168050400Y-105831900D01*
X113249800Y-105982900D02*
X113249800Y-117611700D01*
X148297200Y-104865500D02*
X148297200Y-105585700D01*
X113249800Y-117611700D02*
X113335000Y-117696900D01*
X115751400Y-103481300D02*
X113249800Y-105982900D01*
X180994700Y-111550000D02*
X181748500Y-110796200D01*
X113335000Y-119159200D02*
X112738700Y-119755500D01*
X167457100Y-109082800D02*
X166270000Y-109082800D01*
X178899500Y-107706700D02*
X174335900Y-103143100D01*
X158923200Y-101736000D02*
X151426700Y-101736000D01*
G04 #@! TO.N,VBUS_PC*
D18*
X112000000Y-125194600D02*
X112000000Y-127300000D01*
X111200000Y-120900000D02*
X110675100Y-120900000D01*
X109579000Y-121996100D02*
X109579000Y-122773600D01*
X103880000Y-120500000D02*
X107800000Y-120500000D01*
X115600000Y-102000000D02*
X115000000Y-102000000D01*
X115000000Y-102000000D02*
X114400000Y-102600000D01*
X107800000Y-120500000D02*
X109300000Y-119000000D01*
X109579000Y-122773600D02*
X112000000Y-125194600D01*
X110675100Y-120900000D02*
X109579000Y-121996100D01*
X109300000Y-119000000D02*
X111200000Y-120900000D01*
X109300000Y-117000000D02*
X109300000Y-119000000D01*
G04 #@! TO.N,USB_DM_CONN*
D19*
X103880000Y-118000000D02*
X105390700Y-116489300D01*
X105390700Y-116489300D02*
X110485900Y-116489300D01*
X110485900Y-116489300D02*
X112843200Y-118846600D01*
G04 #@! TO.N,EXT_EN*
X179380500Y-113250000D02*
X178258300Y-114372200D01*
X178258300Y-115976700D02*
X178331400Y-116049800D01*
X178258300Y-114372200D02*
X178258300Y-115976700D01*
X179750000Y-113250000D02*
X179380500Y-113250000D01*
G04 #@! TO.N,EXT_OVLO*
X179390200Y-114199700D02*
X179390200Y-116490700D01*
X179850000Y-113850000D02*
X179739900Y-113850000D01*
X179390200Y-116490700D02*
X181681000Y-118781500D01*
X180350000Y-112350000D02*
X180350000Y-113350000D01*
X180350000Y-113350000D02*
X179850000Y-113850000D01*
X179739900Y-113850000D02*
X179390200Y-114199700D01*
G04 #@! TD*
G04 #@! TA.AperFunction,Conductor*
G04 #@! TO.N,GND*
G36*
X139738364Y-102218207D02*
G01*
X139774328Y-102267707D01*
X139774328Y-102328893D01*
X139750177Y-102368304D01*
X139743077Y-102375404D01*
X139688560Y-102403181D01*
X139673073Y-102404400D01*
X139612290Y-102404400D01*
X139512972Y-102431012D01*
X139423927Y-102482422D01*
X139351222Y-102555127D01*
X139299812Y-102644172D01*
X139273200Y-102743490D01*
X139273200Y-102846310D01*
X139299812Y-102945628D01*
X139351222Y-103034673D01*
X139423927Y-103107378D01*
X139512972Y-103158788D01*
X139612290Y-103185400D01*
X139612292Y-103185400D01*
X139715108Y-103185400D01*
X139715110Y-103185400D01*
X139814428Y-103158788D01*
X139903473Y-103107378D01*
X139976178Y-103034673D01*
X140027588Y-102945628D01*
X140054200Y-102846310D01*
X140054200Y-102785527D01*
X140073107Y-102727336D01*
X140083196Y-102715523D01*
X140228723Y-102569996D01*
X140283240Y-102542219D01*
X140298727Y-102541000D01*
X141082373Y-102541000D01*
X141140564Y-102559907D01*
X141152377Y-102569996D01*
X143359204Y-104776822D01*
X143386981Y-104831339D01*
X143388200Y-104846826D01*
X143388200Y-105416641D01*
X143369293Y-105474832D01*
X143359204Y-105486644D01*
X143316224Y-105529624D01*
X143316222Y-105529626D01*
X143316222Y-105529627D01*
X143264812Y-105618672D01*
X143238200Y-105717990D01*
X143238200Y-105820810D01*
X143264812Y-105920128D01*
X143316222Y-106009173D01*
X143388927Y-106081878D01*
X143477972Y-106133288D01*
X143577290Y-106159900D01*
X143577292Y-106159900D01*
X143680108Y-106159900D01*
X143680110Y-106159900D01*
X143779428Y-106133288D01*
X143868473Y-106081878D01*
X143941178Y-106009173D01*
X143992588Y-105920128D01*
X143992589Y-105920123D01*
X143992783Y-105919788D01*
X144038252Y-105878846D01*
X144099102Y-105872450D01*
X144152091Y-105903042D01*
X144164255Y-105919785D01*
X144164453Y-105920128D01*
X144170022Y-105929773D01*
X144242727Y-106002478D01*
X144331772Y-106053888D01*
X144431090Y-106080500D01*
X144459000Y-106080500D01*
X144517191Y-106099407D01*
X144553155Y-106148907D01*
X144558000Y-106179500D01*
X144558000Y-106545041D01*
X144539093Y-106603232D01*
X144529004Y-106615044D01*
X144486024Y-106658024D01*
X144486022Y-106658026D01*
X144486022Y-106658027D01*
X144434612Y-106747072D01*
X144408000Y-106846390D01*
X144408000Y-106949210D01*
X144434612Y-107048528D01*
X144486022Y-107137573D01*
X144558727Y-107210278D01*
X144647772Y-107261688D01*
X144747090Y-107288300D01*
X144747092Y-107288300D01*
X144849908Y-107288300D01*
X144849910Y-107288300D01*
X144949228Y-107261688D01*
X145038273Y-107210278D01*
X145110978Y-107137573D01*
X145162388Y-107048528D01*
X145189000Y-106949210D01*
X145189000Y-106846390D01*
X145162388Y-106747072D01*
X145110978Y-106658027D01*
X145094259Y-106641308D01*
X145067996Y-106615044D01*
X145040219Y-106560527D01*
X145039000Y-106545041D01*
X145039000Y-106322752D01*
X145057907Y-106264561D01*
X145107407Y-106228597D01*
X145163620Y-106227125D01*
X145254590Y-106251500D01*
X145315373Y-106251500D01*
X145373564Y-106270407D01*
X145385377Y-106280496D01*
X146421467Y-107316586D01*
X146509861Y-107353200D01*
X148663739Y-107353200D01*
X148752133Y-107316586D01*
X151453186Y-104615533D01*
X151489800Y-104527139D01*
X151489800Y-104431461D01*
X151489800Y-103020826D01*
X151508707Y-102962635D01*
X151518796Y-102950822D01*
X151728322Y-102741296D01*
X151782839Y-102713519D01*
X151798326Y-102712300D01*
X153282887Y-102712300D01*
X153341078Y-102731207D01*
X153371038Y-102769213D01*
X153371568Y-102768908D01*
X153373676Y-102772560D01*
X153374352Y-102773417D01*
X153374810Y-102774524D01*
X153374811Y-102774526D01*
X153374812Y-102774528D01*
X153426222Y-102863573D01*
X153498927Y-102936278D01*
X153587972Y-102987688D01*
X153687290Y-103014300D01*
X153687292Y-103014300D01*
X153790108Y-103014300D01*
X153790110Y-103014300D01*
X153889428Y-102987688D01*
X153978473Y-102936278D01*
X154051178Y-102863573D01*
X154102588Y-102774528D01*
X154129200Y-102675210D01*
X154129200Y-102572390D01*
X154108523Y-102495222D01*
X154111726Y-102434121D01*
X154150231Y-102386571D01*
X154204150Y-102370600D01*
X158523273Y-102370600D01*
X158581464Y-102389507D01*
X158593277Y-102399596D01*
X162140358Y-105946677D01*
X165550378Y-109356696D01*
X165578155Y-109411213D01*
X165568584Y-109471645D01*
X165525319Y-109514910D01*
X165480374Y-109525700D01*
X159467727Y-109525700D01*
X159409536Y-109506793D01*
X159397723Y-109496704D01*
X156375596Y-106474577D01*
X156347819Y-106420060D01*
X156346600Y-106404573D01*
X156346600Y-106343791D01*
X156346600Y-106343790D01*
X156319988Y-106244472D01*
X156268578Y-106155427D01*
X156195873Y-106082722D01*
X156106828Y-106031312D01*
X156007510Y-106004700D01*
X155904690Y-106004700D01*
X155805372Y-106031312D01*
X155716327Y-106082722D01*
X155643622Y-106155427D01*
X155592212Y-106244472D01*
X155565600Y-106343790D01*
X155565600Y-106446610D01*
X155592212Y-106545928D01*
X155643622Y-106634973D01*
X155716327Y-106707678D01*
X155805372Y-106759088D01*
X155904690Y-106785700D01*
X155965473Y-106785700D01*
X156023664Y-106804607D01*
X156035477Y-106814696D01*
X159190867Y-109970086D01*
X159279261Y-110006700D01*
X169121173Y-110006700D01*
X169179364Y-110025607D01*
X169215328Y-110075107D01*
X169215328Y-110136293D01*
X169191177Y-110175704D01*
X168878577Y-110488304D01*
X168824060Y-110516081D01*
X168808573Y-110517300D01*
X168747790Y-110517300D01*
X168648472Y-110543912D01*
X168559427Y-110595322D01*
X168486722Y-110668027D01*
X168435312Y-110757072D01*
X168408700Y-110856390D01*
X168408700Y-110959210D01*
X168435312Y-111058528D01*
X168486722Y-111147573D01*
X168559427Y-111220278D01*
X168648472Y-111271688D01*
X168747790Y-111298300D01*
X168747792Y-111298300D01*
X168850608Y-111298300D01*
X168850610Y-111298300D01*
X168949928Y-111271688D01*
X169038973Y-111220278D01*
X169111678Y-111147573D01*
X169163088Y-111058528D01*
X169189700Y-110959210D01*
X169189700Y-110898426D01*
X169208607Y-110840235D01*
X169218696Y-110828422D01*
X172477622Y-107569496D01*
X172532139Y-107541719D01*
X172547626Y-107540500D01*
X172712817Y-107540500D01*
X172771008Y-107559407D01*
X172806972Y-107608907D01*
X172806972Y-107670093D01*
X172798556Y-107688994D01*
X172783212Y-107715572D01*
X172761150Y-107797911D01*
X172756600Y-107814891D01*
X172756600Y-107875673D01*
X172737693Y-107933864D01*
X172727604Y-107945677D01*
X168352377Y-112320904D01*
X168297860Y-112348681D01*
X168282373Y-112349900D01*
X159768026Y-112349900D01*
X159709835Y-112330993D01*
X159673871Y-112281493D01*
X159673871Y-112220307D01*
X159698022Y-112180896D01*
X160701622Y-111177296D01*
X160756139Y-111149519D01*
X160771626Y-111148300D01*
X161376741Y-111148300D01*
X161434932Y-111167207D01*
X161446744Y-111177296D01*
X161485575Y-111216126D01*
X161489727Y-111220278D01*
X161578772Y-111271688D01*
X161678090Y-111298300D01*
X161678092Y-111298300D01*
X161780908Y-111298300D01*
X161780910Y-111298300D01*
X161880228Y-111271688D01*
X161969273Y-111220278D01*
X162041978Y-111147573D01*
X162093388Y-111058528D01*
X162120000Y-110959210D01*
X162120000Y-110856390D01*
X162093388Y-110757072D01*
X162041978Y-110668027D01*
X161969273Y-110595322D01*
X161880228Y-110543912D01*
X161780910Y-110517300D01*
X161678090Y-110517300D01*
X161578772Y-110543912D01*
X161490791Y-110594708D01*
X161489724Y-110595324D01*
X161446744Y-110638304D01*
X161392227Y-110666081D01*
X161376741Y-110667300D01*
X160583162Y-110667300D01*
X160494768Y-110703913D01*
X160494766Y-110703914D01*
X160494767Y-110703915D01*
X155006004Y-116192676D01*
X154951487Y-116220453D01*
X154891055Y-116210882D01*
X154847790Y-116167617D01*
X154837000Y-116122672D01*
X154837000Y-107244662D01*
X154836999Y-107244660D01*
X154832738Y-107234371D01*
X154832738Y-107234370D01*
X154800387Y-107156269D01*
X154800386Y-107156268D01*
X154800386Y-107156267D01*
X153204196Y-105560077D01*
X153176419Y-105505560D01*
X153175200Y-105490073D01*
X153175200Y-105429291D01*
X153174531Y-105426793D01*
X153148588Y-105329972D01*
X153097178Y-105240927D01*
X153024473Y-105168222D01*
X152935428Y-105116812D01*
X152836110Y-105090200D01*
X152733290Y-105090200D01*
X152633972Y-105116812D01*
X152544927Y-105168222D01*
X152472222Y-105240927D01*
X152420812Y-105329972D01*
X152394200Y-105429290D01*
X152394200Y-105532110D01*
X152420812Y-105631428D01*
X152472222Y-105720473D01*
X152544927Y-105793178D01*
X152633972Y-105844588D01*
X152733290Y-105871200D01*
X152794073Y-105871200D01*
X152852264Y-105890107D01*
X152864077Y-105900196D01*
X154327004Y-107363123D01*
X154354781Y-107417640D01*
X154356000Y-107433127D01*
X154356000Y-114085300D01*
X154337093Y-114143491D01*
X154287593Y-114179455D01*
X154231370Y-114180924D01*
X154225885Y-114179455D01*
X154223643Y-114178854D01*
X154172331Y-114145527D01*
X154168080Y-114139875D01*
X153804661Y-113618974D01*
X152847779Y-112247444D01*
X152843241Y-112240306D01*
X152832458Y-112221629D01*
X152829741Y-112218912D01*
X152818553Y-112205553D01*
X152816364Y-112202415D01*
X152799862Y-112188520D01*
X152793626Y-112182796D01*
X152778375Y-112167546D01*
X152778371Y-112167542D01*
X152778368Y-112167540D01*
X152778363Y-112167536D01*
X152775050Y-112165624D01*
X152760784Y-112155617D01*
X152757852Y-112153148D01*
X152738315Y-112143998D01*
X152730804Y-112140079D01*
X152712128Y-112129296D01*
X152712127Y-112129295D01*
X152708416Y-112128301D01*
X152692057Y-112122331D01*
X152688584Y-112120704D01*
X152667346Y-112116921D01*
X152659090Y-112115084D01*
X152638247Y-112109500D01*
X152638245Y-112109500D01*
X152634411Y-112109500D01*
X152617053Y-112107966D01*
X152613280Y-112107294D01*
X152613279Y-112107294D01*
X152605445Y-112107966D01*
X152591780Y-112109138D01*
X152583321Y-112109500D01*
X148276591Y-112109500D01*
X148239106Y-112102129D01*
X146384423Y-111343395D01*
X146337724Y-111303863D01*
X146336190Y-111301299D01*
X146312478Y-111260227D01*
X146239773Y-111187522D01*
X146150728Y-111136112D01*
X146051410Y-111109500D01*
X145948590Y-111109500D01*
X145849272Y-111136112D01*
X145760227Y-111187522D01*
X145687522Y-111260227D01*
X145636112Y-111349272D01*
X145609500Y-111448590D01*
X145609500Y-111551410D01*
X145636112Y-111650728D01*
X145687522Y-111739773D01*
X145760227Y-111812478D01*
X145849272Y-111863888D01*
X145948590Y-111890500D01*
X145948592Y-111890500D01*
X146051411Y-111890500D01*
X146051411Y-111890499D01*
X146079978Y-111882844D01*
X146101304Y-111877131D01*
X146162406Y-111880332D01*
X146164403Y-111881124D01*
X147554990Y-112450000D01*
X148065581Y-112658878D01*
X148077598Y-112664771D01*
X148087871Y-112670703D01*
X148100981Y-112674215D01*
X148112844Y-112678214D01*
X148125397Y-112683349D01*
X148125398Y-112683349D01*
X148125405Y-112683352D01*
X148137168Y-112684848D01*
X148150296Y-112687429D01*
X148161755Y-112690500D01*
X148175327Y-112690500D01*
X148187817Y-112691291D01*
X148201284Y-112693004D01*
X148211829Y-112691568D01*
X148213040Y-112691404D01*
X148226391Y-112690500D01*
X152396817Y-112690500D01*
X152455008Y-112709407D01*
X152478010Y-112732854D01*
X152978724Y-113450544D01*
X153675036Y-114448591D01*
X153691693Y-114472465D01*
X153709500Y-114529111D01*
X153709500Y-114601410D01*
X153736112Y-114700728D01*
X153787522Y-114789773D01*
X153860227Y-114862478D01*
X153949272Y-114913888D01*
X154048590Y-114940500D01*
X154048592Y-114940500D01*
X154151407Y-114940500D01*
X154151410Y-114940500D01*
X154231380Y-114919072D01*
X154292478Y-114922274D01*
X154340028Y-114960779D01*
X154356000Y-115014699D01*
X154356000Y-115614742D01*
X154337093Y-115672933D01*
X154287593Y-115708897D01*
X154226407Y-115708897D01*
X154195898Y-115690201D01*
X154194923Y-115691473D01*
X154189774Y-115687522D01*
X154100731Y-115636113D01*
X154100730Y-115636112D01*
X154089294Y-115633048D01*
X154037981Y-115599722D01*
X154031756Y-115591132D01*
X153755828Y-115163888D01*
X152649283Y-113450529D01*
X152646719Y-113446331D01*
X152642932Y-113439772D01*
X152632458Y-113421629D01*
X152628510Y-113416484D01*
X152628649Y-113416376D01*
X152627619Y-113415101D01*
X152627486Y-113415215D01*
X152623286Y-113410273D01*
X152623284Y-113410272D01*
X152623283Y-113410269D01*
X152602120Y-113391117D01*
X152598549Y-113387719D01*
X152578372Y-113367543D01*
X152573222Y-113363591D01*
X152573329Y-113363451D01*
X152572006Y-113362487D01*
X152571906Y-113362633D01*
X152566569Y-113358945D01*
X152566568Y-113358944D01*
X152541170Y-113345922D01*
X152536854Y-113343572D01*
X152512127Y-113329295D01*
X152506135Y-113326814D01*
X152506201Y-113326653D01*
X152504668Y-113326062D01*
X152504610Y-113326227D01*
X152498503Y-113324046D01*
X152470609Y-113318044D01*
X152465815Y-113316887D01*
X152438245Y-113309500D01*
X152431811Y-113308653D01*
X152431833Y-113308478D01*
X152430211Y-113308305D01*
X152430197Y-113308480D01*
X152423728Y-113307954D01*
X152395218Y-113309377D01*
X152390286Y-113309500D01*
X147691947Y-113309500D01*
X147647673Y-113299048D01*
X147488569Y-113219496D01*
X147192286Y-113071354D01*
X146996881Y-112973651D01*
X146955419Y-112934604D01*
X146912478Y-112860227D01*
X146839773Y-112787522D01*
X146750728Y-112736112D01*
X146651410Y-112709500D01*
X146548590Y-112709500D01*
X146449272Y-112736112D01*
X146360227Y-112787522D01*
X146287522Y-112860227D01*
X146236112Y-112949272D01*
X146209500Y-113048590D01*
X146209500Y-113151410D01*
X146236112Y-113250728D01*
X146287522Y-113339773D01*
X146360227Y-113412478D01*
X146449272Y-113463888D01*
X146548590Y-113490500D01*
X146548592Y-113490500D01*
X146651409Y-113490500D01*
X146651410Y-113490500D01*
X146667214Y-113486265D01*
X146728315Y-113489467D01*
X146737111Y-113493344D01*
X147459631Y-113854604D01*
X147464857Y-113857416D01*
X147478544Y-113865318D01*
X147487871Y-113870703D01*
X147487874Y-113870704D01*
X147491644Y-113872266D01*
X147500431Y-113875600D01*
X147504285Y-113876931D01*
X147504292Y-113876935D01*
X147530351Y-113882267D01*
X147536093Y-113883623D01*
X147552821Y-113888105D01*
X147561754Y-113890500D01*
X147565754Y-113891026D01*
X147575210Y-113891984D01*
X147579229Y-113892270D01*
X147605752Y-113890678D01*
X147611684Y-113890500D01*
X152187884Y-113890500D01*
X152246075Y-113909407D01*
X152271047Y-113935789D01*
X153543664Y-115906294D01*
X153559500Y-115960003D01*
X153559500Y-116051410D01*
X153586112Y-116150728D01*
X153637522Y-116239773D01*
X153710227Y-116312478D01*
X153799272Y-116363888D01*
X153799274Y-116363889D01*
X153801491Y-116364807D01*
X153802796Y-116365922D01*
X153804892Y-116367132D01*
X153804667Y-116367520D01*
X153848015Y-116404545D01*
X153862297Y-116464041D01*
X153838880Y-116520568D01*
X153833605Y-116526274D01*
X153541383Y-116818495D01*
X153486867Y-116846272D01*
X153426435Y-116836701D01*
X153383170Y-116793436D01*
X153375992Y-116774988D01*
X153046385Y-115588402D01*
X153046384Y-115588401D01*
X153040500Y-115567216D01*
X153040500Y-115552162D01*
X153027804Y-115521512D01*
X153018923Y-115489539D01*
X153009647Y-115477677D01*
X153003886Y-115463768D01*
X152980425Y-115440307D01*
X152959986Y-115414169D01*
X152946878Y-115406760D01*
X152936232Y-115396114D01*
X152905575Y-115383415D01*
X152890729Y-115375024D01*
X152890728Y-115375023D01*
X152876695Y-115367091D01*
X152876692Y-115367090D01*
X152875135Y-115366900D01*
X152849285Y-115360099D01*
X152847839Y-115359500D01*
X152847838Y-115359500D01*
X152820692Y-115359500D01*
X152808668Y-115358767D01*
X152781724Y-115355470D01*
X152780217Y-115355888D01*
X152753722Y-115359500D01*
X140394371Y-115359500D01*
X140336180Y-115340593D01*
X140300216Y-115291093D01*
X140298744Y-115234879D01*
X140324700Y-115138010D01*
X140324700Y-115077226D01*
X140343607Y-115019035D01*
X140353690Y-115007228D01*
X142819186Y-112541733D01*
X142855800Y-112453339D01*
X142855800Y-112357661D01*
X142855800Y-109589090D01*
X146731100Y-109589090D01*
X146731100Y-109691910D01*
X146757712Y-109791228D01*
X146809122Y-109880273D01*
X146881827Y-109952978D01*
X146970872Y-110004388D01*
X147070190Y-110031000D01*
X147070192Y-110031000D01*
X147173008Y-110031000D01*
X147173010Y-110031000D01*
X147272328Y-110004388D01*
X147361373Y-109952978D01*
X147392437Y-109921914D01*
X147404356Y-109909996D01*
X147458873Y-109882219D01*
X147474359Y-109881000D01*
X147951939Y-109881000D01*
X148040333Y-109844386D01*
X151597922Y-106286795D01*
X151652439Y-106259019D01*
X151667926Y-106257800D01*
X151728708Y-106257800D01*
X151728710Y-106257800D01*
X151828028Y-106231188D01*
X151917073Y-106179778D01*
X151989778Y-106107073D01*
X152041188Y-106018028D01*
X152067800Y-105918710D01*
X152067800Y-105815890D01*
X152041188Y-105716572D01*
X151989778Y-105627527D01*
X151917073Y-105554822D01*
X151828028Y-105503412D01*
X151728710Y-105476800D01*
X151625890Y-105476800D01*
X151526572Y-105503412D01*
X151437527Y-105554822D01*
X151364822Y-105627527D01*
X151313412Y-105716572D01*
X151294133Y-105788525D01*
X151286800Y-105815891D01*
X151286800Y-105876673D01*
X151267893Y-105934864D01*
X151257804Y-105946677D01*
X147833477Y-109371004D01*
X147778960Y-109398781D01*
X147763473Y-109400000D01*
X147474359Y-109400000D01*
X147416168Y-109381093D01*
X147404356Y-109371004D01*
X147361375Y-109328024D01*
X147361373Y-109328022D01*
X147272328Y-109276612D01*
X147173010Y-109250000D01*
X147070190Y-109250000D01*
X146970872Y-109276612D01*
X146881827Y-109328022D01*
X146809122Y-109400727D01*
X146757712Y-109489772D01*
X146731100Y-109589090D01*
X142855800Y-109589090D01*
X142855800Y-106019862D01*
X142819186Y-105931468D01*
X142785895Y-105898177D01*
X142751537Y-105863818D01*
X142751531Y-105863813D01*
X142570396Y-105682678D01*
X142370033Y-105482314D01*
X142341511Y-105470500D01*
X142281639Y-105445700D01*
X142281638Y-105445700D01*
X141972159Y-105445700D01*
X141913968Y-105426793D01*
X141902156Y-105416704D01*
X141859175Y-105373724D01*
X141859173Y-105373722D01*
X141770128Y-105322312D01*
X141670810Y-105295700D01*
X141567990Y-105295700D01*
X141468672Y-105322312D01*
X141379627Y-105373722D01*
X141306922Y-105446427D01*
X141255512Y-105535472D01*
X141240708Y-105590723D01*
X141228900Y-105634790D01*
X141228900Y-105737610D01*
X141255512Y-105836928D01*
X141306922Y-105925973D01*
X141349905Y-105968956D01*
X141377681Y-106023471D01*
X141378900Y-106038958D01*
X141378900Y-106661373D01*
X141359993Y-106719564D01*
X141349904Y-106731377D01*
X141062004Y-107019277D01*
X141007487Y-107047054D01*
X140947055Y-107037483D01*
X140903790Y-106994218D01*
X140893000Y-106949273D01*
X140893000Y-106049758D01*
X140911907Y-105991567D01*
X140921990Y-105979760D01*
X140964978Y-105936773D01*
X141016388Y-105847728D01*
X141043000Y-105748410D01*
X141043000Y-105645590D01*
X141016388Y-105546272D01*
X140964978Y-105457227D01*
X140892273Y-105384522D01*
X140803228Y-105333112D01*
X140703910Y-105306500D01*
X140601090Y-105306500D01*
X140501772Y-105333112D01*
X140412727Y-105384522D01*
X140340022Y-105457227D01*
X140288612Y-105546272D01*
X140262000Y-105645590D01*
X140262000Y-105748410D01*
X140288612Y-105847728D01*
X140340022Y-105936773D01*
X140383005Y-105979756D01*
X140410781Y-106034271D01*
X140412000Y-106049758D01*
X140412000Y-107144973D01*
X140393093Y-107203164D01*
X140383004Y-107214977D01*
X133498312Y-114099669D01*
X133461943Y-114187474D01*
X133461924Y-114187520D01*
X133461700Y-114188059D01*
X133461700Y-114588705D01*
X133442793Y-114646896D01*
X133400587Y-114680169D01*
X133378266Y-114689414D01*
X133378261Y-114689420D01*
X133146403Y-114921277D01*
X133091887Y-114949054D01*
X133031455Y-114939483D01*
X132988190Y-114896218D01*
X132977400Y-114851273D01*
X132977400Y-114748591D01*
X132977198Y-114747837D01*
X132950788Y-114649272D01*
X132899378Y-114560227D01*
X132826673Y-114487522D01*
X132737628Y-114436112D01*
X132656101Y-114414267D01*
X132638307Y-114409499D01*
X132631876Y-114408653D01*
X132632196Y-114406217D01*
X132584109Y-114390593D01*
X132548145Y-114341093D01*
X132543300Y-114310500D01*
X132543300Y-114215891D01*
X132543071Y-114215035D01*
X132516688Y-114116572D01*
X132465278Y-114027527D01*
X132392573Y-113954822D01*
X132303528Y-113903412D01*
X132204210Y-113876800D01*
X132101390Y-113876800D01*
X132002072Y-113903412D01*
X131945992Y-113935790D01*
X131913024Y-113954824D01*
X131873535Y-113994312D01*
X131819018Y-114022088D01*
X131758586Y-114012516D01*
X131733529Y-113994311D01*
X130219496Y-112480277D01*
X130191719Y-112425760D01*
X130190500Y-112410273D01*
X130190500Y-112349491D01*
X130186584Y-112334877D01*
X130163888Y-112250172D01*
X130112478Y-112161127D01*
X130039773Y-112088422D01*
X129950728Y-112037012D01*
X129851410Y-112010400D01*
X129748590Y-112010400D01*
X129649272Y-112037012D01*
X129560227Y-112088422D01*
X129487522Y-112161127D01*
X129436112Y-112250172D01*
X129409500Y-112349490D01*
X129409500Y-112452310D01*
X129436112Y-112551628D01*
X129487522Y-112640673D01*
X129560227Y-112713378D01*
X129649272Y-112764788D01*
X129748590Y-112791400D01*
X129809373Y-112791400D01*
X129867564Y-112810307D01*
X129879377Y-112820396D01*
X131462414Y-114403432D01*
X131462413Y-114403432D01*
X131507572Y-114448590D01*
X131530068Y-114471086D01*
X131618462Y-114507700D01*
X131799941Y-114507700D01*
X131858132Y-114526607D01*
X131869944Y-114536696D01*
X131893476Y-114560227D01*
X131913027Y-114579778D01*
X132002072Y-114631188D01*
X132101390Y-114657800D01*
X132101392Y-114657800D01*
X132107824Y-114658647D01*
X132107503Y-114661082D01*
X132155591Y-114676707D01*
X132191555Y-114726207D01*
X132196400Y-114756800D01*
X132196400Y-114809373D01*
X132177493Y-114867564D01*
X132167404Y-114879377D01*
X130955077Y-116091704D01*
X130900560Y-116119481D01*
X130885073Y-116120700D01*
X124144062Y-116120700D01*
X124055668Y-116157313D01*
X123226176Y-116986804D01*
X123171660Y-117014581D01*
X123156173Y-117015800D01*
X123095390Y-117015800D01*
X122996072Y-117042412D01*
X122907027Y-117093822D01*
X122834322Y-117166527D01*
X122782912Y-117255572D01*
X122756300Y-117354890D01*
X122756300Y-117457710D01*
X122781304Y-117551026D01*
X122778101Y-117612128D01*
X122739596Y-117659678D01*
X122680495Y-117675513D01*
X122636178Y-117662386D01*
X122608832Y-117646598D01*
X122608829Y-117646597D01*
X122534945Y-117626800D01*
X122534943Y-117626800D01*
X118426500Y-117626800D01*
X118368309Y-117607893D01*
X118332345Y-117558393D01*
X118327500Y-117527800D01*
X118327500Y-115598755D01*
X118321718Y-115577177D01*
X118314058Y-115548590D01*
X118307703Y-115524871D01*
X118287304Y-115489539D01*
X118269458Y-115458629D01*
X118251136Y-115440307D01*
X118215371Y-115404541D01*
X118215371Y-115404542D01*
X116018974Y-113208145D01*
X115991197Y-113153628D01*
X115990824Y-113151058D01*
X115990500Y-113148602D01*
X115990500Y-113148590D01*
X115963888Y-113049272D01*
X115912478Y-112960227D01*
X115839773Y-112887522D01*
X115750728Y-112836112D01*
X115651410Y-112809500D01*
X115548590Y-112809500D01*
X115449272Y-112836112D01*
X115360227Y-112887522D01*
X115287522Y-112960227D01*
X115236112Y-113049272D01*
X115209500Y-113148590D01*
X115209500Y-113251410D01*
X115236112Y-113350728D01*
X115287522Y-113439773D01*
X115360227Y-113512478D01*
X115449272Y-113563888D01*
X115548590Y-113590500D01*
X115548602Y-113590500D01*
X115551058Y-113590824D01*
X115552669Y-113591592D01*
X115554858Y-113592179D01*
X115554749Y-113592584D01*
X115606284Y-113617162D01*
X115608145Y-113618974D01*
X117717504Y-115728333D01*
X117745281Y-115782850D01*
X117746500Y-115798337D01*
X117746500Y-117801663D01*
X117727593Y-117859854D01*
X117717504Y-117871667D01*
X115008145Y-120581025D01*
X114953628Y-120608802D01*
X114951069Y-120609173D01*
X114948597Y-120609498D01*
X114849272Y-120636112D01*
X114760227Y-120687522D01*
X114687521Y-120760228D01*
X114685736Y-120763321D01*
X114683832Y-120765035D01*
X114683573Y-120765373D01*
X114683510Y-120765324D01*
X114640266Y-120804261D01*
X114579416Y-120810656D01*
X114526428Y-120780063D01*
X114514264Y-120763321D01*
X114512478Y-120760227D01*
X114439773Y-120687522D01*
X114350728Y-120636112D01*
X114251410Y-120609500D01*
X114247226Y-120609500D01*
X114189035Y-120590593D01*
X114153071Y-120541093D01*
X114153071Y-120479907D01*
X114177220Y-120440498D01*
X116791923Y-117825796D01*
X116846440Y-117798019D01*
X116861927Y-117796800D01*
X116922708Y-117796800D01*
X116922710Y-117796800D01*
X117022028Y-117770188D01*
X117111073Y-117718778D01*
X117183778Y-117646073D01*
X117235188Y-117557028D01*
X117261800Y-117457710D01*
X117261800Y-117354890D01*
X117235188Y-117255572D01*
X117183778Y-117166527D01*
X117111073Y-117093822D01*
X117022028Y-117042412D01*
X116922710Y-117015800D01*
X116819890Y-117015800D01*
X116720572Y-117042412D01*
X116631527Y-117093822D01*
X116558822Y-117166527D01*
X116507412Y-117255572D01*
X116482213Y-117349619D01*
X116480800Y-117354891D01*
X116480800Y-117415673D01*
X116461893Y-117473864D01*
X116451804Y-117485677D01*
X111606977Y-122330504D01*
X111552460Y-122358281D01*
X111536973Y-122359500D01*
X111352759Y-122359500D01*
X111294568Y-122340593D01*
X111282756Y-122330504D01*
X111239775Y-122287524D01*
X111239773Y-122287522D01*
X111150728Y-122236112D01*
X111051410Y-122209500D01*
X110948590Y-122209500D01*
X110849272Y-122236112D01*
X110760227Y-122287522D01*
X110687522Y-122360227D01*
X110636112Y-122449272D01*
X110609500Y-122548590D01*
X110609500Y-122651410D01*
X110636112Y-122750728D01*
X110687522Y-122839773D01*
X110760227Y-122912478D01*
X110849272Y-122963888D01*
X110948590Y-122990500D01*
X110948592Y-122990500D01*
X111051408Y-122990500D01*
X111051410Y-122990500D01*
X111150728Y-122963888D01*
X111239773Y-122912478D01*
X111266522Y-122885729D01*
X111282756Y-122869496D01*
X111337273Y-122841719D01*
X111352759Y-122840500D01*
X111725439Y-122840500D01*
X111813833Y-122803886D01*
X113640498Y-120977220D01*
X113695013Y-120949445D01*
X113755445Y-120959016D01*
X113798710Y-121002281D01*
X113809500Y-121047226D01*
X113809500Y-121051410D01*
X113836112Y-121150728D01*
X113887522Y-121239773D01*
X113887524Y-121239775D01*
X113887527Y-121239780D01*
X113889043Y-121241756D01*
X113889638Y-121243436D01*
X113890767Y-121245392D01*
X113890404Y-121245601D01*
X113909466Y-121299432D01*
X113909500Y-121302021D01*
X113909500Y-127348590D01*
X113909500Y-127451410D01*
X113936112Y-127550728D01*
X113987522Y-127639773D01*
X114060227Y-127712478D01*
X114149272Y-127763888D01*
X114248590Y-127790500D01*
X114248592Y-127790500D01*
X114351408Y-127790500D01*
X114351410Y-127790500D01*
X114450728Y-127763888D01*
X114539773Y-127712478D01*
X114612478Y-127639773D01*
X114663888Y-127550728D01*
X114690500Y-127451410D01*
X114690500Y-127348590D01*
X114663888Y-127249272D01*
X114612478Y-127160227D01*
X114539773Y-127087522D01*
X114539770Y-127087520D01*
X114539769Y-127087519D01*
X114534624Y-127083571D01*
X114535406Y-127082551D01*
X114499057Y-127042179D01*
X114490500Y-127001916D01*
X114490500Y-121302021D01*
X114509407Y-121243830D01*
X114510957Y-121241756D01*
X114512474Y-121239778D01*
X114512475Y-121239775D01*
X114512478Y-121239773D01*
X114514263Y-121236680D01*
X114516165Y-121234968D01*
X114516427Y-121234627D01*
X114516490Y-121234675D01*
X114559730Y-121195740D01*
X114620579Y-121189342D01*
X114673569Y-121219932D01*
X114685735Y-121236678D01*
X114687522Y-121239773D01*
X114760227Y-121312478D01*
X114849272Y-121363888D01*
X114948590Y-121390500D01*
X114948592Y-121390500D01*
X115051408Y-121390500D01*
X115051410Y-121390500D01*
X115150728Y-121363888D01*
X115239773Y-121312478D01*
X115312478Y-121239773D01*
X115363888Y-121150728D01*
X115390500Y-121051410D01*
X115390500Y-121051402D01*
X115390824Y-121048943D01*
X115391592Y-121047332D01*
X115392179Y-121045142D01*
X115392584Y-121045250D01*
X115417161Y-120993716D01*
X115418937Y-120991892D01*
X118174033Y-118236796D01*
X118228550Y-118209019D01*
X118244037Y-118207800D01*
X121806314Y-118207800D01*
X121864505Y-118226707D01*
X121900469Y-118276207D01*
X121901940Y-118332422D01*
X121881800Y-118407590D01*
X121881800Y-118510410D01*
X121908412Y-118609728D01*
X121959822Y-118698773D01*
X122032527Y-118771478D01*
X122121572Y-118822888D01*
X122152996Y-118831308D01*
X122204310Y-118864630D01*
X122226238Y-118921751D01*
X122223001Y-118952556D01*
X122220121Y-118963304D01*
X122209300Y-119003690D01*
X122209300Y-119106510D01*
X122235912Y-119205828D01*
X122287322Y-119294873D01*
X122360027Y-119367578D01*
X122449072Y-119418988D01*
X122548390Y-119445600D01*
X122548392Y-119445600D01*
X122651208Y-119445600D01*
X122651210Y-119445600D01*
X122750528Y-119418988D01*
X122839573Y-119367578D01*
X122869446Y-119337705D01*
X122882556Y-119324596D01*
X122937073Y-119296819D01*
X122952559Y-119295600D01*
X127662173Y-119295600D01*
X127720364Y-119314507D01*
X127732177Y-119324596D01*
X128276104Y-119868523D01*
X128303881Y-119923040D01*
X128305100Y-119938527D01*
X128305100Y-119999310D01*
X128331712Y-120098628D01*
X128383122Y-120187673D01*
X128455827Y-120260378D01*
X128544872Y-120311788D01*
X128644190Y-120338400D01*
X128644192Y-120338400D01*
X128747008Y-120338400D01*
X128747010Y-120338400D01*
X128846328Y-120311788D01*
X128935373Y-120260378D01*
X129008078Y-120187673D01*
X129059488Y-120098628D01*
X129086100Y-119999310D01*
X129086100Y-119896490D01*
X129084979Y-119892306D01*
X129088179Y-119831208D01*
X129126683Y-119783657D01*
X129154977Y-119771057D01*
X129245928Y-119746688D01*
X129334973Y-119695278D01*
X129407678Y-119622573D01*
X129459088Y-119533528D01*
X129485700Y-119434210D01*
X129485700Y-119331390D01*
X129459088Y-119232072D01*
X129407678Y-119143027D01*
X129334973Y-119070322D01*
X129245928Y-119018912D01*
X129146610Y-118992300D01*
X129146608Y-118992300D01*
X129085826Y-118992300D01*
X129027635Y-118973393D01*
X129015822Y-118963304D01*
X128494023Y-118441504D01*
X128466246Y-118386987D01*
X128475817Y-118326555D01*
X128519082Y-118283290D01*
X128564027Y-118272500D01*
X131954873Y-118272500D01*
X132013064Y-118291407D01*
X132049028Y-118340907D01*
X132049028Y-118402093D01*
X132024877Y-118441504D01*
X119735877Y-130730504D01*
X119681360Y-130758281D01*
X119665873Y-130759500D01*
X117352759Y-130759500D01*
X117294568Y-130740593D01*
X117282756Y-130730504D01*
X117239775Y-130687524D01*
X117239773Y-130687522D01*
X117150728Y-130636112D01*
X117051410Y-130609500D01*
X116948590Y-130609500D01*
X116849272Y-130636112D01*
X116760227Y-130687522D01*
X116760225Y-130687523D01*
X116755822Y-130690066D01*
X116695974Y-130702787D01*
X116689359Y-130701865D01*
X111572537Y-129811983D01*
X111518447Y-129783385D01*
X111491496Y-129728455D01*
X111490500Y-129714447D01*
X111490500Y-127567993D01*
X111509407Y-127509802D01*
X111558907Y-127473838D01*
X111620093Y-127473838D01*
X111669593Y-127509802D01*
X111675228Y-127518479D01*
X111687522Y-127539773D01*
X111760227Y-127612478D01*
X111849272Y-127663888D01*
X111948590Y-127690500D01*
X111948592Y-127690500D01*
X112051408Y-127690500D01*
X112051410Y-127690500D01*
X112150728Y-127663888D01*
X112239773Y-127612478D01*
X112312478Y-127539773D01*
X112363888Y-127450728D01*
X112390500Y-127351410D01*
X112390500Y-127248590D01*
X112363888Y-127149272D01*
X112312478Y-127060227D01*
X112312475Y-127060224D01*
X112312474Y-127060222D01*
X112310952Y-127058238D01*
X112310354Y-127056551D01*
X112309233Y-127054608D01*
X112309593Y-127054399D01*
X112290534Y-127000560D01*
X112290500Y-126997978D01*
X112290500Y-125156356D01*
X112288602Y-125149272D01*
X112270703Y-125082471D01*
X112270701Y-125082468D01*
X112270701Y-125082466D01*
X112232461Y-125016233D01*
X112232457Y-125016228D01*
X112178371Y-124962141D01*
X112178371Y-124962142D01*
X109898496Y-122682267D01*
X109870719Y-122627750D01*
X109869500Y-122612263D01*
X109869500Y-122157437D01*
X109888407Y-122099246D01*
X109898496Y-122087433D01*
X110766433Y-121219496D01*
X110820950Y-121191719D01*
X110836437Y-121190500D01*
X110897979Y-121190500D01*
X110956170Y-121209407D01*
X110958244Y-121210957D01*
X110960219Y-121212472D01*
X110960223Y-121212474D01*
X110960227Y-121212478D01*
X111049272Y-121263888D01*
X111148590Y-121290500D01*
X111148592Y-121290500D01*
X111251408Y-121290500D01*
X111251410Y-121290500D01*
X111350728Y-121263888D01*
X111439773Y-121212478D01*
X111512478Y-121139773D01*
X111514263Y-121136680D01*
X111516165Y-121134968D01*
X111516427Y-121134627D01*
X111516490Y-121134675D01*
X111559730Y-121095740D01*
X111620579Y-121089342D01*
X111673569Y-121119932D01*
X111685735Y-121136678D01*
X111687522Y-121139773D01*
X111760227Y-121212478D01*
X111849272Y-121263888D01*
X111948590Y-121290500D01*
X111948592Y-121290500D01*
X112051408Y-121290500D01*
X112051410Y-121290500D01*
X112150728Y-121263888D01*
X112239773Y-121212478D01*
X112312478Y-121139773D01*
X112363888Y-121050728D01*
X112390500Y-120951410D01*
X112390500Y-120848590D01*
X112363888Y-120749272D01*
X112312478Y-120660227D01*
X112239773Y-120587522D01*
X112150728Y-120536112D01*
X112051410Y-120509500D01*
X111948590Y-120509500D01*
X111849272Y-120536112D01*
X111760227Y-120587522D01*
X111687521Y-120660228D01*
X111685736Y-120663321D01*
X111683832Y-120665035D01*
X111683573Y-120665373D01*
X111683510Y-120665324D01*
X111640266Y-120704261D01*
X111579416Y-120710656D01*
X111526428Y-120680063D01*
X111514264Y-120663321D01*
X111512478Y-120660227D01*
X111439773Y-120587522D01*
X111350728Y-120536112D01*
X111251410Y-120509500D01*
X111251408Y-120509500D01*
X111248932Y-120509174D01*
X111247317Y-120508404D01*
X111245142Y-120507821D01*
X111245250Y-120507417D01*
X111193708Y-120482830D01*
X111191854Y-120481025D01*
X109619496Y-118908667D01*
X109591719Y-118854150D01*
X109590500Y-118838663D01*
X109590500Y-117302021D01*
X109609407Y-117243830D01*
X109610957Y-117241756D01*
X109612472Y-117239780D01*
X109612473Y-117239777D01*
X109612478Y-117239773D01*
X109663888Y-117150728D01*
X109690500Y-117051410D01*
X109690500Y-116948590D01*
X109665268Y-116854422D01*
X109668471Y-116793321D01*
X109706976Y-116745771D01*
X109760895Y-116729800D01*
X110345273Y-116729800D01*
X110403464Y-116748707D01*
X110415277Y-116758796D01*
X112423704Y-118767222D01*
X112451481Y-118821739D01*
X112452700Y-118837226D01*
X112452700Y-118898010D01*
X112479312Y-118997328D01*
X112530722Y-119086373D01*
X112603427Y-119159078D01*
X112666634Y-119195570D01*
X112707574Y-119241039D01*
X112713970Y-119301889D01*
X112683377Y-119354877D01*
X112642756Y-119376932D01*
X112587972Y-119391612D01*
X112498927Y-119443022D01*
X112426222Y-119515727D01*
X112374812Y-119604772D01*
X112348200Y-119704090D01*
X112348200Y-119806910D01*
X112374812Y-119906228D01*
X112426222Y-119995273D01*
X112498927Y-120067978D01*
X112587972Y-120119388D01*
X112687290Y-120146000D01*
X112687292Y-120146000D01*
X112790108Y-120146000D01*
X112790110Y-120146000D01*
X112889428Y-120119388D01*
X112978473Y-120067978D01*
X113051178Y-119995273D01*
X113102588Y-119906228D01*
X113129200Y-119806910D01*
X113129200Y-119746125D01*
X113148107Y-119687934D01*
X113158190Y-119676127D01*
X113538886Y-119295432D01*
X113575500Y-119207038D01*
X113575500Y-119111361D01*
X113575500Y-117649062D01*
X113573623Y-117644529D01*
X113538886Y-117560667D01*
X113529245Y-117551026D01*
X113519295Y-117541075D01*
X113491519Y-117486558D01*
X113490300Y-117471073D01*
X113490300Y-110491890D01*
X130867500Y-110491890D01*
X130867500Y-110594710D01*
X130894112Y-110694028D01*
X130945522Y-110783073D01*
X131018227Y-110855778D01*
X131107272Y-110907188D01*
X131206590Y-110933800D01*
X131267373Y-110933800D01*
X131325564Y-110952707D01*
X131337376Y-110962796D01*
X131395408Y-111020827D01*
X131448567Y-111073986D01*
X131536961Y-111110600D01*
X131536962Y-111110600D01*
X132647341Y-111110600D01*
X132705532Y-111129507D01*
X132717344Y-111139596D01*
X132742449Y-111164700D01*
X132760327Y-111182578D01*
X132849372Y-111233988D01*
X132948690Y-111260600D01*
X132948692Y-111260600D01*
X133051508Y-111260600D01*
X133051510Y-111260600D01*
X133150828Y-111233988D01*
X133239873Y-111182578D01*
X133312578Y-111109873D01*
X133363988Y-111020828D01*
X133390600Y-110921510D01*
X133390600Y-110818690D01*
X133363988Y-110719372D01*
X133312578Y-110630327D01*
X133239873Y-110557622D01*
X133150828Y-110506212D01*
X133051510Y-110479600D01*
X132948690Y-110479600D01*
X132849372Y-110506212D01*
X132774191Y-110549618D01*
X132760324Y-110557624D01*
X132717344Y-110600604D01*
X132662827Y-110628381D01*
X132647341Y-110629600D01*
X131747500Y-110629600D01*
X131689309Y-110610693D01*
X131653345Y-110561193D01*
X131648500Y-110530600D01*
X131648500Y-110491891D01*
X131648500Y-110491890D01*
X131621888Y-110392572D01*
X131570478Y-110303527D01*
X131497773Y-110230822D01*
X131408728Y-110179412D01*
X131309410Y-110152800D01*
X131206590Y-110152800D01*
X131107272Y-110179412D01*
X131018227Y-110230822D01*
X130945522Y-110303527D01*
X130894112Y-110392572D01*
X130867500Y-110491890D01*
X113490300Y-110491890D01*
X113490300Y-106123526D01*
X113509207Y-106065335D01*
X113519296Y-106053522D01*
X115822022Y-103750796D01*
X115876539Y-103723019D01*
X115892026Y-103721800D01*
X117832139Y-103721800D01*
X117920533Y-103685186D01*
X119377423Y-102228296D01*
X119431940Y-102200519D01*
X119447427Y-102199300D01*
X139680173Y-102199300D01*
X139738364Y-102218207D01*
G37*
G04 #@! TD.AperFunction*
G04 #@! TA.AperFunction,Conductor*
G36*
X189709191Y-100268907D02*
G01*
X189745155Y-100318407D01*
X189750000Y-100349000D01*
X189750000Y-133651000D01*
X189731093Y-133709191D01*
X189681593Y-133745155D01*
X189651000Y-133750000D01*
X100349000Y-133750000D01*
X100290809Y-133731093D01*
X100254845Y-133681593D01*
X100250000Y-133651000D01*
X100250000Y-132548590D01*
X159509500Y-132548590D01*
X159509500Y-132651410D01*
X159536112Y-132750728D01*
X159587522Y-132839773D01*
X159660227Y-132912478D01*
X159749272Y-132963888D01*
X159848590Y-132990500D01*
X159848592Y-132990500D01*
X159951408Y-132990500D01*
X159951410Y-132990500D01*
X160050728Y-132963888D01*
X160139773Y-132912478D01*
X160212478Y-132839773D01*
X160263888Y-132750728D01*
X160263888Y-132750725D01*
X160264263Y-132750077D01*
X160309733Y-132709136D01*
X160370583Y-132702740D01*
X160423571Y-132733333D01*
X160435737Y-132750077D01*
X160436111Y-132750725D01*
X160436112Y-132750728D01*
X160487522Y-132839773D01*
X160560227Y-132912478D01*
X160649272Y-132963888D01*
X160748590Y-132990500D01*
X160748592Y-132990500D01*
X160851408Y-132990500D01*
X160851410Y-132990500D01*
X160950728Y-132963888D01*
X161039773Y-132912478D01*
X161112478Y-132839773D01*
X161163888Y-132750728D01*
X161190500Y-132651410D01*
X161190500Y-132548590D01*
X161163888Y-132449272D01*
X161112478Y-132360227D01*
X161039773Y-132287522D01*
X160950728Y-132236112D01*
X160851410Y-132209500D01*
X160748590Y-132209500D01*
X160649272Y-132236112D01*
X160560227Y-132287522D01*
X160487520Y-132360229D01*
X160435736Y-132449922D01*
X160390267Y-132490863D01*
X160329416Y-132497259D01*
X160276428Y-132466666D01*
X160264264Y-132449922D01*
X160212479Y-132360229D01*
X160212478Y-132360227D01*
X160139773Y-132287522D01*
X160050728Y-132236112D01*
X159951410Y-132209500D01*
X159848590Y-132209500D01*
X159749272Y-132236112D01*
X159660227Y-132287522D01*
X159587522Y-132360227D01*
X159536112Y-132449272D01*
X159509500Y-132548590D01*
X100250000Y-132548590D01*
X100250000Y-124175278D01*
X100268907Y-124117087D01*
X100318407Y-124081123D01*
X100355476Y-124076490D01*
X100379782Y-124078083D01*
X100807415Y-123650449D01*
X100842822Y-123699181D01*
X100970819Y-123827178D01*
X101019548Y-123862582D01*
X100591915Y-124290216D01*
X100745667Y-124408194D01*
X100944341Y-124522898D01*
X101156268Y-124610680D01*
X101156281Y-124610684D01*
X101377863Y-124670057D01*
X101605297Y-124699999D01*
X101605300Y-124700000D01*
X101834700Y-124700000D01*
X101834702Y-124699999D01*
X102062133Y-124670057D01*
X102062138Y-124670057D01*
X102283718Y-124610684D01*
X102283731Y-124610680D01*
X102495658Y-124522898D01*
X102694342Y-124408188D01*
X102848083Y-124290216D01*
X102420450Y-123862583D01*
X102469181Y-123827178D01*
X102597178Y-123699181D01*
X102632583Y-123650450D01*
X103060216Y-124078083D01*
X103178188Y-123924342D01*
X103292898Y-123725658D01*
X103380680Y-123513731D01*
X103380684Y-123513718D01*
X103440057Y-123292138D01*
X103440057Y-123292133D01*
X103469999Y-123064702D01*
X103470000Y-123064700D01*
X103470000Y-122835300D01*
X103469999Y-122835297D01*
X103440057Y-122607866D01*
X103440057Y-122607861D01*
X103380684Y-122386281D01*
X103380680Y-122386268D01*
X103292898Y-122174341D01*
X103178194Y-121975667D01*
X103060215Y-121821915D01*
X102632582Y-122249548D01*
X102597178Y-122200819D01*
X102469181Y-122072822D01*
X102420449Y-122037416D01*
X102848083Y-121609783D01*
X102694332Y-121491805D01*
X102495658Y-121377101D01*
X102283731Y-121289319D01*
X102283718Y-121289315D01*
X102062136Y-121229942D01*
X101834702Y-121200000D01*
X101605297Y-121200000D01*
X101377866Y-121229942D01*
X101377861Y-121229942D01*
X101156281Y-121289315D01*
X101156268Y-121289319D01*
X100944341Y-121377101D01*
X100745662Y-121491808D01*
X100591915Y-121609782D01*
X101019549Y-122037416D01*
X100970819Y-122072822D01*
X100842822Y-122200819D01*
X100807416Y-122249549D01*
X100379781Y-121821914D01*
X100355475Y-121823508D01*
X100337232Y-121818875D01*
X100318407Y-121818875D01*
X100308290Y-121811524D01*
X100296172Y-121808447D01*
X100284136Y-121793976D01*
X100268907Y-121782911D01*
X100265042Y-121771017D01*
X100257048Y-121761405D01*
X100250000Y-121724720D01*
X100250000Y-119162290D01*
X100639500Y-119162290D01*
X100639500Y-119337709D01*
X100646137Y-119371073D01*
X100671926Y-119500727D01*
X100673721Y-119509748D01*
X100673721Y-119509750D01*
X100740847Y-119671807D01*
X100824612Y-119797172D01*
X100838303Y-119817661D01*
X100962339Y-119941697D01*
X101108190Y-120039151D01*
X101270251Y-120106279D01*
X101442293Y-120140500D01*
X101442294Y-120140500D01*
X101617706Y-120140500D01*
X101617707Y-120140500D01*
X101789749Y-120106279D01*
X101951810Y-120039151D01*
X102097661Y-119941697D01*
X102221697Y-119817661D01*
X102319151Y-119671810D01*
X102386279Y-119509749D01*
X102420500Y-119337707D01*
X102420500Y-119162293D01*
X102386279Y-118990251D01*
X102319151Y-118828190D01*
X102221697Y-118682339D01*
X102097661Y-118558303D01*
X102072853Y-118541727D01*
X101951807Y-118460847D01*
X101789749Y-118393721D01*
X101617709Y-118359500D01*
X101617707Y-118359500D01*
X101442293Y-118359500D01*
X101442290Y-118359500D01*
X101270251Y-118393721D01*
X101270249Y-118393721D01*
X101108192Y-118460847D01*
X100962342Y-118558300D01*
X100838300Y-118682342D01*
X100740847Y-118828192D01*
X100673721Y-118990249D01*
X100673721Y-118990251D01*
X100639500Y-119162290D01*
X100250000Y-119162290D01*
X100250000Y-115907366D01*
X102939500Y-115907366D01*
X102939500Y-116092633D01*
X102951056Y-116150727D01*
X102968760Y-116239733D01*
X102975643Y-116274333D01*
X102975643Y-116274335D01*
X103046537Y-116445491D01*
X103046537Y-116445492D01*
X103149465Y-116599533D01*
X103149466Y-116599534D01*
X103280466Y-116730534D01*
X103434506Y-116833461D01*
X103434507Y-116833461D01*
X103434508Y-116833462D01*
X103605659Y-116904354D01*
X103605666Y-116904357D01*
X103605670Y-116904357D01*
X103608657Y-116905264D01*
X103609830Y-116906081D01*
X103610159Y-116906218D01*
X103610129Y-116906290D01*
X103658852Y-116940252D01*
X103678895Y-116998061D01*
X103661131Y-117056611D01*
X103612345Y-117093537D01*
X103608657Y-117094736D01*
X103605661Y-117095644D01*
X103434508Y-117166537D01*
X103434507Y-117166537D01*
X103280466Y-117269465D01*
X103149465Y-117400466D01*
X103046537Y-117554507D01*
X103046537Y-117554508D01*
X102975643Y-117725664D01*
X102975643Y-117725666D01*
X102939500Y-117907366D01*
X102939500Y-118092633D01*
X102975643Y-118274333D01*
X102975643Y-118274335D01*
X103046537Y-118445491D01*
X103046537Y-118445492D01*
X103148835Y-118598590D01*
X103149466Y-118599534D01*
X103280466Y-118730534D01*
X103434506Y-118833461D01*
X103434507Y-118833461D01*
X103434508Y-118833462D01*
X103446237Y-118838320D01*
X103605666Y-118904357D01*
X103787369Y-118940500D01*
X103787370Y-118940500D01*
X103972630Y-118940500D01*
X103972631Y-118940500D01*
X104154334Y-118904357D01*
X104325494Y-118833461D01*
X104479534Y-118730534D01*
X104610534Y-118599534D01*
X104713461Y-118445494D01*
X104784357Y-118274334D01*
X104820500Y-118092631D01*
X104820500Y-117907369D01*
X104784357Y-117725666D01*
X104724759Y-117581783D01*
X104719959Y-117520790D01*
X104746218Y-117473899D01*
X105461322Y-116758796D01*
X105515839Y-116731019D01*
X105531326Y-116729800D01*
X108839105Y-116729800D01*
X108897296Y-116748707D01*
X108933260Y-116798207D01*
X108934731Y-116854422D01*
X108909500Y-116948590D01*
X108909500Y-117051410D01*
X108936112Y-117150728D01*
X108987522Y-117239773D01*
X108987524Y-117239775D01*
X108987527Y-117239780D01*
X108989043Y-117241756D01*
X108989638Y-117243436D01*
X108990767Y-117245392D01*
X108990404Y-117245601D01*
X109009466Y-117299432D01*
X109009500Y-117302021D01*
X109009500Y-118838663D01*
X108990593Y-118896854D01*
X108980504Y-118908667D01*
X107708667Y-120180504D01*
X107654150Y-120208281D01*
X107638663Y-120209500D01*
X104919499Y-120209500D01*
X104861308Y-120190593D01*
X104825344Y-120141093D01*
X104820499Y-120110500D01*
X104820499Y-119686158D01*
X104812349Y-119645180D01*
X104812349Y-119645179D01*
X104781295Y-119598705D01*
X104734821Y-119567651D01*
X104734818Y-119567650D01*
X104693842Y-119559500D01*
X103066158Y-119559500D01*
X103025180Y-119567650D01*
X102978706Y-119598704D01*
X102978704Y-119598706D01*
X102947650Y-119645180D01*
X102947650Y-119645181D01*
X102939500Y-119686154D01*
X102939500Y-121313841D01*
X102947650Y-121354819D01*
X102947650Y-121354820D01*
X102947651Y-121354821D01*
X102978705Y-121401295D01*
X103025179Y-121432349D01*
X103066159Y-121440500D01*
X104693840Y-121440499D01*
X104693841Y-121440499D01*
X104707500Y-121437782D01*
X104734821Y-121432349D01*
X104781295Y-121401295D01*
X104812349Y-121354821D01*
X104820500Y-121313841D01*
X104820500Y-120889500D01*
X104839407Y-120831309D01*
X104888907Y-120795345D01*
X104919500Y-120790500D01*
X107838243Y-120790500D01*
X107838245Y-120790500D01*
X107912129Y-120770703D01*
X107912131Y-120770701D01*
X107912133Y-120770701D01*
X107978366Y-120732461D01*
X107978366Y-120732460D01*
X107978371Y-120732458D01*
X109229999Y-119480829D01*
X109284512Y-119453055D01*
X109344944Y-119462626D01*
X109370003Y-119480832D01*
X110456717Y-120567546D01*
X110484494Y-120622063D01*
X110474923Y-120682495D01*
X110456717Y-120707554D01*
X109400629Y-121763642D01*
X109400628Y-121763641D01*
X109346542Y-121817728D01*
X109346538Y-121817733D01*
X109308298Y-121883966D01*
X109308297Y-121883971D01*
X109288500Y-121957855D01*
X109288500Y-122735355D01*
X109288500Y-122811845D01*
X109296178Y-122840499D01*
X109308298Y-122885733D01*
X109346538Y-122951966D01*
X109346540Y-122951968D01*
X109346542Y-122951971D01*
X111680505Y-125285934D01*
X111708281Y-125340449D01*
X111709500Y-125355936D01*
X111709500Y-126118242D01*
X111690593Y-126176433D01*
X111641093Y-126212397D01*
X111579907Y-126212397D01*
X111540498Y-126188247D01*
X111489773Y-126137522D01*
X111400728Y-126086112D01*
X111301410Y-126059500D01*
X111198590Y-126059500D01*
X111099272Y-126086112D01*
X111010227Y-126137522D01*
X110937522Y-126210227D01*
X110886112Y-126299272D01*
X110859500Y-126398590D01*
X110859500Y-126501410D01*
X110886112Y-126600728D01*
X110937522Y-126689773D01*
X110980505Y-126732756D01*
X111008281Y-126787271D01*
X111009500Y-126802758D01*
X111009500Y-129979242D01*
X111004860Y-130005923D01*
X111009500Y-130026623D01*
X111009500Y-130047838D01*
X111019863Y-130072858D01*
X111025787Y-130099283D01*
X111037995Y-130116631D01*
X111046114Y-130136232D01*
X111065264Y-130155382D01*
X111080849Y-130177529D01*
X111098767Y-130188885D01*
X111113117Y-130203235D01*
X111113120Y-130203239D01*
X111113767Y-130203885D01*
X111113768Y-130203886D01*
X111130889Y-130210977D01*
X111146001Y-130218822D01*
X111161659Y-130228746D01*
X111161660Y-130228746D01*
X111161662Y-130228747D01*
X111171768Y-130230504D01*
X111192691Y-130236577D01*
X111202161Y-130240500D01*
X111202162Y-130240500D01*
X111220697Y-130240500D01*
X111237660Y-130241964D01*
X116609806Y-131176250D01*
X116663896Y-131204848D01*
X116678578Y-131224283D01*
X116687520Y-131239770D01*
X116687522Y-131239773D01*
X116760227Y-131312478D01*
X116849272Y-131363888D01*
X116948590Y-131390500D01*
X116948592Y-131390500D01*
X117051408Y-131390500D01*
X117051410Y-131390500D01*
X117150728Y-131363888D01*
X117239773Y-131312478D01*
X117269583Y-131282668D01*
X117282756Y-131269496D01*
X117337273Y-131241719D01*
X117352759Y-131240500D01*
X119854339Y-131240500D01*
X119942733Y-131203886D01*
X128744496Y-122402121D01*
X128799013Y-122374345D01*
X128859445Y-122383916D01*
X128902710Y-122427181D01*
X128913500Y-122472126D01*
X128913500Y-127896538D01*
X128950112Y-127984930D01*
X128950113Y-127984931D01*
X128950114Y-127984933D01*
X130956567Y-129991386D01*
X131044961Y-130028000D01*
X131044962Y-130028000D01*
X132428341Y-130028000D01*
X132486532Y-130046907D01*
X132498344Y-130056996D01*
X132527221Y-130085872D01*
X132541327Y-130099978D01*
X132630372Y-130151388D01*
X132729690Y-130178000D01*
X132729692Y-130178000D01*
X132832508Y-130178000D01*
X132832510Y-130178000D01*
X132931828Y-130151388D01*
X133020873Y-130099978D01*
X133093578Y-130027273D01*
X133144988Y-129938228D01*
X133171600Y-129838910D01*
X133171600Y-129736090D01*
X133144988Y-129636772D01*
X133093578Y-129547727D01*
X133020873Y-129475022D01*
X132931828Y-129423612D01*
X132832510Y-129397000D01*
X132729690Y-129397000D01*
X132630372Y-129423612D01*
X132541324Y-129475024D01*
X132498344Y-129518004D01*
X132443827Y-129545781D01*
X132428341Y-129547000D01*
X131233427Y-129547000D01*
X131175236Y-129528093D01*
X131163423Y-129518004D01*
X130784523Y-129139104D01*
X130756746Y-129084587D01*
X130766317Y-129024155D01*
X130809582Y-128980890D01*
X130854527Y-128970100D01*
X132439441Y-128970100D01*
X132497632Y-128989007D01*
X132509444Y-128999096D01*
X132534504Y-129024155D01*
X132552427Y-129042078D01*
X132641472Y-129093488D01*
X132740790Y-129120100D01*
X132740792Y-129120100D01*
X132843608Y-129120100D01*
X132843610Y-129120100D01*
X132942928Y-129093488D01*
X133031973Y-129042078D01*
X133104678Y-128969373D01*
X133156088Y-128880328D01*
X133182700Y-128781010D01*
X133182700Y-128678190D01*
X133156088Y-128578872D01*
X133104678Y-128489827D01*
X133031973Y-128417122D01*
X132942928Y-128365712D01*
X132843610Y-128339100D01*
X132740790Y-128339100D01*
X132641472Y-128365712D01*
X132552424Y-128417124D01*
X132509444Y-128460104D01*
X132454927Y-128487881D01*
X132439441Y-128489100D01*
X130658726Y-128489100D01*
X130600535Y-128470193D01*
X130588722Y-128460104D01*
X129795196Y-127666577D01*
X129767419Y-127612060D01*
X129766200Y-127596573D01*
X129766200Y-122590625D01*
X129785107Y-122532434D01*
X129795190Y-122520627D01*
X132796474Y-119519342D01*
X132850989Y-119491567D01*
X132892099Y-119493721D01*
X132897570Y-119495187D01*
X132897572Y-119495188D01*
X132996890Y-119521800D01*
X132996892Y-119521800D01*
X133099708Y-119521800D01*
X133099710Y-119521800D01*
X133199028Y-119495188D01*
X133288073Y-119443778D01*
X133360778Y-119371073D01*
X133412188Y-119282028D01*
X133438800Y-119182710D01*
X133438800Y-119079890D01*
X133412188Y-118980572D01*
X133360778Y-118891527D01*
X133360775Y-118891524D01*
X133357533Y-118885908D01*
X133360095Y-118884428D01*
X133343732Y-118838320D01*
X133361069Y-118779642D01*
X133372688Y-118765662D01*
X133409478Y-118728873D01*
X133460888Y-118639828D01*
X133487500Y-118540510D01*
X133487500Y-118437690D01*
X133464760Y-118352822D01*
X133467963Y-118291721D01*
X133506468Y-118244171D01*
X133560387Y-118228200D01*
X137100873Y-118228200D01*
X137159064Y-118247107D01*
X137170877Y-118257196D01*
X138347804Y-119434123D01*
X138375581Y-119488640D01*
X138376800Y-119504127D01*
X138376800Y-119564910D01*
X138403412Y-119664228D01*
X138454822Y-119753273D01*
X138527527Y-119825978D01*
X138616572Y-119877388D01*
X138715890Y-119904000D01*
X138715892Y-119904000D01*
X138818708Y-119904000D01*
X138818710Y-119904000D01*
X138918028Y-119877388D01*
X139007073Y-119825978D01*
X139079778Y-119753273D01*
X139131188Y-119664228D01*
X139157800Y-119564910D01*
X139157800Y-119462090D01*
X139131188Y-119362772D01*
X139079778Y-119273727D01*
X139007073Y-119201022D01*
X138918028Y-119149612D01*
X138818710Y-119123000D01*
X138818708Y-119123000D01*
X138757927Y-119123000D01*
X138699736Y-119104093D01*
X138687923Y-119094004D01*
X138068715Y-118474796D01*
X137444720Y-117850801D01*
X137416945Y-117796287D01*
X137426516Y-117735855D01*
X137469781Y-117692590D01*
X137514726Y-117681800D01*
X139614114Y-117681800D01*
X139672305Y-117700707D01*
X139708269Y-117750207D01*
X139709740Y-117806422D01*
X139689600Y-117881590D01*
X139689600Y-117984410D01*
X139716212Y-118083728D01*
X139767622Y-118172773D01*
X139840327Y-118245478D01*
X139929372Y-118296888D01*
X140028690Y-118323500D01*
X140028692Y-118323500D01*
X140131508Y-118323500D01*
X140131510Y-118323500D01*
X140230828Y-118296888D01*
X140319873Y-118245478D01*
X140346124Y-118219227D01*
X140362856Y-118202496D01*
X140417373Y-118174719D01*
X140432859Y-118173500D01*
X140477573Y-118173500D01*
X140535764Y-118192407D01*
X140547577Y-118202496D01*
X143369188Y-121024107D01*
X146110933Y-123765851D01*
X146138710Y-123820368D01*
X146129139Y-123880800D01*
X146085874Y-123924065D01*
X146066553Y-123931481D01*
X146049275Y-123936110D01*
X145960227Y-123987522D01*
X145887521Y-124060228D01*
X145885736Y-124063321D01*
X145883832Y-124065035D01*
X145883573Y-124065373D01*
X145883510Y-124065324D01*
X145840266Y-124104261D01*
X145779416Y-124110656D01*
X145726428Y-124080063D01*
X145714264Y-124063321D01*
X145712478Y-124060227D01*
X145639773Y-123987522D01*
X145550728Y-123936112D01*
X145451410Y-123909500D01*
X145348590Y-123909500D01*
X145258733Y-123933577D01*
X145249272Y-123936112D01*
X145160227Y-123987522D01*
X145087521Y-124060228D01*
X145085736Y-124063321D01*
X145083832Y-124065035D01*
X145083573Y-124065373D01*
X145083510Y-124065324D01*
X145040266Y-124104261D01*
X144979416Y-124110656D01*
X144926428Y-124080063D01*
X144914264Y-124063321D01*
X144912478Y-124060227D01*
X144839773Y-123987522D01*
X144750728Y-123936112D01*
X144651410Y-123909500D01*
X144548590Y-123909500D01*
X144449272Y-123936112D01*
X144360227Y-123987522D01*
X144287522Y-124060227D01*
X144236112Y-124149272D01*
X144209500Y-124248590D01*
X144209500Y-124351410D01*
X144236112Y-124450728D01*
X144287522Y-124539773D01*
X144360227Y-124612478D01*
X144449272Y-124663888D01*
X144548590Y-124690500D01*
X144548592Y-124690500D01*
X144651408Y-124690500D01*
X144651410Y-124690500D01*
X144750728Y-124663888D01*
X144839773Y-124612478D01*
X144912478Y-124539773D01*
X144914263Y-124536680D01*
X144916165Y-124534968D01*
X144916427Y-124534627D01*
X144916490Y-124534675D01*
X144959730Y-124495740D01*
X145020579Y-124489342D01*
X145073569Y-124519932D01*
X145085735Y-124536678D01*
X145087522Y-124539773D01*
X145160227Y-124612478D01*
X145249272Y-124663888D01*
X145348590Y-124690500D01*
X145348592Y-124690500D01*
X145451408Y-124690500D01*
X145451410Y-124690500D01*
X145550728Y-124663888D01*
X145639773Y-124612478D01*
X145712478Y-124539773D01*
X145714263Y-124536680D01*
X145716165Y-124534968D01*
X145716427Y-124534627D01*
X145716490Y-124534675D01*
X145759730Y-124495740D01*
X145820579Y-124489342D01*
X145873569Y-124519932D01*
X145885735Y-124536678D01*
X145887522Y-124539773D01*
X145960227Y-124612478D01*
X146049272Y-124663888D01*
X146148590Y-124690500D01*
X146148592Y-124690500D01*
X146251408Y-124690500D01*
X146251410Y-124690500D01*
X146350728Y-124663888D01*
X146439773Y-124612478D01*
X146512478Y-124539773D01*
X146563888Y-124450728D01*
X146568518Y-124433445D01*
X146601838Y-124382135D01*
X146658959Y-124360206D01*
X146718060Y-124376040D01*
X146734148Y-124389066D01*
X154179814Y-131834732D01*
X154179813Y-131834732D01*
X154247468Y-131902386D01*
X154335862Y-131939000D01*
X155198739Y-131939000D01*
X155287133Y-131902386D01*
X160427323Y-126762196D01*
X160481840Y-126734419D01*
X160497327Y-126733200D01*
X160558108Y-126733200D01*
X160558110Y-126733200D01*
X160657428Y-126706588D01*
X160746473Y-126655178D01*
X160819178Y-126582473D01*
X160870588Y-126493428D01*
X160897200Y-126394110D01*
X160897200Y-126291290D01*
X160870588Y-126191972D01*
X160819178Y-126102927D01*
X160746473Y-126030222D01*
X160657428Y-125978812D01*
X160558110Y-125952200D01*
X160455290Y-125952200D01*
X160355972Y-125978812D01*
X160266927Y-126030222D01*
X160194222Y-126102927D01*
X160142812Y-126191972D01*
X160116200Y-126291291D01*
X160116200Y-126352073D01*
X160097293Y-126410264D01*
X160087204Y-126422077D01*
X155080277Y-131429004D01*
X155025760Y-131456781D01*
X155010273Y-131458000D01*
X154524326Y-131458000D01*
X154466135Y-131439093D01*
X154454322Y-131429004D01*
X147622172Y-124596854D01*
X144256308Y-121230990D01*
X155760300Y-121230990D01*
X155760300Y-121333810D01*
X155786912Y-121433128D01*
X155838322Y-121522173D01*
X155911027Y-121594878D01*
X156000072Y-121646288D01*
X156099390Y-121672900D01*
X156099392Y-121672900D01*
X156202208Y-121672900D01*
X156202210Y-121672900D01*
X156301528Y-121646288D01*
X156390573Y-121594878D01*
X156463278Y-121522173D01*
X156514688Y-121433128D01*
X156541300Y-121333810D01*
X156541300Y-121273027D01*
X156560207Y-121214836D01*
X156570296Y-121203023D01*
X158474729Y-119298590D01*
X159159500Y-119298590D01*
X159159500Y-119401410D01*
X159186112Y-119500728D01*
X159237522Y-119589773D01*
X159310227Y-119662478D01*
X159399272Y-119713888D01*
X159498590Y-119740500D01*
X159498592Y-119740500D01*
X159601411Y-119740500D01*
X159601411Y-119740499D01*
X159625437Y-119734062D01*
X159686538Y-119737263D01*
X159700663Y-119744010D01*
X162085104Y-121124476D01*
X162125989Y-121169993D01*
X162134500Y-121210152D01*
X162134500Y-129903200D01*
X162121456Y-129952318D01*
X161532178Y-130983554D01*
X161486891Y-131024697D01*
X161471848Y-131030062D01*
X161449274Y-131036111D01*
X161449272Y-131036111D01*
X161449272Y-131036112D01*
X161360227Y-131087522D01*
X161287522Y-131160227D01*
X161236112Y-131249272D01*
X161209500Y-131348590D01*
X161209500Y-131451410D01*
X161236112Y-131550728D01*
X161287522Y-131639773D01*
X161360227Y-131712478D01*
X161449272Y-131763888D01*
X161548590Y-131790500D01*
X161548592Y-131790500D01*
X161651408Y-131790500D01*
X161651410Y-131790500D01*
X161750728Y-131763888D01*
X161839773Y-131712478D01*
X161912478Y-131639773D01*
X161963888Y-131550728D01*
X161990500Y-131451410D01*
X161990500Y-131348590D01*
X161983383Y-131322029D01*
X161986584Y-131260928D01*
X161993049Y-131247294D01*
X162612878Y-130162594D01*
X162625080Y-130150393D01*
X162638857Y-130117131D01*
X162656720Y-130085872D01*
X162657733Y-130077899D01*
X162658834Y-130075843D01*
X162663970Y-130056503D01*
X162665500Y-130052811D01*
X162665500Y-130023075D01*
X162666290Y-130010591D01*
X162668731Y-129991386D01*
X162670040Y-129981093D01*
X162668988Y-129977234D01*
X162665500Y-129951188D01*
X162665500Y-128960375D01*
X171885000Y-128960375D01*
X171885000Y-129849999D01*
X171885001Y-129850000D01*
X172512201Y-129850000D01*
X172490000Y-129932857D01*
X172490000Y-130067143D01*
X172512201Y-130150000D01*
X171885001Y-130150000D01*
X171885000Y-130150001D01*
X171885000Y-131039624D01*
X171899506Y-131112546D01*
X171899507Y-131112548D01*
X171954758Y-131195237D01*
X171954762Y-131195241D01*
X172037451Y-131250492D01*
X172037453Y-131250493D01*
X172110375Y-131264999D01*
X172110377Y-131265000D01*
X172849999Y-131265000D01*
X172850000Y-131264999D01*
X172850000Y-130487798D01*
X172932857Y-130510000D01*
X173067143Y-130510000D01*
X173150000Y-130487798D01*
X173150000Y-131264999D01*
X173150001Y-131265000D01*
X173889623Y-131265000D01*
X173889624Y-131264999D01*
X173962546Y-131250493D01*
X173962548Y-131250492D01*
X174045237Y-131195241D01*
X174045241Y-131195237D01*
X174100492Y-131112548D01*
X174100493Y-131112546D01*
X174114999Y-131039624D01*
X174115000Y-131039622D01*
X174115000Y-130150001D01*
X174114999Y-130150000D01*
X173487799Y-130150000D01*
X173510000Y-130067143D01*
X173510000Y-129932857D01*
X173487799Y-129850000D01*
X174114999Y-129850000D01*
X174115000Y-129849999D01*
X174115000Y-128960377D01*
X174114999Y-128960375D01*
X174100493Y-128887453D01*
X174100492Y-128887451D01*
X174045241Y-128804762D01*
X174045237Y-128804758D01*
X173962548Y-128749507D01*
X173962546Y-128749506D01*
X173889624Y-128735000D01*
X173150001Y-128735000D01*
X173150000Y-128735001D01*
X173150000Y-129512201D01*
X173067143Y-129490000D01*
X172932857Y-129490000D01*
X172850000Y-129512201D01*
X172850000Y-128735001D01*
X172849999Y-128735000D01*
X172110375Y-128735000D01*
X172037453Y-128749506D01*
X172037451Y-128749507D01*
X171954762Y-128804758D01*
X171954758Y-128804762D01*
X171899507Y-128887451D01*
X171899506Y-128887453D01*
X171885000Y-128960375D01*
X162665500Y-128960375D01*
X162665500Y-121024107D01*
X162666363Y-121011065D01*
X162668669Y-120993716D01*
X162670143Y-120982619D01*
X162670142Y-120982615D01*
X162668842Y-120977737D01*
X162665500Y-120952232D01*
X162665500Y-120947189D01*
X162654516Y-120920671D01*
X162650325Y-120908303D01*
X162642928Y-120880562D01*
X162639858Y-120876552D01*
X162627008Y-120854263D01*
X162625080Y-120849607D01*
X162624063Y-120848590D01*
X162604783Y-120829309D01*
X162596174Y-120819481D01*
X162578730Y-120796691D01*
X162578727Y-120796688D01*
X162574361Y-120794161D01*
X162553966Y-120778492D01*
X162550394Y-120774921D01*
X162550389Y-120774917D01*
X162523874Y-120763934D01*
X162512158Y-120758148D01*
X159966637Y-119284425D01*
X159925751Y-119238907D01*
X159920613Y-119224370D01*
X159913889Y-119199275D01*
X159913888Y-119199274D01*
X159913888Y-119199272D01*
X159862478Y-119110227D01*
X159789773Y-119037522D01*
X159700728Y-118986112D01*
X159601410Y-118959500D01*
X159498590Y-118959500D01*
X159399272Y-118986112D01*
X159310227Y-119037522D01*
X159237522Y-119110227D01*
X159186112Y-119199272D01*
X159159500Y-119298590D01*
X158474729Y-119298590D01*
X159253823Y-118519496D01*
X159308340Y-118491719D01*
X159323827Y-118490500D01*
X159397241Y-118490500D01*
X159455432Y-118509407D01*
X159467244Y-118519496D01*
X159489476Y-118541727D01*
X159510227Y-118562478D01*
X159599272Y-118613888D01*
X159698590Y-118640500D01*
X159698592Y-118640500D01*
X159801408Y-118640500D01*
X159801410Y-118640500D01*
X159900728Y-118613888D01*
X159989773Y-118562478D01*
X160062478Y-118489773D01*
X160113888Y-118400728D01*
X160140500Y-118301410D01*
X160140500Y-118198590D01*
X160113888Y-118099272D01*
X160062478Y-118010227D01*
X159989773Y-117937522D01*
X159900728Y-117886112D01*
X159801410Y-117859500D01*
X159698590Y-117859500D01*
X159599272Y-117886112D01*
X159545993Y-117916873D01*
X159510224Y-117937524D01*
X159467244Y-117980504D01*
X159412727Y-118008281D01*
X159397241Y-118009500D01*
X159135361Y-118009500D01*
X159046969Y-118046112D01*
X156230177Y-120862904D01*
X156175660Y-120890681D01*
X156160173Y-120891900D01*
X156099390Y-120891900D01*
X156000072Y-120918512D01*
X155911027Y-120969922D01*
X155838322Y-121042627D01*
X155786912Y-121131672D01*
X155760300Y-121230990D01*
X144256308Y-121230990D01*
X140876120Y-117850801D01*
X140848345Y-117796287D01*
X140857916Y-117735855D01*
X140901181Y-117692590D01*
X140946126Y-117681800D01*
X141836219Y-117681800D01*
X141894410Y-117700707D01*
X141930374Y-117750207D01*
X141931839Y-117755154D01*
X141951312Y-117827828D01*
X142002722Y-117916873D01*
X142075427Y-117989578D01*
X142164472Y-118040988D01*
X142263790Y-118067600D01*
X142324573Y-118067600D01*
X142382764Y-118086507D01*
X142394577Y-118096596D01*
X144041067Y-119743086D01*
X144041068Y-119743086D01*
X144041069Y-119743087D01*
X144049763Y-119746688D01*
X144129461Y-119779700D01*
X153951039Y-119779700D01*
X154039433Y-119743086D01*
X156833929Y-116948590D01*
X159209500Y-116948590D01*
X159209500Y-117051410D01*
X159236112Y-117150728D01*
X159287522Y-117239773D01*
X159360227Y-117312478D01*
X159449272Y-117363888D01*
X159548590Y-117390500D01*
X159548592Y-117390500D01*
X159651408Y-117390500D01*
X159651410Y-117390500D01*
X159750728Y-117363888D01*
X159839773Y-117312478D01*
X159861265Y-117290985D01*
X159882756Y-117269496D01*
X159937273Y-117241719D01*
X159952759Y-117240500D01*
X160510500Y-117240500D01*
X160568691Y-117259407D01*
X160604655Y-117308907D01*
X160609500Y-117339500D01*
X160609500Y-118697241D01*
X160590593Y-118755432D01*
X160580504Y-118767244D01*
X160537524Y-118810224D01*
X160537522Y-118810226D01*
X160537522Y-118810227D01*
X160486112Y-118899272D01*
X160459500Y-118998590D01*
X160459500Y-119101410D01*
X160486112Y-119200728D01*
X160537522Y-119289773D01*
X160610227Y-119362478D01*
X160699272Y-119413888D01*
X160798590Y-119440500D01*
X160798592Y-119440500D01*
X160901408Y-119440500D01*
X160901410Y-119440500D01*
X161000728Y-119413888D01*
X161089773Y-119362478D01*
X161162478Y-119289773D01*
X161213888Y-119200728D01*
X161240500Y-119101410D01*
X161240500Y-118998590D01*
X161213888Y-118899272D01*
X161162478Y-118810227D01*
X161148469Y-118796218D01*
X161119496Y-118767244D01*
X161091719Y-118712727D01*
X161090500Y-118697241D01*
X161090500Y-116952162D01*
X161053887Y-116863770D01*
X161053886Y-116863769D01*
X161053886Y-116863768D01*
X160986232Y-116796114D01*
X160986230Y-116796113D01*
X160986229Y-116796112D01*
X160897838Y-116759500D01*
X159952759Y-116759500D01*
X159894568Y-116740593D01*
X159882756Y-116730504D01*
X159839775Y-116687524D01*
X159839773Y-116687522D01*
X159750728Y-116636112D01*
X159651410Y-116609500D01*
X159548590Y-116609500D01*
X159449272Y-116636112D01*
X159360227Y-116687522D01*
X159287522Y-116760227D01*
X159236112Y-116849272D01*
X159209500Y-116948590D01*
X156833929Y-116948590D01*
X158248323Y-115534196D01*
X158302840Y-115506419D01*
X158318327Y-115505200D01*
X162033941Y-115505200D01*
X162092132Y-115524107D01*
X162103944Y-115534196D01*
X162136965Y-115567216D01*
X162146927Y-115577178D01*
X162235972Y-115628588D01*
X162335290Y-115655200D01*
X162335292Y-115655200D01*
X162438108Y-115655200D01*
X162438110Y-115655200D01*
X162537428Y-115628588D01*
X162626473Y-115577178D01*
X162699178Y-115504473D01*
X162750588Y-115415428D01*
X162777200Y-115316110D01*
X162777200Y-115213290D01*
X162750588Y-115113972D01*
X162699178Y-115024927D01*
X162626473Y-114952222D01*
X162537428Y-114900812D01*
X162438110Y-114874200D01*
X162335290Y-114874200D01*
X162235972Y-114900812D01*
X162148556Y-114951282D01*
X162146924Y-114952224D01*
X162103944Y-114995204D01*
X162049427Y-115022981D01*
X162033941Y-115024200D01*
X158514127Y-115024200D01*
X158455936Y-115005293D01*
X158419972Y-114955793D01*
X158419972Y-114894607D01*
X158444123Y-114855196D01*
X158921523Y-114377796D01*
X158976040Y-114350019D01*
X158991527Y-114348800D01*
X171639539Y-114348800D01*
X171727933Y-114312186D01*
X172820622Y-113219495D01*
X172875139Y-113191719D01*
X172890626Y-113190500D01*
X172951408Y-113190500D01*
X172951410Y-113190500D01*
X173050728Y-113163888D01*
X173139773Y-113112478D01*
X173212478Y-113039773D01*
X173263888Y-112950728D01*
X173290500Y-112851410D01*
X173290500Y-112748590D01*
X173263888Y-112649272D01*
X173212478Y-112560227D01*
X173139773Y-112487522D01*
X173050728Y-112436112D01*
X172951410Y-112409500D01*
X172848590Y-112409500D01*
X172749272Y-112436112D01*
X172660227Y-112487522D01*
X172587522Y-112560227D01*
X172536112Y-112649272D01*
X172512844Y-112736112D01*
X172509500Y-112748591D01*
X172509500Y-112809373D01*
X172490593Y-112867564D01*
X172480504Y-112879377D01*
X171521077Y-113838804D01*
X171466560Y-113866581D01*
X171451073Y-113867800D01*
X159032125Y-113867800D01*
X158973934Y-113848893D01*
X158937970Y-113799393D01*
X158937970Y-113738207D01*
X158962121Y-113698796D01*
X159310190Y-113350728D01*
X159801022Y-112859896D01*
X159855539Y-112832119D01*
X159871026Y-112830900D01*
X168470839Y-112830900D01*
X168559233Y-112794286D01*
X173067723Y-108285796D01*
X173122240Y-108258019D01*
X173137727Y-108256800D01*
X173198508Y-108256800D01*
X173198510Y-108256800D01*
X173297828Y-108230188D01*
X173386873Y-108178778D01*
X173459578Y-108106073D01*
X173510988Y-108017028D01*
X173537600Y-107917710D01*
X173537600Y-107814890D01*
X173533050Y-107797909D01*
X173536253Y-107736810D01*
X173574758Y-107689260D01*
X173603050Y-107676663D01*
X173650728Y-107663888D01*
X173739773Y-107612478D01*
X173812478Y-107539773D01*
X173863888Y-107450728D01*
X173863889Y-107450724D01*
X173866038Y-107447002D01*
X173911508Y-107406061D01*
X173972358Y-107399665D01*
X174021779Y-107426498D01*
X175020304Y-108425023D01*
X175048081Y-108479540D01*
X175049300Y-108495027D01*
X175049300Y-127257638D01*
X175085912Y-127346030D01*
X175085913Y-127346031D01*
X175085914Y-127346033D01*
X176157004Y-128417122D01*
X177120096Y-129380214D01*
X177147873Y-129434731D01*
X177141557Y-129488102D01*
X177113140Y-129556708D01*
X177074796Y-129749476D01*
X177044899Y-129802860D01*
X176989334Y-129828476D01*
X176929324Y-129816539D01*
X176907698Y-129800169D01*
X176875071Y-129767542D01*
X176875068Y-129767540D01*
X176875066Y-129767538D01*
X176808832Y-129729298D01*
X176808834Y-129729298D01*
X176780165Y-129721616D01*
X176734945Y-129709500D01*
X176734943Y-129709500D01*
X176618499Y-129709500D01*
X176560308Y-129690593D01*
X176524344Y-129641093D01*
X176521401Y-129629814D01*
X176506859Y-129556707D01*
X176431062Y-129373717D01*
X176321023Y-129209031D01*
X176180969Y-129068977D01*
X176150957Y-129048924D01*
X176016280Y-128958936D01*
X175833293Y-128883141D01*
X175639035Y-128844500D01*
X175639033Y-128844500D01*
X175440967Y-128844500D01*
X175440964Y-128844500D01*
X175246707Y-128883141D01*
X175246705Y-128883141D01*
X175063719Y-128958936D01*
X174899034Y-129068974D01*
X174758974Y-129209034D01*
X174648936Y-129373719D01*
X174573141Y-129556705D01*
X174573141Y-129556707D01*
X174534500Y-129750964D01*
X174534500Y-130249035D01*
X174573141Y-130443292D01*
X174573141Y-130443294D01*
X174648936Y-130626280D01*
X174737135Y-130758281D01*
X174758977Y-130790969D01*
X174899031Y-130931023D01*
X175063717Y-131041062D01*
X175246707Y-131116859D01*
X175440967Y-131155500D01*
X175440968Y-131155500D01*
X175639032Y-131155500D01*
X175639033Y-131155500D01*
X175833293Y-131116859D01*
X176016283Y-131041062D01*
X176180969Y-130931023D01*
X176321023Y-130790969D01*
X176382985Y-130698234D01*
X176431033Y-130660356D01*
X176492171Y-130657953D01*
X176535301Y-130683230D01*
X177354942Y-131502871D01*
X177354941Y-131502871D01*
X177409028Y-131556957D01*
X177409033Y-131556961D01*
X177475267Y-131595201D01*
X177475265Y-131595201D01*
X177475269Y-131595202D01*
X177475271Y-131595203D01*
X177549155Y-131615000D01*
X177549157Y-131615000D01*
X181126343Y-131615000D01*
X181126345Y-131615000D01*
X181200229Y-131595203D01*
X181200231Y-131595201D01*
X181200233Y-131595201D01*
X181266466Y-131556961D01*
X181266466Y-131556960D01*
X181266471Y-131556958D01*
X184632458Y-128190971D01*
X184670703Y-128124729D01*
X184690500Y-128050845D01*
X184690500Y-127974355D01*
X184690500Y-125602021D01*
X184709407Y-125543830D01*
X184710957Y-125541756D01*
X184712472Y-125539780D01*
X184712473Y-125539777D01*
X184712478Y-125539773D01*
X184763888Y-125450728D01*
X184790500Y-125351410D01*
X184790500Y-125351402D01*
X184790824Y-125348943D01*
X184791592Y-125347332D01*
X184792179Y-125345142D01*
X184792584Y-125345250D01*
X184817161Y-125293716D01*
X184818937Y-125291892D01*
X185232458Y-124878371D01*
X185270703Y-124812129D01*
X185290500Y-124738245D01*
X185290500Y-124661755D01*
X185290500Y-121502021D01*
X185309407Y-121443830D01*
X185310957Y-121441756D01*
X185312472Y-121439780D01*
X185312473Y-121439777D01*
X185312478Y-121439773D01*
X185363888Y-121350728D01*
X185390500Y-121251410D01*
X185390500Y-121148590D01*
X185363888Y-121049272D01*
X185312478Y-120960227D01*
X185239773Y-120887522D01*
X185150728Y-120836112D01*
X185051410Y-120809500D01*
X184948590Y-120809500D01*
X184849272Y-120836112D01*
X184760227Y-120887522D01*
X184687522Y-120960227D01*
X184636112Y-121049272D01*
X184609500Y-121148590D01*
X184609500Y-121251410D01*
X184636112Y-121350728D01*
X184687522Y-121439773D01*
X184687524Y-121439775D01*
X184687527Y-121439780D01*
X184689043Y-121441756D01*
X184689638Y-121443436D01*
X184690767Y-121445392D01*
X184690404Y-121445601D01*
X184709466Y-121499432D01*
X184709500Y-121502021D01*
X184709500Y-124538663D01*
X184690593Y-124596854D01*
X184680503Y-124608667D01*
X184408144Y-124881025D01*
X184353628Y-124908802D01*
X184351069Y-124909173D01*
X184348597Y-124909498D01*
X184348590Y-124909500D01*
X184249272Y-124936112D01*
X184160227Y-124987522D01*
X184087522Y-125060227D01*
X184036112Y-125149272D01*
X184009500Y-125248590D01*
X184009500Y-125351410D01*
X184036112Y-125450728D01*
X184087522Y-125539773D01*
X184087524Y-125539775D01*
X184087527Y-125539780D01*
X184089043Y-125541756D01*
X184089638Y-125543436D01*
X184090767Y-125545392D01*
X184090404Y-125545601D01*
X184109466Y-125599432D01*
X184109500Y-125602021D01*
X184109500Y-127851262D01*
X184090593Y-127909453D01*
X184080504Y-127921266D01*
X181794504Y-130207266D01*
X181739987Y-130235043D01*
X181679555Y-130225472D01*
X181636290Y-130182207D01*
X181625500Y-130137262D01*
X181625500Y-129750968D01*
X181625499Y-129750964D01*
X181622541Y-129736091D01*
X181586859Y-129556707D01*
X181511062Y-129373717D01*
X181401023Y-129209031D01*
X181260969Y-129068977D01*
X181230957Y-129048924D01*
X181096280Y-128958936D01*
X180913293Y-128883141D01*
X180719035Y-128844500D01*
X180719033Y-128844500D01*
X180520967Y-128844500D01*
X180520964Y-128844500D01*
X180326707Y-128883141D01*
X180326705Y-128883141D01*
X180143719Y-128958936D01*
X179979034Y-129068974D01*
X179838974Y-129209034D01*
X179728936Y-129373719D01*
X179653141Y-129556705D01*
X179653141Y-129556707D01*
X179614500Y-129750964D01*
X179614500Y-130249035D01*
X179653141Y-130443292D01*
X179653141Y-130443294D01*
X179728936Y-130626280D01*
X179817135Y-130758281D01*
X179838977Y-130790969D01*
X179913006Y-130864998D01*
X179940782Y-130919513D01*
X179931211Y-130979945D01*
X179887946Y-131023210D01*
X179843001Y-131034000D01*
X178856999Y-131034000D01*
X178798808Y-131015093D01*
X178762844Y-130965593D01*
X178762844Y-130904407D01*
X178786993Y-130864998D01*
X178861023Y-130790969D01*
X178971062Y-130626283D01*
X179046859Y-130443293D01*
X179085500Y-130249033D01*
X179085500Y-129750967D01*
X179046859Y-129556707D01*
X178971062Y-129373717D01*
X178861023Y-129209031D01*
X178720969Y-129068977D01*
X178690957Y-129048924D01*
X178556280Y-128958936D01*
X178373293Y-128883141D01*
X178179035Y-128844500D01*
X178179033Y-128844500D01*
X177980967Y-128844500D01*
X177980964Y-128844500D01*
X177786707Y-128883141D01*
X177786705Y-128883141D01*
X177603720Y-128958936D01*
X177536595Y-129003786D01*
X177477706Y-129020393D01*
X177420303Y-128999214D01*
X177411591Y-128991473D01*
X176257251Y-127837132D01*
X176192110Y-127771991D01*
X177389500Y-127771991D01*
X177389500Y-127908008D01*
X177416036Y-128041412D01*
X177468084Y-128167069D01*
X177468090Y-128167080D01*
X177484054Y-128190971D01*
X177543654Y-128280168D01*
X177639832Y-128376346D01*
X177700858Y-128417122D01*
X177752919Y-128451909D01*
X177752930Y-128451915D01*
X177797058Y-128470193D01*
X177878589Y-128503964D01*
X178011992Y-128530500D01*
X178011993Y-128530500D01*
X178148007Y-128530500D01*
X178148008Y-128530500D01*
X178281411Y-128503964D01*
X178407074Y-128451913D01*
X178520168Y-128376346D01*
X178616346Y-128280168D01*
X178691913Y-128167074D01*
X178743964Y-128041411D01*
X178770500Y-127908008D01*
X178770500Y-127771992D01*
X178743964Y-127638589D01*
X178707571Y-127550727D01*
X178691915Y-127512930D01*
X178691909Y-127512919D01*
X178650808Y-127451408D01*
X178616346Y-127399832D01*
X178520168Y-127303654D01*
X178451302Y-127257639D01*
X178407080Y-127228090D01*
X178407069Y-127228084D01*
X178281412Y-127176036D01*
X178148008Y-127149500D01*
X178011992Y-127149500D01*
X178011991Y-127149500D01*
X177878587Y-127176036D01*
X177752930Y-127228084D01*
X177752919Y-127228090D01*
X177639832Y-127303654D01*
X177639828Y-127303657D01*
X177543657Y-127399828D01*
X177543654Y-127399832D01*
X177468090Y-127512919D01*
X177468084Y-127512930D01*
X177416036Y-127638587D01*
X177389500Y-127771991D01*
X176192110Y-127771991D01*
X175559296Y-127139177D01*
X175531519Y-127084660D01*
X175530300Y-127069173D01*
X175530300Y-121148590D01*
X182609500Y-121148590D01*
X182609500Y-121251410D01*
X182636112Y-121350728D01*
X182687522Y-121439773D01*
X182760227Y-121512478D01*
X182849272Y-121563888D01*
X182948590Y-121590500D01*
X182948592Y-121590500D01*
X183051408Y-121590500D01*
X183051410Y-121590500D01*
X183150728Y-121563888D01*
X183239773Y-121512478D01*
X183312478Y-121439773D01*
X183363888Y-121350728D01*
X183390500Y-121251410D01*
X183390500Y-121148590D01*
X183363888Y-121049272D01*
X183312478Y-120960227D01*
X183239773Y-120887522D01*
X183150728Y-120836112D01*
X183051410Y-120809500D01*
X182948590Y-120809500D01*
X182849272Y-120836112D01*
X182760227Y-120887522D01*
X182687522Y-120960227D01*
X182636112Y-121049272D01*
X182609500Y-121148590D01*
X175530300Y-121148590D01*
X175530300Y-114448590D01*
X175909500Y-114448590D01*
X175909500Y-114551410D01*
X175936112Y-114650728D01*
X175987522Y-114739773D01*
X176060227Y-114812478D01*
X176149272Y-114863888D01*
X176248590Y-114890500D01*
X176248592Y-114890500D01*
X176351408Y-114890500D01*
X176351410Y-114890500D01*
X176450728Y-114863888D01*
X176539773Y-114812478D01*
X176612478Y-114739773D01*
X176614263Y-114736680D01*
X176616165Y-114734968D01*
X176616427Y-114734627D01*
X176616490Y-114734675D01*
X176659730Y-114695740D01*
X176720579Y-114689342D01*
X176773569Y-114719932D01*
X176785735Y-114736678D01*
X176787522Y-114739773D01*
X176860227Y-114812478D01*
X176949272Y-114863888D01*
X177048590Y-114890500D01*
X177048592Y-114890500D01*
X177151408Y-114890500D01*
X177151410Y-114890500D01*
X177250728Y-114863888D01*
X177339773Y-114812478D01*
X177412478Y-114739773D01*
X177463888Y-114650728D01*
X177490500Y-114551410D01*
X177490500Y-114448590D01*
X177463888Y-114349272D01*
X177412478Y-114260227D01*
X177339773Y-114187522D01*
X177250728Y-114136112D01*
X177151410Y-114109500D01*
X177048590Y-114109500D01*
X176959173Y-114133459D01*
X176949272Y-114136112D01*
X176860227Y-114187522D01*
X176787521Y-114260228D01*
X176785736Y-114263321D01*
X176783832Y-114265035D01*
X176783573Y-114265373D01*
X176783510Y-114265324D01*
X176740266Y-114304261D01*
X176679416Y-114310656D01*
X176626428Y-114280063D01*
X176614264Y-114263321D01*
X176612478Y-114260227D01*
X176539773Y-114187522D01*
X176450728Y-114136112D01*
X176351410Y-114109500D01*
X176248590Y-114109500D01*
X176149272Y-114136112D01*
X176060227Y-114187522D01*
X175987522Y-114260227D01*
X175936112Y-114349272D01*
X175909500Y-114448590D01*
X175530300Y-114448590D01*
X175530300Y-110048590D01*
X175909500Y-110048590D01*
X175909500Y-110151410D01*
X175936112Y-110250728D01*
X175987522Y-110339773D01*
X176060227Y-110412478D01*
X176149272Y-110463888D01*
X176248590Y-110490500D01*
X176248592Y-110490500D01*
X176351408Y-110490500D01*
X176351410Y-110490500D01*
X176450728Y-110463888D01*
X176539773Y-110412478D01*
X176612478Y-110339773D01*
X176614263Y-110336680D01*
X176616165Y-110334968D01*
X176616427Y-110334627D01*
X176616490Y-110334675D01*
X176659730Y-110295740D01*
X176720579Y-110289342D01*
X176773569Y-110319932D01*
X176785735Y-110336678D01*
X176787522Y-110339773D01*
X176860227Y-110412478D01*
X176949272Y-110463888D01*
X177048590Y-110490500D01*
X177048592Y-110490500D01*
X177151408Y-110490500D01*
X177151410Y-110490500D01*
X177250728Y-110463888D01*
X177339773Y-110412478D01*
X177412478Y-110339773D01*
X177463888Y-110250728D01*
X177490500Y-110151410D01*
X177490500Y-110048590D01*
X177463888Y-109949272D01*
X177412478Y-109860227D01*
X177339773Y-109787522D01*
X177250728Y-109736112D01*
X177151410Y-109709500D01*
X177048590Y-109709500D01*
X176949272Y-109736112D01*
X176860227Y-109787522D01*
X176787522Y-109860227D01*
X176786223Y-109862478D01*
X176785736Y-109863321D01*
X176783832Y-109865035D01*
X176783573Y-109865373D01*
X176783510Y-109865324D01*
X176740266Y-109904261D01*
X176679416Y-109910656D01*
X176626428Y-109880063D01*
X176614264Y-109863321D01*
X176612478Y-109860227D01*
X176539773Y-109787522D01*
X176450728Y-109736112D01*
X176351410Y-109709500D01*
X176248590Y-109709500D01*
X176149272Y-109736112D01*
X176060227Y-109787522D01*
X175987522Y-109860227D01*
X175936112Y-109949272D01*
X175909500Y-110048590D01*
X175530300Y-110048590D01*
X175530300Y-108306562D01*
X175528883Y-108303139D01*
X175493686Y-108218167D01*
X173860633Y-106585114D01*
X173860631Y-106585113D01*
X173860630Y-106585112D01*
X173772239Y-106548500D01*
X173772238Y-106548500D01*
X172312839Y-106548500D01*
X172217162Y-106548500D01*
X172128770Y-106585112D01*
X169217177Y-109496704D01*
X169162660Y-109524481D01*
X169147173Y-109525700D01*
X168076527Y-109525700D01*
X168018336Y-109506793D01*
X167982372Y-109457293D01*
X167982372Y-109396107D01*
X168006523Y-109356696D01*
X169049285Y-108313933D01*
X169049286Y-108313932D01*
X169085900Y-108225538D01*
X169085900Y-105660727D01*
X169104807Y-105602536D01*
X169114896Y-105590723D01*
X170951323Y-103754296D01*
X171005840Y-103726519D01*
X171021327Y-103725300D01*
X172698173Y-103725300D01*
X172756364Y-103744207D01*
X172768177Y-103754296D01*
X174959804Y-105945922D01*
X174987581Y-106000439D01*
X174988800Y-106015926D01*
X174988800Y-107099838D01*
X175025412Y-107188230D01*
X175025413Y-107188231D01*
X175025414Y-107188233D01*
X178591067Y-110753886D01*
X178679461Y-110790500D01*
X178679462Y-110790500D01*
X179547241Y-110790500D01*
X179605432Y-110809407D01*
X179617244Y-110819496D01*
X179653526Y-110855777D01*
X179660227Y-110862478D01*
X179749272Y-110913888D01*
X179848590Y-110940500D01*
X179848592Y-110940500D01*
X179951408Y-110940500D01*
X179951410Y-110940500D01*
X180050728Y-110913888D01*
X180139773Y-110862478D01*
X180212478Y-110789773D01*
X180263888Y-110700728D01*
X180290500Y-110601410D01*
X180290500Y-110498590D01*
X180268135Y-110415122D01*
X180271338Y-110354021D01*
X180309843Y-110306471D01*
X180363762Y-110290500D01*
X180509374Y-110290500D01*
X180567565Y-110309407D01*
X180579377Y-110319496D01*
X180780503Y-110520621D01*
X180808281Y-110575138D01*
X180809500Y-110590625D01*
X180809500Y-110651410D01*
X180836112Y-110750728D01*
X180887522Y-110839773D01*
X180960227Y-110912478D01*
X181049272Y-110963888D01*
X181049274Y-110963888D01*
X181054892Y-110967132D01*
X181054029Y-110968626D01*
X181094260Y-111002979D01*
X181108551Y-111062472D01*
X181085143Y-111119003D01*
X181079859Y-111124720D01*
X180924077Y-111280503D01*
X180869560Y-111308281D01*
X180854073Y-111309500D01*
X180302759Y-111309500D01*
X180244568Y-111290593D01*
X180232756Y-111280504D01*
X180189775Y-111237524D01*
X180189773Y-111237522D01*
X180100728Y-111186112D01*
X180001410Y-111159500D01*
X179898590Y-111159500D01*
X179799272Y-111186112D01*
X179710227Y-111237522D01*
X179637522Y-111310227D01*
X179586112Y-111399272D01*
X179559500Y-111498590D01*
X179559500Y-111601410D01*
X179586112Y-111700728D01*
X179637522Y-111789773D01*
X179710227Y-111862478D01*
X179799272Y-111913888D01*
X179898590Y-111940500D01*
X179898592Y-111940500D01*
X179968242Y-111940500D01*
X180026433Y-111959407D01*
X180062397Y-112008907D01*
X180062397Y-112070093D01*
X180041123Y-112104808D01*
X180041473Y-112105077D01*
X180038919Y-112108404D01*
X180038247Y-112109501D01*
X180037522Y-112110227D01*
X179986112Y-112199272D01*
X179959500Y-112298590D01*
X179959500Y-112401410D01*
X179986112Y-112500728D01*
X180037522Y-112589773D01*
X180080505Y-112632756D01*
X180108281Y-112687271D01*
X180109500Y-112702758D01*
X180109500Y-112835173D01*
X180090593Y-112893364D01*
X180041093Y-112929328D01*
X179979907Y-112929328D01*
X179961001Y-112920910D01*
X179900729Y-112886112D01*
X179867622Y-112877241D01*
X179801410Y-112859500D01*
X179698590Y-112859500D01*
X179599272Y-112886112D01*
X179524420Y-112929328D01*
X179510224Y-112937524D01*
X179467244Y-112980504D01*
X179412727Y-113008281D01*
X179397241Y-113009500D01*
X179332662Y-113009500D01*
X179244268Y-113046113D01*
X179244266Y-113046114D01*
X179244267Y-113046115D01*
X178054412Y-114235969D01*
X178021622Y-114315135D01*
X178021621Y-114315138D01*
X178017800Y-114324359D01*
X178017800Y-115785442D01*
X178004537Y-115834941D01*
X177967512Y-115899070D01*
X177963779Y-115913003D01*
X177940900Y-115998390D01*
X177940900Y-116101210D01*
X177967512Y-116200528D01*
X178018922Y-116289573D01*
X178091627Y-116362278D01*
X178180672Y-116413688D01*
X178279990Y-116440300D01*
X178279992Y-116440300D01*
X178382809Y-116440300D01*
X178382810Y-116440300D01*
X178482128Y-116413688D01*
X178482130Y-116413686D01*
X178484876Y-116412951D01*
X178545978Y-116416152D01*
X178593528Y-116454657D01*
X178609500Y-116508577D01*
X178609500Y-117497978D01*
X178590593Y-117556169D01*
X178589048Y-117558238D01*
X178587525Y-117560222D01*
X178587522Y-117560226D01*
X178587522Y-117560227D01*
X178536112Y-117649272D01*
X178509500Y-117748590D01*
X178509500Y-117851410D01*
X178536112Y-117950728D01*
X178587522Y-118039773D01*
X178660227Y-118112478D01*
X178749272Y-118163888D01*
X178848590Y-118190500D01*
X178848592Y-118190500D01*
X178951408Y-118190500D01*
X178951410Y-118190500D01*
X179050728Y-118163888D01*
X179139773Y-118112478D01*
X179212478Y-118039773D01*
X179263888Y-117950728D01*
X179290500Y-117851410D01*
X179290500Y-117748590D01*
X179263888Y-117649272D01*
X179212478Y-117560227D01*
X179212475Y-117560224D01*
X179212474Y-117560222D01*
X179210952Y-117558238D01*
X179210354Y-117556551D01*
X179209233Y-117554608D01*
X179209593Y-117554399D01*
X179190534Y-117500560D01*
X179190500Y-117497978D01*
X179190500Y-116870126D01*
X179209407Y-116811935D01*
X179258907Y-116775971D01*
X179320093Y-116775971D01*
X179359504Y-116800122D01*
X181261504Y-118702122D01*
X181289281Y-118756639D01*
X181290500Y-118772126D01*
X181290500Y-118832910D01*
X181317112Y-118932228D01*
X181368522Y-119021273D01*
X181441227Y-119093978D01*
X181530272Y-119145388D01*
X181629590Y-119172000D01*
X181629592Y-119172000D01*
X181732408Y-119172000D01*
X181732410Y-119172000D01*
X181831728Y-119145388D01*
X181920773Y-119093978D01*
X181993478Y-119021273D01*
X182044888Y-118932228D01*
X182071500Y-118832910D01*
X182071500Y-118730090D01*
X182044888Y-118630772D01*
X181993478Y-118541727D01*
X181920773Y-118469022D01*
X181831728Y-118417612D01*
X181732410Y-118391000D01*
X181732408Y-118391000D01*
X181671626Y-118391000D01*
X181613435Y-118372093D01*
X181601622Y-118362004D01*
X179659696Y-116420077D01*
X179631919Y-116365560D01*
X179630700Y-116350073D01*
X179630700Y-114911135D01*
X179649607Y-114852944D01*
X179699107Y-114816980D01*
X179755321Y-114815509D01*
X179848590Y-114840500D01*
X179848591Y-114840500D01*
X179951408Y-114840500D01*
X179951410Y-114840500D01*
X180050728Y-114813888D01*
X180139773Y-114762478D01*
X180212478Y-114689773D01*
X180214263Y-114686680D01*
X180216165Y-114684968D01*
X180216427Y-114684627D01*
X180216490Y-114684675D01*
X180259730Y-114645740D01*
X180320579Y-114639342D01*
X180373569Y-114669932D01*
X180385735Y-114686678D01*
X180387273Y-114689342D01*
X180387525Y-114689778D01*
X180389043Y-114691756D01*
X180389639Y-114693439D01*
X180390768Y-114695395D01*
X180390405Y-114695604D01*
X180409466Y-114749432D01*
X180409500Y-114752021D01*
X180409500Y-115462055D01*
X180409500Y-115538545D01*
X180419852Y-115577178D01*
X180429298Y-115612433D01*
X180467538Y-115678666D01*
X180467539Y-115678667D01*
X180467540Y-115678668D01*
X180467542Y-115678671D01*
X182367242Y-117578371D01*
X182367241Y-117578371D01*
X182421328Y-117632457D01*
X182421333Y-117632461D01*
X182487567Y-117670701D01*
X182487565Y-117670701D01*
X182487569Y-117670702D01*
X182487571Y-117670703D01*
X182561455Y-117690500D01*
X183697979Y-117690500D01*
X183756170Y-117709407D01*
X183758244Y-117710957D01*
X183760219Y-117712472D01*
X183760223Y-117712474D01*
X183760227Y-117712478D01*
X183849272Y-117763888D01*
X183948590Y-117790500D01*
X183948592Y-117790500D01*
X184051408Y-117790500D01*
X184051410Y-117790500D01*
X184150728Y-117763888D01*
X184239773Y-117712478D01*
X184312478Y-117639773D01*
X184363888Y-117550728D01*
X184390500Y-117451410D01*
X184390500Y-117348590D01*
X184363888Y-117249272D01*
X184312478Y-117160227D01*
X184312475Y-117160224D01*
X184309233Y-117154608D01*
X184311857Y-117153092D01*
X184295561Y-117107222D01*
X184312878Y-117048538D01*
X184356639Y-117013064D01*
X184425255Y-116984642D01*
X184548093Y-116902565D01*
X184652565Y-116798093D01*
X184734641Y-116675257D01*
X184791177Y-116538767D01*
X184804857Y-116470000D01*
X184329808Y-116470000D01*
X184349556Y-116435796D01*
X184370000Y-116359496D01*
X184370000Y-116280504D01*
X184349556Y-116204204D01*
X184329808Y-116170000D01*
X184804857Y-116170000D01*
X186665143Y-116170000D01*
X187140192Y-116170000D01*
X187120444Y-116204204D01*
X187100000Y-116280504D01*
X187100000Y-116359496D01*
X187120444Y-116435796D01*
X187140192Y-116470000D01*
X186665143Y-116470000D01*
X186678822Y-116538767D01*
X186735358Y-116675257D01*
X186817434Y-116798093D01*
X186921906Y-116902565D01*
X187044742Y-116984641D01*
X187181229Y-117041176D01*
X187181235Y-117041178D01*
X187326128Y-117069999D01*
X187326132Y-117070000D01*
X187549999Y-117070000D01*
X187550000Y-117069999D01*
X187550000Y-116620000D01*
X187850000Y-116620000D01*
X187850000Y-117069999D01*
X187850001Y-117070000D01*
X188073868Y-117070000D01*
X188073871Y-117069999D01*
X188218764Y-117041178D01*
X188218770Y-117041176D01*
X188355257Y-116984641D01*
X188478093Y-116902565D01*
X188582565Y-116798093D01*
X188664641Y-116675257D01*
X188721177Y-116538767D01*
X188734857Y-116470000D01*
X188259808Y-116470000D01*
X188279556Y-116435796D01*
X188300000Y-116359496D01*
X188300000Y-116280504D01*
X188279556Y-116204204D01*
X188259808Y-116170000D01*
X188734857Y-116170000D01*
X188721177Y-116101232D01*
X188664641Y-115964742D01*
X188582565Y-115841906D01*
X188478093Y-115737434D01*
X188355257Y-115655358D01*
X188218770Y-115598823D01*
X188218764Y-115598821D01*
X188073871Y-115570000D01*
X187850001Y-115570000D01*
X187850000Y-115570001D01*
X187850000Y-116020000D01*
X187550000Y-116020000D01*
X187550000Y-115570001D01*
X187549999Y-115570000D01*
X187326128Y-115570000D01*
X187181235Y-115598821D01*
X187181229Y-115598823D01*
X187044742Y-115655358D01*
X186921906Y-115737434D01*
X186817434Y-115841906D01*
X186735358Y-115964742D01*
X186678822Y-116101232D01*
X186665143Y-116170000D01*
X184804857Y-116170000D01*
X184791177Y-116101232D01*
X184734641Y-115964742D01*
X184652565Y-115841906D01*
X184548093Y-115737434D01*
X184425257Y-115655358D01*
X184288770Y-115598823D01*
X184288764Y-115598821D01*
X184143871Y-115570000D01*
X183670001Y-115570000D01*
X183670000Y-115570001D01*
X183670000Y-116020000D01*
X183370000Y-116020000D01*
X183370000Y-115570001D01*
X183369999Y-115570000D01*
X182896128Y-115570000D01*
X182751235Y-115598821D01*
X182751229Y-115598823D01*
X182614742Y-115655358D01*
X182491906Y-115737434D01*
X182387434Y-115841906D01*
X182305358Y-115964742D01*
X182248822Y-116101232D01*
X182235143Y-116170000D01*
X182710192Y-116170000D01*
X182690444Y-116204204D01*
X182670000Y-116280504D01*
X182670000Y-116359496D01*
X182690444Y-116435796D01*
X182710192Y-116470000D01*
X182235142Y-116470000D01*
X182234743Y-116470486D01*
X182183211Y-116503472D01*
X182122131Y-116499869D01*
X182088212Y-116477683D01*
X181019496Y-115408967D01*
X180991719Y-115354450D01*
X180990500Y-115338963D01*
X180990500Y-114828716D01*
X183584500Y-114828716D01*
X183584500Y-114951284D01*
X183616223Y-115069676D01*
X183677507Y-115175824D01*
X183764176Y-115262493D01*
X183870324Y-115323777D01*
X183988716Y-115355500D01*
X183988718Y-115355500D01*
X184111282Y-115355500D01*
X184111284Y-115355500D01*
X184229676Y-115323777D01*
X184335824Y-115262493D01*
X184422493Y-115175824D01*
X184483777Y-115069676D01*
X184515500Y-114951284D01*
X184515500Y-114828716D01*
X184483777Y-114710324D01*
X184422493Y-114604176D01*
X184335824Y-114517507D01*
X184229676Y-114456223D01*
X184111284Y-114424500D01*
X183988716Y-114424500D01*
X183870324Y-114456223D01*
X183764176Y-114517507D01*
X183677507Y-114604176D01*
X183616223Y-114710324D01*
X183584500Y-114828716D01*
X180990500Y-114828716D01*
X180990500Y-114752021D01*
X181009407Y-114693830D01*
X181010957Y-114691756D01*
X181012472Y-114689780D01*
X181012473Y-114689777D01*
X181012478Y-114689773D01*
X181063888Y-114600728D01*
X181090500Y-114501410D01*
X181090500Y-114398590D01*
X181063888Y-114299272D01*
X181012478Y-114210227D01*
X180939773Y-114137522D01*
X180850728Y-114086112D01*
X180751410Y-114059500D01*
X180648590Y-114059500D01*
X180549272Y-114086112D01*
X180460227Y-114137522D01*
X180387521Y-114210228D01*
X180385736Y-114213321D01*
X180383832Y-114215035D01*
X180383573Y-114215373D01*
X180383510Y-114215324D01*
X180340266Y-114254261D01*
X180279416Y-114260656D01*
X180226428Y-114230063D01*
X180214264Y-114213321D01*
X180212478Y-114210227D01*
X180139773Y-114137522D01*
X180126473Y-114129843D01*
X180101142Y-114115218D01*
X180060201Y-114069748D01*
X180053807Y-114008897D01*
X180080636Y-113959482D01*
X180553886Y-113486232D01*
X180590500Y-113397838D01*
X180590500Y-113302161D01*
X180590500Y-112702758D01*
X180609407Y-112644567D01*
X180619490Y-112632760D01*
X180662478Y-112589773D01*
X180713888Y-112500728D01*
X180740500Y-112401410D01*
X180740500Y-112298590D01*
X180713888Y-112199272D01*
X180662478Y-112110227D01*
X180589773Y-112037522D01*
X180500728Y-111986112D01*
X180497048Y-111985126D01*
X180494761Y-111983640D01*
X180494733Y-111983629D01*
X180494735Y-111983623D01*
X180445736Y-111951803D01*
X180423809Y-111894681D01*
X180439644Y-111835581D01*
X180487194Y-111797076D01*
X180522673Y-111790500D01*
X181042539Y-111790500D01*
X181130933Y-111753886D01*
X181738698Y-111146120D01*
X181793213Y-111118345D01*
X181853645Y-111127916D01*
X181896910Y-111171181D01*
X181907700Y-111216126D01*
X181907700Y-111811173D01*
X181888793Y-111869364D01*
X181878704Y-111881177D01*
X181279377Y-112480504D01*
X181224860Y-112508281D01*
X181209373Y-112509500D01*
X181148590Y-112509500D01*
X181049272Y-112536112D01*
X180960227Y-112587522D01*
X180887522Y-112660227D01*
X180836112Y-112749272D01*
X180809500Y-112848590D01*
X180809500Y-112951410D01*
X180836112Y-113050728D01*
X180887522Y-113139773D01*
X180960227Y-113212478D01*
X181049272Y-113263888D01*
X181148590Y-113290500D01*
X181148592Y-113290500D01*
X181251408Y-113290500D01*
X181251410Y-113290500D01*
X181350728Y-113263888D01*
X181439773Y-113212478D01*
X181512478Y-113139773D01*
X181563888Y-113050728D01*
X181590500Y-112951410D01*
X181590500Y-112890626D01*
X181609407Y-112832435D01*
X181619490Y-112820628D01*
X182352086Y-112088033D01*
X182388700Y-111999639D01*
X182388700Y-111903962D01*
X182388700Y-109714362D01*
X182352086Y-109625968D01*
X182327528Y-109601410D01*
X182284432Y-109558313D01*
X182284432Y-109558314D01*
X181774834Y-109048716D01*
X183584500Y-109048716D01*
X183584500Y-109171284D01*
X183616223Y-109289676D01*
X183677507Y-109395824D01*
X183764176Y-109482493D01*
X183870324Y-109543777D01*
X183988716Y-109575500D01*
X183988718Y-109575500D01*
X184111282Y-109575500D01*
X184111284Y-109575500D01*
X184229676Y-109543777D01*
X184335824Y-109482493D01*
X184422493Y-109395824D01*
X184483777Y-109289676D01*
X184515500Y-109171284D01*
X184515500Y-109048716D01*
X184483777Y-108930324D01*
X184422493Y-108824176D01*
X184335824Y-108737507D01*
X184229676Y-108676223D01*
X184111284Y-108644500D01*
X183988716Y-108644500D01*
X183870324Y-108676223D01*
X183764176Y-108737507D01*
X183677507Y-108824176D01*
X183616223Y-108930324D01*
X183584500Y-109048716D01*
X181774834Y-109048716D01*
X180910796Y-108184677D01*
X180883019Y-108130160D01*
X180881800Y-108114673D01*
X180881800Y-107889458D01*
X180882860Y-107886193D01*
X180882020Y-107882867D01*
X180888785Y-107867957D01*
X180900707Y-107831267D01*
X180904759Y-107826064D01*
X180907625Y-107822625D01*
X180953778Y-107776473D01*
X181005188Y-107687428D01*
X181031800Y-107588110D01*
X181031800Y-107530000D01*
X182235143Y-107530000D01*
X182710192Y-107530000D01*
X182690444Y-107564204D01*
X182670000Y-107640504D01*
X182670000Y-107719496D01*
X182690444Y-107795796D01*
X182710192Y-107830000D01*
X182235143Y-107830000D01*
X182248822Y-107898767D01*
X182305358Y-108035257D01*
X182387434Y-108158093D01*
X182491906Y-108262565D01*
X182614742Y-108344641D01*
X182751229Y-108401176D01*
X182751235Y-108401178D01*
X182896128Y-108429999D01*
X182896132Y-108430000D01*
X183369999Y-108430000D01*
X183370000Y-108429999D01*
X183370000Y-107980000D01*
X183670000Y-107980000D01*
X183670000Y-108429999D01*
X183670001Y-108430000D01*
X184143868Y-108430000D01*
X184143871Y-108429999D01*
X184288764Y-108401178D01*
X184288770Y-108401176D01*
X184425257Y-108344641D01*
X184548093Y-108262565D01*
X184652565Y-108158093D01*
X184734641Y-108035257D01*
X184791177Y-107898767D01*
X184804857Y-107830000D01*
X184329808Y-107830000D01*
X184349556Y-107795796D01*
X184370000Y-107719496D01*
X184370000Y-107640504D01*
X184349556Y-107564204D01*
X184329808Y-107530000D01*
X184804857Y-107530000D01*
X186665143Y-107530000D01*
X187140192Y-107530000D01*
X187120444Y-107564204D01*
X187100000Y-107640504D01*
X187100000Y-107719496D01*
X187120444Y-107795796D01*
X187140192Y-107830000D01*
X186665143Y-107830000D01*
X186678822Y-107898767D01*
X186735358Y-108035257D01*
X186817434Y-108158093D01*
X186921906Y-108262565D01*
X187044742Y-108344641D01*
X187181229Y-108401176D01*
X187181235Y-108401178D01*
X187326128Y-108429999D01*
X187326132Y-108430000D01*
X187549999Y-108430000D01*
X187550000Y-108429999D01*
X187550000Y-107980000D01*
X187850000Y-107980000D01*
X187850000Y-108429999D01*
X187850001Y-108430000D01*
X188073868Y-108430000D01*
X188073871Y-108429999D01*
X188218764Y-108401178D01*
X188218770Y-108401176D01*
X188355257Y-108344641D01*
X188478093Y-108262565D01*
X188582565Y-108158093D01*
X188664641Y-108035257D01*
X188721177Y-107898767D01*
X188734857Y-107830000D01*
X188259808Y-107830000D01*
X188279556Y-107795796D01*
X188300000Y-107719496D01*
X188300000Y-107640504D01*
X188279556Y-107564204D01*
X188259808Y-107530000D01*
X188734857Y-107530000D01*
X188721177Y-107461232D01*
X188664641Y-107324742D01*
X188582565Y-107201906D01*
X188478093Y-107097434D01*
X188355257Y-107015358D01*
X188218770Y-106958823D01*
X188218764Y-106958821D01*
X188073871Y-106930000D01*
X187850001Y-106930000D01*
X187850000Y-106930001D01*
X187850000Y-107380000D01*
X187550000Y-107380000D01*
X187550000Y-106930001D01*
X187549999Y-106930000D01*
X187326128Y-106930000D01*
X187181235Y-106958821D01*
X187181229Y-106958823D01*
X187044742Y-107015358D01*
X186921906Y-107097434D01*
X186817434Y-107201906D01*
X186735358Y-107324742D01*
X186678822Y-107461232D01*
X186665143Y-107530000D01*
X184804857Y-107530000D01*
X184791177Y-107461232D01*
X184734641Y-107324742D01*
X184652565Y-107201906D01*
X184548093Y-107097434D01*
X184425257Y-107015358D01*
X184288770Y-106958823D01*
X184288764Y-106958821D01*
X184143871Y-106930000D01*
X183670001Y-106930000D01*
X183670000Y-106930001D01*
X183670000Y-107380000D01*
X183370000Y-107380000D01*
X183370000Y-106930001D01*
X183369999Y-106930000D01*
X182896128Y-106930000D01*
X182751235Y-106958821D01*
X182751229Y-106958823D01*
X182614742Y-107015358D01*
X182491906Y-107097434D01*
X182387434Y-107201906D01*
X182305358Y-107324742D01*
X182248822Y-107461232D01*
X182235143Y-107530000D01*
X181031800Y-107530000D01*
X181031800Y-107485290D01*
X181005188Y-107385972D01*
X180953778Y-107296927D01*
X180881073Y-107224222D01*
X180792028Y-107172812D01*
X180692710Y-107146200D01*
X180589890Y-107146200D01*
X180490572Y-107172812D01*
X180401527Y-107224222D01*
X180328822Y-107296927D01*
X180277412Y-107385972D01*
X180250800Y-107485290D01*
X180250800Y-107588110D01*
X180277412Y-107687428D01*
X180328822Y-107776473D01*
X180371805Y-107819456D01*
X180399581Y-107873971D01*
X180400800Y-107889458D01*
X180400800Y-107947473D01*
X180381893Y-108005664D01*
X180332393Y-108041628D01*
X180271207Y-108041628D01*
X180231796Y-108017477D01*
X179990791Y-107776472D01*
X179717133Y-107502814D01*
X179717131Y-107502813D01*
X179717130Y-107502812D01*
X179628739Y-107466200D01*
X179628738Y-107466200D01*
X179040127Y-107466200D01*
X178981936Y-107447293D01*
X178970123Y-107437204D01*
X176765860Y-105232941D01*
X174472133Y-102939214D01*
X174472131Y-102939213D01*
X174472130Y-102939212D01*
X174383739Y-102902600D01*
X174383738Y-102902600D01*
X170691362Y-102902600D01*
X170602968Y-102939213D01*
X170602966Y-102939214D01*
X170602967Y-102939215D01*
X167859501Y-105682679D01*
X167804987Y-105710455D01*
X167744555Y-105700884D01*
X167701290Y-105657619D01*
X167690500Y-105612674D01*
X167690500Y-105061337D01*
X167709407Y-105003146D01*
X167719496Y-104991333D01*
X169433417Y-103277412D01*
X171191856Y-101518972D01*
X171246371Y-101491197D01*
X171248943Y-101490824D01*
X171251402Y-101490500D01*
X171251410Y-101490500D01*
X171350728Y-101463888D01*
X171439773Y-101412478D01*
X171439777Y-101412473D01*
X171439780Y-101412472D01*
X171441756Y-101410957D01*
X171443436Y-101410361D01*
X171445392Y-101409233D01*
X171445601Y-101409595D01*
X171499432Y-101390534D01*
X171502021Y-101390500D01*
X178145015Y-101390500D01*
X178203206Y-101409407D01*
X178231825Y-101445709D01*
X178232868Y-101445108D01*
X178236111Y-101450725D01*
X178236112Y-101450728D01*
X178287522Y-101539773D01*
X178360227Y-101612478D01*
X178449272Y-101663888D01*
X178548590Y-101690500D01*
X178548592Y-101690500D01*
X178651408Y-101690500D01*
X178651410Y-101690500D01*
X178750728Y-101663888D01*
X178839773Y-101612478D01*
X178912478Y-101539773D01*
X178963888Y-101450728D01*
X178990500Y-101351410D01*
X178990500Y-101248590D01*
X178963888Y-101149272D01*
X178912478Y-101060227D01*
X178839773Y-100987522D01*
X178750728Y-100936112D01*
X178651410Y-100909500D01*
X178651408Y-100909500D01*
X178648932Y-100909174D01*
X178647317Y-100908404D01*
X178645142Y-100907821D01*
X178645250Y-100907417D01*
X178593708Y-100882831D01*
X178591890Y-100881061D01*
X178578371Y-100867542D01*
X178578368Y-100867540D01*
X178578366Y-100867538D01*
X178512132Y-100829298D01*
X178512134Y-100829298D01*
X178483465Y-100821616D01*
X178438245Y-100809500D01*
X178438243Y-100809500D01*
X171502021Y-100809500D01*
X171443830Y-100790593D01*
X171441756Y-100789043D01*
X171439780Y-100787527D01*
X171439775Y-100787524D01*
X171439773Y-100787522D01*
X171350728Y-100736112D01*
X171251410Y-100709500D01*
X171148590Y-100709500D01*
X171049272Y-100736112D01*
X170960227Y-100787522D01*
X170887522Y-100860227D01*
X170836112Y-100949272D01*
X170809498Y-101048597D01*
X170809173Y-101051069D01*
X170808404Y-101052679D01*
X170807821Y-101054858D01*
X170807417Y-101054749D01*
X170782829Y-101106292D01*
X170781025Y-101108145D01*
X167221629Y-104667542D01*
X167221628Y-104667541D01*
X167167542Y-104721628D01*
X167167538Y-104721633D01*
X167129298Y-104787866D01*
X167109500Y-104861756D01*
X167109500Y-108097978D01*
X167090593Y-108156169D01*
X167089048Y-108158238D01*
X167087525Y-108160222D01*
X167087522Y-108160226D01*
X167087522Y-108160227D01*
X167036112Y-108249272D01*
X167009500Y-108348590D01*
X167009500Y-108451410D01*
X167036112Y-108550728D01*
X167087522Y-108639773D01*
X167121047Y-108673298D01*
X167148823Y-108727813D01*
X167139252Y-108788245D01*
X167095987Y-108831510D01*
X167051042Y-108842300D01*
X166410627Y-108842300D01*
X166352436Y-108823393D01*
X166340623Y-108813304D01*
X162760260Y-105232941D01*
X159059433Y-101532114D01*
X159059431Y-101532113D01*
X159059430Y-101532112D01*
X158971039Y-101495500D01*
X158971038Y-101495500D01*
X151474538Y-101495500D01*
X151378861Y-101495500D01*
X151290469Y-101532112D01*
X148093312Y-104729269D01*
X148069040Y-104787870D01*
X148069039Y-104787872D01*
X148058505Y-104813302D01*
X148018768Y-104859827D01*
X147959273Y-104874110D01*
X147902745Y-104850694D01*
X147897038Y-104845419D01*
X146435219Y-103383600D01*
X144806533Y-101754914D01*
X144806531Y-101754913D01*
X144806530Y-101754912D01*
X144718139Y-101718300D01*
X144718138Y-101718300D01*
X119354638Y-101718300D01*
X119258961Y-101718300D01*
X119170567Y-101754913D01*
X118951138Y-101974342D01*
X118896622Y-102002119D01*
X118836190Y-101992548D01*
X118792925Y-101949283D01*
X118785508Y-101929961D01*
X118763888Y-101849272D01*
X118712478Y-101760227D01*
X118639773Y-101687522D01*
X118550728Y-101636112D01*
X118451410Y-101609500D01*
X118348590Y-101609500D01*
X118249272Y-101636112D01*
X118160227Y-101687522D01*
X118087522Y-101760227D01*
X118036112Y-101849272D01*
X118009500Y-101948590D01*
X118009500Y-102051410D01*
X118036112Y-102150728D01*
X118087522Y-102239773D01*
X118160227Y-102312478D01*
X118249272Y-102363888D01*
X118329961Y-102385508D01*
X118381274Y-102418831D01*
X118403201Y-102475952D01*
X118387366Y-102535053D01*
X118374341Y-102551137D01*
X117713677Y-103211803D01*
X117659160Y-103239581D01*
X117643673Y-103240800D01*
X115703562Y-103240800D01*
X115615170Y-103277412D01*
X113045912Y-105846669D01*
X113015486Y-105920127D01*
X113010789Y-105931468D01*
X113009300Y-105935062D01*
X113009300Y-117563861D01*
X113009300Y-117659539D01*
X113014707Y-117672593D01*
X113045912Y-117747930D01*
X113045913Y-117747931D01*
X113045914Y-117747933D01*
X113065505Y-117767524D01*
X113093281Y-117822039D01*
X113094500Y-117837526D01*
X113094500Y-118380641D01*
X113075593Y-118438832D01*
X113026093Y-118474796D01*
X112969878Y-118476267D01*
X112894610Y-118456100D01*
X112894608Y-118456100D01*
X112833826Y-118456100D01*
X112775635Y-118437193D01*
X112763822Y-118427104D01*
X111727218Y-117390500D01*
X110622133Y-116285414D01*
X110622131Y-116285413D01*
X110622130Y-116285412D01*
X110533739Y-116248800D01*
X110533738Y-116248800D01*
X105342862Y-116248800D01*
X105254468Y-116285413D01*
X105254466Y-116285414D01*
X105254461Y-116285420D01*
X104406101Y-117133778D01*
X104351585Y-117161555D01*
X104298213Y-117155238D01*
X104154340Y-117095645D01*
X104154335Y-117095643D01*
X104154334Y-117095643D01*
X104154332Y-117095642D01*
X104151345Y-117094737D01*
X104150170Y-117093918D01*
X104149841Y-117093782D01*
X104149870Y-117093709D01*
X104101149Y-117059751D01*
X104081104Y-117001942D01*
X104098866Y-116943392D01*
X104147651Y-116906464D01*
X104151345Y-116905263D01*
X104154322Y-116904359D01*
X104154334Y-116904357D01*
X104325494Y-116833461D01*
X104479534Y-116730534D01*
X104610534Y-116599534D01*
X104713461Y-116445494D01*
X104784357Y-116274334D01*
X104820500Y-116092631D01*
X104820500Y-115907369D01*
X104784357Y-115725666D01*
X104732190Y-115599722D01*
X104713462Y-115554508D01*
X104713462Y-115554507D01*
X104610534Y-115400466D01*
X104479533Y-115269465D01*
X104325491Y-115166537D01*
X104154334Y-115095643D01*
X103972633Y-115059500D01*
X103972631Y-115059500D01*
X103787369Y-115059500D01*
X103787366Y-115059500D01*
X103605666Y-115095643D01*
X103605664Y-115095643D01*
X103434508Y-115166537D01*
X103434507Y-115166537D01*
X103280466Y-115269465D01*
X103149465Y-115400466D01*
X103046537Y-115554507D01*
X103046537Y-115554508D01*
X102975643Y-115725664D01*
X102975643Y-115725666D01*
X102939500Y-115907366D01*
X100250000Y-115907366D01*
X100250000Y-114662290D01*
X100639500Y-114662290D01*
X100639500Y-114837709D01*
X100654373Y-114912478D01*
X100673218Y-115007222D01*
X100673721Y-115009748D01*
X100673721Y-115009750D01*
X100740847Y-115171807D01*
X100837266Y-115316110D01*
X100838303Y-115317661D01*
X100962339Y-115441697D01*
X101108190Y-115539151D01*
X101270251Y-115606279D01*
X101442293Y-115640500D01*
X101442294Y-115640500D01*
X101617706Y-115640500D01*
X101617707Y-115640500D01*
X101789749Y-115606279D01*
X101951810Y-115539151D01*
X102097661Y-115441697D01*
X102221697Y-115317661D01*
X102319151Y-115171810D01*
X102386279Y-115009749D01*
X102420500Y-114837707D01*
X102420500Y-114662293D01*
X102386279Y-114490251D01*
X102319151Y-114328190D01*
X102221697Y-114182339D01*
X102097661Y-114058303D01*
X102091050Y-114053886D01*
X101951807Y-113960847D01*
X101789749Y-113893721D01*
X101617709Y-113859500D01*
X101617707Y-113859500D01*
X101442293Y-113859500D01*
X101442290Y-113859500D01*
X101270251Y-113893721D01*
X101270249Y-113893721D01*
X101108192Y-113960847D01*
X100962342Y-114058300D01*
X100838300Y-114182342D01*
X100740847Y-114328192D01*
X100673721Y-114490249D01*
X100673721Y-114490251D01*
X100639500Y-114662290D01*
X100250000Y-114662290D01*
X100250000Y-113396581D01*
X102830000Y-113396581D01*
X102830000Y-113603418D01*
X102870349Y-113806272D01*
X102949501Y-113997361D01*
X103038022Y-114129843D01*
X103465614Y-113702250D01*
X103511913Y-113782443D01*
X103597557Y-113868087D01*
X103677746Y-113914384D01*
X103250154Y-114341977D01*
X103382625Y-114430491D01*
X103382639Y-114430498D01*
X103573727Y-114509650D01*
X103776581Y-114549999D01*
X103776586Y-114550000D01*
X103983414Y-114550000D01*
X103983418Y-114549999D01*
X104186272Y-114509650D01*
X104377360Y-114430498D01*
X104509843Y-114341976D01*
X104082251Y-113914384D01*
X104162443Y-113868087D01*
X104248087Y-113782443D01*
X104294384Y-113702251D01*
X104721976Y-114129843D01*
X104810498Y-113997360D01*
X104889650Y-113806272D01*
X104929999Y-113603418D01*
X104930000Y-113603413D01*
X104930000Y-113396586D01*
X104929999Y-113396581D01*
X104889650Y-113193727D01*
X104810498Y-113002639D01*
X104810491Y-113002625D01*
X104721976Y-112870154D01*
X104294384Y-113297746D01*
X104248087Y-113217557D01*
X104162443Y-113131913D01*
X104082250Y-113085614D01*
X104509843Y-112658022D01*
X104377361Y-112569501D01*
X104186272Y-112490349D01*
X103983418Y-112450000D01*
X103776581Y-112450000D01*
X103573727Y-112490349D01*
X103382638Y-112569501D01*
X103250155Y-112658022D01*
X103677748Y-113085615D01*
X103597557Y-113131913D01*
X103511913Y-113217557D01*
X103465615Y-113297748D01*
X103038022Y-112870155D01*
X102949501Y-113002638D01*
X102870349Y-113193727D01*
X102830000Y-113396581D01*
X100250000Y-113396581D01*
X100250000Y-112275278D01*
X100268907Y-112217087D01*
X100318407Y-112181123D01*
X100355476Y-112176490D01*
X100379782Y-112178083D01*
X100807415Y-111750449D01*
X100842822Y-111799181D01*
X100970819Y-111927178D01*
X101019548Y-111962582D01*
X100591915Y-112390216D01*
X100745667Y-112508194D01*
X100944341Y-112622898D01*
X101156268Y-112710680D01*
X101156281Y-112710684D01*
X101377863Y-112770057D01*
X101605297Y-112799999D01*
X101605300Y-112800000D01*
X101834700Y-112800000D01*
X101834702Y-112799999D01*
X102062133Y-112770057D01*
X102062138Y-112770057D01*
X102283718Y-112710684D01*
X102283731Y-112710680D01*
X102495658Y-112622898D01*
X102519420Y-112609180D01*
X102694342Y-112508188D01*
X102848083Y-112390216D01*
X102420450Y-111962583D01*
X102469181Y-111927178D01*
X102597178Y-111799181D01*
X102632583Y-111750450D01*
X103060216Y-112178083D01*
X103178188Y-112024342D01*
X103292898Y-111825658D01*
X103380680Y-111613731D01*
X103380684Y-111613718D01*
X103440057Y-111392138D01*
X103440057Y-111392133D01*
X103469999Y-111164702D01*
X103470000Y-111164700D01*
X103470000Y-110935300D01*
X103469999Y-110935297D01*
X103440057Y-110707866D01*
X103440057Y-110707861D01*
X103380684Y-110486281D01*
X103380680Y-110486268D01*
X103292898Y-110274341D01*
X103178194Y-110075667D01*
X103060215Y-109921915D01*
X102632582Y-110349548D01*
X102597178Y-110300819D01*
X102469181Y-110172822D01*
X102420449Y-110137416D01*
X102848083Y-109709783D01*
X102694332Y-109591805D01*
X102495658Y-109477101D01*
X102283731Y-109389319D01*
X102283718Y-109389315D01*
X102062136Y-109329942D01*
X101834702Y-109300000D01*
X101605297Y-109300000D01*
X101377866Y-109329942D01*
X101377861Y-109329942D01*
X101156281Y-109389315D01*
X101156268Y-109389319D01*
X100944341Y-109477101D01*
X100745662Y-109591808D01*
X100591915Y-109709782D01*
X101019549Y-110137416D01*
X100970819Y-110172822D01*
X100842822Y-110300819D01*
X100807416Y-110349549D01*
X100379781Y-109921914D01*
X100355475Y-109923508D01*
X100337232Y-109918875D01*
X100318407Y-109918875D01*
X100308290Y-109911524D01*
X100296172Y-109908447D01*
X100284136Y-109893976D01*
X100268907Y-109882911D01*
X100265042Y-109871017D01*
X100257048Y-109861405D01*
X100250000Y-109824720D01*
X100250000Y-102548590D01*
X114009500Y-102548590D01*
X114009500Y-102651410D01*
X114036112Y-102750728D01*
X114087522Y-102839773D01*
X114160227Y-102912478D01*
X114249272Y-102963888D01*
X114348590Y-102990500D01*
X114348592Y-102990500D01*
X114451408Y-102990500D01*
X114451410Y-102990500D01*
X114550728Y-102963888D01*
X114639773Y-102912478D01*
X114712478Y-102839773D01*
X114763888Y-102750728D01*
X114790500Y-102651410D01*
X114790500Y-102651402D01*
X114790824Y-102648943D01*
X114791592Y-102647332D01*
X114792179Y-102645142D01*
X114792584Y-102645250D01*
X114817161Y-102593716D01*
X114818975Y-102591854D01*
X115091334Y-102319496D01*
X115145850Y-102291719D01*
X115161337Y-102290500D01*
X115297979Y-102290500D01*
X115356170Y-102309407D01*
X115358244Y-102310957D01*
X115360219Y-102312472D01*
X115360223Y-102312474D01*
X115360227Y-102312478D01*
X115449272Y-102363888D01*
X115548590Y-102390500D01*
X115548592Y-102390500D01*
X115651408Y-102390500D01*
X115651410Y-102390500D01*
X115750728Y-102363888D01*
X115839773Y-102312478D01*
X115912478Y-102239773D01*
X115963888Y-102150728D01*
X115990500Y-102051410D01*
X115990500Y-101948590D01*
X115963888Y-101849272D01*
X115912478Y-101760227D01*
X115839773Y-101687522D01*
X115750728Y-101636112D01*
X115651410Y-101609500D01*
X115548590Y-101609500D01*
X115449272Y-101636112D01*
X115360227Y-101687522D01*
X115360226Y-101687522D01*
X115360219Y-101687527D01*
X115358244Y-101689043D01*
X115356563Y-101689638D01*
X115354608Y-101690767D01*
X115354398Y-101690404D01*
X115300568Y-101709466D01*
X115297979Y-101709500D01*
X115038245Y-101709500D01*
X114961755Y-101709500D01*
X114928913Y-101718300D01*
X114887866Y-101729298D01*
X114821633Y-101767538D01*
X114821628Y-101767542D01*
X114408144Y-102181025D01*
X114353628Y-102208802D01*
X114351069Y-102209173D01*
X114348597Y-102209498D01*
X114348590Y-102209500D01*
X114249272Y-102236112D01*
X114160227Y-102287522D01*
X114087522Y-102360227D01*
X114036112Y-102449272D01*
X114009500Y-102548590D01*
X100250000Y-102548590D01*
X100250000Y-100349000D01*
X100268907Y-100290809D01*
X100318407Y-100254845D01*
X100349000Y-100250000D01*
X189651000Y-100250000D01*
X189709191Y-100268907D01*
G37*
G04 #@! TD.AperFunction*
G04 #@! TD*
M02*
