M48
; DRILL file KiCad 10.0.5 date 2026-09-18T10:25:02
; FORMAT={-:-/ absolute / metric / decimal}
; #@! TF.CreationDate,2026-09-18T10:25:02+09:00
; #@! TF.GenerationSoftware,Kicad,Pcbnew,10.0.5
; #@! TF.FileFunction,Plated,1,4,PTH
FMAT,2
METRIC
; #@! TA.AperFunction,Plated,PTH,ViaDrill
T1C0.300
; #@! TA.AperFunction,Plated,PTH,ComponentDrill
T2C0.600
; #@! TA.AperFunction,Plated,PTH,ComponentDrill
T3C0.920
; #@! TA.AperFunction,Plated,PTH,ComponentDrill
T4C1.020
; #@! TA.AperFunction,Plated,PTH,ComponentDrill
T5C2.300
%
G90
G05
T1
X109.3Y-117.0
X110.125Y-122.225
X110.233Y-126.428
X111.0Y-122.6
X111.2Y-120.9
X111.25Y-126.45
X112.0Y-120.9
X112.0Y-127.3
X112.739Y-119.755
X112.843Y-118.847
X113.75Y-117.0
X114.2Y-121.0
X114.3Y-127.4
X114.4Y-102.6
X114.76Y-124.73
X115.0Y-121.0
X115.26Y-104.68
X115.6Y-102.0
X115.6Y-113.2
X116.871Y-117.406
X117.0Y-131.0
X117.485Y-104.233
X117.61Y-126.4
X117.63Y-124.2
X117.73Y-111.3
X118.4Y-102.0
X122.175Y-105.6
X122.272Y-118.459
X122.51Y-107.4
X122.6Y-119.055
X123.147Y-117.406
X124.159Y-114.818
X124.32Y-119.76
X124.32Y-120.96
X125.25Y-117.4
X126.52Y-110.16
X127.159Y-121.718
X127.637Y-116.853
X128.696Y-119.948
X129.095Y-119.383
X129.2Y-114.2
X129.2Y-115.8
X129.8Y-112.401
X130.05Y-127.55
X130.46Y-122.28
X130.8Y-114.2
X130.8Y-115.8
X131.258Y-110.543
X131.56Y-124.08
X132.153Y-114.267
X132.587Y-114.8
X132.587Y-115.82
X132.781Y-129.787
X132.792Y-128.73
X133.0Y-110.87
X133.048Y-119.131
X133.097Y-118.489
X133.192Y-107.45
X134.607Y-115.091
X135.2Y-115.6
X135.959Y-115.086
X136.51Y-110.1
X136.71Y-118.5
X138.46Y-114.4
X138.767Y-119.513
X138.98Y-129.787
X139.068Y-105.726
X139.222Y-115.099
X139.664Y-102.795
X139.934Y-115.087
X140.028Y-109.088
X140.08Y-117.933
X140.653Y-105.697
X141.039Y-102.826
X141.179Y-116.784
X141.619Y-105.686
X142.113Y-106.268
X142.315Y-117.677
X143.327Y-102.473
X143.4Y-117.0
X143.4Y-117.8
X143.629Y-105.769
X144.2Y-117.0
X144.2Y-117.8
X144.25Y-113.025
X144.482Y-105.69
X144.6Y-124.3
X144.798Y-106.898
X145.0Y-117.0
X145.0Y-117.8
X145.306Y-105.861
X145.4Y-124.3
X145.8Y-117.0
X145.8Y-117.8
X146.0Y-111.5
X146.2Y-124.3
X146.6Y-113.1
X146.6Y-117.0
X146.6Y-117.8
X146.75Y-129.8
X147.122Y-109.64
X147.4Y-117.0
X147.4Y-117.8
X148.273Y-108.468
X148.297Y-105.586
X148.376Y-106.59
X151.3Y-118.65
X151.677Y-105.867
X151.87Y-102.99
X152.05Y-114.75
X152.2Y-118.0
X152.785Y-105.481
X153.3Y-117.4
X153.739Y-102.624
X153.95Y-116.0
X154.1Y-114.55
X154.65Y-131.2
X155.349Y-120.469
X155.956Y-106.395
X156.151Y-121.282
X156.164Y-123.039
X156.38Y-117.808
X159.55Y-119.35
X159.6Y-117.0
X159.75Y-118.25
X159.9Y-132.6
X160.3Y-117.5
X160.507Y-126.343
X160.8Y-132.6
X160.85Y-119.05
X161.475Y-124.25
X161.475Y-129.05
X161.6Y-131.4
X161.73Y-110.908
X162.387Y-115.265
X162.6Y-120.4
X162.61Y-118.07
X162.675Y-114.6
X165.31Y-116.0
X165.31Y-117.2
X166.42Y-104.26
X166.532Y-108.583
X166.759Y-105.418
X167.4Y-108.4
X167.51Y-118.4
X168.799Y-110.908
X169.17Y-123.29
X169.4Y-106.25
X169.81Y-105.3
X169.81Y-106.7
X171.2Y-101.1
X171.21Y-105.3
X171.21Y-106.7
X172.44Y-104.0
X172.9Y-112.8
X173.147Y-107.866
X173.3Y-125.138
X173.4Y-104.75
X173.4Y-105.75
X173.5Y-107.3
X174.23Y-108.6
X174.659Y-111.918
X175.962Y-107.056
X176.05Y-111.8
X176.3Y-110.1
X176.3Y-114.5
X177.1Y-110.1
X177.1Y-114.5
X178.331Y-116.05
X178.6Y-101.3
X178.75Y-109.5
X178.75Y-114.6
X178.9Y-117.8
X179.025Y-106.8
X179.75Y-113.25
X179.9Y-109.55
X179.9Y-110.55
X179.9Y-114.45
X179.95Y-111.55
X180.35Y-112.35
X180.641Y-107.537
X180.7Y-109.55
X180.7Y-114.45
X181.2Y-110.6
X181.2Y-112.9
X181.373Y-108.24
X181.681Y-118.781
X181.83Y-120.0
X181.916Y-115.939
X183.0Y-121.2
X184.0Y-117.4
X184.275Y-124.15
X184.4Y-125.3
X185.0Y-121.2
X185.3Y-102.3
X188.1Y-118.8
X189.289Y-128.089
T3
X103.88Y-113.5
X103.88Y-116.0
X103.88Y-118.0
X103.88Y-120.5
T4
X173.0Y-130.0
X175.54Y-130.0
X178.08Y-130.0
X180.62Y-130.0
T5
X101.72Y-111.05
X101.72Y-122.95
T2
X182.97Y-107.68G85X184.07Y-107.68
G05
X182.97Y-116.32G85X184.07Y-116.32
G05
X187.4Y-107.68G85X188.0Y-107.68
G05
X187.4Y-116.32G85X188.0Y-116.32
G05
M30
