G04 #@! TF.GenerationSoftware,KiCad,Pcbnew,10.0.5*
G04 #@! TF.CreationDate,2026-09-18T10:25:02+09:00*
G04 #@! TF.ProjectId,fanctl_a,66616e63-746c-45f6-912e-6b696361645f,rev?*
G04 #@! TF.SameCoordinates,Original*
G04 #@! TF.FileFunction,Copper,L2,Inr*
G04 #@! TF.FilePolarity,Positive*
%FSLAX46Y46*%
G04 Gerber Fmt 4.6, Leading zero omitted, Abs format (unit mm)*
G04 Created by KiCad (PCBNEW 10.0.5) date 2026-09-18 10:25:02*
%MOMM*%
%LPD*%
G01*
G04 APERTURE LIST*
G04 #@! TA.AperFunction,ComponentPad*
%ADD10R,1.730000X2.030000*%
G04 #@! TD*
G04 #@! TA.AperFunction,ComponentPad*
%ADD11O,1.730000X2.030000*%
G04 #@! TD*
G04 #@! TA.AperFunction,ComponentPad*
%ADD12R,1.600000X1.600000*%
G04 #@! TD*
G04 #@! TA.AperFunction,ComponentPad*
%ADD13C,1.600000*%
G04 #@! TD*
G04 #@! TA.AperFunction,ComponentPad*
%ADD14C,3.000000*%
G04 #@! TD*
G04 #@! TA.AperFunction,ComponentPad*
%ADD15O,2.100000X1.000000*%
G04 #@! TD*
G04 #@! TA.AperFunction,ComponentPad*
%ADD16O,1.600000X1.000000*%
G04 #@! TD*
G04 #@! TA.AperFunction,ViaPad*
%ADD17C,0.500000*%
G04 #@! TD*
G04 APERTURE END LIST*
D10*
G04 #@! TO.N,GND*
G04 #@! TO.C,J3*
X173000000Y-130000000D03*
D11*
G04 #@! TO.N,+12V*
X175540000Y-130000000D03*
G04 #@! TO.N,FAN_TACH*
X178080000Y-130000000D03*
G04 #@! TO.N,FAN_PWM*
X180620000Y-130000000D03*
G04 #@! TD*
D12*
G04 #@! TO.N,VBUS_PC*
G04 #@! TO.C,J1*
X103880000Y-120500000D03*
D13*
G04 #@! TO.N,USB_DM_CONN*
X103880000Y-118000000D03*
G04 #@! TO.N,USB_DP_CONN*
X103880000Y-116000000D03*
G04 #@! TO.N,GND*
X103880000Y-113500000D03*
D14*
X101720000Y-111050000D03*
X101720000Y-122950000D03*
G04 #@! TD*
D15*
G04 #@! TO.N,GND*
G04 #@! TO.C,J2*
X183520000Y-116320000D03*
D16*
X187700000Y-116320000D03*
D15*
X183520000Y-107680000D03*
D16*
X187700000Y-107680000D03*
G04 #@! TD*
D17*
G04 #@! TO.N,VBUS_EXT*
X184000000Y-117400000D03*
X171200000Y-101100000D03*
X179900000Y-109550000D03*
X178750000Y-114600000D03*
X178600000Y-101300000D03*
X180700000Y-114450000D03*
X178900000Y-117800000D03*
X179900000Y-114450000D03*
X180700000Y-109550000D03*
X167400000Y-108400000D03*
X178750000Y-109500000D03*
G04 #@! TO.N,GND*
X174230000Y-108600000D03*
X181830000Y-120000000D03*
X189289000Y-128089000D03*
X162675000Y-114600000D03*
X154650000Y-131199999D03*
X176050000Y-111800000D03*
X152050000Y-114750000D03*
X110233000Y-126428000D03*
X172440000Y-104000000D03*
X139068000Y-105726000D03*
X166759000Y-105418000D03*
X169170000Y-123290000D03*
X167510000Y-118400000D03*
X166420000Y-104260000D03*
X161475000Y-124250000D03*
X173400000Y-104750000D03*
X117730000Y-111300000D03*
X155349000Y-120469000D03*
X165310000Y-117200000D03*
X129199999Y-114200000D03*
X162610000Y-118070000D03*
X173300000Y-125138000D03*
X115260000Y-104680000D03*
X130800000Y-114200000D03*
X136710000Y-118500000D03*
X146750000Y-129800000D03*
X151870000Y-102990000D03*
X144250000Y-113025000D03*
X169810000Y-106700000D03*
X138980000Y-129787000D03*
X131560000Y-124080000D03*
X166532000Y-108583000D03*
X156380000Y-117808000D03*
X165310000Y-116000000D03*
X171209999Y-106700000D03*
X117610000Y-126400000D03*
X117630000Y-124200000D03*
X129199999Y-115800000D03*
X169400000Y-106250000D03*
X133192000Y-107450000D03*
X130800000Y-115800000D03*
X130460000Y-122280000D03*
X169810000Y-105300000D03*
X185300000Y-102300000D03*
X126520000Y-110160000D03*
X188100000Y-118800000D03*
X161475000Y-129050000D03*
X124320000Y-120960000D03*
X173400000Y-105750000D03*
X110125000Y-122225000D03*
X114760000Y-124730000D03*
X136510000Y-110100000D03*
X160300000Y-117500000D03*
X162600000Y-120400000D03*
X122510000Y-107400000D03*
X156164000Y-123039000D03*
X171209999Y-105300000D03*
X179025000Y-106800000D03*
X141039000Y-102826000D03*
X113750000Y-117000000D03*
X124320000Y-119760000D03*
X124159000Y-114818000D03*
X184275000Y-124150000D03*
X130050000Y-127550000D03*
X148273000Y-108468000D03*
X127159000Y-121718000D03*
X181373000Y-108240000D03*
X174659000Y-111918000D03*
X117485000Y-104233000D03*
X122175000Y-105600000D03*
X181916000Y-115939000D03*
G04 #@! TO.N,BB_LDRV*
X146000000Y-111500000D03*
X154100000Y-114550000D03*
G04 #@! TO.N,FAN_TACH*
X155956100Y-106395200D03*
G04 #@! TO.N,FAN_TACH_MCU*
X151677300Y-105867300D03*
X147121600Y-109640500D03*
G04 #@! TO.N,+3V3*
X129800000Y-112400900D03*
X132152800Y-114267300D03*
G04 #@! TO.N,I2C_SDA*
X140028400Y-109088200D03*
X135959300Y-115085900D03*
X151300000Y-118650000D03*
X173147100Y-107866300D03*
G04 #@! TO.N,QSPI_SS*
X132781100Y-129787500D03*
X133097000Y-118489100D03*
G04 #@! TO.N,QSPI_SD1*
X133048300Y-119131300D03*
X132792200Y-128729600D03*
G04 #@! TO.N,CC1_EXT*
X180641300Y-107536700D03*
X181200000Y-112900000D03*
G04 #@! TO.N,CC2_EXT*
X181200000Y-110600000D03*
X175961600Y-107056000D03*
G04 #@! TO.N,I2C_SCL*
X140652500Y-105697000D03*
X152200000Y-118000000D03*
X173500000Y-107300000D03*
X161729500Y-110907800D03*
X132587400Y-115820400D03*
X168799200Y-110907800D03*
G04 #@! TO.N,PD_ATTACH*
X144798500Y-106897800D03*
X143327400Y-102472700D03*
X144482500Y-105690000D03*
G04 #@! TO.N,PD_ALERT*
X153738700Y-102623800D03*
X145306000Y-105861000D03*
G04 #@! TO.N,FAN_PWM_MCU*
X140080100Y-117933000D03*
X160506700Y-126342700D03*
G04 #@! TO.N,BB_EN*
X135200000Y-115600000D03*
X152784700Y-105480700D03*
X153300000Y-117400000D03*
G04 #@! TO.N,BB_INT*
X139934200Y-115086600D03*
X156150800Y-121282400D03*
X134607000Y-115090900D03*
X159750000Y-118250000D03*
X141619400Y-105686200D03*
G04 #@! TO.N,PC_EN*
X116871300Y-117406300D03*
X111000000Y-122600000D03*
X132586900Y-114800000D03*
X123146800Y-117406300D03*
G04 #@! TO.N,PC_FLT*
X138460300Y-114400000D03*
X111250000Y-126450000D03*
X142112600Y-106268000D03*
X117000000Y-131000000D03*
X138767300Y-119513500D03*
X139222500Y-115098900D03*
G04 #@! TO.N,EXT_FLT*
X148376000Y-106589900D03*
X179900000Y-110550000D03*
G04 #@! TO.N,LED*
X139663700Y-102794900D03*
X143628700Y-105769400D03*
G04 #@! TO.N,XIN*
X133000100Y-110870100D03*
X131258000Y-110543300D03*
G04 #@! TO.N,ADC_IOUT*
X141179200Y-116784300D03*
X162386700Y-115264700D03*
X142315200Y-117677100D03*
X125250000Y-117400000D03*
G04 #@! TO.N,ADC_ILM_EXT*
X172900000Y-112800000D03*
X127637000Y-116852900D03*
G04 #@! TO.N,USB_DM*
X122599800Y-119055100D03*
X128695600Y-119947900D03*
G04 #@! TO.N,USB_DP*
X122272300Y-118459000D03*
X129095200Y-119382800D03*
G04 #@! TO.N,BB_HDRV*
X153950000Y-116000000D03*
X146600000Y-113100000D03*
G04 #@! TO.N,VSYS*
X177100000Y-114500000D03*
X115000000Y-121000000D03*
X145000000Y-117000000D03*
X114300000Y-127400000D03*
X146600000Y-117000000D03*
X145800000Y-117800000D03*
X145800000Y-117000000D03*
X143400000Y-117000000D03*
X144600000Y-124300000D03*
X147400000Y-117000000D03*
X143400000Y-117800000D03*
X177100000Y-110100000D03*
X176300000Y-114500000D03*
X146600000Y-117800000D03*
X144200000Y-117000000D03*
X144200000Y-117800000D03*
X147400000Y-117800000D03*
X115600000Y-113200000D03*
X114200000Y-121000000D03*
X146200000Y-124300000D03*
X145000000Y-117800000D03*
X145400000Y-124300000D03*
X176300000Y-110100000D03*
G04 #@! TO.N,+12V*
X159900000Y-132600000D03*
X160800000Y-132600000D03*
X183000000Y-121200000D03*
X159550000Y-119350000D03*
X185000000Y-121200000D03*
X184400000Y-125300000D03*
X161600000Y-131400000D03*
G04 #@! TO.N,BB_CDC*
X160850000Y-119050000D03*
X159600000Y-117000000D03*
G04 #@! TO.N,AUX_OFF*
X148297200Y-105585700D03*
X179950000Y-111550000D03*
X112738700Y-119755500D03*
G04 #@! TO.N,VBUS_PC*
X112000000Y-127300000D03*
X109300000Y-117000000D03*
X112000000Y-120900000D03*
X111200000Y-120900000D03*
X115600000Y-102000000D03*
X114400000Y-102600000D03*
X118400000Y-102000000D03*
G04 #@! TO.N,USB_DM_CONN*
X112843200Y-118846600D03*
G04 #@! TO.N,EXT_EN*
X179750000Y-113250000D03*
X178331400Y-116049800D03*
G04 #@! TO.N,EXT_OVLO*
X180350000Y-112350000D03*
X181681000Y-118781500D03*
G04 #@! TD*
G04 #@! TA.AperFunction,Conductor*
G04 #@! TO.N,GND*
G36*
X189709191Y-100268907D02*
G01*
X189745155Y-100318407D01*
X189750000Y-100349000D01*
X189750000Y-133651000D01*
X189731093Y-133709191D01*
X189681593Y-133745155D01*
X189651000Y-133750000D01*
X100349000Y-133750000D01*
X100290809Y-133731093D01*
X100254845Y-133681593D01*
X100250000Y-133651000D01*
X100250000Y-132548590D01*
X159509500Y-132548590D01*
X159509500Y-132651410D01*
X159536112Y-132750728D01*
X159587522Y-132839773D01*
X159660227Y-132912478D01*
X159749272Y-132963888D01*
X159848590Y-132990500D01*
X159848592Y-132990500D01*
X159951408Y-132990500D01*
X159951410Y-132990500D01*
X160050728Y-132963888D01*
X160139773Y-132912478D01*
X160212478Y-132839773D01*
X160263888Y-132750728D01*
X160263888Y-132750725D01*
X160264263Y-132750077D01*
X160309733Y-132709136D01*
X160370583Y-132702740D01*
X160423571Y-132733333D01*
X160435737Y-132750077D01*
X160436111Y-132750725D01*
X160436112Y-132750728D01*
X160487522Y-132839773D01*
X160560227Y-132912478D01*
X160649272Y-132963888D01*
X160748590Y-132990500D01*
X160748592Y-132990500D01*
X160851408Y-132990500D01*
X160851410Y-132990500D01*
X160950728Y-132963888D01*
X161039773Y-132912478D01*
X161112478Y-132839773D01*
X161163888Y-132750728D01*
X161190500Y-132651410D01*
X161190500Y-132548590D01*
X161163888Y-132449272D01*
X161112478Y-132360227D01*
X161039773Y-132287522D01*
X160950728Y-132236112D01*
X160851410Y-132209500D01*
X160748590Y-132209500D01*
X160649272Y-132236112D01*
X160560227Y-132287522D01*
X160487520Y-132360229D01*
X160435736Y-132449922D01*
X160390267Y-132490863D01*
X160329416Y-132497259D01*
X160276428Y-132466666D01*
X160264264Y-132449922D01*
X160212479Y-132360229D01*
X160212478Y-132360227D01*
X160139773Y-132287522D01*
X160050728Y-132236112D01*
X159951410Y-132209500D01*
X159848590Y-132209500D01*
X159749272Y-132236112D01*
X159660227Y-132287522D01*
X159587522Y-132360227D01*
X159536112Y-132449272D01*
X159509500Y-132548590D01*
X100250000Y-132548590D01*
X100250000Y-130948590D01*
X116609500Y-130948590D01*
X116609500Y-131051410D01*
X116636112Y-131150728D01*
X116687522Y-131239773D01*
X116760227Y-131312478D01*
X116849272Y-131363888D01*
X116948590Y-131390500D01*
X116948592Y-131390500D01*
X117051408Y-131390500D01*
X117051410Y-131390500D01*
X117150728Y-131363888D01*
X117177225Y-131348590D01*
X161209500Y-131348590D01*
X161209500Y-131451410D01*
X161236112Y-131550728D01*
X161287522Y-131639773D01*
X161360227Y-131712478D01*
X161449272Y-131763888D01*
X161548590Y-131790500D01*
X161548592Y-131790500D01*
X161651408Y-131790500D01*
X161651410Y-131790500D01*
X161750728Y-131763888D01*
X161839773Y-131712478D01*
X161912478Y-131639773D01*
X161963888Y-131550728D01*
X161990500Y-131451410D01*
X161990500Y-131348590D01*
X161963888Y-131249272D01*
X161912478Y-131160227D01*
X161839773Y-131087522D01*
X161750728Y-131036112D01*
X161651410Y-131009500D01*
X161548590Y-131009500D01*
X161449272Y-131036112D01*
X161360227Y-131087522D01*
X161287522Y-131160227D01*
X161236112Y-131249272D01*
X161209500Y-131348590D01*
X117177225Y-131348590D01*
X117239773Y-131312478D01*
X117312478Y-131239773D01*
X117363888Y-131150728D01*
X117390500Y-131051410D01*
X117390500Y-130948590D01*
X117363888Y-130849272D01*
X117312478Y-130760227D01*
X117239773Y-130687522D01*
X117150728Y-130636112D01*
X117051410Y-130609500D01*
X116948590Y-130609500D01*
X116849272Y-130636112D01*
X116760227Y-130687522D01*
X116687522Y-130760227D01*
X116636112Y-130849272D01*
X116609500Y-130948590D01*
X100250000Y-130948590D01*
X100250000Y-129736090D01*
X132390600Y-129736090D01*
X132390600Y-129838910D01*
X132417212Y-129938228D01*
X132468622Y-130027273D01*
X132541327Y-130099978D01*
X132630372Y-130151388D01*
X132729690Y-130178000D01*
X132729692Y-130178000D01*
X132832508Y-130178000D01*
X132832510Y-130178000D01*
X132931828Y-130151388D01*
X133020873Y-130099978D01*
X133093578Y-130027273D01*
X133144988Y-129938228D01*
X133171600Y-129838910D01*
X133171600Y-129736090D01*
X133144988Y-129636772D01*
X133093578Y-129547727D01*
X133020873Y-129475022D01*
X132931828Y-129423612D01*
X132832510Y-129397000D01*
X132729690Y-129397000D01*
X132630372Y-129423612D01*
X132541327Y-129475022D01*
X132468622Y-129547727D01*
X132417212Y-129636772D01*
X132390600Y-129736090D01*
X100250000Y-129736090D01*
X100250000Y-128678190D01*
X132401700Y-128678190D01*
X132401700Y-128781010D01*
X132428312Y-128880328D01*
X132479722Y-128969373D01*
X132552427Y-129042078D01*
X132641472Y-129093488D01*
X132740790Y-129120100D01*
X132740792Y-129120100D01*
X132843608Y-129120100D01*
X132843610Y-129120100D01*
X132942928Y-129093488D01*
X133031973Y-129042078D01*
X133104678Y-128969373D01*
X133109873Y-128960375D01*
X171885000Y-128960375D01*
X171885000Y-129849999D01*
X171885001Y-129850000D01*
X172512201Y-129850000D01*
X172490000Y-129932857D01*
X172490000Y-130067143D01*
X172512201Y-130150000D01*
X171885001Y-130150000D01*
X171885000Y-130150001D01*
X171885000Y-131039624D01*
X171899506Y-131112546D01*
X171899507Y-131112548D01*
X171954758Y-131195237D01*
X171954762Y-131195241D01*
X172037451Y-131250492D01*
X172037453Y-131250493D01*
X172110375Y-131264999D01*
X172110377Y-131265000D01*
X172849999Y-131265000D01*
X172850000Y-131264999D01*
X172850000Y-130487798D01*
X172932857Y-130510000D01*
X173067143Y-130510000D01*
X173150000Y-130487798D01*
X173150000Y-131264999D01*
X173150001Y-131265000D01*
X173889623Y-131265000D01*
X173889624Y-131264999D01*
X173962546Y-131250493D01*
X173962548Y-131250492D01*
X174045237Y-131195241D01*
X174045241Y-131195237D01*
X174100492Y-131112548D01*
X174100493Y-131112546D01*
X174114999Y-131039624D01*
X174115000Y-131039622D01*
X174115000Y-130150001D01*
X174114999Y-130150000D01*
X173487799Y-130150000D01*
X173510000Y-130067143D01*
X173510000Y-129932857D01*
X173487799Y-129850000D01*
X174114999Y-129850000D01*
X174115000Y-129849999D01*
X174115000Y-129750964D01*
X174534500Y-129750964D01*
X174534500Y-130249035D01*
X174573141Y-130443292D01*
X174573141Y-130443294D01*
X174648936Y-130626280D01*
X174648937Y-130626282D01*
X174648938Y-130626283D01*
X174758977Y-130790969D01*
X174899031Y-130931023D01*
X175063717Y-131041062D01*
X175246707Y-131116859D01*
X175440967Y-131155500D01*
X175440968Y-131155500D01*
X175639032Y-131155500D01*
X175639033Y-131155500D01*
X175833293Y-131116859D01*
X176016283Y-131041062D01*
X176180969Y-130931023D01*
X176321023Y-130790969D01*
X176431062Y-130626283D01*
X176506859Y-130443293D01*
X176545500Y-130249033D01*
X176545500Y-129750967D01*
X176545499Y-129750964D01*
X177074500Y-129750964D01*
X177074500Y-130249035D01*
X177113141Y-130443292D01*
X177113141Y-130443294D01*
X177188936Y-130626280D01*
X177188937Y-130626282D01*
X177188938Y-130626283D01*
X177298977Y-130790969D01*
X177439031Y-130931023D01*
X177603717Y-131041062D01*
X177786707Y-131116859D01*
X177980967Y-131155500D01*
X177980968Y-131155500D01*
X178179032Y-131155500D01*
X178179033Y-131155500D01*
X178373293Y-131116859D01*
X178556283Y-131041062D01*
X178720969Y-130931023D01*
X178861023Y-130790969D01*
X178971062Y-130626283D01*
X179046859Y-130443293D01*
X179085500Y-130249033D01*
X179085500Y-129750967D01*
X179085499Y-129750964D01*
X179614500Y-129750964D01*
X179614500Y-130249035D01*
X179653141Y-130443292D01*
X179653141Y-130443294D01*
X179728936Y-130626280D01*
X179728937Y-130626282D01*
X179728938Y-130626283D01*
X179838977Y-130790969D01*
X179979031Y-130931023D01*
X180143717Y-131041062D01*
X180326707Y-131116859D01*
X180520967Y-131155500D01*
X180520968Y-131155500D01*
X180719032Y-131155500D01*
X180719033Y-131155500D01*
X180913293Y-131116859D01*
X181096283Y-131041062D01*
X181260969Y-130931023D01*
X181401023Y-130790969D01*
X181511062Y-130626283D01*
X181586859Y-130443293D01*
X181625500Y-130249033D01*
X181625500Y-129750967D01*
X181586859Y-129556707D01*
X181511062Y-129373717D01*
X181401023Y-129209031D01*
X181260969Y-129068977D01*
X181096283Y-128958938D01*
X181096282Y-128958937D01*
X181096280Y-128958936D01*
X180913293Y-128883141D01*
X180719035Y-128844500D01*
X180719033Y-128844500D01*
X180520967Y-128844500D01*
X180520964Y-128844500D01*
X180326707Y-128883141D01*
X180326705Y-128883141D01*
X180143719Y-128958936D01*
X179979034Y-129068974D01*
X179838974Y-129209034D01*
X179728936Y-129373719D01*
X179653141Y-129556705D01*
X179653141Y-129556707D01*
X179614500Y-129750964D01*
X179085499Y-129750964D01*
X179046859Y-129556707D01*
X178971062Y-129373717D01*
X178861023Y-129209031D01*
X178720969Y-129068977D01*
X178556283Y-128958938D01*
X178556282Y-128958937D01*
X178556280Y-128958936D01*
X178373293Y-128883141D01*
X178179035Y-128844500D01*
X178179033Y-128844500D01*
X177980967Y-128844500D01*
X177980964Y-128844500D01*
X177786707Y-128883141D01*
X177786705Y-128883141D01*
X177603719Y-128958936D01*
X177439034Y-129068974D01*
X177298974Y-129209034D01*
X177188936Y-129373719D01*
X177113141Y-129556705D01*
X177113141Y-129556707D01*
X177074500Y-129750964D01*
X176545499Y-129750964D01*
X176506859Y-129556707D01*
X176431062Y-129373717D01*
X176321023Y-129209031D01*
X176180969Y-129068977D01*
X176016283Y-128958938D01*
X176016282Y-128958937D01*
X176016280Y-128958936D01*
X175833293Y-128883141D01*
X175639035Y-128844500D01*
X175639033Y-128844500D01*
X175440967Y-128844500D01*
X175440964Y-128844500D01*
X175246707Y-128883141D01*
X175246705Y-128883141D01*
X175063719Y-128958936D01*
X174899034Y-129068974D01*
X174758974Y-129209034D01*
X174648936Y-129373719D01*
X174573141Y-129556705D01*
X174573141Y-129556707D01*
X174534500Y-129750964D01*
X174115000Y-129750964D01*
X174115000Y-128960377D01*
X174114999Y-128960375D01*
X174100493Y-128887453D01*
X174100492Y-128887451D01*
X174045241Y-128804762D01*
X174045237Y-128804758D01*
X173962548Y-128749507D01*
X173962546Y-128749506D01*
X173889624Y-128735000D01*
X173150001Y-128735000D01*
X173150000Y-128735001D01*
X173150000Y-129512201D01*
X173067143Y-129490000D01*
X172932857Y-129490000D01*
X172850000Y-129512201D01*
X172850000Y-128735001D01*
X172849999Y-128735000D01*
X172110375Y-128735000D01*
X172037453Y-128749506D01*
X172037451Y-128749507D01*
X171954762Y-128804758D01*
X171954758Y-128804762D01*
X171899507Y-128887451D01*
X171899506Y-128887453D01*
X171885000Y-128960375D01*
X133109873Y-128960375D01*
X133124489Y-128935057D01*
X133141260Y-128906012D01*
X133151974Y-128887453D01*
X133156088Y-128880328D01*
X133182700Y-128781010D01*
X133182700Y-128678190D01*
X133156088Y-128578872D01*
X133104678Y-128489827D01*
X133031973Y-128417122D01*
X132942928Y-128365712D01*
X132843610Y-128339100D01*
X132740790Y-128339100D01*
X132641472Y-128365712D01*
X132552427Y-128417122D01*
X132479722Y-128489827D01*
X132428312Y-128578872D01*
X132401700Y-128678190D01*
X100250000Y-128678190D01*
X100250000Y-127248590D01*
X111609500Y-127248590D01*
X111609500Y-127351410D01*
X111636112Y-127450728D01*
X111687522Y-127539773D01*
X111760227Y-127612478D01*
X111849272Y-127663888D01*
X111948590Y-127690500D01*
X111948592Y-127690500D01*
X112051408Y-127690500D01*
X112051410Y-127690500D01*
X112150728Y-127663888D01*
X112239773Y-127612478D01*
X112312478Y-127539773D01*
X112363888Y-127450728D01*
X112390500Y-127351410D01*
X112390500Y-127348590D01*
X113909500Y-127348590D01*
X113909500Y-127451410D01*
X113936112Y-127550728D01*
X113987522Y-127639773D01*
X114060227Y-127712478D01*
X114149272Y-127763888D01*
X114248590Y-127790500D01*
X114248592Y-127790500D01*
X114351408Y-127790500D01*
X114351410Y-127790500D01*
X114420487Y-127771991D01*
X177389500Y-127771991D01*
X177389500Y-127908008D01*
X177416036Y-128041412D01*
X177468084Y-128167069D01*
X177468090Y-128167080D01*
X177513551Y-128235115D01*
X177543654Y-128280168D01*
X177639832Y-128376346D01*
X177700858Y-128417122D01*
X177752919Y-128451909D01*
X177752930Y-128451915D01*
X177836701Y-128486613D01*
X177878589Y-128503964D01*
X178011992Y-128530500D01*
X178011993Y-128530500D01*
X178148007Y-128530500D01*
X178148008Y-128530500D01*
X178281411Y-128503964D01*
X178407074Y-128451913D01*
X178520168Y-128376346D01*
X178616346Y-128280168D01*
X178691913Y-128167074D01*
X178743964Y-128041411D01*
X178770500Y-127908008D01*
X178770500Y-127771992D01*
X178743964Y-127638589D01*
X178707571Y-127550727D01*
X178691915Y-127512930D01*
X178691909Y-127512919D01*
X178650808Y-127451408D01*
X178616346Y-127399832D01*
X178520168Y-127303654D01*
X178438780Y-127249272D01*
X178407080Y-127228090D01*
X178407069Y-127228084D01*
X178281412Y-127176036D01*
X178148008Y-127149500D01*
X178011992Y-127149500D01*
X178011991Y-127149500D01*
X177878587Y-127176036D01*
X177752930Y-127228084D01*
X177752919Y-127228090D01*
X177639832Y-127303654D01*
X177639828Y-127303657D01*
X177543657Y-127399828D01*
X177543654Y-127399832D01*
X177468090Y-127512919D01*
X177468084Y-127512930D01*
X177416036Y-127638587D01*
X177389500Y-127771991D01*
X114420487Y-127771991D01*
X114450728Y-127763888D01*
X114539773Y-127712478D01*
X114612478Y-127639773D01*
X114663888Y-127550728D01*
X114690500Y-127451410D01*
X114690500Y-127348590D01*
X114663888Y-127249272D01*
X114612478Y-127160227D01*
X114539773Y-127087522D01*
X114450728Y-127036112D01*
X114351410Y-127009500D01*
X114248590Y-127009500D01*
X114149272Y-127036112D01*
X114060227Y-127087522D01*
X113987522Y-127160227D01*
X113936112Y-127249272D01*
X113909500Y-127348590D01*
X112390500Y-127348590D01*
X112390500Y-127248590D01*
X112363888Y-127149272D01*
X112312478Y-127060227D01*
X112239773Y-126987522D01*
X112150728Y-126936112D01*
X112051410Y-126909500D01*
X111948590Y-126909500D01*
X111849272Y-126936112D01*
X111760227Y-126987522D01*
X111687522Y-127060227D01*
X111636112Y-127149272D01*
X111609500Y-127248590D01*
X100250000Y-127248590D01*
X100250000Y-126398590D01*
X110859500Y-126398590D01*
X110859500Y-126501410D01*
X110886112Y-126600728D01*
X110937522Y-126689773D01*
X111010227Y-126762478D01*
X111099272Y-126813888D01*
X111198590Y-126840500D01*
X111198592Y-126840500D01*
X111301408Y-126840500D01*
X111301410Y-126840500D01*
X111400728Y-126813888D01*
X111489773Y-126762478D01*
X111562478Y-126689773D01*
X111613888Y-126600728D01*
X111640500Y-126501410D01*
X111640500Y-126398590D01*
X111613888Y-126299272D01*
X111609280Y-126291290D01*
X160116200Y-126291290D01*
X160116200Y-126394110D01*
X160142812Y-126493428D01*
X160194222Y-126582473D01*
X160266927Y-126655178D01*
X160355972Y-126706588D01*
X160455290Y-126733200D01*
X160455292Y-126733200D01*
X160558108Y-126733200D01*
X160558110Y-126733200D01*
X160657428Y-126706588D01*
X160746473Y-126655178D01*
X160819178Y-126582473D01*
X160870588Y-126493428D01*
X160897200Y-126394110D01*
X160897200Y-126291290D01*
X160870588Y-126191972D01*
X160819178Y-126102927D01*
X160746473Y-126030222D01*
X160657428Y-125978812D01*
X160558110Y-125952200D01*
X160455290Y-125952200D01*
X160355972Y-125978812D01*
X160266927Y-126030222D01*
X160194222Y-126102927D01*
X160142812Y-126191972D01*
X160116200Y-126291290D01*
X111609280Y-126291290D01*
X111562478Y-126210227D01*
X111489773Y-126137522D01*
X111400728Y-126086112D01*
X111301410Y-126059500D01*
X111198590Y-126059500D01*
X111099272Y-126086112D01*
X111010227Y-126137522D01*
X110937522Y-126210227D01*
X110886112Y-126299272D01*
X110859500Y-126398590D01*
X100250000Y-126398590D01*
X100250000Y-125248590D01*
X184009500Y-125248590D01*
X184009500Y-125351410D01*
X184036112Y-125450728D01*
X184087522Y-125539773D01*
X184160227Y-125612478D01*
X184249272Y-125663888D01*
X184348590Y-125690500D01*
X184348592Y-125690500D01*
X184451408Y-125690500D01*
X184451410Y-125690500D01*
X184550728Y-125663888D01*
X184639773Y-125612478D01*
X184712478Y-125539773D01*
X184763888Y-125450728D01*
X184790500Y-125351410D01*
X184790500Y-125248590D01*
X184763888Y-125149272D01*
X184712478Y-125060227D01*
X184639773Y-124987522D01*
X184550728Y-124936112D01*
X184451410Y-124909500D01*
X184348590Y-124909500D01*
X184249272Y-124936112D01*
X184160227Y-124987522D01*
X184087522Y-125060227D01*
X184036112Y-125149272D01*
X184009500Y-125248590D01*
X100250000Y-125248590D01*
X100250000Y-124175278D01*
X100268907Y-124117087D01*
X100318407Y-124081123D01*
X100355476Y-124076490D01*
X100379782Y-124078083D01*
X100807415Y-123650449D01*
X100842822Y-123699181D01*
X100970819Y-123827178D01*
X101019548Y-123862582D01*
X100591915Y-124290216D01*
X100745667Y-124408194D01*
X100944341Y-124522898D01*
X101156268Y-124610680D01*
X101156281Y-124610684D01*
X101377863Y-124670057D01*
X101605297Y-124699999D01*
X101605300Y-124700000D01*
X101834700Y-124700000D01*
X101834702Y-124699999D01*
X102062133Y-124670057D01*
X102062138Y-124670057D01*
X102283718Y-124610684D01*
X102283731Y-124610680D01*
X102495658Y-124522898D01*
X102694342Y-124408188D01*
X102848083Y-124290216D01*
X102806457Y-124248590D01*
X144209500Y-124248590D01*
X144209500Y-124351410D01*
X144236112Y-124450728D01*
X144287522Y-124539773D01*
X144360227Y-124612478D01*
X144449272Y-124663888D01*
X144548590Y-124690500D01*
X144548592Y-124690500D01*
X144651408Y-124690500D01*
X144651410Y-124690500D01*
X144750728Y-124663888D01*
X144839773Y-124612478D01*
X144912478Y-124539773D01*
X144914263Y-124536680D01*
X144916165Y-124534968D01*
X144916427Y-124534627D01*
X144916490Y-124534675D01*
X144959730Y-124495740D01*
X145020579Y-124489342D01*
X145073569Y-124519932D01*
X145085735Y-124536678D01*
X145087522Y-124539773D01*
X145160227Y-124612478D01*
X145249272Y-124663888D01*
X145348590Y-124690500D01*
X145348592Y-124690500D01*
X145451408Y-124690500D01*
X145451410Y-124690500D01*
X145550728Y-124663888D01*
X145639773Y-124612478D01*
X145712478Y-124539773D01*
X145714263Y-124536680D01*
X145716165Y-124534968D01*
X145716427Y-124534627D01*
X145716490Y-124534675D01*
X145759730Y-124495740D01*
X145820579Y-124489342D01*
X145873569Y-124519932D01*
X145885735Y-124536678D01*
X145887522Y-124539773D01*
X145960227Y-124612478D01*
X146049272Y-124663888D01*
X146148590Y-124690500D01*
X146148592Y-124690500D01*
X146251408Y-124690500D01*
X146251410Y-124690500D01*
X146350728Y-124663888D01*
X146439773Y-124612478D01*
X146512478Y-124539773D01*
X146563888Y-124450728D01*
X146590500Y-124351410D01*
X146590500Y-124248590D01*
X146563888Y-124149272D01*
X146512478Y-124060227D01*
X146439773Y-123987522D01*
X146350728Y-123936112D01*
X146251410Y-123909500D01*
X146148590Y-123909500D01*
X146093199Y-123924342D01*
X146049272Y-123936112D01*
X145960227Y-123987522D01*
X145887521Y-124060228D01*
X145885736Y-124063321D01*
X145883832Y-124065035D01*
X145883573Y-124065373D01*
X145883510Y-124065324D01*
X145840266Y-124104261D01*
X145779416Y-124110656D01*
X145726428Y-124080063D01*
X145714264Y-124063321D01*
X145712478Y-124060227D01*
X145639773Y-123987522D01*
X145550728Y-123936112D01*
X145451410Y-123909500D01*
X145348590Y-123909500D01*
X145293199Y-123924342D01*
X145249272Y-123936112D01*
X145160227Y-123987522D01*
X145087521Y-124060228D01*
X145085736Y-124063321D01*
X145083832Y-124065035D01*
X145083573Y-124065373D01*
X145083510Y-124065324D01*
X145040266Y-124104261D01*
X144979416Y-124110656D01*
X144926428Y-124080063D01*
X144914264Y-124063321D01*
X144912478Y-124060227D01*
X144839773Y-123987522D01*
X144750728Y-123936112D01*
X144651410Y-123909500D01*
X144548590Y-123909500D01*
X144449272Y-123936112D01*
X144360227Y-123987522D01*
X144287522Y-124060227D01*
X144236112Y-124149272D01*
X144209500Y-124248590D01*
X102806457Y-124248590D01*
X102420450Y-123862583D01*
X102469181Y-123827178D01*
X102597178Y-123699181D01*
X102632583Y-123650450D01*
X103060216Y-124078083D01*
X103178188Y-123924342D01*
X103292898Y-123725658D01*
X103380680Y-123513731D01*
X103380684Y-123513718D01*
X103440057Y-123292138D01*
X103440057Y-123292133D01*
X103469999Y-123064702D01*
X103470000Y-123064700D01*
X103470000Y-122835300D01*
X103469999Y-122835297D01*
X103440057Y-122607866D01*
X103440057Y-122607861D01*
X103429302Y-122567724D01*
X103424175Y-122548590D01*
X110609500Y-122548590D01*
X110609500Y-122651410D01*
X110636112Y-122750728D01*
X110687522Y-122839773D01*
X110760227Y-122912478D01*
X110849272Y-122963888D01*
X110948590Y-122990500D01*
X110948592Y-122990500D01*
X111051408Y-122990500D01*
X111051410Y-122990500D01*
X111150728Y-122963888D01*
X111239773Y-122912478D01*
X111312478Y-122839773D01*
X111363888Y-122750728D01*
X111390500Y-122651410D01*
X111390500Y-122548590D01*
X111363888Y-122449272D01*
X111312478Y-122360227D01*
X111239773Y-122287522D01*
X111150728Y-122236112D01*
X111051410Y-122209500D01*
X110948590Y-122209500D01*
X110849272Y-122236112D01*
X110760227Y-122287522D01*
X110687522Y-122360227D01*
X110636112Y-122449272D01*
X110609500Y-122548590D01*
X103424175Y-122548590D01*
X103380684Y-122386281D01*
X103380680Y-122386268D01*
X103292898Y-122174341D01*
X103178194Y-121975667D01*
X103060215Y-121821915D01*
X102632582Y-122249548D01*
X102597178Y-122200819D01*
X102469181Y-122072822D01*
X102420449Y-122037416D01*
X102848083Y-121609783D01*
X102694332Y-121491805D01*
X102495658Y-121377101D01*
X102283731Y-121289319D01*
X102283718Y-121289315D01*
X102062136Y-121229942D01*
X101834702Y-121200000D01*
X101605297Y-121200000D01*
X101377866Y-121229942D01*
X101377861Y-121229942D01*
X101156281Y-121289315D01*
X101156268Y-121289319D01*
X100944341Y-121377101D01*
X100745662Y-121491808D01*
X100591915Y-121609782D01*
X101019549Y-122037416D01*
X100970819Y-122072822D01*
X100842822Y-122200819D01*
X100807416Y-122249549D01*
X100379781Y-121821914D01*
X100355475Y-121823508D01*
X100337232Y-121818875D01*
X100318407Y-121818875D01*
X100308290Y-121811524D01*
X100296172Y-121808447D01*
X100284136Y-121793976D01*
X100268907Y-121782911D01*
X100265042Y-121771017D01*
X100257048Y-121761405D01*
X100250000Y-121724720D01*
X100250000Y-119162290D01*
X100639500Y-119162290D01*
X100639500Y-119337709D01*
X100646137Y-119371073D01*
X100671926Y-119500727D01*
X100673721Y-119509748D01*
X100673721Y-119509750D01*
X100740847Y-119671807D01*
X100824612Y-119797172D01*
X100838303Y-119817661D01*
X100962339Y-119941697D01*
X101108190Y-120039151D01*
X101270251Y-120106279D01*
X101442293Y-120140500D01*
X101442294Y-120140500D01*
X101617706Y-120140500D01*
X101617707Y-120140500D01*
X101789749Y-120106279D01*
X101951810Y-120039151D01*
X102097661Y-119941697D01*
X102221697Y-119817661D01*
X102309567Y-119686154D01*
X102939500Y-119686154D01*
X102939500Y-121313841D01*
X102947650Y-121354819D01*
X102947650Y-121354820D01*
X102947651Y-121354821D01*
X102978705Y-121401295D01*
X103025179Y-121432349D01*
X103066159Y-121440500D01*
X104693840Y-121440499D01*
X104693841Y-121440499D01*
X104707500Y-121437782D01*
X104734821Y-121432349D01*
X104781295Y-121401295D01*
X104812349Y-121354821D01*
X104820500Y-121313841D01*
X104820500Y-120848590D01*
X110809500Y-120848590D01*
X110809500Y-120951410D01*
X110836112Y-121050728D01*
X110887522Y-121139773D01*
X110960227Y-121212478D01*
X111049272Y-121263888D01*
X111148590Y-121290500D01*
X111148592Y-121290500D01*
X111251408Y-121290500D01*
X111251410Y-121290500D01*
X111350728Y-121263888D01*
X111439773Y-121212478D01*
X111512478Y-121139773D01*
X111514263Y-121136680D01*
X111516165Y-121134968D01*
X111516427Y-121134627D01*
X111516490Y-121134675D01*
X111559730Y-121095740D01*
X111620579Y-121089342D01*
X111673569Y-121119932D01*
X111685735Y-121136678D01*
X111687522Y-121139773D01*
X111760227Y-121212478D01*
X111849272Y-121263888D01*
X111948590Y-121290500D01*
X111948592Y-121290500D01*
X112051408Y-121290500D01*
X112051410Y-121290500D01*
X112150728Y-121263888D01*
X112239773Y-121212478D01*
X112312478Y-121139773D01*
X112363888Y-121050728D01*
X112390500Y-120951410D01*
X112390500Y-120948590D01*
X113809500Y-120948590D01*
X113809500Y-121051410D01*
X113836112Y-121150728D01*
X113887522Y-121239773D01*
X113960227Y-121312478D01*
X114049272Y-121363888D01*
X114148590Y-121390500D01*
X114148592Y-121390500D01*
X114251408Y-121390500D01*
X114251410Y-121390500D01*
X114350728Y-121363888D01*
X114439773Y-121312478D01*
X114512478Y-121239773D01*
X114514263Y-121236680D01*
X114516165Y-121234968D01*
X114516427Y-121234627D01*
X114516490Y-121234675D01*
X114559730Y-121195740D01*
X114620579Y-121189342D01*
X114673569Y-121219932D01*
X114685735Y-121236678D01*
X114687522Y-121239773D01*
X114760227Y-121312478D01*
X114849272Y-121363888D01*
X114948590Y-121390500D01*
X114948592Y-121390500D01*
X115051408Y-121390500D01*
X115051410Y-121390500D01*
X115150728Y-121363888D01*
X115239773Y-121312478D01*
X115312478Y-121239773D01*
X115317549Y-121230990D01*
X155760300Y-121230990D01*
X155760300Y-121333810D01*
X155786912Y-121433128D01*
X155838322Y-121522173D01*
X155911027Y-121594878D01*
X156000072Y-121646288D01*
X156099390Y-121672900D01*
X156099392Y-121672900D01*
X156202208Y-121672900D01*
X156202210Y-121672900D01*
X156301528Y-121646288D01*
X156390573Y-121594878D01*
X156463278Y-121522173D01*
X156514688Y-121433128D01*
X156541300Y-121333810D01*
X156541300Y-121230990D01*
X156524348Y-121167723D01*
X156524348Y-121167721D01*
X156519222Y-121148590D01*
X182609500Y-121148590D01*
X182609500Y-121251410D01*
X182636112Y-121350728D01*
X182687522Y-121439773D01*
X182760227Y-121512478D01*
X182849272Y-121563888D01*
X182948590Y-121590500D01*
X182948592Y-121590500D01*
X183051408Y-121590500D01*
X183051410Y-121590500D01*
X183150728Y-121563888D01*
X183239773Y-121512478D01*
X183312478Y-121439773D01*
X183363888Y-121350728D01*
X183390500Y-121251410D01*
X183390500Y-121148590D01*
X184609500Y-121148590D01*
X184609500Y-121251410D01*
X184636112Y-121350728D01*
X184687522Y-121439773D01*
X184760227Y-121512478D01*
X184849272Y-121563888D01*
X184948590Y-121590500D01*
X184948592Y-121590500D01*
X185051408Y-121590500D01*
X185051410Y-121590500D01*
X185150728Y-121563888D01*
X185239773Y-121512478D01*
X185312478Y-121439773D01*
X185363888Y-121350728D01*
X185390500Y-121251410D01*
X185390500Y-121148590D01*
X185363888Y-121049272D01*
X185312478Y-120960227D01*
X185239773Y-120887522D01*
X185150728Y-120836112D01*
X185051410Y-120809500D01*
X184948590Y-120809500D01*
X184849272Y-120836112D01*
X184760227Y-120887522D01*
X184687522Y-120960227D01*
X184636112Y-121049272D01*
X184609500Y-121148590D01*
X183390500Y-121148590D01*
X183363888Y-121049272D01*
X183312478Y-120960227D01*
X183239773Y-120887522D01*
X183150728Y-120836112D01*
X183051410Y-120809500D01*
X182948590Y-120809500D01*
X182849272Y-120836112D01*
X182760227Y-120887522D01*
X182687522Y-120960227D01*
X182636112Y-121049272D01*
X182609500Y-121148590D01*
X156519222Y-121148590D01*
X156514689Y-121131675D01*
X156514688Y-121131674D01*
X156514688Y-121131672D01*
X156463278Y-121042627D01*
X156390573Y-120969922D01*
X156301528Y-120918512D01*
X156202210Y-120891900D01*
X156099390Y-120891900D01*
X156000072Y-120918512D01*
X155911027Y-120969922D01*
X155838322Y-121042627D01*
X155786912Y-121131672D01*
X155760300Y-121230990D01*
X115317549Y-121230990D01*
X115363888Y-121150728D01*
X115390500Y-121051410D01*
X115390500Y-120948590D01*
X115363888Y-120849272D01*
X115312478Y-120760227D01*
X115239773Y-120687522D01*
X115150728Y-120636112D01*
X115051410Y-120609500D01*
X114948590Y-120609500D01*
X114849272Y-120636112D01*
X114760227Y-120687522D01*
X114687521Y-120760228D01*
X114685736Y-120763321D01*
X114683832Y-120765035D01*
X114683573Y-120765373D01*
X114683510Y-120765324D01*
X114640266Y-120804261D01*
X114579416Y-120810656D01*
X114526428Y-120780063D01*
X114514264Y-120763321D01*
X114512478Y-120760227D01*
X114439773Y-120687522D01*
X114350728Y-120636112D01*
X114251410Y-120609500D01*
X114148590Y-120609500D01*
X114049272Y-120636112D01*
X113960227Y-120687522D01*
X113887522Y-120760227D01*
X113836112Y-120849272D01*
X113809500Y-120948590D01*
X112390500Y-120948590D01*
X112390500Y-120848590D01*
X112363888Y-120749272D01*
X112312478Y-120660227D01*
X112239773Y-120587522D01*
X112150728Y-120536112D01*
X112051410Y-120509500D01*
X111948590Y-120509500D01*
X111849272Y-120536112D01*
X111760227Y-120587522D01*
X111687521Y-120660228D01*
X111685736Y-120663321D01*
X111683832Y-120665035D01*
X111683573Y-120665373D01*
X111683510Y-120665324D01*
X111640266Y-120704261D01*
X111579416Y-120710656D01*
X111526428Y-120680063D01*
X111514264Y-120663321D01*
X111512478Y-120660227D01*
X111439773Y-120587522D01*
X111350728Y-120536112D01*
X111251410Y-120509500D01*
X111148590Y-120509500D01*
X111049272Y-120536112D01*
X110960227Y-120587522D01*
X110887522Y-120660227D01*
X110836112Y-120749272D01*
X110809500Y-120848590D01*
X104820500Y-120848590D01*
X104820499Y-120338400D01*
X104820499Y-119704090D01*
X112348200Y-119704090D01*
X112348200Y-119806910D01*
X112374812Y-119906228D01*
X112426222Y-119995273D01*
X112498927Y-120067978D01*
X112587972Y-120119388D01*
X112687290Y-120146000D01*
X112687292Y-120146000D01*
X112790108Y-120146000D01*
X112790110Y-120146000D01*
X112889428Y-120119388D01*
X112978473Y-120067978D01*
X113051178Y-119995273D01*
X113102588Y-119906228D01*
X113105197Y-119896490D01*
X128305100Y-119896490D01*
X128305100Y-119999310D01*
X128331712Y-120098628D01*
X128383122Y-120187673D01*
X128455827Y-120260378D01*
X128544872Y-120311788D01*
X128644190Y-120338400D01*
X128644192Y-120338400D01*
X128747008Y-120338400D01*
X128747010Y-120338400D01*
X128846328Y-120311788D01*
X128935373Y-120260378D01*
X129008078Y-120187673D01*
X129059488Y-120098628D01*
X129086100Y-119999310D01*
X129086100Y-119896490D01*
X129084979Y-119892306D01*
X129088179Y-119831208D01*
X129126683Y-119783657D01*
X129154977Y-119771057D01*
X129245928Y-119746688D01*
X129334973Y-119695278D01*
X129407678Y-119622573D01*
X129459088Y-119533528D01*
X129485700Y-119434210D01*
X129485700Y-119331390D01*
X129459088Y-119232072D01*
X129407678Y-119143027D01*
X129344541Y-119079890D01*
X132657800Y-119079890D01*
X132657800Y-119182710D01*
X132684412Y-119282028D01*
X132735822Y-119371073D01*
X132808527Y-119443778D01*
X132897572Y-119495188D01*
X132996890Y-119521800D01*
X132996892Y-119521800D01*
X133099708Y-119521800D01*
X133099710Y-119521800D01*
X133199028Y-119495188D01*
X133256356Y-119462090D01*
X138376800Y-119462090D01*
X138376800Y-119564910D01*
X138403412Y-119664228D01*
X138454822Y-119753273D01*
X138527527Y-119825978D01*
X138616572Y-119877388D01*
X138715890Y-119904000D01*
X138715892Y-119904000D01*
X138818708Y-119904000D01*
X138818710Y-119904000D01*
X138918028Y-119877388D01*
X139007073Y-119825978D01*
X139079778Y-119753273D01*
X139131188Y-119664228D01*
X139157800Y-119564910D01*
X139157800Y-119462090D01*
X139131188Y-119362772D01*
X139094133Y-119298590D01*
X159159500Y-119298590D01*
X159159500Y-119401410D01*
X159186112Y-119500728D01*
X159237522Y-119589773D01*
X159310227Y-119662478D01*
X159399272Y-119713888D01*
X159498590Y-119740500D01*
X159498592Y-119740500D01*
X159601408Y-119740500D01*
X159601410Y-119740500D01*
X159700728Y-119713888D01*
X159789773Y-119662478D01*
X159862478Y-119589773D01*
X159913888Y-119500728D01*
X159940500Y-119401410D01*
X159940500Y-119298590D01*
X159913888Y-119199272D01*
X159862478Y-119110227D01*
X159789773Y-119037522D01*
X159722341Y-118998590D01*
X160459500Y-118998590D01*
X160459500Y-119101410D01*
X160486112Y-119200728D01*
X160537522Y-119289773D01*
X160610227Y-119362478D01*
X160699272Y-119413888D01*
X160798590Y-119440500D01*
X160798592Y-119440500D01*
X160901408Y-119440500D01*
X160901410Y-119440500D01*
X161000728Y-119413888D01*
X161089773Y-119362478D01*
X161162478Y-119289773D01*
X161213888Y-119200728D01*
X161240500Y-119101410D01*
X161240500Y-118998590D01*
X161213888Y-118899272D01*
X161162478Y-118810227D01*
X161089773Y-118737522D01*
X161076900Y-118730090D01*
X181290500Y-118730090D01*
X181290500Y-118832910D01*
X181317112Y-118932228D01*
X181368522Y-119021273D01*
X181441227Y-119093978D01*
X181530272Y-119145388D01*
X181629590Y-119172000D01*
X181629592Y-119172000D01*
X181732408Y-119172000D01*
X181732410Y-119172000D01*
X181831728Y-119145388D01*
X181920773Y-119093978D01*
X181993478Y-119021273D01*
X182044888Y-118932228D01*
X182071500Y-118832910D01*
X182071500Y-118730090D01*
X182044888Y-118630772D01*
X181993478Y-118541727D01*
X181920773Y-118469022D01*
X181831728Y-118417612D01*
X181732410Y-118391000D01*
X181629590Y-118391000D01*
X181530272Y-118417612D01*
X181441227Y-118469022D01*
X181368522Y-118541727D01*
X181317112Y-118630772D01*
X181290500Y-118730090D01*
X161076900Y-118730090D01*
X161000728Y-118686112D01*
X160901410Y-118659500D01*
X160798590Y-118659500D01*
X160699272Y-118686112D01*
X160610227Y-118737522D01*
X160537522Y-118810227D01*
X160486112Y-118899272D01*
X160459500Y-118998590D01*
X159722341Y-118998590D01*
X159700728Y-118986112D01*
X159601410Y-118959500D01*
X159498590Y-118959500D01*
X159399272Y-118986112D01*
X159310227Y-119037522D01*
X159237522Y-119110227D01*
X159186112Y-119199272D01*
X159159500Y-119298590D01*
X139094133Y-119298590D01*
X139079778Y-119273727D01*
X139007073Y-119201022D01*
X138918028Y-119149612D01*
X138818710Y-119123000D01*
X138715890Y-119123000D01*
X138616572Y-119149612D01*
X138527527Y-119201022D01*
X138454822Y-119273727D01*
X138403412Y-119362772D01*
X138376800Y-119462090D01*
X133256356Y-119462090D01*
X133288073Y-119443778D01*
X133360778Y-119371073D01*
X133412188Y-119282028D01*
X133438800Y-119182710D01*
X133438800Y-119079890D01*
X133412188Y-118980572D01*
X133360778Y-118891527D01*
X133360775Y-118891524D01*
X133357533Y-118885908D01*
X133360095Y-118884428D01*
X133343732Y-118838320D01*
X133361069Y-118779642D01*
X133372688Y-118765662D01*
X133409478Y-118728873D01*
X133460888Y-118639828D01*
X133471938Y-118598590D01*
X150909500Y-118598590D01*
X150909500Y-118701410D01*
X150936112Y-118800728D01*
X150987522Y-118889773D01*
X151060227Y-118962478D01*
X151149272Y-119013888D01*
X151248590Y-119040500D01*
X151248592Y-119040500D01*
X151351408Y-119040500D01*
X151351410Y-119040500D01*
X151450728Y-119013888D01*
X151539773Y-118962478D01*
X151612478Y-118889773D01*
X151663888Y-118800728D01*
X151690500Y-118701410D01*
X151690500Y-118598590D01*
X151663888Y-118499272D01*
X151612478Y-118410227D01*
X151539773Y-118337522D01*
X151450728Y-118286112D01*
X151351410Y-118259500D01*
X151248590Y-118259500D01*
X151149272Y-118286112D01*
X151060227Y-118337522D01*
X150987522Y-118410227D01*
X150936112Y-118499272D01*
X150909500Y-118598590D01*
X133471938Y-118598590D01*
X133487500Y-118540510D01*
X133487500Y-118437690D01*
X133460888Y-118338372D01*
X133409478Y-118249327D01*
X133336773Y-118176622D01*
X133247728Y-118125212D01*
X133148410Y-118098600D01*
X133045590Y-118098600D01*
X132946272Y-118125212D01*
X132857227Y-118176622D01*
X132784522Y-118249327D01*
X132733112Y-118338372D01*
X132706500Y-118437690D01*
X132706500Y-118540510D01*
X132733112Y-118639828D01*
X132784522Y-118728873D01*
X132784523Y-118728874D01*
X132787767Y-118734492D01*
X132785207Y-118735969D01*
X132801568Y-118782099D01*
X132784219Y-118840773D01*
X132772607Y-118854741D01*
X132735824Y-118891524D01*
X132735822Y-118891526D01*
X132735822Y-118891527D01*
X132684412Y-118980572D01*
X132657800Y-119079890D01*
X129344541Y-119079890D01*
X129334973Y-119070322D01*
X129245928Y-119018912D01*
X129146610Y-118992300D01*
X129043790Y-118992300D01*
X128944472Y-119018912D01*
X128855427Y-119070322D01*
X128782722Y-119143027D01*
X128731312Y-119232072D01*
X128713489Y-119298591D01*
X128704700Y-119331391D01*
X128704700Y-119434214D01*
X128705821Y-119438396D01*
X128702617Y-119499497D01*
X128664111Y-119547046D01*
X128635818Y-119559642D01*
X128544875Y-119584010D01*
X128478084Y-119622572D01*
X128455827Y-119635422D01*
X128383122Y-119708127D01*
X128331712Y-119797172D01*
X128305100Y-119896490D01*
X113105197Y-119896490D01*
X113129200Y-119806910D01*
X113129200Y-119704090D01*
X113102588Y-119604772D01*
X113051178Y-119515727D01*
X112978473Y-119443022D01*
X112970461Y-119438396D01*
X112915266Y-119406529D01*
X112874325Y-119361060D01*
X112867929Y-119300209D01*
X112898522Y-119247221D01*
X112939141Y-119225167D01*
X112993928Y-119210488D01*
X113082973Y-119159078D01*
X113155678Y-119086373D01*
X113207088Y-118997328D01*
X113233700Y-118898010D01*
X113233700Y-118795190D01*
X113207088Y-118695872D01*
X113155678Y-118606827D01*
X113082973Y-118534122D01*
X112993928Y-118482712D01*
X112894610Y-118456100D01*
X112791790Y-118456100D01*
X112692472Y-118482712D01*
X112603427Y-118534122D01*
X112530722Y-118606827D01*
X112479312Y-118695872D01*
X112452700Y-118795190D01*
X112452700Y-118898010D01*
X112479312Y-118997328D01*
X112530722Y-119086373D01*
X112603427Y-119159078D01*
X112666634Y-119195570D01*
X112707574Y-119241039D01*
X112713970Y-119301889D01*
X112683377Y-119354877D01*
X112642756Y-119376932D01*
X112587972Y-119391612D01*
X112498927Y-119443022D01*
X112426222Y-119515727D01*
X112374812Y-119604772D01*
X112348200Y-119704090D01*
X104820499Y-119704090D01*
X104820499Y-119697601D01*
X104820499Y-119686158D01*
X104812349Y-119645180D01*
X104812349Y-119645179D01*
X104781295Y-119598705D01*
X104734821Y-119567651D01*
X104734818Y-119567650D01*
X104693842Y-119559500D01*
X103066158Y-119559500D01*
X103025180Y-119567650D01*
X102978706Y-119598704D01*
X102978704Y-119598706D01*
X102947650Y-119645180D01*
X102947650Y-119645181D01*
X102939500Y-119686154D01*
X102309567Y-119686154D01*
X102319151Y-119671810D01*
X102386279Y-119509749D01*
X102420500Y-119337707D01*
X102420500Y-119162293D01*
X102386279Y-118990251D01*
X102319151Y-118828190D01*
X102221697Y-118682339D01*
X102097661Y-118558303D01*
X102072853Y-118541727D01*
X101951807Y-118460847D01*
X101789749Y-118393721D01*
X101617709Y-118359500D01*
X101617707Y-118359500D01*
X101442293Y-118359500D01*
X101442290Y-118359500D01*
X101270251Y-118393721D01*
X101270249Y-118393721D01*
X101108192Y-118460847D01*
X100962342Y-118558300D01*
X100838300Y-118682342D01*
X100740847Y-118828192D01*
X100673721Y-118990249D01*
X100673721Y-118990251D01*
X100639500Y-119162290D01*
X100250000Y-119162290D01*
X100250000Y-115907366D01*
X102939500Y-115907366D01*
X102939500Y-116092633D01*
X102975643Y-116274333D01*
X102975643Y-116274335D01*
X103046537Y-116445491D01*
X103046537Y-116445492D01*
X103108862Y-116538767D01*
X103149466Y-116599534D01*
X103280466Y-116730534D01*
X103434506Y-116833461D01*
X103434507Y-116833461D01*
X103434508Y-116833462D01*
X103605661Y-116904355D01*
X103605666Y-116904357D01*
X103605670Y-116904357D01*
X103608657Y-116905264D01*
X103609830Y-116906081D01*
X103610159Y-116906218D01*
X103610129Y-116906290D01*
X103658852Y-116940252D01*
X103678895Y-116998061D01*
X103661131Y-117056611D01*
X103612345Y-117093537D01*
X103608657Y-117094736D01*
X103605661Y-117095644D01*
X103434508Y-117166537D01*
X103434507Y-117166537D01*
X103280466Y-117269465D01*
X103149465Y-117400466D01*
X103046537Y-117554507D01*
X103046537Y-117554508D01*
X102975643Y-117725664D01*
X102975643Y-117725666D01*
X102939500Y-117907366D01*
X102939500Y-118092633D01*
X102975643Y-118274333D01*
X102975643Y-118274335D01*
X103046537Y-118445491D01*
X103046537Y-118445492D01*
X103127379Y-118566479D01*
X103149466Y-118599534D01*
X103280466Y-118730534D01*
X103434506Y-118833461D01*
X103605666Y-118904357D01*
X103787369Y-118940500D01*
X103787370Y-118940500D01*
X103972630Y-118940500D01*
X103972631Y-118940500D01*
X104154334Y-118904357D01*
X104325494Y-118833461D01*
X104479534Y-118730534D01*
X104610534Y-118599534D01*
X104713461Y-118445494D01*
X104729161Y-118407590D01*
X121881800Y-118407590D01*
X121881800Y-118510410D01*
X121908412Y-118609728D01*
X121959822Y-118698773D01*
X122032527Y-118771478D01*
X122121572Y-118822888D01*
X122152996Y-118831308D01*
X122204310Y-118864630D01*
X122226238Y-118921751D01*
X122223001Y-118952556D01*
X122215494Y-118980572D01*
X122209300Y-119003690D01*
X122209300Y-119106510D01*
X122235912Y-119205828D01*
X122287322Y-119294873D01*
X122360027Y-119367578D01*
X122449072Y-119418988D01*
X122548390Y-119445600D01*
X122548392Y-119445600D01*
X122651208Y-119445600D01*
X122651210Y-119445600D01*
X122750528Y-119418988D01*
X122839573Y-119367578D01*
X122912278Y-119294873D01*
X122963688Y-119205828D01*
X122990300Y-119106510D01*
X122990300Y-119003690D01*
X122963688Y-118904372D01*
X122912278Y-118815327D01*
X122839573Y-118742622D01*
X122750528Y-118691212D01*
X122719100Y-118682791D01*
X122667788Y-118649468D01*
X122645861Y-118592346D01*
X122649098Y-118561544D01*
X122662800Y-118510410D01*
X122662800Y-118407590D01*
X122636188Y-118308272D01*
X122584778Y-118219227D01*
X122512073Y-118146522D01*
X122423028Y-118095112D01*
X122323710Y-118068500D01*
X122220890Y-118068500D01*
X122121572Y-118095112D01*
X122032527Y-118146522D01*
X121959822Y-118219227D01*
X121908412Y-118308272D01*
X121881800Y-118407590D01*
X104729161Y-118407590D01*
X104784357Y-118274334D01*
X104820500Y-118092631D01*
X104820500Y-117907369D01*
X104815372Y-117881590D01*
X139689600Y-117881590D01*
X139689600Y-117984410D01*
X139716212Y-118083728D01*
X139767622Y-118172773D01*
X139840327Y-118245478D01*
X139929372Y-118296888D01*
X140028690Y-118323500D01*
X140028692Y-118323500D01*
X140131508Y-118323500D01*
X140131510Y-118323500D01*
X140230828Y-118296888D01*
X140319873Y-118245478D01*
X140392578Y-118172773D01*
X140443988Y-118083728D01*
X140470600Y-117984410D01*
X140470600Y-117881590D01*
X140443988Y-117782272D01*
X140392578Y-117693227D01*
X140325041Y-117625690D01*
X141924700Y-117625690D01*
X141924700Y-117728510D01*
X141951312Y-117827828D01*
X142002722Y-117916873D01*
X142075427Y-117989578D01*
X142164472Y-118040988D01*
X142263790Y-118067600D01*
X142263792Y-118067600D01*
X142366608Y-118067600D01*
X142366610Y-118067600D01*
X142465928Y-118040988D01*
X142554973Y-117989578D01*
X142627678Y-117916873D01*
X142679088Y-117827828D01*
X142705700Y-117728510D01*
X142705700Y-117625690D01*
X142679088Y-117526372D01*
X142627678Y-117437327D01*
X142554973Y-117364622D01*
X142465928Y-117313212D01*
X142366610Y-117286600D01*
X142263790Y-117286600D01*
X142164472Y-117313212D01*
X142075427Y-117364622D01*
X142002722Y-117437327D01*
X141951312Y-117526372D01*
X141924700Y-117625690D01*
X140325041Y-117625690D01*
X140319873Y-117620522D01*
X140230828Y-117569112D01*
X140131510Y-117542500D01*
X140028690Y-117542500D01*
X139929372Y-117569112D01*
X139840327Y-117620522D01*
X139767622Y-117693227D01*
X139716212Y-117782272D01*
X139689600Y-117881590D01*
X104815372Y-117881590D01*
X104784357Y-117725666D01*
X104713462Y-117554508D01*
X104713462Y-117554507D01*
X104610534Y-117400466D01*
X104479533Y-117269465D01*
X104325491Y-117166537D01*
X104154340Y-117095645D01*
X104154335Y-117095643D01*
X104154334Y-117095643D01*
X104154332Y-117095642D01*
X104151345Y-117094737D01*
X104150170Y-117093918D01*
X104149841Y-117093782D01*
X104149870Y-117093709D01*
X104128314Y-117078684D01*
X104104477Y-117063909D01*
X104103428Y-117061339D01*
X104101149Y-117059751D01*
X104091954Y-117033234D01*
X104081352Y-117007263D01*
X104082013Y-117004566D01*
X104081104Y-117001942D01*
X104089250Y-116975088D01*
X104095755Y-116948590D01*
X108909500Y-116948590D01*
X108909500Y-117051410D01*
X108936112Y-117150728D01*
X108987522Y-117239773D01*
X109060227Y-117312478D01*
X109149272Y-117363888D01*
X109248590Y-117390500D01*
X109248592Y-117390500D01*
X109351408Y-117390500D01*
X109351410Y-117390500D01*
X109450728Y-117363888D01*
X109466313Y-117354890D01*
X116480800Y-117354890D01*
X116480800Y-117457710D01*
X116507412Y-117557028D01*
X116558822Y-117646073D01*
X116631527Y-117718778D01*
X116720572Y-117770188D01*
X116819890Y-117796800D01*
X116819892Y-117796800D01*
X116922708Y-117796800D01*
X116922710Y-117796800D01*
X117022028Y-117770188D01*
X117111073Y-117718778D01*
X117183778Y-117646073D01*
X117235188Y-117557028D01*
X117261800Y-117457710D01*
X117261800Y-117354890D01*
X122756300Y-117354890D01*
X122756300Y-117457710D01*
X122782912Y-117557028D01*
X122834322Y-117646073D01*
X122907027Y-117718778D01*
X122996072Y-117770188D01*
X123095390Y-117796800D01*
X123095392Y-117796800D01*
X123198208Y-117796800D01*
X123198210Y-117796800D01*
X123297528Y-117770188D01*
X123386573Y-117718778D01*
X123459278Y-117646073D01*
X123510688Y-117557028D01*
X123537300Y-117457710D01*
X123537300Y-117354890D01*
X123535612Y-117348590D01*
X124859500Y-117348590D01*
X124859500Y-117451410D01*
X124886112Y-117550728D01*
X124937522Y-117639773D01*
X125010227Y-117712478D01*
X125099272Y-117763888D01*
X125198590Y-117790500D01*
X125198592Y-117790500D01*
X125301408Y-117790500D01*
X125301410Y-117790500D01*
X125400728Y-117763888D01*
X125489773Y-117712478D01*
X125562478Y-117639773D01*
X125613888Y-117550728D01*
X125640500Y-117451410D01*
X125640500Y-117348590D01*
X125613888Y-117249272D01*
X125562478Y-117160227D01*
X125489773Y-117087522D01*
X125400728Y-117036112D01*
X125301410Y-117009500D01*
X125198590Y-117009500D01*
X125099272Y-117036112D01*
X125010227Y-117087522D01*
X124937522Y-117160227D01*
X124886112Y-117249272D01*
X124859500Y-117348590D01*
X123535612Y-117348590D01*
X123510688Y-117255572D01*
X123459278Y-117166527D01*
X123386573Y-117093822D01*
X123297528Y-117042412D01*
X123198210Y-117015800D01*
X123095390Y-117015800D01*
X122996072Y-117042412D01*
X122907027Y-117093822D01*
X122834322Y-117166527D01*
X122782912Y-117255572D01*
X122756300Y-117354890D01*
X117261800Y-117354890D01*
X117235188Y-117255572D01*
X117183778Y-117166527D01*
X117111073Y-117093822D01*
X117022028Y-117042412D01*
X116922710Y-117015800D01*
X116819890Y-117015800D01*
X116720572Y-117042412D01*
X116631527Y-117093822D01*
X116558822Y-117166527D01*
X116507412Y-117255572D01*
X116480800Y-117354890D01*
X109466313Y-117354890D01*
X109539773Y-117312478D01*
X109612478Y-117239773D01*
X109663888Y-117150728D01*
X109690500Y-117051410D01*
X109690500Y-116948590D01*
X109663888Y-116849272D01*
X109663494Y-116848590D01*
X109661133Y-116844499D01*
X109636301Y-116801490D01*
X127246500Y-116801490D01*
X127246500Y-116904310D01*
X127273112Y-117003628D01*
X127324522Y-117092673D01*
X127397227Y-117165378D01*
X127486272Y-117216788D01*
X127585590Y-117243400D01*
X127585592Y-117243400D01*
X127688408Y-117243400D01*
X127688410Y-117243400D01*
X127787728Y-117216788D01*
X127876773Y-117165378D01*
X127949478Y-117092673D01*
X128000888Y-117003628D01*
X128027500Y-116904310D01*
X128027500Y-116801490D01*
X128009119Y-116732890D01*
X140788700Y-116732890D01*
X140788700Y-116835710D01*
X140815312Y-116935028D01*
X140866722Y-117024073D01*
X140939427Y-117096778D01*
X141028472Y-117148188D01*
X141127790Y-117174800D01*
X141127792Y-117174800D01*
X141230608Y-117174800D01*
X141230610Y-117174800D01*
X141329928Y-117148188D01*
X141418973Y-117096778D01*
X141491678Y-117024073D01*
X141535258Y-116948590D01*
X143009500Y-116948590D01*
X143009500Y-117051410D01*
X143036112Y-117150728D01*
X143087522Y-117239773D01*
X143160227Y-117312478D01*
X143163321Y-117314264D01*
X143165035Y-117316167D01*
X143165373Y-117316427D01*
X143165324Y-117316489D01*
X143204261Y-117359734D01*
X143210656Y-117420584D01*
X143180063Y-117473572D01*
X143163323Y-117485734D01*
X143161996Y-117486500D01*
X143160228Y-117487521D01*
X143160227Y-117487522D01*
X143087522Y-117560227D01*
X143036112Y-117649272D01*
X143009500Y-117748590D01*
X143009500Y-117851410D01*
X143036112Y-117950728D01*
X143087522Y-118039773D01*
X143160227Y-118112478D01*
X143249272Y-118163888D01*
X143348590Y-118190500D01*
X143348592Y-118190500D01*
X143451408Y-118190500D01*
X143451410Y-118190500D01*
X143550728Y-118163888D01*
X143639773Y-118112478D01*
X143712478Y-118039773D01*
X143714263Y-118036680D01*
X143716165Y-118034968D01*
X143716427Y-118034627D01*
X143716490Y-118034675D01*
X143759730Y-117995740D01*
X143820579Y-117989342D01*
X143873569Y-118019932D01*
X143885735Y-118036678D01*
X143887522Y-118039773D01*
X143960227Y-118112478D01*
X144049272Y-118163888D01*
X144148590Y-118190500D01*
X144148592Y-118190500D01*
X144251408Y-118190500D01*
X144251410Y-118190500D01*
X144350728Y-118163888D01*
X144439773Y-118112478D01*
X144512478Y-118039773D01*
X144514263Y-118036680D01*
X144516165Y-118034968D01*
X144516427Y-118034627D01*
X144516490Y-118034675D01*
X144559730Y-117995740D01*
X144620579Y-117989342D01*
X144673569Y-118019932D01*
X144685735Y-118036678D01*
X144687522Y-118039773D01*
X144760227Y-118112478D01*
X144849272Y-118163888D01*
X144948590Y-118190500D01*
X144948592Y-118190500D01*
X145051408Y-118190500D01*
X145051410Y-118190500D01*
X145150728Y-118163888D01*
X145239773Y-118112478D01*
X145312478Y-118039773D01*
X145314263Y-118036680D01*
X145316165Y-118034968D01*
X145316427Y-118034627D01*
X145316490Y-118034675D01*
X145359730Y-117995740D01*
X145420579Y-117989342D01*
X145473569Y-118019932D01*
X145485735Y-118036678D01*
X145487522Y-118039773D01*
X145560227Y-118112478D01*
X145649272Y-118163888D01*
X145748590Y-118190500D01*
X145748592Y-118190500D01*
X145851408Y-118190500D01*
X145851410Y-118190500D01*
X145950728Y-118163888D01*
X146039773Y-118112478D01*
X146112478Y-118039773D01*
X146114263Y-118036680D01*
X146116165Y-118034968D01*
X146116427Y-118034627D01*
X146116490Y-118034675D01*
X146159730Y-117995740D01*
X146220579Y-117989342D01*
X146273569Y-118019932D01*
X146285735Y-118036678D01*
X146287522Y-118039773D01*
X146360227Y-118112478D01*
X146449272Y-118163888D01*
X146548590Y-118190500D01*
X146548592Y-118190500D01*
X146651408Y-118190500D01*
X146651410Y-118190500D01*
X146750728Y-118163888D01*
X146839773Y-118112478D01*
X146912478Y-118039773D01*
X146914263Y-118036680D01*
X146916165Y-118034968D01*
X146916427Y-118034627D01*
X146916490Y-118034675D01*
X146959730Y-117995740D01*
X147020579Y-117989342D01*
X147073569Y-118019932D01*
X147085735Y-118036678D01*
X147087522Y-118039773D01*
X147160227Y-118112478D01*
X147249272Y-118163888D01*
X147348590Y-118190500D01*
X147348592Y-118190500D01*
X147451408Y-118190500D01*
X147451410Y-118190500D01*
X147550728Y-118163888D01*
X147639773Y-118112478D01*
X147712478Y-118039773D01*
X147763888Y-117950728D01*
X147764461Y-117948590D01*
X151809500Y-117948590D01*
X151809500Y-118051410D01*
X151836112Y-118150728D01*
X151887522Y-118239773D01*
X151960227Y-118312478D01*
X152049272Y-118363888D01*
X152148590Y-118390500D01*
X152148592Y-118390500D01*
X152251408Y-118390500D01*
X152251410Y-118390500D01*
X152350728Y-118363888D01*
X152439773Y-118312478D01*
X152512478Y-118239773D01*
X152536255Y-118198590D01*
X159359500Y-118198590D01*
X159359500Y-118301410D01*
X159386112Y-118400728D01*
X159437522Y-118489773D01*
X159510227Y-118562478D01*
X159599272Y-118613888D01*
X159698590Y-118640500D01*
X159698592Y-118640500D01*
X159801408Y-118640500D01*
X159801410Y-118640500D01*
X159900728Y-118613888D01*
X159989773Y-118562478D01*
X160062478Y-118489773D01*
X160113888Y-118400728D01*
X160140500Y-118301410D01*
X160140500Y-118198590D01*
X160113888Y-118099272D01*
X160062478Y-118010227D01*
X159989773Y-117937522D01*
X159900728Y-117886112D01*
X159801410Y-117859500D01*
X159698590Y-117859500D01*
X159599272Y-117886112D01*
X159510227Y-117937522D01*
X159437522Y-118010227D01*
X159386112Y-118099272D01*
X159359500Y-118198590D01*
X152536255Y-118198590D01*
X152563888Y-118150728D01*
X152590500Y-118051410D01*
X152590500Y-117948590D01*
X152563888Y-117849272D01*
X152512478Y-117760227D01*
X152439773Y-117687522D01*
X152350728Y-117636112D01*
X152251410Y-117609500D01*
X152148590Y-117609500D01*
X152049272Y-117636112D01*
X151960227Y-117687522D01*
X151887522Y-117760227D01*
X151836112Y-117849272D01*
X151809500Y-117948590D01*
X147764461Y-117948590D01*
X147790500Y-117851410D01*
X147790500Y-117748590D01*
X147763888Y-117649272D01*
X147712478Y-117560227D01*
X147639773Y-117487522D01*
X147636680Y-117485736D01*
X147634968Y-117483834D01*
X147634627Y-117483573D01*
X147634675Y-117483509D01*
X147595740Y-117440270D01*
X147589342Y-117379421D01*
X147607089Y-117348590D01*
X152909500Y-117348590D01*
X152909500Y-117451410D01*
X152936112Y-117550728D01*
X152987522Y-117639773D01*
X153060227Y-117712478D01*
X153149272Y-117763888D01*
X153248590Y-117790500D01*
X153248592Y-117790500D01*
X153351408Y-117790500D01*
X153351410Y-117790500D01*
X153450728Y-117763888D01*
X153477225Y-117748590D01*
X178509500Y-117748590D01*
X178509500Y-117851410D01*
X178536112Y-117950728D01*
X178587522Y-118039773D01*
X178660227Y-118112478D01*
X178749272Y-118163888D01*
X178848590Y-118190500D01*
X178848592Y-118190500D01*
X178951408Y-118190500D01*
X178951410Y-118190500D01*
X179050728Y-118163888D01*
X179139773Y-118112478D01*
X179212478Y-118039773D01*
X179263888Y-117950728D01*
X179290500Y-117851410D01*
X179290500Y-117748590D01*
X179263888Y-117649272D01*
X179212478Y-117560227D01*
X179139773Y-117487522D01*
X179050728Y-117436112D01*
X178951410Y-117409500D01*
X178848590Y-117409500D01*
X178749272Y-117436112D01*
X178660227Y-117487522D01*
X178587522Y-117560227D01*
X178536112Y-117649272D01*
X178509500Y-117748590D01*
X153477225Y-117748590D01*
X153539773Y-117712478D01*
X153612478Y-117639773D01*
X153663888Y-117550728D01*
X153690500Y-117451410D01*
X153690500Y-117348590D01*
X153663888Y-117249272D01*
X153612478Y-117160227D01*
X153539773Y-117087522D01*
X153450728Y-117036112D01*
X153351410Y-117009500D01*
X153248590Y-117009500D01*
X153149272Y-117036112D01*
X153060227Y-117087522D01*
X152987522Y-117160227D01*
X152936112Y-117249272D01*
X152909500Y-117348590D01*
X147607089Y-117348590D01*
X147619750Y-117326596D01*
X147627556Y-117319531D01*
X147639773Y-117312478D01*
X147712478Y-117239773D01*
X147763888Y-117150728D01*
X147790500Y-117051410D01*
X147790500Y-116948590D01*
X159209500Y-116948590D01*
X159209500Y-117051410D01*
X159236112Y-117150728D01*
X159287522Y-117239773D01*
X159360227Y-117312478D01*
X159449272Y-117363888D01*
X159548590Y-117390500D01*
X159548592Y-117390500D01*
X159651408Y-117390500D01*
X159651410Y-117390500D01*
X159750728Y-117363888D01*
X159839773Y-117312478D01*
X159912478Y-117239773D01*
X159963888Y-117150728D01*
X159990500Y-117051410D01*
X159990500Y-116948590D01*
X159963888Y-116849272D01*
X159912478Y-116760227D01*
X159839773Y-116687522D01*
X159750728Y-116636112D01*
X159651410Y-116609500D01*
X159548590Y-116609500D01*
X159449272Y-116636112D01*
X159360227Y-116687522D01*
X159287522Y-116760227D01*
X159236112Y-116849272D01*
X159209500Y-116948590D01*
X147790500Y-116948590D01*
X147763888Y-116849272D01*
X147712478Y-116760227D01*
X147639773Y-116687522D01*
X147550728Y-116636112D01*
X147451410Y-116609500D01*
X147348590Y-116609500D01*
X147249272Y-116636112D01*
X147160227Y-116687522D01*
X147087521Y-116760228D01*
X147085736Y-116763321D01*
X147083832Y-116765035D01*
X147083573Y-116765373D01*
X147083510Y-116765324D01*
X147040266Y-116804261D01*
X146979416Y-116810656D01*
X146926428Y-116780063D01*
X146914264Y-116763321D01*
X146912479Y-116760229D01*
X146912478Y-116760227D01*
X146839773Y-116687522D01*
X146750728Y-116636112D01*
X146651410Y-116609500D01*
X146548590Y-116609500D01*
X146449272Y-116636112D01*
X146360227Y-116687522D01*
X146287521Y-116760228D01*
X146285736Y-116763321D01*
X146283832Y-116765035D01*
X146283573Y-116765373D01*
X146283510Y-116765324D01*
X146240266Y-116804261D01*
X146179416Y-116810656D01*
X146126428Y-116780063D01*
X146114264Y-116763321D01*
X146112479Y-116760229D01*
X146112478Y-116760227D01*
X146039773Y-116687522D01*
X145950728Y-116636112D01*
X145851410Y-116609500D01*
X145748590Y-116609500D01*
X145649272Y-116636112D01*
X145560227Y-116687522D01*
X145487521Y-116760228D01*
X145485736Y-116763321D01*
X145483832Y-116765035D01*
X145483573Y-116765373D01*
X145483510Y-116765324D01*
X145440266Y-116804261D01*
X145379416Y-116810656D01*
X145326428Y-116780063D01*
X145314264Y-116763321D01*
X145312479Y-116760229D01*
X145312478Y-116760227D01*
X145239773Y-116687522D01*
X145150728Y-116636112D01*
X145051410Y-116609500D01*
X144948590Y-116609500D01*
X144849272Y-116636112D01*
X144760227Y-116687522D01*
X144687521Y-116760228D01*
X144685736Y-116763321D01*
X144683832Y-116765035D01*
X144683573Y-116765373D01*
X144683510Y-116765324D01*
X144640266Y-116804261D01*
X144579416Y-116810656D01*
X144526428Y-116780063D01*
X144514264Y-116763321D01*
X144512479Y-116760229D01*
X144512478Y-116760227D01*
X144439773Y-116687522D01*
X144350728Y-116636112D01*
X144251410Y-116609500D01*
X144148590Y-116609500D01*
X144049272Y-116636112D01*
X143960227Y-116687522D01*
X143887521Y-116760228D01*
X143885736Y-116763321D01*
X143883832Y-116765035D01*
X143883573Y-116765373D01*
X143883510Y-116765324D01*
X143840266Y-116804261D01*
X143779416Y-116810656D01*
X143726428Y-116780063D01*
X143714264Y-116763321D01*
X143712479Y-116760229D01*
X143712478Y-116760227D01*
X143639773Y-116687522D01*
X143550728Y-116636112D01*
X143451410Y-116609500D01*
X143348590Y-116609500D01*
X143249272Y-116636112D01*
X143160227Y-116687522D01*
X143087522Y-116760227D01*
X143036112Y-116849272D01*
X143009500Y-116948590D01*
X141535258Y-116948590D01*
X141543088Y-116935028D01*
X141569700Y-116835710D01*
X141569700Y-116732890D01*
X141543088Y-116633572D01*
X141491678Y-116544527D01*
X141418973Y-116471822D01*
X141329928Y-116420412D01*
X141230610Y-116393800D01*
X141127790Y-116393800D01*
X141028472Y-116420412D01*
X140939427Y-116471822D01*
X140866722Y-116544527D01*
X140815312Y-116633572D01*
X140788700Y-116732890D01*
X128009119Y-116732890D01*
X128000888Y-116702172D01*
X127949478Y-116613127D01*
X127876773Y-116540422D01*
X127787728Y-116489012D01*
X127688410Y-116462400D01*
X127585590Y-116462400D01*
X127486272Y-116489012D01*
X127397227Y-116540422D01*
X127324522Y-116613127D01*
X127273112Y-116702172D01*
X127246500Y-116801490D01*
X109636301Y-116801490D01*
X109612479Y-116760229D01*
X109612478Y-116760227D01*
X109539773Y-116687522D01*
X109450728Y-116636112D01*
X109351410Y-116609500D01*
X109248590Y-116609500D01*
X109149272Y-116636112D01*
X109060227Y-116687522D01*
X108987522Y-116760227D01*
X108936112Y-116849272D01*
X108909500Y-116948590D01*
X104095755Y-116948590D01*
X104095939Y-116947842D01*
X104097995Y-116946261D01*
X104098866Y-116943392D01*
X104142668Y-116908343D01*
X104150624Y-116905094D01*
X104154334Y-116904357D01*
X104325494Y-116833461D01*
X104479534Y-116730534D01*
X104610534Y-116599534D01*
X104713461Y-116445494D01*
X104784357Y-116274334D01*
X104820500Y-116092631D01*
X104820500Y-115907369D01*
X104805347Y-115831193D01*
X104795526Y-115781815D01*
X104792975Y-115768990D01*
X132196900Y-115768990D01*
X132196900Y-115871810D01*
X132223512Y-115971128D01*
X132274922Y-116060173D01*
X132347627Y-116132878D01*
X132436672Y-116184288D01*
X132535990Y-116210900D01*
X132535992Y-116210900D01*
X132638808Y-116210900D01*
X132638810Y-116210900D01*
X132738128Y-116184288D01*
X132827173Y-116132878D01*
X132899878Y-116060173D01*
X132951288Y-115971128D01*
X132977900Y-115871810D01*
X132977900Y-115768990D01*
X132951288Y-115669672D01*
X132899878Y-115580627D01*
X132827173Y-115507922D01*
X132738128Y-115456512D01*
X132638810Y-115429900D01*
X132535990Y-115429900D01*
X132436672Y-115456512D01*
X132347627Y-115507922D01*
X132274922Y-115580627D01*
X132223512Y-115669672D01*
X132196900Y-115768990D01*
X104792975Y-115768990D01*
X104789342Y-115750727D01*
X104784357Y-115725666D01*
X104734905Y-115606278D01*
X104713462Y-115554508D01*
X104713462Y-115554507D01*
X104610534Y-115400466D01*
X104479533Y-115269465D01*
X104325491Y-115166537D01*
X104154334Y-115095643D01*
X103972633Y-115059500D01*
X103972631Y-115059500D01*
X103787369Y-115059500D01*
X103787366Y-115059500D01*
X103605666Y-115095643D01*
X103605664Y-115095643D01*
X103434508Y-115166537D01*
X103434507Y-115166537D01*
X103280466Y-115269465D01*
X103149465Y-115400466D01*
X103046537Y-115554507D01*
X103046537Y-115554508D01*
X102975643Y-115725664D01*
X102975643Y-115725666D01*
X102939500Y-115907366D01*
X100250000Y-115907366D01*
X100250000Y-114662290D01*
X100639500Y-114662290D01*
X100639500Y-114837709D01*
X100673721Y-115009748D01*
X100673721Y-115009750D01*
X100740847Y-115171807D01*
X100837266Y-115316110D01*
X100838303Y-115317661D01*
X100962339Y-115441697D01*
X101108190Y-115539151D01*
X101270251Y-115606279D01*
X101442293Y-115640500D01*
X101442294Y-115640500D01*
X101617706Y-115640500D01*
X101617707Y-115640500D01*
X101789749Y-115606279D01*
X101951810Y-115539151D01*
X102097661Y-115441697D01*
X102221697Y-115317661D01*
X102319151Y-115171810D01*
X102386279Y-115009749D01*
X102420500Y-114837707D01*
X102420500Y-114662293D01*
X102386279Y-114490251D01*
X102319151Y-114328190D01*
X102221697Y-114182339D01*
X102097661Y-114058303D01*
X102051601Y-114027527D01*
X101951807Y-113960847D01*
X101789749Y-113893721D01*
X101617709Y-113859500D01*
X101617707Y-113859500D01*
X101442293Y-113859500D01*
X101442290Y-113859500D01*
X101270251Y-113893721D01*
X101270249Y-113893721D01*
X101108192Y-113960847D01*
X100962342Y-114058300D01*
X100838300Y-114182342D01*
X100740847Y-114328192D01*
X100673721Y-114490249D01*
X100673721Y-114490251D01*
X100639500Y-114662290D01*
X100250000Y-114662290D01*
X100250000Y-113396581D01*
X102830000Y-113396581D01*
X102830000Y-113603418D01*
X102870349Y-113806272D01*
X102949501Y-113997361D01*
X103038022Y-114129843D01*
X103465614Y-113702250D01*
X103511913Y-113782443D01*
X103597557Y-113868087D01*
X103677746Y-113914384D01*
X103250154Y-114341977D01*
X103382625Y-114430491D01*
X103382639Y-114430498D01*
X103573727Y-114509650D01*
X103776581Y-114549999D01*
X103776586Y-114550000D01*
X103983414Y-114550000D01*
X103983418Y-114549999D01*
X104186272Y-114509650D01*
X104377360Y-114430498D01*
X104509843Y-114341976D01*
X104383757Y-114215890D01*
X131762300Y-114215890D01*
X131762300Y-114318710D01*
X131788912Y-114418028D01*
X131840322Y-114507073D01*
X131913027Y-114579778D01*
X132002072Y-114631188D01*
X132101390Y-114657800D01*
X132101392Y-114657800D01*
X132107824Y-114658647D01*
X132107503Y-114661082D01*
X132155591Y-114676707D01*
X132191555Y-114726207D01*
X132196400Y-114756800D01*
X132196400Y-114851410D01*
X132223012Y-114950728D01*
X132274422Y-115039773D01*
X132347127Y-115112478D01*
X132436172Y-115163888D01*
X132535490Y-115190500D01*
X132535492Y-115190500D01*
X132638308Y-115190500D01*
X132638310Y-115190500D01*
X132737628Y-115163888D01*
X132826673Y-115112478D01*
X132899378Y-115039773D01*
X132899541Y-115039490D01*
X134216500Y-115039490D01*
X134216500Y-115142310D01*
X134243112Y-115241628D01*
X134294522Y-115330673D01*
X134367227Y-115403378D01*
X134456272Y-115454788D01*
X134555590Y-115481400D01*
X134555592Y-115481400D01*
X134658409Y-115481400D01*
X134658410Y-115481400D01*
X134684877Y-115474308D01*
X134745977Y-115477509D01*
X134793527Y-115516013D01*
X134809500Y-115569934D01*
X134809500Y-115651410D01*
X134836112Y-115750728D01*
X134887522Y-115839773D01*
X134960227Y-115912478D01*
X135049272Y-115963888D01*
X135148590Y-115990500D01*
X135148592Y-115990500D01*
X135251408Y-115990500D01*
X135251410Y-115990500D01*
X135350728Y-115963888D01*
X135377225Y-115948590D01*
X153559500Y-115948590D01*
X153559500Y-116051410D01*
X153586112Y-116150728D01*
X153637522Y-116239773D01*
X153710227Y-116312478D01*
X153799272Y-116363888D01*
X153898590Y-116390500D01*
X153898592Y-116390500D01*
X154001408Y-116390500D01*
X154001410Y-116390500D01*
X154100728Y-116363888D01*
X154189773Y-116312478D01*
X154262478Y-116239773D01*
X154313888Y-116150728D01*
X154340500Y-116051410D01*
X154340500Y-115998390D01*
X177940900Y-115998390D01*
X177940900Y-116101210D01*
X177967512Y-116200528D01*
X178018922Y-116289573D01*
X178091627Y-116362278D01*
X178180672Y-116413688D01*
X178279990Y-116440300D01*
X178279992Y-116440300D01*
X178382808Y-116440300D01*
X178382810Y-116440300D01*
X178482128Y-116413688D01*
X178571173Y-116362278D01*
X178643878Y-116289573D01*
X178695288Y-116200528D01*
X178703468Y-116170000D01*
X182235143Y-116170000D01*
X182710192Y-116170000D01*
X182690444Y-116204204D01*
X182670000Y-116280504D01*
X182670000Y-116359496D01*
X182690444Y-116435796D01*
X182710192Y-116470000D01*
X182235143Y-116470000D01*
X182248822Y-116538767D01*
X182305358Y-116675257D01*
X182387434Y-116798093D01*
X182491906Y-116902565D01*
X182614742Y-116984641D01*
X182751229Y-117041176D01*
X182751235Y-117041178D01*
X182896128Y-117069999D01*
X182896132Y-117070000D01*
X183369999Y-117070000D01*
X183370000Y-117069999D01*
X183370000Y-116620000D01*
X183670000Y-116620000D01*
X183670000Y-117079223D01*
X183688195Y-117114934D01*
X183678624Y-117175366D01*
X183676151Y-117179920D01*
X183636112Y-117249270D01*
X183628308Y-117278397D01*
X183609500Y-117348590D01*
X183609500Y-117451410D01*
X183636112Y-117550728D01*
X183687522Y-117639773D01*
X183760227Y-117712478D01*
X183849272Y-117763888D01*
X183948590Y-117790500D01*
X183948592Y-117790500D01*
X184051408Y-117790500D01*
X184051410Y-117790500D01*
X184150728Y-117763888D01*
X184239773Y-117712478D01*
X184312478Y-117639773D01*
X184363888Y-117550728D01*
X184390500Y-117451410D01*
X184390500Y-117348590D01*
X184363888Y-117249272D01*
X184312478Y-117160227D01*
X184312475Y-117160224D01*
X184309233Y-117154608D01*
X184311857Y-117153092D01*
X184295561Y-117107222D01*
X184312878Y-117048538D01*
X184356639Y-117013064D01*
X184425255Y-116984642D01*
X184548093Y-116902565D01*
X184652565Y-116798093D01*
X184734641Y-116675257D01*
X184791177Y-116538767D01*
X184804857Y-116470000D01*
X184329808Y-116470000D01*
X184349556Y-116435796D01*
X184370000Y-116359496D01*
X184370000Y-116280504D01*
X184349556Y-116204204D01*
X184329808Y-116170000D01*
X184804857Y-116170000D01*
X186665143Y-116170000D01*
X187140192Y-116170000D01*
X187120444Y-116204204D01*
X187100000Y-116280504D01*
X187100000Y-116359496D01*
X187120444Y-116435796D01*
X187140192Y-116470000D01*
X186665143Y-116470000D01*
X186678822Y-116538767D01*
X186735358Y-116675257D01*
X186817434Y-116798093D01*
X186921906Y-116902565D01*
X187044742Y-116984641D01*
X187181229Y-117041176D01*
X187181235Y-117041178D01*
X187326128Y-117069999D01*
X187326132Y-117070000D01*
X187549999Y-117070000D01*
X187550000Y-117069999D01*
X187550000Y-116620000D01*
X187850000Y-116620000D01*
X187850000Y-117069999D01*
X187850001Y-117070000D01*
X188073868Y-117070000D01*
X188073871Y-117069999D01*
X188218764Y-117041178D01*
X188218770Y-117041176D01*
X188355257Y-116984641D01*
X188478093Y-116902565D01*
X188582565Y-116798093D01*
X188664641Y-116675257D01*
X188721177Y-116538767D01*
X188734857Y-116470000D01*
X188259808Y-116470000D01*
X188279556Y-116435796D01*
X188300000Y-116359496D01*
X188300000Y-116280504D01*
X188279556Y-116204204D01*
X188259808Y-116170000D01*
X188734857Y-116170000D01*
X188721177Y-116101232D01*
X188664641Y-115964742D01*
X188582565Y-115841906D01*
X188478093Y-115737434D01*
X188355257Y-115655358D01*
X188218770Y-115598823D01*
X188218764Y-115598821D01*
X188073871Y-115570000D01*
X187850001Y-115570000D01*
X187850000Y-115570001D01*
X187850000Y-116020000D01*
X187550000Y-116020000D01*
X187550000Y-115570001D01*
X187549999Y-115570000D01*
X187326128Y-115570000D01*
X187181235Y-115598821D01*
X187181229Y-115598823D01*
X187044742Y-115655358D01*
X186921906Y-115737434D01*
X186817434Y-115841906D01*
X186735358Y-115964742D01*
X186678822Y-116101232D01*
X186665143Y-116170000D01*
X184804857Y-116170000D01*
X184791177Y-116101232D01*
X184734641Y-115964742D01*
X184652565Y-115841906D01*
X184548093Y-115737434D01*
X184425257Y-115655358D01*
X184288770Y-115598823D01*
X184288764Y-115598821D01*
X184143871Y-115570000D01*
X183670001Y-115570000D01*
X183670000Y-115570001D01*
X183670000Y-116020000D01*
X183370000Y-116020000D01*
X183370000Y-115570001D01*
X183369999Y-115570000D01*
X182896128Y-115570000D01*
X182751235Y-115598821D01*
X182751229Y-115598823D01*
X182614742Y-115655358D01*
X182491906Y-115737434D01*
X182387434Y-115841906D01*
X182305358Y-115964742D01*
X182248822Y-116101232D01*
X182235143Y-116170000D01*
X178703468Y-116170000D01*
X178721900Y-116101210D01*
X178721900Y-115998390D01*
X178695288Y-115899072D01*
X178643878Y-115810027D01*
X178571173Y-115737322D01*
X178482128Y-115685912D01*
X178382810Y-115659300D01*
X178279990Y-115659300D01*
X178180672Y-115685912D01*
X178091627Y-115737322D01*
X178018922Y-115810027D01*
X177967512Y-115899072D01*
X177940900Y-115998390D01*
X154340500Y-115998390D01*
X154340500Y-115948590D01*
X154313888Y-115849272D01*
X154262478Y-115760227D01*
X154189773Y-115687522D01*
X154100728Y-115636112D01*
X154001410Y-115609500D01*
X153898590Y-115609500D01*
X153799272Y-115636112D01*
X153710227Y-115687522D01*
X153637522Y-115760227D01*
X153586112Y-115849272D01*
X153559500Y-115948590D01*
X135377225Y-115948590D01*
X135439773Y-115912478D01*
X135512478Y-115839773D01*
X135563888Y-115750728D01*
X135590500Y-115651410D01*
X135590500Y-115548590D01*
X135581130Y-115513620D01*
X135584333Y-115452520D01*
X135622838Y-115404970D01*
X135681939Y-115389135D01*
X135726253Y-115402261D01*
X135808572Y-115449788D01*
X135907890Y-115476400D01*
X135907892Y-115476400D01*
X136010708Y-115476400D01*
X136010710Y-115476400D01*
X136110028Y-115449788D01*
X136199073Y-115398378D01*
X136271778Y-115325673D01*
X136323188Y-115236628D01*
X136349800Y-115137310D01*
X136349800Y-115047490D01*
X138832000Y-115047490D01*
X138832000Y-115150310D01*
X138858612Y-115249628D01*
X138910022Y-115338673D01*
X138982727Y-115411378D01*
X139071772Y-115462788D01*
X139171090Y-115489400D01*
X139171092Y-115489400D01*
X139273908Y-115489400D01*
X139273910Y-115489400D01*
X139373228Y-115462788D01*
X139462273Y-115411378D01*
X139514498Y-115359152D01*
X139569013Y-115331377D01*
X139629445Y-115340948D01*
X139654500Y-115359151D01*
X139694427Y-115399078D01*
X139783472Y-115450488D01*
X139882790Y-115477100D01*
X139882792Y-115477100D01*
X139985608Y-115477100D01*
X139985610Y-115477100D01*
X140084928Y-115450488D01*
X140173973Y-115399078D01*
X140246678Y-115326373D01*
X140298088Y-115237328D01*
X140304529Y-115213290D01*
X161996200Y-115213290D01*
X161996200Y-115316110D01*
X162022812Y-115415428D01*
X162074222Y-115504473D01*
X162146927Y-115577178D01*
X162235972Y-115628588D01*
X162335290Y-115655200D01*
X162335292Y-115655200D01*
X162438108Y-115655200D01*
X162438110Y-115655200D01*
X162537428Y-115628588D01*
X162626473Y-115577178D01*
X162699178Y-115504473D01*
X162750588Y-115415428D01*
X162777200Y-115316110D01*
X162777200Y-115213290D01*
X162750588Y-115113972D01*
X162699178Y-115024927D01*
X162626473Y-114952222D01*
X162537428Y-114900812D01*
X162438110Y-114874200D01*
X162335290Y-114874200D01*
X162235972Y-114900812D01*
X162146927Y-114952222D01*
X162074222Y-115024927D01*
X162022812Y-115113972D01*
X161996200Y-115213290D01*
X140304529Y-115213290D01*
X140324700Y-115138010D01*
X140324700Y-115035190D01*
X140298088Y-114935872D01*
X140246678Y-114846827D01*
X140173973Y-114774122D01*
X140084928Y-114722712D01*
X139985610Y-114696100D01*
X139882790Y-114696100D01*
X139783472Y-114722712D01*
X139694427Y-114774122D01*
X139642201Y-114826347D01*
X139587687Y-114854123D01*
X139527255Y-114844552D01*
X139502199Y-114826348D01*
X139462273Y-114786422D01*
X139373228Y-114735012D01*
X139273910Y-114708400D01*
X139171090Y-114708400D01*
X139071772Y-114735012D01*
X138982727Y-114786422D01*
X138910022Y-114859127D01*
X138858612Y-114948172D01*
X138832000Y-115047490D01*
X136349800Y-115047490D01*
X136349800Y-115034490D01*
X136323188Y-114935172D01*
X136271778Y-114846127D01*
X136199073Y-114773422D01*
X136110028Y-114722012D01*
X136010710Y-114695400D01*
X135907890Y-114695400D01*
X135808572Y-114722012D01*
X135719527Y-114773422D01*
X135646822Y-114846127D01*
X135595412Y-114935172D01*
X135571363Y-115024927D01*
X135568800Y-115034491D01*
X135568800Y-115137312D01*
X135578169Y-115172279D01*
X135574966Y-115233380D01*
X135536460Y-115280929D01*
X135477359Y-115296764D01*
X135433042Y-115283636D01*
X135428353Y-115280929D01*
X135387600Y-115257400D01*
X135350730Y-115236113D01*
X135350729Y-115236112D01*
X135350728Y-115236112D01*
X135251410Y-115209500D01*
X135148590Y-115209500D01*
X135122122Y-115216592D01*
X135061021Y-115213389D01*
X135013471Y-115174884D01*
X134997500Y-115120965D01*
X134997500Y-115039491D01*
X134996348Y-115035190D01*
X134970888Y-114940172D01*
X134919478Y-114851127D01*
X134846773Y-114778422D01*
X134757728Y-114727012D01*
X134658410Y-114700400D01*
X134555590Y-114700400D01*
X134456272Y-114727012D01*
X134367227Y-114778422D01*
X134294522Y-114851127D01*
X134243112Y-114940172D01*
X134216500Y-115039490D01*
X132899541Y-115039490D01*
X132950788Y-114950728D01*
X132977400Y-114851410D01*
X132977400Y-114748590D01*
X132950788Y-114649272D01*
X132899378Y-114560227D01*
X132826673Y-114487522D01*
X132737628Y-114436112D01*
X132638310Y-114409500D01*
X132630165Y-114409500D01*
X132618392Y-114406570D01*
X132602230Y-114396480D01*
X132584109Y-114390593D01*
X132576896Y-114380666D01*
X132566489Y-114374169D01*
X132559344Y-114356507D01*
X132553592Y-114348590D01*
X138069800Y-114348590D01*
X138069800Y-114451410D01*
X138096412Y-114550728D01*
X138147822Y-114639773D01*
X138220527Y-114712478D01*
X138309572Y-114763888D01*
X138408890Y-114790500D01*
X138408892Y-114790500D01*
X138511708Y-114790500D01*
X138511710Y-114790500D01*
X138611028Y-114763888D01*
X138700073Y-114712478D01*
X138772778Y-114639773D01*
X138824188Y-114550728D01*
X138838158Y-114498590D01*
X153709500Y-114498590D01*
X153709500Y-114601410D01*
X153736112Y-114700728D01*
X153787522Y-114789773D01*
X153860227Y-114862478D01*
X153949272Y-114913888D01*
X154048590Y-114940500D01*
X154048592Y-114940500D01*
X154151408Y-114940500D01*
X154151410Y-114940500D01*
X154250728Y-114913888D01*
X154339773Y-114862478D01*
X154412478Y-114789773D01*
X154463888Y-114700728D01*
X154490500Y-114601410D01*
X154490500Y-114498590D01*
X154477103Y-114448590D01*
X175909500Y-114448590D01*
X175909500Y-114551410D01*
X175936112Y-114650728D01*
X175987522Y-114739773D01*
X176060227Y-114812478D01*
X176149272Y-114863888D01*
X176248590Y-114890500D01*
X176248592Y-114890500D01*
X176351408Y-114890500D01*
X176351410Y-114890500D01*
X176450728Y-114863888D01*
X176539773Y-114812478D01*
X176612478Y-114739773D01*
X176614263Y-114736680D01*
X176616165Y-114734968D01*
X176616427Y-114734627D01*
X176616490Y-114734675D01*
X176659730Y-114695740D01*
X176720579Y-114689342D01*
X176773569Y-114719932D01*
X176785735Y-114736678D01*
X176787522Y-114739773D01*
X176860227Y-114812478D01*
X176949272Y-114863888D01*
X177048590Y-114890500D01*
X177048592Y-114890500D01*
X177151408Y-114890500D01*
X177151410Y-114890500D01*
X177250728Y-114863888D01*
X177339773Y-114812478D01*
X177412478Y-114739773D01*
X177463888Y-114650728D01*
X177490500Y-114551410D01*
X177490500Y-114548590D01*
X178359500Y-114548590D01*
X178359500Y-114651410D01*
X178386112Y-114750728D01*
X178437522Y-114839773D01*
X178510227Y-114912478D01*
X178599272Y-114963888D01*
X178698590Y-114990500D01*
X178698592Y-114990500D01*
X178801408Y-114990500D01*
X178801410Y-114990500D01*
X178900728Y-114963888D01*
X178989773Y-114912478D01*
X179062478Y-114839773D01*
X179113888Y-114750728D01*
X179140500Y-114651410D01*
X179140500Y-114548590D01*
X179113888Y-114449272D01*
X179084627Y-114398590D01*
X179509500Y-114398590D01*
X179509500Y-114501410D01*
X179536112Y-114600728D01*
X179587522Y-114689773D01*
X179660227Y-114762478D01*
X179749272Y-114813888D01*
X179848590Y-114840500D01*
X179848592Y-114840500D01*
X179951408Y-114840500D01*
X179951410Y-114840500D01*
X180050728Y-114813888D01*
X180139773Y-114762478D01*
X180212478Y-114689773D01*
X180214263Y-114686680D01*
X180216165Y-114684968D01*
X180216427Y-114684627D01*
X180216490Y-114684675D01*
X180259730Y-114645740D01*
X180320579Y-114639342D01*
X180373569Y-114669932D01*
X180385735Y-114686678D01*
X180387522Y-114689773D01*
X180460227Y-114762478D01*
X180549272Y-114813888D01*
X180648590Y-114840500D01*
X180648592Y-114840500D01*
X180751408Y-114840500D01*
X180751410Y-114840500D01*
X180795389Y-114828716D01*
X183584500Y-114828716D01*
X183584500Y-114951284D01*
X183616223Y-115069676D01*
X183677507Y-115175824D01*
X183764176Y-115262493D01*
X183870324Y-115323777D01*
X183988716Y-115355500D01*
X183988718Y-115355500D01*
X184111282Y-115355500D01*
X184111284Y-115355500D01*
X184229676Y-115323777D01*
X184335824Y-115262493D01*
X184422493Y-115175824D01*
X184483777Y-115069676D01*
X184515500Y-114951284D01*
X184515500Y-114828716D01*
X184483777Y-114710324D01*
X184422493Y-114604176D01*
X184335824Y-114517507D01*
X184229676Y-114456223D01*
X184111284Y-114424500D01*
X183988716Y-114424500D01*
X183870324Y-114456223D01*
X183764176Y-114517507D01*
X183677507Y-114604176D01*
X183616223Y-114710324D01*
X183584500Y-114828716D01*
X180795389Y-114828716D01*
X180850728Y-114813888D01*
X180939773Y-114762478D01*
X181012478Y-114689773D01*
X181063888Y-114600728D01*
X181090500Y-114501410D01*
X181090500Y-114398590D01*
X181063888Y-114299272D01*
X181012478Y-114210227D01*
X180939773Y-114137522D01*
X180850728Y-114086112D01*
X180751410Y-114059500D01*
X180648590Y-114059500D01*
X180549272Y-114086112D01*
X180460227Y-114137522D01*
X180387521Y-114210228D01*
X180385736Y-114213321D01*
X180383832Y-114215035D01*
X180383573Y-114215373D01*
X180383510Y-114215324D01*
X180340266Y-114254261D01*
X180279416Y-114260656D01*
X180226428Y-114230063D01*
X180214264Y-114213321D01*
X180212478Y-114210227D01*
X180139773Y-114137522D01*
X180050728Y-114086112D01*
X179951410Y-114059500D01*
X179848590Y-114059500D01*
X179749272Y-114086112D01*
X179660227Y-114137522D01*
X179587522Y-114210227D01*
X179536112Y-114299272D01*
X179509500Y-114398590D01*
X179084627Y-114398590D01*
X179062478Y-114360227D01*
X178989773Y-114287522D01*
X178900728Y-114236112D01*
X178801410Y-114209500D01*
X178698590Y-114209500D01*
X178599272Y-114236112D01*
X178510227Y-114287522D01*
X178437522Y-114360227D01*
X178386112Y-114449272D01*
X178359500Y-114548590D01*
X177490500Y-114548590D01*
X177490500Y-114448590D01*
X177463888Y-114349272D01*
X177412478Y-114260227D01*
X177339773Y-114187522D01*
X177250728Y-114136112D01*
X177151410Y-114109500D01*
X177048590Y-114109500D01*
X176949272Y-114136112D01*
X176860227Y-114187522D01*
X176787521Y-114260228D01*
X176785736Y-114263321D01*
X176783832Y-114265035D01*
X176783573Y-114265373D01*
X176783510Y-114265324D01*
X176740266Y-114304261D01*
X176679416Y-114310656D01*
X176626428Y-114280063D01*
X176614264Y-114263321D01*
X176612478Y-114260227D01*
X176539773Y-114187522D01*
X176450728Y-114136112D01*
X176351410Y-114109500D01*
X176248590Y-114109500D01*
X176149272Y-114136112D01*
X176060227Y-114187522D01*
X175987522Y-114260227D01*
X175936112Y-114349272D01*
X175909500Y-114448590D01*
X154477103Y-114448590D01*
X154463888Y-114399272D01*
X154412478Y-114310227D01*
X154339773Y-114237522D01*
X154250728Y-114186112D01*
X154151410Y-114159500D01*
X154048590Y-114159500D01*
X153949272Y-114186112D01*
X153860227Y-114237522D01*
X153787522Y-114310227D01*
X153736112Y-114399272D01*
X153709500Y-114498590D01*
X138838158Y-114498590D01*
X138850800Y-114451410D01*
X138850800Y-114348590D01*
X138824188Y-114249272D01*
X138772778Y-114160227D01*
X138700073Y-114087522D01*
X138611028Y-114036112D01*
X138511710Y-114009500D01*
X138408890Y-114009500D01*
X138309572Y-114036112D01*
X138220527Y-114087522D01*
X138147822Y-114160227D01*
X138096412Y-114249272D01*
X138069800Y-114348590D01*
X132553592Y-114348590D01*
X132548145Y-114341093D01*
X132544951Y-114320928D01*
X132543544Y-114317449D01*
X132544067Y-114315345D01*
X132543300Y-114310500D01*
X132543300Y-114215891D01*
X132543071Y-114215035D01*
X132516688Y-114116572D01*
X132465278Y-114027527D01*
X132392573Y-113954822D01*
X132303528Y-113903412D01*
X132204210Y-113876800D01*
X132101390Y-113876800D01*
X132002072Y-113903412D01*
X131913027Y-113954822D01*
X131840322Y-114027527D01*
X131788912Y-114116572D01*
X131762300Y-114215890D01*
X104383757Y-114215890D01*
X104082251Y-113914384D01*
X104162443Y-113868087D01*
X104248087Y-113782443D01*
X104294384Y-113702251D01*
X104721976Y-114129843D01*
X104810496Y-113997365D01*
X104810497Y-113997362D01*
X104889650Y-113806272D01*
X104929999Y-113603418D01*
X104930000Y-113603413D01*
X104930000Y-113396586D01*
X104929999Y-113396581D01*
X104889650Y-113193727D01*
X104883958Y-113179985D01*
X104883957Y-113179984D01*
X104870953Y-113148590D01*
X115209500Y-113148590D01*
X115209500Y-113251410D01*
X115236112Y-113350728D01*
X115287522Y-113439773D01*
X115360227Y-113512478D01*
X115449272Y-113563888D01*
X115548590Y-113590500D01*
X115548592Y-113590500D01*
X115651408Y-113590500D01*
X115651410Y-113590500D01*
X115750728Y-113563888D01*
X115839773Y-113512478D01*
X115912478Y-113439773D01*
X115963888Y-113350728D01*
X115990500Y-113251410D01*
X115990500Y-113148590D01*
X115968832Y-113067723D01*
X115968832Y-113067721D01*
X115963889Y-113049275D01*
X115963888Y-113049274D01*
X115963888Y-113049272D01*
X115963494Y-113048590D01*
X146209500Y-113048590D01*
X146209500Y-113151410D01*
X146236112Y-113250728D01*
X146287522Y-113339773D01*
X146360227Y-113412478D01*
X146449272Y-113463888D01*
X146548590Y-113490500D01*
X146548592Y-113490500D01*
X146651408Y-113490500D01*
X146651410Y-113490500D01*
X146750728Y-113463888D01*
X146839773Y-113412478D01*
X146912478Y-113339773D01*
X146963888Y-113250728D01*
X146977858Y-113198590D01*
X179359500Y-113198590D01*
X179359500Y-113301410D01*
X179386112Y-113400728D01*
X179437522Y-113489773D01*
X179510227Y-113562478D01*
X179599272Y-113613888D01*
X179698590Y-113640500D01*
X179698592Y-113640500D01*
X179801408Y-113640500D01*
X179801410Y-113640500D01*
X179900728Y-113613888D01*
X179989773Y-113562478D01*
X180062478Y-113489773D01*
X180113888Y-113400728D01*
X180140500Y-113301410D01*
X180140500Y-113198590D01*
X180113888Y-113099272D01*
X180062478Y-113010227D01*
X179989773Y-112937522D01*
X179900728Y-112886112D01*
X179801410Y-112859500D01*
X179698590Y-112859500D01*
X179599272Y-112886112D01*
X179510227Y-112937522D01*
X179437522Y-113010227D01*
X179386112Y-113099272D01*
X179359500Y-113198590D01*
X146977858Y-113198590D01*
X146990500Y-113151410D01*
X146990500Y-113048590D01*
X146963888Y-112949272D01*
X146912478Y-112860227D01*
X146839773Y-112787522D01*
X146772341Y-112748590D01*
X172509500Y-112748590D01*
X172509500Y-112851410D01*
X172536112Y-112950728D01*
X172587522Y-113039773D01*
X172660227Y-113112478D01*
X172749272Y-113163888D01*
X172848590Y-113190500D01*
X172848592Y-113190500D01*
X172951408Y-113190500D01*
X172951410Y-113190500D01*
X173050728Y-113163888D01*
X173139773Y-113112478D01*
X173212478Y-113039773D01*
X173263888Y-112950728D01*
X173290500Y-112851410D01*
X173290500Y-112848590D01*
X180809500Y-112848590D01*
X180809500Y-112951410D01*
X180836112Y-113050728D01*
X180887522Y-113139773D01*
X180960227Y-113212478D01*
X181049272Y-113263888D01*
X181148590Y-113290500D01*
X181148592Y-113290500D01*
X181251408Y-113290500D01*
X181251410Y-113290500D01*
X181350728Y-113263888D01*
X181439773Y-113212478D01*
X181512478Y-113139773D01*
X181563888Y-113050728D01*
X181590500Y-112951410D01*
X181590500Y-112848590D01*
X181563888Y-112749272D01*
X181512478Y-112660227D01*
X181439773Y-112587522D01*
X181350728Y-112536112D01*
X181251410Y-112509500D01*
X181148590Y-112509500D01*
X181049272Y-112536112D01*
X180960227Y-112587522D01*
X180887522Y-112660227D01*
X180836112Y-112749272D01*
X180809500Y-112848590D01*
X173290500Y-112848590D01*
X173290500Y-112748590D01*
X173263888Y-112649272D01*
X173212478Y-112560227D01*
X173139773Y-112487522D01*
X173050728Y-112436112D01*
X172951410Y-112409500D01*
X172848590Y-112409500D01*
X172749272Y-112436112D01*
X172660227Y-112487522D01*
X172587522Y-112560227D01*
X172536112Y-112649272D01*
X172509500Y-112748590D01*
X146772341Y-112748590D01*
X146750728Y-112736112D01*
X146651410Y-112709500D01*
X146548590Y-112709500D01*
X146449272Y-112736112D01*
X146360227Y-112787522D01*
X146287522Y-112860227D01*
X146236112Y-112949272D01*
X146209500Y-113048590D01*
X115963494Y-113048590D01*
X115912478Y-112960227D01*
X115839773Y-112887522D01*
X115750728Y-112836112D01*
X115651410Y-112809500D01*
X115548590Y-112809500D01*
X115449272Y-112836112D01*
X115360227Y-112887522D01*
X115287522Y-112960227D01*
X115236112Y-113049272D01*
X115209500Y-113148590D01*
X104870953Y-113148590D01*
X104810498Y-113002639D01*
X104810491Y-113002625D01*
X104721976Y-112870154D01*
X104294384Y-113297746D01*
X104248087Y-113217557D01*
X104162443Y-113131913D01*
X104082250Y-113085614D01*
X104509843Y-112658022D01*
X104377361Y-112569501D01*
X104186272Y-112490349D01*
X103983418Y-112450000D01*
X103776581Y-112450000D01*
X103573727Y-112490349D01*
X103382638Y-112569501D01*
X103250155Y-112658022D01*
X103677748Y-113085615D01*
X103597557Y-113131913D01*
X103511913Y-113217557D01*
X103465615Y-113297748D01*
X103038022Y-112870155D01*
X102949501Y-113002638D01*
X102870349Y-113193727D01*
X102830000Y-113396581D01*
X100250000Y-113396581D01*
X100250000Y-112275278D01*
X100268907Y-112217087D01*
X100318407Y-112181123D01*
X100355476Y-112176490D01*
X100379782Y-112178083D01*
X100807415Y-111750449D01*
X100842822Y-111799181D01*
X100970819Y-111927178D01*
X101019548Y-111962582D01*
X100591915Y-112390216D01*
X100745667Y-112508194D01*
X100944341Y-112622898D01*
X101156268Y-112710680D01*
X101156281Y-112710684D01*
X101377863Y-112770057D01*
X101605297Y-112799999D01*
X101605300Y-112800000D01*
X101834700Y-112800000D01*
X101834702Y-112799999D01*
X102062133Y-112770057D01*
X102062138Y-112770057D01*
X102283718Y-112710684D01*
X102283731Y-112710680D01*
X102495658Y-112622898D01*
X102519420Y-112609180D01*
X102694342Y-112508188D01*
X102848083Y-112390216D01*
X102807357Y-112349490D01*
X129409500Y-112349490D01*
X129409500Y-112452310D01*
X129436112Y-112551628D01*
X129487522Y-112640673D01*
X129560227Y-112713378D01*
X129649272Y-112764788D01*
X129748590Y-112791400D01*
X129748592Y-112791400D01*
X129851408Y-112791400D01*
X129851410Y-112791400D01*
X129950728Y-112764788D01*
X130039773Y-112713378D01*
X130112478Y-112640673D01*
X130163888Y-112551628D01*
X130190500Y-112452310D01*
X130190500Y-112349490D01*
X130163888Y-112250172D01*
X130112478Y-112161127D01*
X130039773Y-112088422D01*
X129950728Y-112037012D01*
X129851410Y-112010400D01*
X129748590Y-112010400D01*
X129649272Y-112037012D01*
X129560227Y-112088422D01*
X129487522Y-112161127D01*
X129436112Y-112250172D01*
X129409500Y-112349490D01*
X102807357Y-112349490D01*
X102420450Y-111962583D01*
X102469181Y-111927178D01*
X102597178Y-111799181D01*
X102632583Y-111750450D01*
X103060216Y-112178083D01*
X103178188Y-112024342D01*
X103292898Y-111825658D01*
X103380680Y-111613731D01*
X103380684Y-111613718D01*
X103424931Y-111448590D01*
X145609500Y-111448590D01*
X145609500Y-111551410D01*
X145636112Y-111650728D01*
X145687522Y-111739773D01*
X145760227Y-111812478D01*
X145849272Y-111863888D01*
X145948590Y-111890500D01*
X145948592Y-111890500D01*
X146051408Y-111890500D01*
X146051410Y-111890500D01*
X146150728Y-111863888D01*
X146239773Y-111812478D01*
X146312478Y-111739773D01*
X146363888Y-111650728D01*
X146390500Y-111551410D01*
X146390500Y-111498590D01*
X179559500Y-111498590D01*
X179559500Y-111601410D01*
X179586112Y-111700728D01*
X179637522Y-111789773D01*
X179710227Y-111862478D01*
X179799272Y-111913888D01*
X179898590Y-111940500D01*
X179898592Y-111940500D01*
X179968242Y-111940500D01*
X180026433Y-111959407D01*
X180062397Y-112008907D01*
X180062397Y-112070093D01*
X180041123Y-112104808D01*
X180041473Y-112105077D01*
X180038919Y-112108404D01*
X180038247Y-112109501D01*
X180037522Y-112110227D01*
X179986112Y-112199272D01*
X179959500Y-112298590D01*
X179959500Y-112401410D01*
X179986112Y-112500728D01*
X180037522Y-112589773D01*
X180110227Y-112662478D01*
X180199272Y-112713888D01*
X180298590Y-112740500D01*
X180298592Y-112740500D01*
X180401408Y-112740500D01*
X180401410Y-112740500D01*
X180500728Y-112713888D01*
X180589773Y-112662478D01*
X180662478Y-112589773D01*
X180713888Y-112500728D01*
X180740500Y-112401410D01*
X180740500Y-112298590D01*
X180713888Y-112199272D01*
X180662478Y-112110227D01*
X180589773Y-112037522D01*
X180500728Y-111986112D01*
X180401410Y-111959500D01*
X180331758Y-111959500D01*
X180273567Y-111940593D01*
X180237603Y-111891093D01*
X180237603Y-111829907D01*
X180258876Y-111795191D01*
X180258527Y-111794923D01*
X180261080Y-111791595D01*
X180261752Y-111790498D01*
X180262478Y-111789773D01*
X180313888Y-111700728D01*
X180340500Y-111601410D01*
X180340500Y-111498590D01*
X180313888Y-111399272D01*
X180262478Y-111310227D01*
X180189773Y-111237522D01*
X180100728Y-111186112D01*
X180001410Y-111159500D01*
X179898590Y-111159500D01*
X179799272Y-111186112D01*
X179710227Y-111237522D01*
X179637522Y-111310227D01*
X179586112Y-111399272D01*
X179559500Y-111498590D01*
X146390500Y-111498590D01*
X146390500Y-111448590D01*
X146363888Y-111349272D01*
X146312478Y-111260227D01*
X146239773Y-111187522D01*
X146150728Y-111136112D01*
X146051410Y-111109500D01*
X145948590Y-111109500D01*
X145849272Y-111136112D01*
X145760227Y-111187522D01*
X145687522Y-111260227D01*
X145636112Y-111349272D01*
X145609500Y-111448590D01*
X103424931Y-111448590D01*
X103433535Y-111416478D01*
X103433536Y-111416476D01*
X103440055Y-111392148D01*
X103440057Y-111392133D01*
X103469999Y-111164702D01*
X103470000Y-111164700D01*
X103470000Y-110935300D01*
X103469999Y-110935297D01*
X103440057Y-110707866D01*
X103440057Y-110707861D01*
X103387315Y-110511024D01*
X103387315Y-110511021D01*
X103382188Y-110491890D01*
X130867500Y-110491890D01*
X130867500Y-110594710D01*
X130894112Y-110694028D01*
X130945522Y-110783073D01*
X131018227Y-110855778D01*
X131107272Y-110907188D01*
X131206590Y-110933800D01*
X131206592Y-110933800D01*
X131309408Y-110933800D01*
X131309410Y-110933800D01*
X131408728Y-110907188D01*
X131497773Y-110855778D01*
X131534861Y-110818690D01*
X132609600Y-110818690D01*
X132609600Y-110921510D01*
X132636212Y-111020828D01*
X132687622Y-111109873D01*
X132760327Y-111182578D01*
X132849372Y-111233988D01*
X132948690Y-111260600D01*
X132948692Y-111260600D01*
X133051508Y-111260600D01*
X133051510Y-111260600D01*
X133150828Y-111233988D01*
X133239873Y-111182578D01*
X133312578Y-111109873D01*
X133363988Y-111020828D01*
X133390600Y-110921510D01*
X133390600Y-110856390D01*
X161339000Y-110856390D01*
X161339000Y-110959210D01*
X161365612Y-111058528D01*
X161417022Y-111147573D01*
X161489727Y-111220278D01*
X161578772Y-111271688D01*
X161678090Y-111298300D01*
X161678092Y-111298300D01*
X161780908Y-111298300D01*
X161780910Y-111298300D01*
X161880228Y-111271688D01*
X161969273Y-111220278D01*
X162041978Y-111147573D01*
X162093388Y-111058528D01*
X162120000Y-110959210D01*
X162120000Y-110856390D01*
X168408700Y-110856390D01*
X168408700Y-110959210D01*
X168435312Y-111058528D01*
X168486722Y-111147573D01*
X168559427Y-111220278D01*
X168648472Y-111271688D01*
X168747790Y-111298300D01*
X168747792Y-111298300D01*
X168850608Y-111298300D01*
X168850610Y-111298300D01*
X168949928Y-111271688D01*
X169038973Y-111220278D01*
X169111678Y-111147573D01*
X169163088Y-111058528D01*
X169189700Y-110959210D01*
X169189700Y-110856390D01*
X169163088Y-110757072D01*
X169111678Y-110668027D01*
X169038973Y-110595322D01*
X168949928Y-110543912D01*
X168850610Y-110517300D01*
X168747790Y-110517300D01*
X168648472Y-110543912D01*
X168559427Y-110595322D01*
X168486722Y-110668027D01*
X168435312Y-110757072D01*
X168408700Y-110856390D01*
X162120000Y-110856390D01*
X162093388Y-110757072D01*
X162041978Y-110668027D01*
X161969273Y-110595322D01*
X161880228Y-110543912D01*
X161780910Y-110517300D01*
X161678090Y-110517300D01*
X161578772Y-110543912D01*
X161489727Y-110595322D01*
X161417022Y-110668027D01*
X161365612Y-110757072D01*
X161339000Y-110856390D01*
X133390600Y-110856390D01*
X133390600Y-110818690D01*
X133363988Y-110719372D01*
X133312578Y-110630327D01*
X133239873Y-110557622D01*
X133150828Y-110506212D01*
X133122382Y-110498590D01*
X179509500Y-110498590D01*
X179509500Y-110601410D01*
X179536112Y-110700728D01*
X179587522Y-110789773D01*
X179660227Y-110862478D01*
X179749272Y-110913888D01*
X179848590Y-110940500D01*
X179848592Y-110940500D01*
X179951408Y-110940500D01*
X179951410Y-110940500D01*
X180050728Y-110913888D01*
X180139773Y-110862478D01*
X180212478Y-110789773D01*
X180263888Y-110700728D01*
X180290500Y-110601410D01*
X180290500Y-110548590D01*
X180809500Y-110548590D01*
X180809500Y-110651410D01*
X180836112Y-110750728D01*
X180887522Y-110839773D01*
X180960227Y-110912478D01*
X181049272Y-110963888D01*
X181148590Y-110990500D01*
X181148592Y-110990500D01*
X181251408Y-110990500D01*
X181251410Y-110990500D01*
X181350728Y-110963888D01*
X181439773Y-110912478D01*
X181512478Y-110839773D01*
X181563888Y-110750728D01*
X181590500Y-110651410D01*
X181590500Y-110548590D01*
X181563888Y-110449272D01*
X181512478Y-110360227D01*
X181439773Y-110287522D01*
X181350728Y-110236112D01*
X181251410Y-110209500D01*
X181148590Y-110209500D01*
X181049272Y-110236112D01*
X180960227Y-110287522D01*
X180887522Y-110360227D01*
X180836112Y-110449272D01*
X180809500Y-110548590D01*
X180290500Y-110548590D01*
X180290500Y-110498590D01*
X180263888Y-110399272D01*
X180212478Y-110310227D01*
X180139773Y-110237522D01*
X180050728Y-110186112D01*
X179951410Y-110159500D01*
X179848590Y-110159500D01*
X179749272Y-110186112D01*
X179660227Y-110237522D01*
X179587522Y-110310227D01*
X179536112Y-110399272D01*
X179509500Y-110498590D01*
X133122382Y-110498590D01*
X133051510Y-110479600D01*
X132948690Y-110479600D01*
X132849372Y-110506212D01*
X132760327Y-110557622D01*
X132687622Y-110630327D01*
X132636212Y-110719372D01*
X132609600Y-110818690D01*
X131534861Y-110818690D01*
X131570478Y-110783073D01*
X131621888Y-110694028D01*
X131648500Y-110594710D01*
X131648500Y-110491890D01*
X131621888Y-110392572D01*
X131570478Y-110303527D01*
X131497773Y-110230822D01*
X131408728Y-110179412D01*
X131309410Y-110152800D01*
X131206590Y-110152800D01*
X131107272Y-110179412D01*
X131018227Y-110230822D01*
X130945522Y-110303527D01*
X130894112Y-110392572D01*
X130867500Y-110491890D01*
X103382188Y-110491890D01*
X103380688Y-110486291D01*
X103380680Y-110486268D01*
X103292898Y-110274341D01*
X103178194Y-110075667D01*
X103157417Y-110048590D01*
X175909500Y-110048590D01*
X175909500Y-110151410D01*
X175936112Y-110250728D01*
X175987522Y-110339773D01*
X176060227Y-110412478D01*
X176149272Y-110463888D01*
X176248590Y-110490500D01*
X176248592Y-110490500D01*
X176351408Y-110490500D01*
X176351410Y-110490500D01*
X176450728Y-110463888D01*
X176539773Y-110412478D01*
X176612478Y-110339773D01*
X176614263Y-110336680D01*
X176616165Y-110334968D01*
X176616427Y-110334627D01*
X176616490Y-110334675D01*
X176659730Y-110295740D01*
X176720579Y-110289342D01*
X176773569Y-110319932D01*
X176785735Y-110336678D01*
X176787522Y-110339773D01*
X176860227Y-110412478D01*
X176949272Y-110463888D01*
X177048590Y-110490500D01*
X177048592Y-110490500D01*
X177151408Y-110490500D01*
X177151410Y-110490500D01*
X177250728Y-110463888D01*
X177339773Y-110412478D01*
X177412478Y-110339773D01*
X177463888Y-110250728D01*
X177490500Y-110151410D01*
X177490500Y-110048590D01*
X177463888Y-109949272D01*
X177412478Y-109860227D01*
X177339773Y-109787522D01*
X177250728Y-109736112D01*
X177151410Y-109709500D01*
X177048590Y-109709500D01*
X176949272Y-109736112D01*
X176860227Y-109787522D01*
X176787522Y-109860227D01*
X176786223Y-109862478D01*
X176785736Y-109863321D01*
X176783832Y-109865035D01*
X176783573Y-109865373D01*
X176783510Y-109865324D01*
X176740266Y-109904261D01*
X176679416Y-109910656D01*
X176626428Y-109880063D01*
X176614264Y-109863321D01*
X176612478Y-109860227D01*
X176539773Y-109787522D01*
X176450728Y-109736112D01*
X176351410Y-109709500D01*
X176248590Y-109709500D01*
X176149272Y-109736112D01*
X176060227Y-109787522D01*
X175987522Y-109860227D01*
X175936112Y-109949272D01*
X175909500Y-110048590D01*
X103157417Y-110048590D01*
X103060215Y-109921915D01*
X102632582Y-110349548D01*
X102597178Y-110300819D01*
X102469181Y-110172822D01*
X102420449Y-110137415D01*
X102848083Y-109709782D01*
X102784731Y-109661170D01*
X102784694Y-109661143D01*
X102694332Y-109591805D01*
X102689629Y-109589090D01*
X146731100Y-109589090D01*
X146731100Y-109691910D01*
X146757712Y-109791228D01*
X146809122Y-109880273D01*
X146881827Y-109952978D01*
X146970872Y-110004388D01*
X147070190Y-110031000D01*
X147070192Y-110031000D01*
X147173008Y-110031000D01*
X147173010Y-110031000D01*
X147272328Y-110004388D01*
X147361373Y-109952978D01*
X147434078Y-109880273D01*
X147485488Y-109791228D01*
X147512100Y-109691910D01*
X147512100Y-109589090D01*
X147485488Y-109489772D01*
X147461712Y-109448590D01*
X178359500Y-109448590D01*
X178359500Y-109551410D01*
X178386112Y-109650728D01*
X178437522Y-109739773D01*
X178510227Y-109812478D01*
X178599272Y-109863888D01*
X178698590Y-109890500D01*
X178698592Y-109890500D01*
X178801408Y-109890500D01*
X178801410Y-109890500D01*
X178900728Y-109863888D01*
X178989773Y-109812478D01*
X179062478Y-109739773D01*
X179113888Y-109650728D01*
X179140500Y-109551410D01*
X179140500Y-109498590D01*
X179509500Y-109498590D01*
X179509500Y-109601410D01*
X179536112Y-109700728D01*
X179587522Y-109789773D01*
X179660227Y-109862478D01*
X179749272Y-109913888D01*
X179848590Y-109940500D01*
X179848592Y-109940500D01*
X179951408Y-109940500D01*
X179951410Y-109940500D01*
X180050728Y-109913888D01*
X180139773Y-109862478D01*
X180212478Y-109789773D01*
X180214263Y-109786680D01*
X180216165Y-109784968D01*
X180216427Y-109784627D01*
X180216490Y-109784675D01*
X180259730Y-109745740D01*
X180320579Y-109739342D01*
X180373569Y-109769932D01*
X180385735Y-109786678D01*
X180387522Y-109789773D01*
X180460227Y-109862478D01*
X180549272Y-109913888D01*
X180648590Y-109940500D01*
X180648592Y-109940500D01*
X180751408Y-109940500D01*
X180751410Y-109940500D01*
X180850728Y-109913888D01*
X180939773Y-109862478D01*
X181012478Y-109789773D01*
X181063888Y-109700728D01*
X181090500Y-109601410D01*
X181090500Y-109498590D01*
X181063888Y-109399272D01*
X181012478Y-109310227D01*
X180939773Y-109237522D01*
X180850728Y-109186112D01*
X180751410Y-109159500D01*
X180648590Y-109159500D01*
X180549272Y-109186112D01*
X180460227Y-109237522D01*
X180387521Y-109310228D01*
X180385736Y-109313321D01*
X180383832Y-109315035D01*
X180383573Y-109315373D01*
X180383510Y-109315324D01*
X180340266Y-109354261D01*
X180279416Y-109360656D01*
X180226428Y-109330063D01*
X180214264Y-109313321D01*
X180212478Y-109310227D01*
X180139773Y-109237522D01*
X180050728Y-109186112D01*
X179951410Y-109159500D01*
X179848590Y-109159500D01*
X179749272Y-109186112D01*
X179660227Y-109237522D01*
X179587522Y-109310227D01*
X179536112Y-109399272D01*
X179509500Y-109498590D01*
X179140500Y-109498590D01*
X179140500Y-109448590D01*
X179113888Y-109349272D01*
X179062478Y-109260227D01*
X178989773Y-109187522D01*
X178900728Y-109136112D01*
X178801410Y-109109500D01*
X178698590Y-109109500D01*
X178599272Y-109136112D01*
X178510227Y-109187522D01*
X178437522Y-109260227D01*
X178386112Y-109349272D01*
X178359500Y-109448590D01*
X147461712Y-109448590D01*
X147434078Y-109400727D01*
X147361373Y-109328022D01*
X147272328Y-109276612D01*
X147173010Y-109250000D01*
X147070190Y-109250000D01*
X146970872Y-109276612D01*
X146881827Y-109328022D01*
X146809122Y-109400727D01*
X146757712Y-109489772D01*
X146731100Y-109589090D01*
X102689629Y-109589090D01*
X102495658Y-109477101D01*
X102283731Y-109389319D01*
X102283718Y-109389315D01*
X102062136Y-109329942D01*
X101834702Y-109300000D01*
X101605297Y-109300000D01*
X101377866Y-109329942D01*
X101377861Y-109329942D01*
X101156281Y-109389315D01*
X101156268Y-109389319D01*
X100944341Y-109477101D01*
X100745662Y-109591808D01*
X100591915Y-109709782D01*
X101019549Y-110137416D01*
X100970819Y-110172822D01*
X100842822Y-110300819D01*
X100807416Y-110349549D01*
X100379781Y-109921914D01*
X100355475Y-109923508D01*
X100337232Y-109918875D01*
X100318407Y-109918875D01*
X100308290Y-109911524D01*
X100296172Y-109908447D01*
X100284136Y-109893976D01*
X100268907Y-109882911D01*
X100265042Y-109871017D01*
X100257048Y-109861405D01*
X100250000Y-109824720D01*
X100250000Y-109036790D01*
X139637900Y-109036790D01*
X139637900Y-109139610D01*
X139664512Y-109238928D01*
X139715922Y-109327973D01*
X139788627Y-109400678D01*
X139877672Y-109452088D01*
X139976990Y-109478700D01*
X139976992Y-109478700D01*
X140079808Y-109478700D01*
X140079810Y-109478700D01*
X140179128Y-109452088D01*
X140268173Y-109400678D01*
X140340878Y-109327973D01*
X140392288Y-109238928D01*
X140418900Y-109139610D01*
X140418900Y-109048716D01*
X183584500Y-109048716D01*
X183584500Y-109171284D01*
X183616223Y-109289676D01*
X183677507Y-109395824D01*
X183764176Y-109482493D01*
X183870324Y-109543777D01*
X183988716Y-109575500D01*
X183988718Y-109575500D01*
X184111282Y-109575500D01*
X184111284Y-109575500D01*
X184229676Y-109543777D01*
X184335824Y-109482493D01*
X184422493Y-109395824D01*
X184483777Y-109289676D01*
X184515500Y-109171284D01*
X184515500Y-109048716D01*
X184483777Y-108930324D01*
X184422493Y-108824176D01*
X184335824Y-108737507D01*
X184229676Y-108676223D01*
X184111284Y-108644500D01*
X183988716Y-108644500D01*
X183870324Y-108676223D01*
X183764176Y-108737507D01*
X183677507Y-108824176D01*
X183616223Y-108930324D01*
X183584500Y-109048716D01*
X140418900Y-109048716D01*
X140418900Y-109036790D01*
X140392288Y-108937472D01*
X140340878Y-108848427D01*
X140268173Y-108775722D01*
X140179128Y-108724312D01*
X140079810Y-108697700D01*
X139976990Y-108697700D01*
X139877672Y-108724312D01*
X139788627Y-108775722D01*
X139715922Y-108848427D01*
X139664512Y-108937472D01*
X139637900Y-109036790D01*
X100250000Y-109036790D01*
X100250000Y-108348590D01*
X167009500Y-108348590D01*
X167009500Y-108451410D01*
X167036112Y-108550728D01*
X167087522Y-108639773D01*
X167160227Y-108712478D01*
X167249272Y-108763888D01*
X167348590Y-108790500D01*
X167348592Y-108790500D01*
X167451408Y-108790500D01*
X167451410Y-108790500D01*
X167550728Y-108763888D01*
X167639773Y-108712478D01*
X167712478Y-108639773D01*
X167763888Y-108550728D01*
X167790500Y-108451410D01*
X167790500Y-108348590D01*
X167763888Y-108249272D01*
X167712478Y-108160227D01*
X167639773Y-108087522D01*
X167550728Y-108036112D01*
X167451410Y-108009500D01*
X167348590Y-108009500D01*
X167249272Y-108036112D01*
X167160227Y-108087522D01*
X167087522Y-108160227D01*
X167036112Y-108249272D01*
X167009500Y-108348590D01*
X100250000Y-108348590D01*
X100250000Y-107814890D01*
X172756600Y-107814890D01*
X172756600Y-107917710D01*
X172783212Y-108017028D01*
X172834622Y-108106073D01*
X172907327Y-108178778D01*
X172996372Y-108230188D01*
X173095690Y-108256800D01*
X173095692Y-108256800D01*
X173198508Y-108256800D01*
X173198510Y-108256800D01*
X173297828Y-108230188D01*
X173386873Y-108178778D01*
X173459578Y-108106073D01*
X173510988Y-108017028D01*
X173537600Y-107917710D01*
X173537600Y-107814890D01*
X173533050Y-107797909D01*
X173536253Y-107736810D01*
X173574758Y-107689260D01*
X173603050Y-107676663D01*
X173650728Y-107663888D01*
X173739773Y-107612478D01*
X173812478Y-107539773D01*
X173843934Y-107485290D01*
X180250800Y-107485290D01*
X180250800Y-107588110D01*
X180277412Y-107687428D01*
X180328822Y-107776473D01*
X180401527Y-107849178D01*
X180490572Y-107900588D01*
X180589890Y-107927200D01*
X180589892Y-107927200D01*
X180692708Y-107927200D01*
X180692710Y-107927200D01*
X180792028Y-107900588D01*
X180881073Y-107849178D01*
X180953778Y-107776473D01*
X181005188Y-107687428D01*
X181031800Y-107588110D01*
X181031800Y-107530000D01*
X182235143Y-107530000D01*
X182710192Y-107530000D01*
X182690444Y-107564204D01*
X182670000Y-107640504D01*
X182670000Y-107719496D01*
X182690444Y-107795796D01*
X182710192Y-107830000D01*
X182235143Y-107830000D01*
X182248822Y-107898767D01*
X182305358Y-108035257D01*
X182387434Y-108158093D01*
X182491906Y-108262565D01*
X182614742Y-108344641D01*
X182751229Y-108401176D01*
X182751235Y-108401178D01*
X182896128Y-108429999D01*
X182896132Y-108430000D01*
X183369999Y-108430000D01*
X183370000Y-108429999D01*
X183370000Y-107980000D01*
X183670000Y-107980000D01*
X183670000Y-108429999D01*
X183670001Y-108430000D01*
X184143868Y-108430000D01*
X184143871Y-108429999D01*
X184288764Y-108401178D01*
X184288770Y-108401176D01*
X184425257Y-108344641D01*
X184548093Y-108262565D01*
X184652565Y-108158093D01*
X184734641Y-108035257D01*
X184791177Y-107898767D01*
X184804857Y-107830000D01*
X184329808Y-107830000D01*
X184349556Y-107795796D01*
X184370000Y-107719496D01*
X184370000Y-107640504D01*
X184349556Y-107564204D01*
X184329808Y-107530000D01*
X184804857Y-107530000D01*
X186665143Y-107530000D01*
X187140192Y-107530000D01*
X187120444Y-107564204D01*
X187100000Y-107640504D01*
X187100000Y-107719496D01*
X187120444Y-107795796D01*
X187140192Y-107830000D01*
X186665143Y-107830000D01*
X186678822Y-107898767D01*
X186735358Y-108035257D01*
X186817434Y-108158093D01*
X186921906Y-108262565D01*
X187044742Y-108344641D01*
X187181229Y-108401176D01*
X187181235Y-108401178D01*
X187326128Y-108429999D01*
X187326132Y-108430000D01*
X187549999Y-108430000D01*
X187550000Y-108429999D01*
X187550000Y-107980000D01*
X187850000Y-107980000D01*
X187850000Y-108429999D01*
X187850001Y-108430000D01*
X188073868Y-108430000D01*
X188073871Y-108429999D01*
X188218764Y-108401178D01*
X188218770Y-108401176D01*
X188355257Y-108344641D01*
X188478093Y-108262565D01*
X188582565Y-108158093D01*
X188664641Y-108035257D01*
X188721177Y-107898767D01*
X188734857Y-107830000D01*
X188259808Y-107830000D01*
X188279556Y-107795796D01*
X188300000Y-107719496D01*
X188300000Y-107640504D01*
X188279556Y-107564204D01*
X188259808Y-107530000D01*
X188734857Y-107530000D01*
X188721177Y-107461232D01*
X188664641Y-107324742D01*
X188582565Y-107201906D01*
X188478093Y-107097434D01*
X188355257Y-107015358D01*
X188218770Y-106958823D01*
X188218764Y-106958821D01*
X188073871Y-106930000D01*
X187850001Y-106930000D01*
X187850000Y-106930001D01*
X187850000Y-107380000D01*
X187550000Y-107380000D01*
X187550000Y-106930001D01*
X187549999Y-106930000D01*
X187326128Y-106930000D01*
X187181235Y-106958821D01*
X187181229Y-106958823D01*
X187044742Y-107015358D01*
X186921906Y-107097434D01*
X186817434Y-107201906D01*
X186735358Y-107324742D01*
X186678822Y-107461232D01*
X186665143Y-107530000D01*
X184804857Y-107530000D01*
X184791177Y-107461232D01*
X184734641Y-107324742D01*
X184652565Y-107201906D01*
X184548093Y-107097434D01*
X184425257Y-107015358D01*
X184288770Y-106958823D01*
X184288764Y-106958821D01*
X184143871Y-106930000D01*
X183670001Y-106930000D01*
X183670000Y-106930001D01*
X183670000Y-107380000D01*
X183370000Y-107380000D01*
X183370000Y-106930001D01*
X183369999Y-106930000D01*
X182896128Y-106930000D01*
X182751235Y-106958821D01*
X182751229Y-106958823D01*
X182614742Y-107015358D01*
X182491906Y-107097434D01*
X182387434Y-107201906D01*
X182305358Y-107324742D01*
X182248822Y-107461232D01*
X182235143Y-107530000D01*
X181031800Y-107530000D01*
X181031800Y-107485290D01*
X181005188Y-107385972D01*
X180953778Y-107296927D01*
X180881073Y-107224222D01*
X180792028Y-107172812D01*
X180692710Y-107146200D01*
X180589890Y-107146200D01*
X180490572Y-107172812D01*
X180401527Y-107224222D01*
X180328822Y-107296927D01*
X180277412Y-107385972D01*
X180250800Y-107485290D01*
X173843934Y-107485290D01*
X173863888Y-107450728D01*
X173890500Y-107351410D01*
X173890500Y-107248590D01*
X173863888Y-107149272D01*
X173812478Y-107060227D01*
X173756841Y-107004590D01*
X175571100Y-107004590D01*
X175571100Y-107107410D01*
X175597712Y-107206728D01*
X175649122Y-107295773D01*
X175721827Y-107368478D01*
X175810872Y-107419888D01*
X175910190Y-107446500D01*
X175910192Y-107446500D01*
X176013008Y-107446500D01*
X176013010Y-107446500D01*
X176112328Y-107419888D01*
X176201373Y-107368478D01*
X176274078Y-107295773D01*
X176325488Y-107206728D01*
X176352100Y-107107410D01*
X176352100Y-107004590D01*
X176325488Y-106905272D01*
X176274078Y-106816227D01*
X176201373Y-106743522D01*
X176112328Y-106692112D01*
X176013010Y-106665500D01*
X175910190Y-106665500D01*
X175810872Y-106692112D01*
X175721827Y-106743522D01*
X175649122Y-106816227D01*
X175597712Y-106905272D01*
X175571100Y-107004590D01*
X173756841Y-107004590D01*
X173739773Y-106987522D01*
X173650728Y-106936112D01*
X173551410Y-106909500D01*
X173448590Y-106909500D01*
X173349272Y-106936112D01*
X173260227Y-106987522D01*
X173187522Y-107060227D01*
X173136112Y-107149272D01*
X173116030Y-107224222D01*
X173109500Y-107248591D01*
X173109500Y-107351414D01*
X173114049Y-107368391D01*
X173110845Y-107429492D01*
X173072339Y-107477041D01*
X173044046Y-107489637D01*
X172996375Y-107502410D01*
X172996372Y-107502412D01*
X172907327Y-107553822D01*
X172834622Y-107626527D01*
X172783212Y-107715572D01*
X172756600Y-107814890D01*
X100250000Y-107814890D01*
X100250000Y-106846390D01*
X144408000Y-106846390D01*
X144408000Y-106949210D01*
X144434612Y-107048528D01*
X144486022Y-107137573D01*
X144558727Y-107210278D01*
X144647772Y-107261688D01*
X144747090Y-107288300D01*
X144747092Y-107288300D01*
X144849908Y-107288300D01*
X144849910Y-107288300D01*
X144949228Y-107261688D01*
X145038273Y-107210278D01*
X145110978Y-107137573D01*
X145162388Y-107048528D01*
X145189000Y-106949210D01*
X145189000Y-106846390D01*
X145162388Y-106747072D01*
X145110978Y-106658027D01*
X145038273Y-106585322D01*
X144957157Y-106538490D01*
X147985500Y-106538490D01*
X147985500Y-106641310D01*
X148012112Y-106740628D01*
X148063522Y-106829673D01*
X148136227Y-106902378D01*
X148225272Y-106953788D01*
X148324590Y-106980400D01*
X148324592Y-106980400D01*
X148427408Y-106980400D01*
X148427410Y-106980400D01*
X148526728Y-106953788D01*
X148615773Y-106902378D01*
X148688478Y-106829673D01*
X148739888Y-106740628D01*
X148766500Y-106641310D01*
X148766500Y-106538490D01*
X148739888Y-106439172D01*
X148688478Y-106350127D01*
X148682141Y-106343790D01*
X155565600Y-106343790D01*
X155565600Y-106446610D01*
X155592212Y-106545928D01*
X155643622Y-106634973D01*
X155716327Y-106707678D01*
X155805372Y-106759088D01*
X155904690Y-106785700D01*
X155904692Y-106785700D01*
X156007508Y-106785700D01*
X156007510Y-106785700D01*
X156106828Y-106759088D01*
X156195873Y-106707678D01*
X156268578Y-106634973D01*
X156319988Y-106545928D01*
X156346600Y-106446610D01*
X156346600Y-106343790D01*
X156319988Y-106244472D01*
X156268578Y-106155427D01*
X156195873Y-106082722D01*
X156106828Y-106031312D01*
X156007510Y-106004700D01*
X155904690Y-106004700D01*
X155805372Y-106031312D01*
X155716327Y-106082722D01*
X155643622Y-106155427D01*
X155592212Y-106244472D01*
X155565600Y-106343790D01*
X148682141Y-106343790D01*
X148615773Y-106277422D01*
X148526728Y-106226012D01*
X148427410Y-106199400D01*
X148324590Y-106199400D01*
X148225272Y-106226012D01*
X148136227Y-106277422D01*
X148063522Y-106350127D01*
X148012112Y-106439172D01*
X147985500Y-106538490D01*
X144957157Y-106538490D01*
X144949228Y-106533912D01*
X144849910Y-106507300D01*
X144747090Y-106507300D01*
X144647772Y-106533912D01*
X144558727Y-106585322D01*
X144486022Y-106658027D01*
X144434612Y-106747072D01*
X144408000Y-106846390D01*
X100250000Y-106846390D01*
X100250000Y-105645590D01*
X140262000Y-105645590D01*
X140262000Y-105748410D01*
X140288612Y-105847728D01*
X140340022Y-105936773D01*
X140412727Y-106009478D01*
X140501772Y-106060888D01*
X140601090Y-106087500D01*
X140601092Y-106087500D01*
X140703908Y-106087500D01*
X140703910Y-106087500D01*
X140803228Y-106060888D01*
X140892273Y-106009478D01*
X140964978Y-105936773D01*
X141016388Y-105847728D01*
X141043000Y-105748410D01*
X141043000Y-105645590D01*
X141040106Y-105634790D01*
X141228900Y-105634790D01*
X141228900Y-105737610D01*
X141255512Y-105836928D01*
X141306922Y-105925973D01*
X141379627Y-105998678D01*
X141468672Y-106050088D01*
X141567990Y-106076700D01*
X141567992Y-106076700D01*
X141630564Y-106076700D01*
X141688755Y-106095607D01*
X141724719Y-106145107D01*
X141726191Y-106201322D01*
X141722100Y-106216590D01*
X141722100Y-106319410D01*
X141748712Y-106418728D01*
X141800122Y-106507773D01*
X141872827Y-106580478D01*
X141961872Y-106631888D01*
X142061190Y-106658500D01*
X142061192Y-106658500D01*
X142164008Y-106658500D01*
X142164010Y-106658500D01*
X142263328Y-106631888D01*
X142352373Y-106580478D01*
X142425078Y-106507773D01*
X142476488Y-106418728D01*
X142503100Y-106319410D01*
X142503100Y-106216590D01*
X142476488Y-106117272D01*
X142425078Y-106028227D01*
X142352373Y-105955522D01*
X142263328Y-105904112D01*
X142164010Y-105877500D01*
X142101436Y-105877500D01*
X142043245Y-105858593D01*
X142007281Y-105809093D01*
X142003045Y-105767539D01*
X142003873Y-105760100D01*
X142009900Y-105737610D01*
X142009900Y-105717990D01*
X143238200Y-105717990D01*
X143238200Y-105820810D01*
X143264812Y-105920128D01*
X143316222Y-106009173D01*
X143388927Y-106081878D01*
X143477972Y-106133288D01*
X143577290Y-106159900D01*
X143577292Y-106159900D01*
X143680108Y-106159900D01*
X143680110Y-106159900D01*
X143779428Y-106133288D01*
X143868473Y-106081878D01*
X143941178Y-106009173D01*
X143992588Y-105920128D01*
X143992589Y-105920123D01*
X143992783Y-105919788D01*
X144038252Y-105878846D01*
X144099102Y-105872450D01*
X144152091Y-105903042D01*
X144164255Y-105919785D01*
X144164453Y-105920128D01*
X144170022Y-105929773D01*
X144242727Y-106002478D01*
X144331772Y-106053888D01*
X144431090Y-106080500D01*
X144431092Y-106080500D01*
X144533908Y-106080500D01*
X144533910Y-106080500D01*
X144633228Y-106053888D01*
X144722273Y-106002478D01*
X144772451Y-105952299D01*
X144826965Y-105924523D01*
X144887397Y-105934094D01*
X144930662Y-105977358D01*
X144938079Y-105996678D01*
X144941508Y-106009477D01*
X144942112Y-106011728D01*
X144993522Y-106100773D01*
X145066227Y-106173478D01*
X145155272Y-106224888D01*
X145254590Y-106251500D01*
X145254592Y-106251500D01*
X145357408Y-106251500D01*
X145357410Y-106251500D01*
X145456728Y-106224888D01*
X145545773Y-106173478D01*
X145618478Y-106100773D01*
X145669888Y-106011728D01*
X145696500Y-105912410D01*
X145696500Y-105809590D01*
X145669888Y-105710272D01*
X145618478Y-105621227D01*
X145545773Y-105548522D01*
X145521122Y-105534290D01*
X147906700Y-105534290D01*
X147906700Y-105637110D01*
X147933312Y-105736428D01*
X147984722Y-105825473D01*
X148057427Y-105898178D01*
X148146472Y-105949588D01*
X148245790Y-105976200D01*
X148245792Y-105976200D01*
X148348608Y-105976200D01*
X148348610Y-105976200D01*
X148447928Y-105949588D01*
X148536973Y-105898178D01*
X148609678Y-105825473D01*
X148615211Y-105815890D01*
X151286800Y-105815890D01*
X151286800Y-105918710D01*
X151313412Y-106018028D01*
X151364822Y-106107073D01*
X151437527Y-106179778D01*
X151526572Y-106231188D01*
X151625890Y-106257800D01*
X151625892Y-106257800D01*
X151728708Y-106257800D01*
X151728710Y-106257800D01*
X151828028Y-106231188D01*
X151917073Y-106179778D01*
X151989778Y-106107073D01*
X152041188Y-106018028D01*
X152067800Y-105918710D01*
X152067800Y-105815890D01*
X152041188Y-105716572D01*
X151989778Y-105627527D01*
X151917073Y-105554822D01*
X151828028Y-105503412D01*
X151728710Y-105476800D01*
X151625890Y-105476800D01*
X151526572Y-105503412D01*
X151437527Y-105554822D01*
X151364822Y-105627527D01*
X151313412Y-105716572D01*
X151286800Y-105815890D01*
X148615211Y-105815890D01*
X148661088Y-105736428D01*
X148687700Y-105637110D01*
X148687700Y-105534290D01*
X148661088Y-105434972D01*
X148657808Y-105429290D01*
X152394200Y-105429290D01*
X152394200Y-105532110D01*
X152420812Y-105631428D01*
X152472222Y-105720473D01*
X152544927Y-105793178D01*
X152633972Y-105844588D01*
X152733290Y-105871200D01*
X152733292Y-105871200D01*
X152836108Y-105871200D01*
X152836110Y-105871200D01*
X152935428Y-105844588D01*
X153024473Y-105793178D01*
X153097178Y-105720473D01*
X153148588Y-105631428D01*
X153175200Y-105532110D01*
X153175200Y-105429290D01*
X153148588Y-105329972D01*
X153097178Y-105240927D01*
X153024473Y-105168222D01*
X152935428Y-105116812D01*
X152836110Y-105090200D01*
X152733290Y-105090200D01*
X152633972Y-105116812D01*
X152544927Y-105168222D01*
X152472222Y-105240927D01*
X152420812Y-105329972D01*
X152394200Y-105429290D01*
X148657808Y-105429290D01*
X148609678Y-105345927D01*
X148536973Y-105273222D01*
X148447928Y-105221812D01*
X148348610Y-105195200D01*
X148245790Y-105195200D01*
X148146472Y-105221812D01*
X148057427Y-105273222D01*
X147984722Y-105345927D01*
X147933312Y-105434972D01*
X147906700Y-105534290D01*
X145521122Y-105534290D01*
X145456728Y-105497112D01*
X145357410Y-105470500D01*
X145254590Y-105470500D01*
X145155272Y-105497112D01*
X145070125Y-105546272D01*
X145066224Y-105548524D01*
X145016049Y-105598699D01*
X144961532Y-105626476D01*
X144901100Y-105616904D01*
X144857836Y-105573639D01*
X144850420Y-105554322D01*
X144846388Y-105539272D01*
X144794978Y-105450227D01*
X144722273Y-105377522D01*
X144633228Y-105326112D01*
X144533910Y-105299500D01*
X144431090Y-105299500D01*
X144345954Y-105322312D01*
X144331772Y-105326112D01*
X144242727Y-105377522D01*
X144170020Y-105450229D01*
X144118415Y-105539612D01*
X144072946Y-105580553D01*
X144012095Y-105586949D01*
X143959107Y-105556356D01*
X143946943Y-105539612D01*
X143943870Y-105534290D01*
X143941178Y-105529627D01*
X143868473Y-105456922D01*
X143779428Y-105405512D01*
X143680110Y-105378900D01*
X143577290Y-105378900D01*
X143477972Y-105405512D01*
X143388927Y-105456922D01*
X143316222Y-105529627D01*
X143264812Y-105618672D01*
X143238200Y-105717990D01*
X142009900Y-105717990D01*
X142009900Y-105634790D01*
X141983288Y-105535472D01*
X141931878Y-105446427D01*
X141859173Y-105373722D01*
X141770128Y-105322312D01*
X141670810Y-105295700D01*
X141567990Y-105295700D01*
X141468672Y-105322312D01*
X141379627Y-105373722D01*
X141306922Y-105446427D01*
X141255512Y-105535472D01*
X141243433Y-105580553D01*
X141228900Y-105634790D01*
X141040106Y-105634790D01*
X141016388Y-105546272D01*
X140964978Y-105457227D01*
X140892273Y-105384522D01*
X140803228Y-105333112D01*
X140703910Y-105306500D01*
X140601090Y-105306500D01*
X140501772Y-105333112D01*
X140412727Y-105384522D01*
X140340022Y-105457227D01*
X140288612Y-105546272D01*
X140262000Y-105645590D01*
X100250000Y-105645590D01*
X100250000Y-102548590D01*
X114009500Y-102548590D01*
X114009500Y-102651410D01*
X114036112Y-102750728D01*
X114087522Y-102839773D01*
X114160227Y-102912478D01*
X114249272Y-102963888D01*
X114348590Y-102990500D01*
X114348592Y-102990500D01*
X114451408Y-102990500D01*
X114451410Y-102990500D01*
X114550728Y-102963888D01*
X114639773Y-102912478D01*
X114712478Y-102839773D01*
X114763888Y-102750728D01*
X114765827Y-102743490D01*
X139273200Y-102743490D01*
X139273200Y-102846310D01*
X139299812Y-102945628D01*
X139351222Y-103034673D01*
X139423927Y-103107378D01*
X139512972Y-103158788D01*
X139612290Y-103185400D01*
X139612292Y-103185400D01*
X139715108Y-103185400D01*
X139715110Y-103185400D01*
X139814428Y-103158788D01*
X139903473Y-103107378D01*
X139976178Y-103034673D01*
X140027588Y-102945628D01*
X140054200Y-102846310D01*
X140054200Y-102743490D01*
X140027588Y-102644172D01*
X139976178Y-102555127D01*
X139903473Y-102482422D01*
X139814428Y-102431012D01*
X139778145Y-102421290D01*
X142936900Y-102421290D01*
X142936900Y-102524110D01*
X142963512Y-102623428D01*
X143014922Y-102712473D01*
X143087627Y-102785178D01*
X143176672Y-102836588D01*
X143275990Y-102863200D01*
X143275992Y-102863200D01*
X143378808Y-102863200D01*
X143378810Y-102863200D01*
X143478128Y-102836588D01*
X143567173Y-102785178D01*
X143639878Y-102712473D01*
X143691288Y-102623428D01*
X143704963Y-102572390D01*
X153348200Y-102572390D01*
X153348200Y-102675210D01*
X153374812Y-102774528D01*
X153426222Y-102863573D01*
X153498927Y-102936278D01*
X153587972Y-102987688D01*
X153687290Y-103014300D01*
X153687292Y-103014300D01*
X153790108Y-103014300D01*
X153790110Y-103014300D01*
X153889428Y-102987688D01*
X153978473Y-102936278D01*
X154051178Y-102863573D01*
X154102588Y-102774528D01*
X154129200Y-102675210D01*
X154129200Y-102572390D01*
X154102588Y-102473072D01*
X154051178Y-102384027D01*
X153978473Y-102311322D01*
X153889428Y-102259912D01*
X153790110Y-102233300D01*
X153687290Y-102233300D01*
X153587972Y-102259912D01*
X153498927Y-102311322D01*
X153426222Y-102384027D01*
X153374812Y-102473072D01*
X153348200Y-102572390D01*
X143704963Y-102572390D01*
X143717900Y-102524110D01*
X143717900Y-102421290D01*
X143691288Y-102321972D01*
X143639878Y-102232927D01*
X143567173Y-102160222D01*
X143478128Y-102108812D01*
X143378810Y-102082200D01*
X143275990Y-102082200D01*
X143176672Y-102108812D01*
X143087627Y-102160222D01*
X143014922Y-102232927D01*
X142963512Y-102321972D01*
X142936900Y-102421290D01*
X139778145Y-102421290D01*
X139715110Y-102404400D01*
X139612290Y-102404400D01*
X139512972Y-102431012D01*
X139423927Y-102482422D01*
X139351222Y-102555127D01*
X139299812Y-102644172D01*
X139273200Y-102743490D01*
X114765827Y-102743490D01*
X114790500Y-102651410D01*
X114790500Y-102548590D01*
X114763888Y-102449272D01*
X114712478Y-102360227D01*
X114639773Y-102287522D01*
X114550728Y-102236112D01*
X114451410Y-102209500D01*
X114348590Y-102209500D01*
X114249272Y-102236112D01*
X114160227Y-102287522D01*
X114087522Y-102360227D01*
X114036112Y-102449272D01*
X114009500Y-102548590D01*
X100250000Y-102548590D01*
X100250000Y-101948590D01*
X115209500Y-101948590D01*
X115209500Y-102051410D01*
X115236112Y-102150728D01*
X115287522Y-102239773D01*
X115360227Y-102312478D01*
X115449272Y-102363888D01*
X115548590Y-102390500D01*
X115548592Y-102390500D01*
X115651408Y-102390500D01*
X115651410Y-102390500D01*
X115750728Y-102363888D01*
X115839773Y-102312478D01*
X115912478Y-102239773D01*
X115963888Y-102150728D01*
X115990500Y-102051410D01*
X115990500Y-101948590D01*
X118009500Y-101948590D01*
X118009500Y-102051410D01*
X118036112Y-102150728D01*
X118087522Y-102239773D01*
X118160227Y-102312478D01*
X118249272Y-102363888D01*
X118348590Y-102390500D01*
X118348592Y-102390500D01*
X118451408Y-102390500D01*
X118451410Y-102390500D01*
X118550728Y-102363888D01*
X118639773Y-102312478D01*
X118712478Y-102239773D01*
X118763888Y-102150728D01*
X118790500Y-102051410D01*
X118790500Y-101948590D01*
X118763888Y-101849272D01*
X118712478Y-101760227D01*
X118639773Y-101687522D01*
X118550728Y-101636112D01*
X118451410Y-101609500D01*
X118348590Y-101609500D01*
X118249272Y-101636112D01*
X118160227Y-101687522D01*
X118087522Y-101760227D01*
X118036112Y-101849272D01*
X118009500Y-101948590D01*
X115990500Y-101948590D01*
X115963888Y-101849272D01*
X115912478Y-101760227D01*
X115839773Y-101687522D01*
X115750728Y-101636112D01*
X115651410Y-101609500D01*
X115548590Y-101609500D01*
X115449272Y-101636112D01*
X115360227Y-101687522D01*
X115287522Y-101760227D01*
X115236112Y-101849272D01*
X115209500Y-101948590D01*
X100250000Y-101948590D01*
X100250000Y-101048590D01*
X170809500Y-101048590D01*
X170809500Y-101151410D01*
X170836112Y-101250728D01*
X170887522Y-101339773D01*
X170960227Y-101412478D01*
X171049272Y-101463888D01*
X171148590Y-101490500D01*
X171148592Y-101490500D01*
X171251408Y-101490500D01*
X171251410Y-101490500D01*
X171350728Y-101463888D01*
X171439773Y-101412478D01*
X171512478Y-101339773D01*
X171563888Y-101250728D01*
X171564461Y-101248590D01*
X178209500Y-101248590D01*
X178209500Y-101351410D01*
X178236112Y-101450728D01*
X178287522Y-101539773D01*
X178360227Y-101612478D01*
X178449272Y-101663888D01*
X178548590Y-101690500D01*
X178548592Y-101690500D01*
X178651408Y-101690500D01*
X178651410Y-101690500D01*
X178750728Y-101663888D01*
X178839773Y-101612478D01*
X178912478Y-101539773D01*
X178963888Y-101450728D01*
X178990500Y-101351410D01*
X178990500Y-101248590D01*
X178963888Y-101149272D01*
X178912478Y-101060227D01*
X178839773Y-100987522D01*
X178750728Y-100936112D01*
X178651410Y-100909500D01*
X178548590Y-100909500D01*
X178449272Y-100936112D01*
X178360227Y-100987522D01*
X178287522Y-101060227D01*
X178236112Y-101149272D01*
X178209500Y-101248590D01*
X171564461Y-101248590D01*
X171590500Y-101151410D01*
X171590500Y-101048590D01*
X171563888Y-100949272D01*
X171512478Y-100860227D01*
X171439773Y-100787522D01*
X171350728Y-100736112D01*
X171251410Y-100709500D01*
X171148590Y-100709500D01*
X171049272Y-100736112D01*
X170960227Y-100787522D01*
X170887522Y-100860227D01*
X170836112Y-100949272D01*
X170809500Y-101048590D01*
X100250000Y-101048590D01*
X100250000Y-100349000D01*
X100268907Y-100290809D01*
X100318407Y-100254845D01*
X100349000Y-100250000D01*
X189651000Y-100250000D01*
X189709191Y-100268907D01*
G37*
G04 #@! TD.AperFunction*
G04 #@! TD*
M02*
