M48
; DRILL file KiCad 10.0.5 date 2026-09-19T04:07:57
; FORMAT={-:-/ absolute / metric / decimal}
; #@! TF.CreationDate,2026-09-19T04:07:57+09:00
; #@! TF.GenerationSoftware,Kicad,Pcbnew,10.0.5
; #@! TF.FileFunction,Plated,1,4,PTH
FMAT,2
METRIC
; #@! TA.AperFunction,Plated,PTH,ViaDrill
T1C0.300
; #@! TA.AperFunction,Plated,PTH,ComponentDrill
T2C0.600
; #@! TA.AperFunction,Plated,PTH,ComponentDrill
T3C0.920
; #@! TA.AperFunction,Plated,PTH,ComponentDrill
T4C1.020
; #@! TA.AperFunction,Plated,PTH,ComponentDrill
T5C2.300
%
G90
G05
T1
X109.3Y-117.0
X110.125Y-122.225
X110.233Y-126.428
X111.0Y-122.6
X111.2Y-120.9
X111.25Y-126.45
X112.0Y-120.9
X112.0Y-127.3
X112.789Y-119.816
X112.842Y-118.847
X113.75Y-117.0
X114.2Y-121.0
X114.3Y-127.4
X114.4Y-102.6
X114.76Y-124.73
X115.0Y-121.0
X115.26Y-104.68
X115.6Y-102.0
X115.6Y-113.2
X117.0Y-131.0
X117.237Y-118.376
X117.485Y-104.233
X117.61Y-126.4
X117.63Y-124.2
X117.73Y-111.3
X118.4Y-102.0
X118.569Y-104.15
X120.2Y-117.6
X121.4Y-100.9
X121.4Y-102.6
X121.4Y-116.4
X122.175Y-105.6
X122.51Y-107.4
X122.649Y-126.756
X123.319Y-118.32
X124.159Y-114.818
X124.32Y-119.76
X124.32Y-120.96
X126.52Y-110.16
X127.159Y-121.718
X127.763Y-117.25
X127.884Y-115.544
X128.465Y-119.771
X128.973Y-119.271
X129.2Y-114.2
X129.2Y-115.8
X130.05Y-127.55
X130.46Y-122.28
X130.8Y-114.2
X130.8Y-115.8
X131.56Y-124.08
X131.815Y-117.59
X132.1Y-119.5
X132.571Y-114.827
X132.583Y-113.2
X133.192Y-107.45
X133.365Y-119.046
X134.976Y-114.4
X135.2Y-115.6
X136.51Y-110.1
X136.71Y-118.5
X136.835Y-131.6
X137.532Y-125.639
X137.688Y-132.92
X138.1Y-109.182
X138.722Y-108.514
X138.728Y-117.233
X138.98Y-129.787
X139.068Y-105.726
X139.4Y-106.6
X139.4Y-114.2
X139.4Y-117.0
X139.903Y-115.086
X140.6Y-106.6
X140.6Y-114.2
X140.6Y-117.0
X141.039Y-102.826
X142.696Y-107.708
X142.794Y-104.877
X142.963Y-102.013
X143.4Y-117.0
X143.4Y-117.8
X144.197Y-105.685
X144.2Y-117.0
X144.2Y-117.8
X144.25Y-113.025
X144.6Y-124.3
X145.0Y-117.0
X145.0Y-117.8
X145.112Y-111.323
X145.126Y-108.369
X145.4Y-124.3
X145.8Y-117.0
X145.8Y-117.8
X146.0Y-111.5
X146.2Y-124.3
X146.295Y-105.758
X146.6Y-113.1
X146.6Y-117.0
X146.6Y-117.8
X146.75Y-129.8
X147.332Y-101.995
X147.4Y-117.0
X147.4Y-117.8
X148.273Y-108.468
X150.691Y-104.942
X151.0Y-119.4
X151.534Y-104.542
X151.87Y-102.99
X152.05Y-114.75
X152.2Y-117.95
X153.295Y-103.917
X153.3Y-117.4
X153.95Y-116.0
X154.1Y-114.55
X154.274Y-104.784
X154.65Y-131.2
X155.105Y-105.316
X155.349Y-120.469
X156.041Y-121.302
X156.164Y-123.039
X156.2Y-107.35
X156.38Y-117.808
X156.498Y-102.427
X156.598Y-105.39
X159.235Y-121.6
X159.55Y-119.35
X159.6Y-117.0
X159.75Y-118.25
X159.9Y-132.6
X160.3Y-117.5
X160.8Y-132.6
X160.85Y-119.05
X161.475Y-124.25
X161.475Y-129.05
X161.6Y-131.4
X162.6Y-120.4
X162.61Y-118.07
X162.675Y-114.6
X165.2Y-110.0
X165.3Y-119.8
X165.31Y-116.0
X165.31Y-117.2
X165.486Y-112.77
X166.532Y-108.583
X166.545Y-100.922
X166.759Y-102.582
X166.759Y-105.418
X167.3Y-111.4
X167.4Y-108.4
X167.51Y-118.4
X168.5Y-104.204
X168.805Y-101.588
X169.17Y-123.29
X169.4Y-106.25
X169.643Y-109.181
X169.81Y-105.3
X169.81Y-106.7
X170.361Y-102.085
X171.2Y-101.1
X171.21Y-105.3
X171.21Y-106.7
X171.5Y-113.4
X172.44Y-104.0
X173.3Y-125.138
X173.4Y-104.75
X173.4Y-105.75
X173.5Y-107.3
X173.613Y-112.77
X174.2Y-105.8
X174.23Y-108.6
X174.659Y-111.918
X174.927Y-110.23
X175.167Y-106.546
X176.05Y-111.8
X176.3Y-110.1
X176.3Y-114.5
X176.694Y-116.05
X177.1Y-110.1
X177.1Y-114.5
X178.2Y-119.6
X178.6Y-101.3
X178.75Y-109.5
X178.75Y-114.6
X178.9Y-117.8
X179.025Y-106.8
X179.75Y-113.25
X179.9Y-109.55
X179.9Y-110.55
X179.9Y-114.45
X179.95Y-111.55
X180.12Y-107.75
X180.35Y-112.35
X180.7Y-109.55
X180.7Y-114.45
X181.2Y-110.6
X181.2Y-112.9
X181.373Y-108.24
X181.83Y-120.0
X181.916Y-115.939
X183.0Y-121.2
X184.0Y-117.4
X184.275Y-124.15
X184.4Y-125.3
X185.0Y-121.2
X185.3Y-102.3
X188.1Y-118.8
X189.289Y-128.089
T3
X103.88Y-113.5
X103.88Y-116.0
X103.88Y-118.0
X103.88Y-120.5
T4
X173.0Y-130.0
X175.54Y-130.0
X178.08Y-130.0
X180.62Y-130.0
T5
X101.72Y-111.05
X101.72Y-122.95
T2
X182.97Y-107.68G85X184.07Y-107.68
G05
X182.97Y-116.32G85X184.07Y-116.32
G05
X187.4Y-107.68G85X188.0Y-107.68
G05
X187.4Y-116.32G85X188.0Y-116.32
G05
M30
