G04 #@! TF.GenerationSoftware,KiCad,Pcbnew,10.0.5*
G04 #@! TF.CreationDate,2026-09-19T04:07:57+09:00*
G04 #@! TF.ProjectId,fanctl_a,66616e63-746c-45f6-912e-6b696361645f,rev?*
G04 #@! TF.SameCoordinates,Original*
G04 #@! TF.FileFunction,Copper,L4,Bot*
G04 #@! TF.FilePolarity,Positive*
%FSLAX46Y46*%
G04 Gerber Fmt 4.6, Leading zero omitted, Abs format (unit mm)*
G04 Created by KiCad (PCBNEW 10.0.5) date 2026-09-19 04:07:57*
%MOMM*%
%LPD*%
G01*
G04 APERTURE LIST*
G04 #@! TA.AperFunction,ComponentPad*
%ADD10R,1.730000X2.030000*%
G04 #@! TD*
G04 #@! TA.AperFunction,ComponentPad*
%ADD11O,1.730000X2.030000*%
G04 #@! TD*
G04 #@! TA.AperFunction,ComponentPad*
%ADD12O,2.100000X1.000000*%
G04 #@! TD*
G04 #@! TA.AperFunction,ComponentPad*
%ADD13O,1.600000X1.000000*%
G04 #@! TD*
G04 #@! TA.AperFunction,ComponentPad*
%ADD14R,1.600000X1.600000*%
G04 #@! TD*
G04 #@! TA.AperFunction,ComponentPad*
%ADD15C,1.600000*%
G04 #@! TD*
G04 #@! TA.AperFunction,ComponentPad*
%ADD16C,3.000000*%
G04 #@! TD*
G04 #@! TA.AperFunction,ViaPad*
%ADD17C,0.500000*%
G04 #@! TD*
G04 #@! TA.AperFunction,Conductor*
%ADD18C,0.200000*%
G04 #@! TD*
G04 #@! TA.AperFunction,Conductor*
%ADD19C,0.300000*%
G04 #@! TD*
G04 #@! TA.AperFunction,Conductor*
%ADD20C,0.250000*%
G04 #@! TD*
G04 APERTURE END LIST*
D10*
G04 #@! TO.P,J3,1*
G04 #@! TO.N,GND*
X173000000Y-130000000D03*
D11*
G04 #@! TO.P,J3,2*
G04 #@! TO.N,+12V*
X175540000Y-130000000D03*
G04 #@! TO.P,J3,3*
G04 #@! TO.N,FAN_TACH*
X178080000Y-130000000D03*
G04 #@! TO.P,J3,4*
G04 #@! TO.N,FAN_PWM*
X180620000Y-130000000D03*
G04 #@! TD*
D12*
G04 #@! TO.P,J2,SH*
G04 #@! TO.N,GND*
X183520000Y-116320000D03*
D13*
X187700000Y-116320000D03*
D12*
X183520000Y-107680000D03*
D13*
X187700000Y-107680000D03*
G04 #@! TD*
D14*
G04 #@! TO.P,J1,1*
G04 #@! TO.N,VBUS_PC*
X103880000Y-120500000D03*
D15*
G04 #@! TO.P,J1,2*
G04 #@! TO.N,USB_DM_CONN*
X103880000Y-118000000D03*
G04 #@! TO.P,J1,3*
G04 #@! TO.N,USB_DP_CONN*
X103880000Y-116000000D03*
G04 #@! TO.P,J1,4*
G04 #@! TO.N,GND*
X103880000Y-113500000D03*
D16*
G04 #@! TO.P,J1,5*
X101720000Y-111050000D03*
G04 #@! TO.P,J1,6*
X101720000Y-122950000D03*
G04 #@! TD*
D17*
G04 #@! TO.N,ADC_ILM_EXT*
X120200000Y-117600000D03*
X171500000Y-113400000D03*
X167300000Y-111400000D03*
X165200000Y-110000000D03*
G04 #@! TO.N,BB_INT*
X142793700Y-104876900D03*
X159750000Y-118250000D03*
X145126200Y-108369100D03*
G04 #@! TO.N,GND*
X152050000Y-114750000D03*
X117730000Y-111300000D03*
X166759000Y-102582000D03*
X122175000Y-105600000D03*
X124159000Y-114818000D03*
X173400000Y-104750000D03*
X141039000Y-102826000D03*
X188100000Y-118800000D03*
X136510000Y-110100000D03*
X169170000Y-123290000D03*
X139068000Y-105726000D03*
X156380000Y-117808000D03*
X179025000Y-106800000D03*
X169810000Y-105300000D03*
X114760000Y-124730000D03*
X169400000Y-106250000D03*
X110233000Y-126428000D03*
X166759000Y-105418000D03*
X162675000Y-114600000D03*
X130800000Y-114200000D03*
X154650000Y-131199999D03*
X165310000Y-116000000D03*
X167510000Y-118400000D03*
X144250000Y-113025000D03*
X113750000Y-117000000D03*
X131560000Y-124080000D03*
X181373000Y-108240000D03*
X181830000Y-120000000D03*
X124320000Y-119760000D03*
X156164000Y-123039000D03*
X184275000Y-124150000D03*
X127159000Y-121718000D03*
X174230000Y-108600000D03*
X162600000Y-120400000D03*
X162610000Y-118070000D03*
X130050000Y-127550000D03*
X171209999Y-105300000D03*
X165310000Y-117200000D03*
X160300000Y-117500000D03*
X115260000Y-104680000D03*
X129199999Y-115800000D03*
X169810000Y-106700000D03*
X151870000Y-102990000D03*
X174659000Y-111918000D03*
X166532000Y-108583000D03*
X130460000Y-122280000D03*
X155349000Y-120469000D03*
X148273000Y-108468000D03*
X117630000Y-124200000D03*
X133192000Y-107450000D03*
X129199999Y-114200000D03*
X171209999Y-106700000D03*
X181916000Y-115939000D03*
X124320000Y-120960000D03*
X146750000Y-129800000D03*
X136710000Y-118500000D03*
X138980000Y-129787000D03*
X173300000Y-125138000D03*
X173400000Y-105750000D03*
X185300000Y-102300000D03*
X117610000Y-126400000D03*
X161475000Y-124250000D03*
X176050000Y-111800000D03*
X189289000Y-128089000D03*
X122510000Y-107400000D03*
X110125000Y-122225000D03*
X161475000Y-129050000D03*
X117485000Y-104233000D03*
X130800000Y-115800000D03*
X172440000Y-104000000D03*
X126520000Y-110160000D03*
G04 #@! TO.N,FAN_PWM_MCU*
X156041400Y-121302300D03*
X159234700Y-121600000D03*
G04 #@! TO.N,FAN_TACH_MCU*
X145111600Y-111323200D03*
X150691400Y-104941700D03*
G04 #@! TO.N,I2C_SDA*
X154274400Y-104784400D03*
X151000000Y-119400000D03*
X139400000Y-114200000D03*
X168805100Y-101588300D03*
X139400000Y-106600000D03*
X139400000Y-117000000D03*
X174200000Y-105800000D03*
G04 #@! TO.N,I2C_SCL*
X173500000Y-107300000D03*
X156200100Y-107350000D03*
X140600000Y-114200000D03*
X140600000Y-106600000D03*
X152200000Y-117950000D03*
X169643500Y-109181300D03*
X140600000Y-117000000D03*
G04 #@! TO.N,BB_EN*
X135200000Y-115600000D03*
X151533600Y-104542000D03*
X153300000Y-117400000D03*
G04 #@! TO.N,PC_EN*
X132571300Y-114826700D03*
X111000000Y-122600000D03*
G04 #@! TO.N,PC_FLT*
X134976400Y-114400000D03*
X138728200Y-117232700D03*
X139903100Y-115085900D03*
X137687500Y-132920000D03*
X111250000Y-126450000D03*
X117000000Y-131000000D03*
X138722000Y-108514400D03*
G04 #@! TO.N,EXT_FLT*
X179900000Y-110550000D03*
X170360800Y-102084900D03*
G04 #@! TO.N,PD_ATTACH*
X132583400Y-113200000D03*
X147331700Y-101995200D03*
X144197200Y-105685500D03*
X138099500Y-109181600D03*
G04 #@! TO.N,PD_ALERT*
X153294800Y-103916900D03*
X168500000Y-104204200D03*
X166545200Y-100921700D03*
X146294900Y-105758100D03*
G04 #@! TO.N,LED*
X142696000Y-107707800D03*
X142962900Y-102012800D03*
G04 #@! TO.N,+1V1*
X127884100Y-115544300D03*
X128465300Y-119771300D03*
G04 #@! TO.N,ADC_IOUT*
X121400000Y-100900000D03*
X121400000Y-116400000D03*
X165300000Y-119800000D03*
X121400000Y-102600000D03*
G04 #@! TO.N,USB_DM*
X127763400Y-117249800D03*
X117236900Y-118375700D03*
G04 #@! TO.N,USB_DP*
X123319300Y-118319700D03*
X128973300Y-119271500D03*
G04 #@! TO.N,QSPI_SD2*
X132100000Y-119500000D03*
X136835000Y-131600000D03*
G04 #@! TO.N,QSPI_SD1*
X131814700Y-117590000D03*
X122648600Y-126756200D03*
G04 #@! TO.N,QSPI_SS*
X133365400Y-119046300D03*
X137531800Y-125639200D03*
G04 #@! TO.N,FAN_TACH*
X155105000Y-105316400D03*
G04 #@! TO.N,+12V*
X184400000Y-125300000D03*
X185000000Y-121200000D03*
X160800000Y-132600000D03*
X161600000Y-131400000D03*
X183000000Y-121200000D03*
X159900000Y-132600000D03*
X159550000Y-119350000D03*
G04 #@! TO.N,BB_LDRV*
X146000000Y-111500000D03*
X154100000Y-114550000D03*
G04 #@! TO.N,BB_HDRV*
X153950000Y-116000000D03*
X146600000Y-113100000D03*
G04 #@! TO.N,VBUS_PC*
X109300000Y-117000000D03*
X115600000Y-102000000D03*
X112000000Y-127300000D03*
X112000000Y-120900000D03*
X118400000Y-102000000D03*
X114400000Y-102600000D03*
X111200000Y-120900000D03*
G04 #@! TO.N,VSYS*
X176300000Y-114500000D03*
X144200000Y-117000000D03*
X146600000Y-117800000D03*
X144200000Y-117800000D03*
X145400000Y-124300000D03*
X146200000Y-124300000D03*
X145000000Y-117800000D03*
X177100000Y-114500000D03*
X143400000Y-117800000D03*
X145800000Y-117000000D03*
X145800000Y-117800000D03*
X147400000Y-117800000D03*
X176300000Y-110100000D03*
X177100000Y-110100000D03*
X115600000Y-113200000D03*
X143400000Y-117000000D03*
X147400000Y-117000000D03*
X115000000Y-121000000D03*
X114300000Y-127400000D03*
X144600000Y-124300000D03*
X114200000Y-121000000D03*
X146600000Y-117000000D03*
X145000000Y-117000000D03*
G04 #@! TO.N,AUX_OFF*
X179950000Y-111550000D03*
X173612800Y-112770300D03*
X165486200Y-112770300D03*
X118569100Y-104150100D03*
X156497800Y-102426600D03*
X112789300Y-119815800D03*
X156598000Y-105389900D03*
G04 #@! TO.N,EXT_EN*
X176693900Y-116049800D03*
X179750000Y-113250000D03*
G04 #@! TO.N,EXT_OVLO*
X178200000Y-119600000D03*
X180350000Y-112350000D03*
G04 #@! TO.N,VBUS_EXT*
X178900000Y-117800000D03*
X167400000Y-108400000D03*
X178750000Y-114600000D03*
X180700000Y-114450000D03*
X180700000Y-109550000D03*
X171200000Y-101100000D03*
X179900000Y-114450000D03*
X178600000Y-101300000D03*
X179900000Y-109550000D03*
X184000000Y-117400000D03*
X178750000Y-109500000D03*
G04 #@! TO.N,USB_DM_CONN*
X112841600Y-118846600D03*
G04 #@! TO.N,BB_CDC*
X159600000Y-117000000D03*
X160850000Y-119050000D03*
G04 #@! TO.N,CC1_EXT*
X175166800Y-106545700D03*
X174927500Y-110230200D03*
X181200000Y-112900000D03*
G04 #@! TO.N,CC2_EXT*
X180120000Y-107750000D03*
X181200000Y-110600000D03*
G04 #@! TD*
G04 #@! TO.N,ADC_ILM_EXT*
D18*
X167300000Y-111400000D02*
X171500000Y-113400000D01*
X164000000Y-101500000D02*
X164000000Y-109000000D01*
X120200000Y-117600000D02*
X120200000Y-101500000D01*
X164000000Y-109000000D02*
X165200000Y-110000000D01*
X120200000Y-101500000D02*
X164000000Y-101500000D01*
G04 #@! TO.N,BB_INT*
X144019300Y-106220500D02*
X142793700Y-104994900D01*
X142793700Y-104994900D02*
X142793700Y-104876900D01*
X159472800Y-118250000D02*
X157408400Y-116185600D01*
X157408400Y-116185600D02*
X157408400Y-106895900D01*
X159750000Y-118250000D02*
X159472800Y-118250000D01*
X152631000Y-102118500D02*
X149228200Y-102118500D01*
X145126200Y-106220500D02*
X145126200Y-108369100D01*
X149228200Y-102118500D02*
X145126200Y-106220500D01*
X145126200Y-106220500D02*
X144019300Y-106220500D01*
X157408400Y-106895900D02*
X152631000Y-102118500D01*
G04 #@! TO.N,GND*
D19*
X132303600Y-118500000D02*
X136710000Y-118500000D01*
X117730000Y-111300000D02*
X117485000Y-111055000D01*
X162675000Y-114600000D02*
X162610000Y-114665000D01*
X123760000Y-107400000D02*
X126520000Y-110160000D01*
X113750000Y-114269700D02*
X116964700Y-111055000D01*
X167510000Y-120390000D02*
X162610000Y-120390000D01*
X117630000Y-124200000D02*
X115290000Y-124200000D01*
X167510000Y-121630000D02*
X167510000Y-120390000D01*
X131560000Y-123380000D02*
X131560000Y-124080000D01*
X110125000Y-122225000D02*
X110302600Y-122047400D01*
X139807100Y-104986900D02*
X141039000Y-103755000D01*
X166759000Y-105300000D02*
X169810000Y-105300000D01*
X148273000Y-106587000D02*
X148273000Y-108468000D01*
X160201500Y-117598500D02*
X159387400Y-117598500D01*
X122510000Y-107400000D02*
X123760000Y-107400000D01*
X113750000Y-117000000D02*
X113750000Y-114269700D01*
X159057200Y-117268300D02*
X159057200Y-116717900D01*
X184864700Y-114610600D02*
X184378900Y-114124800D01*
X162600000Y-120400000D02*
X162610000Y-120390000D01*
X133192000Y-107450000D02*
X130800000Y-109842000D01*
X166532000Y-105645000D02*
X166532000Y-108583000D01*
X155349000Y-120469000D02*
X156380000Y-119438000D01*
X148273000Y-108468000D02*
X147311200Y-109429800D01*
X145975000Y-114750000D02*
X144250000Y-113025000D01*
X184864700Y-120000000D02*
X181830000Y-120000000D01*
X156164000Y-123039000D02*
X160264000Y-123039000D01*
X130050000Y-125590000D02*
X131560000Y-124080000D01*
X117485000Y-111055000D02*
X117485000Y-104233000D01*
X117610000Y-126400000D02*
X117630000Y-126380000D01*
X171452000Y-123290000D02*
X169170000Y-123290000D01*
X156164000Y-123039000D02*
X155349000Y-122224000D01*
X166759000Y-105418000D02*
X166759000Y-105300000D01*
X130050000Y-127550000D02*
X130050000Y-125590000D01*
X133860000Y-107450000D02*
X133192000Y-107450000D01*
X136510000Y-108284000D02*
X136510000Y-110100000D01*
X147311200Y-109429800D02*
X144250000Y-109429800D01*
X181373000Y-106227000D02*
X181373000Y-106800000D01*
X115290000Y-124200000D02*
X114760000Y-124730000D01*
X116964700Y-111055000D02*
X117485000Y-111055000D01*
X159057200Y-116717900D02*
X159321900Y-116453200D01*
X129200000Y-112840000D02*
X129200000Y-114200000D01*
X139807100Y-104986900D02*
X141651600Y-106831400D01*
X167510000Y-120390000D02*
X167510000Y-118400000D01*
X184378900Y-114124800D02*
X183730200Y-114124800D01*
X184275000Y-124150000D02*
X181830000Y-121705000D01*
X117630000Y-124200000D02*
X121080000Y-124200000D01*
X186900000Y-125700000D02*
X186900000Y-120000000D01*
X183730200Y-114124800D02*
X181916000Y-115939000D01*
X183730200Y-110597200D02*
X183730200Y-114124800D01*
X189289000Y-128089000D02*
X186900000Y-125700000D01*
X144250000Y-113025000D02*
X144250000Y-109429800D01*
X139068000Y-105726000D02*
X139807100Y-104986900D01*
X126520000Y-110160000D02*
X129200000Y-112840000D01*
X174230000Y-111489000D02*
X174659000Y-111918000D01*
X161475000Y-124250000D02*
X161475000Y-129050000D01*
X163910000Y-114600000D02*
X165310000Y-116000000D01*
X169400000Y-106250000D02*
X169810000Y-106660000D01*
X181373000Y-108240000D02*
X183730200Y-110597200D01*
X174230000Y-108600000D02*
X174230000Y-111489000D01*
X188100000Y-118800000D02*
X186900000Y-120000000D01*
X117630000Y-126380000D02*
X117630000Y-124200000D01*
X171210000Y-105230000D02*
X171210000Y-105300000D01*
X162610000Y-120390000D02*
X162610000Y-118070000D01*
X186900000Y-120000000D02*
X184864700Y-120000000D01*
X169170000Y-123290000D02*
X167510000Y-121630000D01*
X130460000Y-120343600D02*
X132303600Y-118500000D01*
X169400000Y-105710000D02*
X169400000Y-106250000D01*
X110302600Y-122047400D02*
X111621000Y-122047400D01*
X141651600Y-106831400D02*
X141651600Y-107429400D01*
X160300000Y-117500000D02*
X160201500Y-117598500D01*
X181373000Y-106800000D02*
X181373000Y-108240000D01*
X169810000Y-106660000D02*
X169810000Y-106700000D01*
X155349000Y-122224000D02*
X155349000Y-120469000D01*
X159321900Y-116453200D02*
X162610000Y-116453200D01*
X169810000Y-105300000D02*
X169400000Y-105710000D01*
X111621000Y-122047400D02*
X113750000Y-119918400D01*
X130460000Y-122280000D02*
X131560000Y-123380000D01*
X173400000Y-105750000D02*
X173400000Y-106391300D01*
X124320000Y-120960000D02*
X124320000Y-119760000D01*
X141651600Y-107429400D02*
X143652000Y-109429800D01*
X166759000Y-105300000D02*
X166759000Y-102582000D01*
X122175000Y-107065000D02*
X122175000Y-105600000D01*
X172440000Y-104000000D02*
X171210000Y-105230000D01*
X174230000Y-107221300D02*
X174230000Y-108600000D01*
X141039000Y-103755000D02*
X141039000Y-102826000D01*
X156380000Y-119438000D02*
X156380000Y-117808000D01*
X173190000Y-104750000D02*
X172440000Y-104000000D01*
X169810000Y-106700000D02*
X171210000Y-106700000D01*
X171210000Y-105300000D02*
X171210000Y-106700000D01*
X165310000Y-116000000D02*
X165310000Y-117200000D01*
X113750000Y-119918400D02*
X113750000Y-117000000D01*
X162610000Y-116453200D02*
X162610000Y-118070000D01*
X173300000Y-125138000D02*
X171452000Y-123290000D01*
X152050000Y-114750000D02*
X145975000Y-114750000D01*
X159387400Y-117598500D02*
X159057200Y-117268300D01*
X136510000Y-110100000D02*
X133860000Y-107450000D01*
X185300000Y-102300000D02*
X181373000Y-106227000D01*
X124320000Y-120960000D02*
X126401000Y-120960000D01*
X143652000Y-109429800D02*
X144250000Y-109429800D01*
X126401000Y-120960000D02*
X127159000Y-121718000D01*
X154650000Y-124553000D02*
X156164000Y-123039000D01*
X130800000Y-109842000D02*
X130800000Y-114200000D01*
X173400000Y-104750000D02*
X173190000Y-104750000D01*
X166759000Y-105418000D02*
X166532000Y-105645000D01*
X184864700Y-120000000D02*
X184864700Y-114610600D01*
X160264000Y-123039000D02*
X161475000Y-124250000D01*
X130460000Y-122280000D02*
X130460000Y-120343600D01*
X162610000Y-114665000D02*
X162610000Y-116453200D01*
X139068000Y-105726000D02*
X136510000Y-108284000D01*
X122510000Y-107400000D02*
X122175000Y-107065000D01*
X173400000Y-106391300D02*
X174230000Y-107221300D01*
X173400000Y-105750000D02*
X173400000Y-104750000D01*
X181830000Y-121705000D02*
X181830000Y-120000000D01*
X121080000Y-124200000D02*
X124320000Y-120960000D01*
X179025000Y-106800000D02*
X181373000Y-106800000D01*
X151870000Y-102990000D02*
X148273000Y-106587000D01*
X162675000Y-114600000D02*
X163910000Y-114600000D01*
X154650000Y-131200000D02*
X154650000Y-124553000D01*
G04 #@! TO.N,FAN_PWM_MCU*
D18*
X156339100Y-121600000D02*
X159234700Y-121600000D01*
X156041400Y-121302300D02*
X156339100Y-121600000D01*
G04 #@! TO.N,FAN_TACH_MCU*
X145111600Y-111323200D02*
X146216600Y-110218200D01*
X146216600Y-110218200D02*
X147253600Y-110218200D01*
X150691400Y-106780400D02*
X150691400Y-104941700D01*
X147253600Y-110218200D02*
X150691400Y-106780400D01*
G04 #@! TO.N,I2C_SDA*
X156153100Y-106607100D02*
X155687800Y-106607100D01*
X174200000Y-104834600D02*
X172613700Y-103248300D01*
X152560600Y-119400000D02*
X156725000Y-115235600D01*
X172613700Y-103248300D02*
X170465100Y-103248300D01*
X174200000Y-105800000D02*
X174200000Y-104834600D01*
X151000000Y-119400000D02*
X150000000Y-119900000D01*
X154274400Y-105193700D02*
X154274400Y-104784400D01*
X139400000Y-114200000D02*
X139400000Y-106600000D01*
X155687800Y-106607100D02*
X154274400Y-105193700D01*
X139400000Y-119900000D02*
X139400000Y-117000000D01*
X150000000Y-119900000D02*
X139400000Y-119900000D01*
X156725000Y-115235600D02*
X156725000Y-107179000D01*
X151000000Y-119400000D02*
X152560600Y-119400000D01*
X170465100Y-103248300D02*
X168805100Y-101588300D01*
X156725000Y-107179000D02*
X156153100Y-106607100D01*
G04 #@! TO.N,I2C_SCL*
X152200000Y-117950000D02*
X151800000Y-118300000D01*
X173500000Y-107300000D02*
X171618700Y-109181300D01*
X171618700Y-109181300D02*
X169643500Y-109181300D01*
X140600000Y-114200000D02*
X140600000Y-106600000D01*
X156200100Y-115248300D02*
X153498400Y-117950000D01*
X156200100Y-107350000D02*
X156200100Y-115248300D01*
X151800000Y-118300000D02*
X140600000Y-118300000D01*
X140600000Y-118300000D02*
X140600000Y-117000000D01*
X153498400Y-117950000D02*
X152200000Y-117950000D01*
G04 #@! TO.N,BB_EN*
X153300000Y-117400000D02*
X154609200Y-116090800D01*
X135200000Y-115600000D02*
X152800000Y-115600000D01*
X152800000Y-115600000D02*
X153300000Y-117400000D01*
X154609200Y-116090800D02*
X154609200Y-107617600D01*
X154609200Y-107617600D02*
X151533600Y-104542000D01*
G04 #@! TO.N,PC_EN*
X111000000Y-122600000D02*
X112490200Y-124090200D01*
X132571300Y-117542900D02*
X132571300Y-114826700D01*
X112490200Y-126304400D02*
X114115500Y-127929700D01*
X114115500Y-127929700D02*
X122184500Y-127929700D01*
X122184500Y-127929700D02*
X132571300Y-117542900D01*
X112490200Y-124090200D02*
X112490200Y-126304400D01*
G04 #@! TO.N,PC_FLT*
X111250000Y-126450000D02*
X111250000Y-130000000D01*
X135662300Y-115085900D02*
X139903100Y-115085900D01*
X138722000Y-108514400D02*
X138722000Y-110654400D01*
X138728200Y-117232700D02*
X138037300Y-117923600D01*
X134976400Y-114400000D02*
X135662300Y-115085900D01*
X138037300Y-132570200D02*
X137687500Y-132920000D01*
X138037300Y-117923600D02*
X138037300Y-132570200D01*
X111250000Y-130000000D02*
X117000000Y-131000000D01*
X138722000Y-110654400D02*
X134976400Y-114400000D01*
G04 #@! TO.N,EXT_FLT*
X177781300Y-107912700D02*
X174137100Y-104268500D01*
X171953500Y-102084900D02*
X170360800Y-102084900D01*
X173036700Y-103168100D02*
X171953500Y-102084900D01*
X177781300Y-109257600D02*
X177781300Y-107912700D01*
X179073700Y-110550000D02*
X177781300Y-109257600D01*
X174137100Y-104266400D02*
X173038800Y-103168100D01*
X174137100Y-104268500D02*
X174137100Y-104266400D01*
X179900000Y-110550000D02*
X179073700Y-110550000D01*
X173038800Y-103168100D02*
X173036700Y-103168100D01*
G04 #@! TO.N,PD_ATTACH*
X144197200Y-105685500D02*
X144197200Y-105129700D01*
X144197200Y-105129700D02*
X147331700Y-101995200D01*
X134220200Y-113200000D02*
X132583400Y-113200000D01*
X138099500Y-109181600D02*
X138099500Y-109320700D01*
X138099500Y-109320700D02*
X134220200Y-113200000D01*
G04 #@! TO.N,PD_ALERT*
X153294800Y-103693300D02*
X152061700Y-102460200D01*
X152061700Y-102460200D02*
X149592800Y-102460200D01*
X149592800Y-102460200D02*
X146294900Y-105758100D01*
X166545200Y-101547600D02*
X168500000Y-103502400D01*
X166545200Y-100921700D02*
X166545200Y-101547600D01*
X168500000Y-103502400D02*
X168500000Y-104204200D01*
X153294800Y-103916900D02*
X153294800Y-103693300D01*
G04 #@! TO.N,LED*
X142696000Y-107707800D02*
X142293700Y-107305500D01*
X142293700Y-102682000D02*
X142962900Y-102012800D01*
X142293700Y-107305500D02*
X142293700Y-102682000D01*
G04 #@! TO.N,+1V1*
X129168900Y-119771300D02*
X129518300Y-119421900D01*
X129518300Y-119421900D02*
X129518300Y-117178500D01*
X128465300Y-119771300D02*
X129168900Y-119771300D01*
X129518300Y-117178500D02*
X127884100Y-115544300D01*
G04 #@! TO.N,ADC_IOUT*
X121400000Y-100900000D02*
X166000000Y-100900000D01*
X166000000Y-100900000D02*
X166000000Y-119800000D01*
X166000000Y-119800000D02*
X165300000Y-119800000D01*
X121400000Y-116400000D02*
X121400000Y-102600000D01*
G04 #@! TO.N,USB_DM*
X122385400Y-118545300D02*
X117406500Y-118545300D01*
X123680900Y-117249800D02*
X122385400Y-118545300D01*
X117406500Y-118545300D02*
X117236900Y-118375700D01*
X127763400Y-117249800D02*
X123680900Y-117249800D01*
G04 #@! TO.N,USB_DP*
X128973300Y-119271500D02*
X128021500Y-118319700D01*
X128021500Y-118319700D02*
X123319300Y-118319700D01*
G04 #@! TO.N,QSPI_SD2*
X134000000Y-121800000D02*
X136500000Y-126000000D01*
X132100000Y-119500000D02*
X134000000Y-121800000D01*
X136500000Y-126000000D02*
X136835000Y-131600000D01*
G04 #@! TO.N,QSPI_SD1*
X122874800Y-126756200D02*
X131814700Y-117816300D01*
X131814700Y-117816300D02*
X131814700Y-117590000D01*
X122648600Y-126756200D02*
X122874800Y-126756200D01*
G04 #@! TO.N,QSPI_SS*
X137531800Y-123212700D02*
X137531800Y-125639200D01*
X133365400Y-119046300D02*
X137531800Y-123212700D01*
G04 #@! TO.N,FAN_TACH*
X154650900Y-131932000D02*
X154121100Y-131402200D01*
X178080000Y-130000000D02*
X176783800Y-128703800D01*
X176783800Y-128703800D02*
X165506400Y-128703800D01*
X162278200Y-131932000D02*
X154650900Y-131932000D01*
X154121100Y-118441400D02*
X157066700Y-115495800D01*
X157066700Y-107037400D02*
X155345700Y-105316400D01*
X154121100Y-131402200D02*
X154121100Y-118441400D01*
X165506400Y-128703800D02*
X162278200Y-131932000D01*
X157066700Y-115495800D02*
X157066700Y-107037400D01*
X155345700Y-105316400D02*
X155105000Y-105316400D01*
G04 #@! TO.N,+12V*
D19*
X176696700Y-130433800D02*
X177589200Y-131326300D01*
D20*
X162400000Y-121000000D02*
X162400000Y-130000000D01*
D19*
X184400000Y-128047800D02*
X184400000Y-125300000D01*
X181121500Y-131326300D02*
X184400000Y-128047800D01*
X176696700Y-130000000D02*
X176696700Y-130433800D01*
D20*
X159550000Y-119350000D02*
X162400000Y-121000000D01*
D19*
X177589200Y-131326300D02*
X181121500Y-131326300D01*
X175540000Y-130000000D02*
X176696700Y-130000000D01*
X185000000Y-124700000D02*
X185000000Y-121200000D01*
X184400000Y-125300000D02*
X185000000Y-124700000D01*
D20*
X162400000Y-130000000D02*
X161600000Y-131400000D01*
G04 #@! TO.N,BB_LDRV*
D19*
X154100000Y-114550000D02*
X152600000Y-112400000D01*
X152600000Y-112400000D02*
X148200000Y-112400000D01*
X148200000Y-112400000D02*
X146000000Y-111500000D01*
G04 #@! TO.N,BB_HDRV*
X153950000Y-116000000D02*
X152400000Y-113600000D01*
X147600000Y-113600000D02*
X146600000Y-113100000D01*
X152400000Y-113600000D02*
X147600000Y-113600000D01*
G04 #@! TO.N,VBUS_PC*
X111200000Y-120900000D02*
X110675100Y-120900000D01*
X112000000Y-125196500D02*
X112000000Y-127300000D01*
X115600000Y-102000000D02*
X115000000Y-102000000D01*
X109300000Y-119000000D02*
X111200000Y-120900000D01*
X115000000Y-102000000D02*
X114400000Y-102600000D01*
X103880000Y-120500000D02*
X107800000Y-120500000D01*
X109579000Y-122775500D02*
X112000000Y-125196500D01*
X109579000Y-121996100D02*
X109579000Y-122775500D01*
X110675100Y-120900000D02*
X109579000Y-121996100D01*
X107800000Y-120500000D02*
X109300000Y-119000000D01*
X109300000Y-117000000D02*
X109300000Y-119000000D01*
G04 #@! TO.N,VSYS*
X145800000Y-117000000D02*
X145800000Y-117800000D01*
X124959000Y-115000000D02*
X121807700Y-118151300D01*
X121807700Y-118151300D02*
X117778600Y-118151300D01*
X147400000Y-117000000D02*
X147400000Y-117800000D01*
X115600000Y-117834000D02*
X115600000Y-120400000D01*
X143400000Y-117800000D02*
X143400000Y-117000000D01*
X134791400Y-116147000D02*
X132875900Y-114231500D01*
X132078100Y-114231500D02*
X131309600Y-115000000D01*
X115600000Y-113200000D02*
X115600000Y-117834000D01*
X143400000Y-117000000D02*
X142547000Y-116147000D01*
X131309600Y-115000000D02*
X124959000Y-115000000D01*
X114200000Y-121000000D02*
X114200000Y-127300000D01*
X115600000Y-120400000D02*
X115000000Y-121000000D01*
X144200000Y-117000000D02*
X144200000Y-117800000D01*
X114200000Y-127300000D02*
X114300000Y-127400000D01*
X117461300Y-117834000D02*
X115600000Y-117834000D01*
X117778600Y-118151300D02*
X117461300Y-117834000D01*
X132875900Y-114231500D02*
X132078100Y-114231500D01*
X142547000Y-116147000D02*
X134791400Y-116147000D01*
X146600000Y-117000000D02*
X146600000Y-117800000D01*
X145000000Y-117000000D02*
X145000000Y-117800000D01*
G04 #@! TO.N,AUX_OFF*
D18*
X113333400Y-119271700D02*
X112789300Y-119815800D01*
X158105800Y-105389900D02*
X156598000Y-105389900D01*
X113248200Y-117610900D02*
X113333400Y-117696100D01*
X156598000Y-105389900D02*
X156497800Y-105289700D01*
X118569100Y-104150100D02*
X118125600Y-103706600D01*
X113248200Y-107732900D02*
X113248200Y-117610900D01*
X165486200Y-112770300D02*
X158105800Y-105389900D01*
X178729700Y-112770300D02*
X173612800Y-112770300D01*
X117274500Y-103706600D02*
X113248200Y-107732900D01*
X118125600Y-103706600D02*
X117274500Y-103706600D01*
X179950000Y-111550000D02*
X178729700Y-112770300D01*
X156497800Y-105289700D02*
X156497800Y-102426600D01*
X113333400Y-117696100D02*
X113333400Y-119271700D01*
G04 #@! TO.N,EXT_EN*
X176693900Y-115937700D02*
X176693900Y-116049800D01*
X179750000Y-113250000D02*
X179381600Y-113250000D01*
X179381600Y-113250000D02*
X176693900Y-115937700D01*
G04 #@! TO.N,EXT_OVLO*
X180350000Y-113850000D02*
X179320000Y-113850000D01*
X180350000Y-112350000D02*
X180350000Y-113850000D01*
X178200000Y-116800000D02*
X178200000Y-119600000D01*
X179320000Y-115600000D02*
X178200000Y-116800000D01*
X179320000Y-113850000D02*
X179320000Y-115600000D01*
G04 #@! TO.N,VBUS_EXT*
D19*
X178750000Y-114775500D02*
X178750000Y-114600000D01*
X180700000Y-115500300D02*
X180700000Y-114450000D01*
X179900000Y-116800000D02*
X179900000Y-114450000D01*
X184000000Y-117400000D02*
X182599700Y-117400000D01*
X175628500Y-116628500D02*
X176897000Y-116628500D01*
X176897000Y-116628500D02*
X178750000Y-114775500D01*
X178447700Y-101452300D02*
X178600000Y-101300000D01*
X178750000Y-109500000D02*
X178447700Y-109197700D01*
X178447700Y-109197700D02*
X178447700Y-101452300D01*
X178900000Y-117800000D02*
X179900000Y-116800000D01*
X178400000Y-101100000D02*
X178600000Y-101300000D01*
X167400000Y-108400000D02*
X175628500Y-116628500D01*
X182599700Y-117400000D02*
X180700000Y-115500300D01*
X171200000Y-101100000D02*
X178400000Y-101100000D01*
G04 #@! TO.N,USB_DM_CONN*
D18*
X110484300Y-116489300D02*
X112841600Y-118846600D01*
X103880000Y-118000000D02*
X105390700Y-116489300D01*
X105390700Y-116489300D02*
X110484300Y-116489300D01*
G04 #@! TO.N,BB_CDC*
X160850000Y-117000000D02*
X160850000Y-119050000D01*
X159600000Y-117000000D02*
X160850000Y-117000000D01*
G04 #@! TO.N,CC1_EXT*
X179090500Y-111050000D02*
X180186900Y-111050000D01*
X181200000Y-112063100D02*
X181200000Y-112900000D01*
X175166800Y-107126300D02*
X176599100Y-108558600D01*
X175166800Y-106545700D02*
X175166800Y-107126300D01*
X180186900Y-111050000D02*
X181200000Y-112063100D01*
X176599100Y-108558600D02*
X174927500Y-110230200D01*
X176599100Y-108558600D02*
X179090500Y-111050000D01*
G04 #@! TO.N,CC2_EXT*
X181541700Y-109171700D02*
X180120000Y-107750000D01*
X181541700Y-110258300D02*
X181541700Y-109171700D01*
X181200000Y-110600000D02*
X181541700Y-110258300D01*
G04 #@! TD*
G04 #@! TA.AperFunction,Conductor*
G04 #@! TO.N,GND*
G36*
X116829105Y-118143407D02*
G01*
X116865069Y-118192907D01*
X116866540Y-118249122D01*
X116846400Y-118324290D01*
X116846400Y-118427110D01*
X116873012Y-118526428D01*
X116924422Y-118615473D01*
X116997127Y-118688178D01*
X117086172Y-118739588D01*
X117185490Y-118766200D01*
X117185492Y-118766200D01*
X117291652Y-118766200D01*
X117329536Y-118773735D01*
X117358662Y-118785800D01*
X117358663Y-118785800D01*
X122433239Y-118785800D01*
X122521633Y-118749186D01*
X122807441Y-118463376D01*
X122861956Y-118435600D01*
X122922388Y-118445171D01*
X122963177Y-118483879D01*
X123006822Y-118559473D01*
X123079527Y-118632178D01*
X123168572Y-118683588D01*
X123267890Y-118710200D01*
X123267892Y-118710200D01*
X123370708Y-118710200D01*
X123370710Y-118710200D01*
X123470028Y-118683588D01*
X123559073Y-118632178D01*
X123580565Y-118610685D01*
X123602056Y-118589196D01*
X123656573Y-118561419D01*
X123672059Y-118560200D01*
X127880873Y-118560200D01*
X127939064Y-118579107D01*
X127950877Y-118589196D01*
X128553804Y-119192122D01*
X128581581Y-119246639D01*
X128582800Y-119262126D01*
X128582800Y-119281800D01*
X128563893Y-119339991D01*
X128514393Y-119375955D01*
X128483800Y-119380800D01*
X128413890Y-119380800D01*
X128314572Y-119407412D01*
X128225527Y-119458822D01*
X128152822Y-119531527D01*
X128101412Y-119620572D01*
X128074800Y-119719890D01*
X128074800Y-119822710D01*
X128101412Y-119922028D01*
X128152822Y-120011073D01*
X128225527Y-120083778D01*
X128314572Y-120135188D01*
X128413890Y-120161800D01*
X128413892Y-120161800D01*
X128516708Y-120161800D01*
X128516710Y-120161800D01*
X128616028Y-120135188D01*
X128705073Y-120083778D01*
X128733279Y-120055572D01*
X128748056Y-120040796D01*
X128802573Y-120013019D01*
X128818059Y-120011800D01*
X129040073Y-120011800D01*
X129098264Y-120030707D01*
X129134228Y-120080207D01*
X129134228Y-120141393D01*
X129110077Y-120180804D01*
X122915959Y-126374920D01*
X122861442Y-126402697D01*
X122805705Y-126393869D01*
X122805322Y-126394795D01*
X122801467Y-126393198D01*
X122801010Y-126393126D01*
X122800099Y-126392631D01*
X122799330Y-126392313D01*
X122799329Y-126392312D01*
X122799328Y-126392312D01*
X122700010Y-126365700D01*
X122597190Y-126365700D01*
X122497872Y-126392312D01*
X122408827Y-126443722D01*
X122336122Y-126516427D01*
X122284712Y-126605472D01*
X122258100Y-126704790D01*
X122258100Y-126807610D01*
X122284712Y-126906928D01*
X122336122Y-126995973D01*
X122408827Y-127068678D01*
X122485116Y-127112723D01*
X122526055Y-127158191D01*
X122532451Y-127219041D01*
X122505618Y-127268461D01*
X122113877Y-127660203D01*
X122059360Y-127687981D01*
X122043873Y-127689200D01*
X114754695Y-127689200D01*
X114696504Y-127670293D01*
X114660540Y-127620793D01*
X114660540Y-127559607D01*
X114663230Y-127552316D01*
X114663887Y-127550729D01*
X114663888Y-127550728D01*
X114690500Y-127451410D01*
X114690500Y-127348590D01*
X114663888Y-127249272D01*
X114612478Y-127160227D01*
X114539773Y-127087522D01*
X114539770Y-127087520D01*
X114539769Y-127087519D01*
X114534624Y-127083571D01*
X114535406Y-127082551D01*
X114499057Y-127042179D01*
X114490500Y-127001916D01*
X114490500Y-121302021D01*
X114509407Y-121243830D01*
X114510957Y-121241756D01*
X114512474Y-121239778D01*
X114512475Y-121239775D01*
X114512478Y-121239773D01*
X114514263Y-121236680D01*
X114516165Y-121234968D01*
X114516427Y-121234627D01*
X114516490Y-121234675D01*
X114559730Y-121195740D01*
X114620579Y-121189342D01*
X114673569Y-121219932D01*
X114685735Y-121236678D01*
X114687522Y-121239773D01*
X114760227Y-121312478D01*
X114849272Y-121363888D01*
X114948590Y-121390500D01*
X114948592Y-121390500D01*
X115051408Y-121390500D01*
X115051410Y-121390500D01*
X115150728Y-121363888D01*
X115239773Y-121312478D01*
X115312478Y-121239773D01*
X115363888Y-121150728D01*
X115390500Y-121051410D01*
X115390500Y-121051402D01*
X115390824Y-121048943D01*
X115391592Y-121047332D01*
X115392179Y-121045142D01*
X115392584Y-121045250D01*
X115417161Y-120993716D01*
X115418937Y-120991892D01*
X115832458Y-120578371D01*
X115838708Y-120567546D01*
X115870701Y-120512133D01*
X115870701Y-120512131D01*
X115870703Y-120512129D01*
X115890500Y-120438245D01*
X115890500Y-120361755D01*
X115890500Y-118223500D01*
X115909407Y-118165309D01*
X115958907Y-118129345D01*
X115989500Y-118124500D01*
X116770914Y-118124500D01*
X116829105Y-118143407D01*
G37*
G04 #@! TD.AperFunction*
G04 #@! TA.AperFunction,Conductor*
G36*
X132126745Y-114690426D02*
G01*
X132170010Y-114733691D01*
X132180800Y-114778636D01*
X132180800Y-114878110D01*
X132207412Y-114977428D01*
X132258822Y-115066473D01*
X132301805Y-115109456D01*
X132329581Y-115163971D01*
X132330800Y-115179458D01*
X132330800Y-117333438D01*
X132311893Y-117391629D01*
X132262393Y-117427593D01*
X132201207Y-117427593D01*
X132151707Y-117391629D01*
X132146064Y-117382938D01*
X132127179Y-117350229D01*
X132127178Y-117350227D01*
X132054473Y-117277522D01*
X131965428Y-117226112D01*
X131866110Y-117199500D01*
X131763290Y-117199500D01*
X131663972Y-117226112D01*
X131574927Y-117277522D01*
X131502222Y-117350227D01*
X131450812Y-117439272D01*
X131424200Y-117538590D01*
X131424200Y-117641410D01*
X131449593Y-117736177D01*
X131450813Y-117740730D01*
X131453295Y-117746722D01*
X131451246Y-117747570D01*
X131461908Y-117797792D01*
X131437008Y-117853681D01*
X131433457Y-117857423D01*
X129927804Y-119363076D01*
X129873287Y-119390853D01*
X129812855Y-119381282D01*
X129769590Y-119338017D01*
X129758800Y-119293072D01*
X129758800Y-117130662D01*
X129722186Y-117042268D01*
X129654532Y-116974613D01*
X129654532Y-116974614D01*
X128303596Y-115623677D01*
X128275819Y-115569160D01*
X128274600Y-115553673D01*
X128274600Y-115492891D01*
X128272444Y-115484843D01*
X128253762Y-115415121D01*
X128256965Y-115354021D01*
X128295470Y-115306472D01*
X128349389Y-115290500D01*
X131347843Y-115290500D01*
X131347845Y-115290500D01*
X131421729Y-115270703D01*
X131421731Y-115270701D01*
X131421733Y-115270701D01*
X131487966Y-115232461D01*
X131487966Y-115232460D01*
X131487971Y-115232458D01*
X132011798Y-114708630D01*
X132066313Y-114680855D01*
X132126745Y-114690426D01*
G37*
G04 #@! TD.AperFunction*
G04 #@! TA.AperFunction,Conductor*
G36*
X142560759Y-101759407D02*
G01*
X142596723Y-101808907D01*
X142598194Y-101865121D01*
X142574866Y-101952187D01*
X142572400Y-101961391D01*
X142572400Y-102022173D01*
X142553493Y-102080364D01*
X142543404Y-102092176D01*
X142089815Y-102545765D01*
X142089812Y-102545769D01*
X142068828Y-102596432D01*
X142053200Y-102634162D01*
X142053200Y-107353338D01*
X142089812Y-107441730D01*
X142089813Y-107441731D01*
X142089814Y-107441733D01*
X142276505Y-107628424D01*
X142304281Y-107682939D01*
X142305500Y-107698426D01*
X142305500Y-107759210D01*
X142332112Y-107858528D01*
X142383522Y-107947573D01*
X142456227Y-108020278D01*
X142545272Y-108071688D01*
X142644590Y-108098300D01*
X142644592Y-108098300D01*
X142747408Y-108098300D01*
X142747410Y-108098300D01*
X142846728Y-108071688D01*
X142935773Y-108020278D01*
X143008478Y-107947573D01*
X143059888Y-107858528D01*
X143086500Y-107759210D01*
X143086500Y-107656390D01*
X143059888Y-107557072D01*
X143008478Y-107468027D01*
X142935773Y-107395322D01*
X142846728Y-107343912D01*
X142747410Y-107317300D01*
X142747408Y-107317300D01*
X142686627Y-107317300D01*
X142628436Y-107298393D01*
X142616623Y-107288304D01*
X142563196Y-107234877D01*
X142535419Y-107180360D01*
X142534200Y-107164873D01*
X142534200Y-105340661D01*
X142553107Y-105282470D01*
X142602607Y-105246506D01*
X142658818Y-105245034D01*
X142694527Y-105254602D01*
X142738902Y-105280221D01*
X143883067Y-106424386D01*
X143971461Y-106461000D01*
X143971462Y-106461000D01*
X144786700Y-106461000D01*
X144844891Y-106479907D01*
X144880855Y-106529407D01*
X144885700Y-106560000D01*
X144885700Y-108016341D01*
X144866793Y-108074532D01*
X144856704Y-108086344D01*
X144813724Y-108129324D01*
X144813722Y-108129326D01*
X144813722Y-108129327D01*
X144762312Y-108218372D01*
X144735700Y-108317690D01*
X144735700Y-108420510D01*
X144762312Y-108519828D01*
X144813722Y-108608873D01*
X144886427Y-108681578D01*
X144975472Y-108732988D01*
X145074790Y-108759600D01*
X145074792Y-108759600D01*
X145177608Y-108759600D01*
X145177610Y-108759600D01*
X145276928Y-108732988D01*
X145365973Y-108681578D01*
X145438678Y-108608873D01*
X145490088Y-108519828D01*
X145516700Y-108420510D01*
X145516700Y-108317690D01*
X145490088Y-108218372D01*
X145438678Y-108129327D01*
X145423238Y-108113887D01*
X145395696Y-108086344D01*
X145367919Y-108031827D01*
X145366700Y-108016341D01*
X145366700Y-106361127D01*
X145385607Y-106302936D01*
X145395696Y-106291124D01*
X145783772Y-105903047D01*
X145838289Y-105875269D01*
X145898721Y-105884840D01*
X145939510Y-105923547D01*
X145982422Y-105997873D01*
X146055127Y-106070578D01*
X146144172Y-106121988D01*
X146243490Y-106148600D01*
X146243492Y-106148600D01*
X146346308Y-106148600D01*
X146346310Y-106148600D01*
X146445628Y-106121988D01*
X146534673Y-106070578D01*
X146607378Y-105997873D01*
X146658788Y-105908828D01*
X146685400Y-105809510D01*
X146685400Y-105748727D01*
X146704307Y-105690536D01*
X146714396Y-105678723D01*
X149663423Y-102729696D01*
X149717940Y-102701919D01*
X149733427Y-102700700D01*
X151921073Y-102700700D01*
X151979264Y-102719607D01*
X151991077Y-102729696D01*
X152912570Y-103651188D01*
X152940347Y-103705705D01*
X152931823Y-103759523D01*
X152933396Y-103760175D01*
X152930913Y-103766167D01*
X152930912Y-103766172D01*
X152904300Y-103865490D01*
X152904300Y-103968310D01*
X152930912Y-104067628D01*
X152982322Y-104156673D01*
X153055027Y-104229378D01*
X153144072Y-104280788D01*
X153243390Y-104307400D01*
X153243392Y-104307400D01*
X153346208Y-104307400D01*
X153346210Y-104307400D01*
X153445528Y-104280788D01*
X153534573Y-104229378D01*
X153607278Y-104156673D01*
X153658688Y-104067628D01*
X153685300Y-103968310D01*
X153685300Y-103865490D01*
X153658688Y-103766172D01*
X153652376Y-103755239D01*
X153639654Y-103695391D01*
X153664540Y-103639495D01*
X153717528Y-103608903D01*
X153778378Y-103615298D01*
X153808116Y-103635735D01*
X154397277Y-104224896D01*
X154425054Y-104279413D01*
X154415483Y-104339845D01*
X154372218Y-104383110D01*
X154327273Y-104393900D01*
X154325810Y-104393900D01*
X154222990Y-104393900D01*
X154123672Y-104420512D01*
X154034627Y-104471922D01*
X153961922Y-104544627D01*
X153910512Y-104633672D01*
X153883900Y-104732990D01*
X153883900Y-104835810D01*
X153910512Y-104935128D01*
X153961922Y-105024173D01*
X154004905Y-105067156D01*
X154032681Y-105121671D01*
X154033900Y-105137158D01*
X154033900Y-105145861D01*
X154033900Y-105241539D01*
X154043614Y-105264990D01*
X154070512Y-105329930D01*
X154070513Y-105329931D01*
X154070514Y-105329933D01*
X155483914Y-106743332D01*
X155483913Y-106743332D01*
X155526054Y-106785472D01*
X155551568Y-106810986D01*
X155639962Y-106847600D01*
X155919809Y-106847600D01*
X155978000Y-106866507D01*
X156013964Y-106916007D01*
X156013964Y-106977193D01*
X155978000Y-107026693D01*
X155969309Y-107032336D01*
X155960329Y-107037520D01*
X155960327Y-107037522D01*
X155887622Y-107110227D01*
X155836212Y-107199272D01*
X155809600Y-107298590D01*
X155809600Y-107401410D01*
X155836212Y-107500728D01*
X155887622Y-107589773D01*
X155930605Y-107632756D01*
X155958381Y-107687271D01*
X155959600Y-107702758D01*
X155959600Y-115107673D01*
X155940693Y-115165864D01*
X155930604Y-115177677D01*
X155018704Y-116089577D01*
X154964187Y-116117354D01*
X154903755Y-116107783D01*
X154860490Y-116064518D01*
X154849700Y-116019573D01*
X154849700Y-107569761D01*
X154839858Y-107546000D01*
X154813087Y-107481369D01*
X154813086Y-107481368D01*
X154813086Y-107481367D01*
X151953096Y-104621377D01*
X151925319Y-104566860D01*
X151924100Y-104551373D01*
X151924100Y-104490591D01*
X151916594Y-104462577D01*
X151897488Y-104391272D01*
X151846078Y-104302227D01*
X151773373Y-104229522D01*
X151684328Y-104178112D01*
X151585010Y-104151500D01*
X151482190Y-104151500D01*
X151382872Y-104178112D01*
X151293827Y-104229522D01*
X151221122Y-104302227D01*
X151169712Y-104391272D01*
X151143100Y-104490591D01*
X151143100Y-104599899D01*
X151140677Y-104599899D01*
X151131442Y-104649723D01*
X151087059Y-104691839D01*
X151026397Y-104699824D01*
X150974438Y-104672487D01*
X150931173Y-104629222D01*
X150842128Y-104577812D01*
X150742810Y-104551200D01*
X150639990Y-104551200D01*
X150540672Y-104577812D01*
X150451627Y-104629222D01*
X150378922Y-104701927D01*
X150327512Y-104790972D01*
X150300900Y-104890290D01*
X150300900Y-104993110D01*
X150327512Y-105092428D01*
X150378922Y-105181473D01*
X150421905Y-105224456D01*
X150449681Y-105278971D01*
X150450900Y-105294458D01*
X150450900Y-106639773D01*
X150431993Y-106697964D01*
X150421904Y-106709777D01*
X147182977Y-109948704D01*
X147128460Y-109976481D01*
X147112973Y-109977700D01*
X146168761Y-109977700D01*
X146080369Y-110014312D01*
X145190977Y-110903704D01*
X145136460Y-110931481D01*
X145120973Y-110932700D01*
X145060190Y-110932700D01*
X144960872Y-110959312D01*
X144871827Y-111010722D01*
X144799122Y-111083427D01*
X144747712Y-111172472D01*
X144721100Y-111271790D01*
X144721100Y-111374610D01*
X144747712Y-111473928D01*
X144799122Y-111562973D01*
X144871827Y-111635678D01*
X144960872Y-111687088D01*
X145060190Y-111713700D01*
X145060192Y-111713700D01*
X145163008Y-111713700D01*
X145163010Y-111713700D01*
X145262328Y-111687088D01*
X145351373Y-111635678D01*
X145424078Y-111562973D01*
X145433336Y-111546936D01*
X145478802Y-111505997D01*
X145539652Y-111499599D01*
X145592641Y-111530189D01*
X145614698Y-111570812D01*
X145636112Y-111650728D01*
X145687522Y-111739773D01*
X145760227Y-111812478D01*
X145849272Y-111863888D01*
X145948590Y-111890500D01*
X145948592Y-111890500D01*
X146051411Y-111890500D01*
X146051411Y-111890499D01*
X146089357Y-111880332D01*
X146101304Y-111877131D01*
X146162406Y-111880332D01*
X146164403Y-111881124D01*
X146942099Y-112199272D01*
X148065581Y-112658878D01*
X148077598Y-112664771D01*
X148087871Y-112670703D01*
X148100981Y-112674215D01*
X148112844Y-112678214D01*
X148125397Y-112683349D01*
X148125398Y-112683349D01*
X148125405Y-112683352D01*
X148137168Y-112684848D01*
X148150296Y-112687429D01*
X148161755Y-112690500D01*
X148175327Y-112690500D01*
X148187817Y-112691291D01*
X148201284Y-112693004D01*
X148211829Y-112691568D01*
X148213040Y-112691404D01*
X148226391Y-112690500D01*
X152396817Y-112690500D01*
X152455008Y-112709407D01*
X152478010Y-112732854D01*
X153048620Y-113550728D01*
X153676285Y-114450381D01*
X153691693Y-114472465D01*
X153709500Y-114529111D01*
X153709500Y-114601410D01*
X153736112Y-114700728D01*
X153787522Y-114789773D01*
X153860227Y-114862478D01*
X153949272Y-114913888D01*
X154048590Y-114940500D01*
X154048592Y-114940500D01*
X154151408Y-114940500D01*
X154151410Y-114940500D01*
X154244080Y-114915669D01*
X154305178Y-114918871D01*
X154352728Y-114957376D01*
X154368700Y-115011296D01*
X154368700Y-115627442D01*
X154349793Y-115685633D01*
X154300293Y-115721597D01*
X154239107Y-115721597D01*
X154199698Y-115697447D01*
X154189773Y-115687522D01*
X154189770Y-115687520D01*
X154100731Y-115636113D01*
X154100730Y-115636112D01*
X154089294Y-115633048D01*
X154037981Y-115599722D01*
X154031756Y-115591132D01*
X153672258Y-115034490D01*
X152649283Y-113450529D01*
X152646719Y-113446331D01*
X152644056Y-113441719D01*
X152632458Y-113421629D01*
X152628510Y-113416484D01*
X152628649Y-113416376D01*
X152627619Y-113415101D01*
X152627486Y-113415215D01*
X152623286Y-113410273D01*
X152623284Y-113410272D01*
X152623283Y-113410269D01*
X152602120Y-113391117D01*
X152598549Y-113387719D01*
X152578372Y-113367543D01*
X152573222Y-113363591D01*
X152573329Y-113363451D01*
X152572006Y-113362487D01*
X152571906Y-113362633D01*
X152566569Y-113358945D01*
X152566568Y-113358944D01*
X152541170Y-113345922D01*
X152536854Y-113343572D01*
X152512127Y-113329295D01*
X152506135Y-113326814D01*
X152506201Y-113326653D01*
X152504668Y-113326062D01*
X152504610Y-113326227D01*
X152498503Y-113324046D01*
X152470609Y-113318044D01*
X152465815Y-113316887D01*
X152438245Y-113309500D01*
X152431811Y-113308653D01*
X152431833Y-113308478D01*
X152430211Y-113308305D01*
X152430197Y-113308480D01*
X152423728Y-113307954D01*
X152395218Y-113309377D01*
X152390286Y-113309500D01*
X147691947Y-113309500D01*
X147647673Y-113299048D01*
X146996881Y-112973651D01*
X146955419Y-112934604D01*
X146912478Y-112860227D01*
X146839773Y-112787522D01*
X146750728Y-112736112D01*
X146651410Y-112709500D01*
X146548590Y-112709500D01*
X146449272Y-112736112D01*
X146360227Y-112787522D01*
X146287522Y-112860227D01*
X146236112Y-112949272D01*
X146209500Y-113048590D01*
X146209500Y-113151410D01*
X146236112Y-113250728D01*
X146287522Y-113339773D01*
X146360227Y-113412478D01*
X146449272Y-113463888D01*
X146548590Y-113490500D01*
X146548592Y-113490500D01*
X146651409Y-113490500D01*
X146651410Y-113490500D01*
X146667214Y-113486265D01*
X146728315Y-113489467D01*
X146737111Y-113493344D01*
X147459631Y-113854604D01*
X147464857Y-113857416D01*
X147478544Y-113865318D01*
X147487871Y-113870703D01*
X147487874Y-113870704D01*
X147491644Y-113872266D01*
X147500431Y-113875600D01*
X147504285Y-113876931D01*
X147504292Y-113876935D01*
X147530351Y-113882267D01*
X147536093Y-113883623D01*
X147552821Y-113888105D01*
X147561754Y-113890500D01*
X147565754Y-113891026D01*
X147575210Y-113891984D01*
X147579229Y-113892270D01*
X147605752Y-113890678D01*
X147611684Y-113890500D01*
X152187884Y-113890500D01*
X152246075Y-113909407D01*
X152271047Y-113935789D01*
X153543664Y-115906294D01*
X153559500Y-115960003D01*
X153559500Y-116051410D01*
X153586112Y-116150728D01*
X153637522Y-116239773D01*
X153710227Y-116312478D01*
X153799272Y-116363888D01*
X153799274Y-116363888D01*
X153799277Y-116363890D01*
X153801488Y-116364806D01*
X153802791Y-116365919D01*
X153804892Y-116367132D01*
X153804667Y-116367521D01*
X153848014Y-116404542D01*
X153862298Y-116464036D01*
X153838884Y-116520565D01*
X153833606Y-116526274D01*
X153541383Y-116818496D01*
X153486867Y-116846273D01*
X153426435Y-116836702D01*
X153383170Y-116793437D01*
X153375992Y-116774989D01*
X153373307Y-116765324D01*
X153040500Y-115567216D01*
X153040500Y-115552162D01*
X153027804Y-115521512D01*
X153018923Y-115489539D01*
X153009647Y-115477677D01*
X153003886Y-115463768D01*
X152980425Y-115440307D01*
X152959986Y-115414169D01*
X152946878Y-115406760D01*
X152936232Y-115396114D01*
X152905575Y-115383415D01*
X152890729Y-115375024D01*
X152890728Y-115375023D01*
X152876695Y-115367091D01*
X152876692Y-115367090D01*
X152875135Y-115366900D01*
X152849285Y-115360099D01*
X152847839Y-115359500D01*
X152847838Y-115359500D01*
X152820692Y-115359500D01*
X152808668Y-115358767D01*
X152781724Y-115355470D01*
X152780217Y-115355888D01*
X152753722Y-115359500D01*
X140363084Y-115359500D01*
X140304893Y-115340593D01*
X140268929Y-115291093D01*
X140267457Y-115234877D01*
X140293600Y-115137310D01*
X140293600Y-115034490D01*
X140266988Y-114935172D01*
X140215578Y-114846127D01*
X140142873Y-114773422D01*
X140053828Y-114722012D01*
X139954510Y-114695400D01*
X139851690Y-114695400D01*
X139752372Y-114722012D01*
X139673512Y-114767542D01*
X139663324Y-114773424D01*
X139620344Y-114816404D01*
X139565827Y-114844181D01*
X139550341Y-114845400D01*
X135802927Y-114845400D01*
X135744736Y-114826493D01*
X135732923Y-114816404D01*
X135395896Y-114479377D01*
X135368119Y-114424860D01*
X135366900Y-114409373D01*
X135366900Y-114390626D01*
X135385807Y-114332435D01*
X135395890Y-114320628D01*
X138925886Y-110790633D01*
X138962500Y-110702239D01*
X138962500Y-110702238D01*
X138963403Y-110697700D01*
X138993300Y-110644317D01*
X139048866Y-110618702D01*
X139108875Y-110630640D01*
X139150407Y-110675571D01*
X139159500Y-110717016D01*
X139159500Y-113847241D01*
X139140593Y-113905432D01*
X139130504Y-113917244D01*
X139087524Y-113960224D01*
X139087522Y-113960226D01*
X139087522Y-113960227D01*
X139036112Y-114049272D01*
X139009500Y-114148590D01*
X139009500Y-114251410D01*
X139036112Y-114350728D01*
X139087522Y-114439773D01*
X139160227Y-114512478D01*
X139249272Y-114563888D01*
X139348590Y-114590500D01*
X139348592Y-114590500D01*
X139451408Y-114590500D01*
X139451410Y-114590500D01*
X139550728Y-114563888D01*
X139639773Y-114512478D01*
X139712478Y-114439773D01*
X139763888Y-114350728D01*
X139790500Y-114251410D01*
X139790500Y-114148590D01*
X139763888Y-114049272D01*
X139712478Y-113960227D01*
X139693251Y-113941000D01*
X139669496Y-113917244D01*
X139641719Y-113862727D01*
X139640500Y-113847241D01*
X139640500Y-106952758D01*
X139659407Y-106894567D01*
X139669490Y-106882760D01*
X139712478Y-106839773D01*
X139763888Y-106750728D01*
X139790500Y-106651410D01*
X139790500Y-106548590D01*
X140209500Y-106548590D01*
X140209500Y-106651410D01*
X140236112Y-106750728D01*
X140287522Y-106839773D01*
X140330505Y-106882756D01*
X140358281Y-106937271D01*
X140359500Y-106952758D01*
X140359500Y-113847241D01*
X140340593Y-113905432D01*
X140330504Y-113917244D01*
X140287524Y-113960224D01*
X140287522Y-113960226D01*
X140287522Y-113960227D01*
X140236112Y-114049272D01*
X140209500Y-114148590D01*
X140209500Y-114251410D01*
X140236112Y-114350728D01*
X140287522Y-114439773D01*
X140360227Y-114512478D01*
X140449272Y-114563888D01*
X140548590Y-114590500D01*
X140548592Y-114590500D01*
X140651408Y-114590500D01*
X140651410Y-114590500D01*
X140750728Y-114563888D01*
X140839773Y-114512478D01*
X140912478Y-114439773D01*
X140963888Y-114350728D01*
X140990500Y-114251410D01*
X140990500Y-114148590D01*
X140963888Y-114049272D01*
X140912478Y-113960227D01*
X140893251Y-113941000D01*
X140869496Y-113917244D01*
X140841719Y-113862727D01*
X140840500Y-113847241D01*
X140840500Y-106952758D01*
X140859407Y-106894567D01*
X140869490Y-106882760D01*
X140912478Y-106839773D01*
X140963888Y-106750728D01*
X140990500Y-106651410D01*
X140990500Y-106548590D01*
X140963888Y-106449272D01*
X140912478Y-106360227D01*
X140839773Y-106287522D01*
X140750728Y-106236112D01*
X140651410Y-106209500D01*
X140548590Y-106209500D01*
X140449272Y-106236112D01*
X140360227Y-106287522D01*
X140287522Y-106360227D01*
X140236112Y-106449272D01*
X140209500Y-106548590D01*
X139790500Y-106548590D01*
X139763888Y-106449272D01*
X139712478Y-106360227D01*
X139639773Y-106287522D01*
X139550728Y-106236112D01*
X139451410Y-106209500D01*
X139348590Y-106209500D01*
X139249272Y-106236112D01*
X139160227Y-106287522D01*
X139087522Y-106360227D01*
X139036112Y-106449272D01*
X139009500Y-106548590D01*
X139009500Y-106651410D01*
X139036112Y-106750728D01*
X139087522Y-106839773D01*
X139130505Y-106882756D01*
X139158281Y-106937271D01*
X139159500Y-106952758D01*
X139159500Y-108160642D01*
X139140593Y-108218833D01*
X139091093Y-108254797D01*
X139029907Y-108254797D01*
X138990498Y-108230647D01*
X138961773Y-108201922D01*
X138872728Y-108150512D01*
X138773410Y-108123900D01*
X138670590Y-108123900D01*
X138571272Y-108150512D01*
X138482227Y-108201922D01*
X138409522Y-108274627D01*
X138358112Y-108363672D01*
X138331500Y-108462990D01*
X138331500Y-108565810D01*
X138343039Y-108608873D01*
X138358112Y-108665128D01*
X138362569Y-108672847D01*
X138375291Y-108732696D01*
X138350405Y-108788591D01*
X138297417Y-108819184D01*
X138251211Y-108817975D01*
X138156448Y-108792584D01*
X138150910Y-108791100D01*
X138048090Y-108791100D01*
X137948772Y-108817712D01*
X137859727Y-108869122D01*
X137787022Y-108941827D01*
X137735612Y-109030872D01*
X137709000Y-109130190D01*
X137709000Y-109233010D01*
X137710209Y-109237522D01*
X137723384Y-109286693D01*
X137720181Y-109347794D01*
X137697761Y-109382319D01*
X134149577Y-112930504D01*
X134095060Y-112958281D01*
X134079573Y-112959500D01*
X132936159Y-112959500D01*
X132877968Y-112940593D01*
X132866156Y-112930504D01*
X132823175Y-112887524D01*
X132823173Y-112887522D01*
X132734128Y-112836112D01*
X132634810Y-112809500D01*
X132531990Y-112809500D01*
X132432672Y-112836112D01*
X132343627Y-112887522D01*
X132270922Y-112960227D01*
X132219512Y-113049272D01*
X132192900Y-113148590D01*
X132192900Y-113251410D01*
X132219512Y-113350728D01*
X132270922Y-113439773D01*
X132343627Y-113512478D01*
X132432672Y-113563888D01*
X132531990Y-113590500D01*
X132531992Y-113590500D01*
X132634808Y-113590500D01*
X132634810Y-113590500D01*
X132734128Y-113563888D01*
X132823173Y-113512478D01*
X132850985Y-113484666D01*
X132866156Y-113469496D01*
X132920673Y-113441719D01*
X132936159Y-113440500D01*
X134268039Y-113440500D01*
X134356433Y-113403886D01*
X138183117Y-109577199D01*
X138227497Y-109551578D01*
X138250228Y-109545488D01*
X138333002Y-109497698D01*
X138392848Y-109484977D01*
X138448743Y-109509863D01*
X138479336Y-109562851D01*
X138481500Y-109583435D01*
X138481500Y-110513773D01*
X138462593Y-110571964D01*
X138452504Y-110583777D01*
X135055777Y-113980504D01*
X135001260Y-114008281D01*
X134985773Y-114009500D01*
X134924990Y-114009500D01*
X134825672Y-114036112D01*
X134736627Y-114087522D01*
X134663922Y-114160227D01*
X134612512Y-114249272D01*
X134585900Y-114348590D01*
X134585900Y-114451410D01*
X134612512Y-114550728D01*
X134663922Y-114639773D01*
X134736627Y-114712478D01*
X134825672Y-114763888D01*
X134924990Y-114790500D01*
X134985773Y-114790500D01*
X135043964Y-114809407D01*
X135055777Y-114819496D01*
X135276777Y-115040496D01*
X135304554Y-115095013D01*
X135294983Y-115155445D01*
X135251718Y-115198710D01*
X135206773Y-115209500D01*
X135148590Y-115209500D01*
X135062909Y-115232458D01*
X135049272Y-115236112D01*
X134960227Y-115287522D01*
X134887522Y-115360227D01*
X134836112Y-115449271D01*
X134810415Y-115545175D01*
X134777090Y-115596489D01*
X134719969Y-115618415D01*
X134660868Y-115602579D01*
X134644784Y-115589555D01*
X133864636Y-114809407D01*
X133054271Y-113999042D01*
X133054268Y-113999040D01*
X133054267Y-113999039D01*
X133054266Y-113999038D01*
X132988032Y-113960798D01*
X132988034Y-113960798D01*
X132959365Y-113953116D01*
X132914145Y-113941000D01*
X132116345Y-113941000D01*
X132039855Y-113941000D01*
X131994634Y-113953116D01*
X131965966Y-113960798D01*
X131899733Y-113999038D01*
X131218267Y-114680504D01*
X131163750Y-114708281D01*
X131148263Y-114709500D01*
X124997245Y-114709500D01*
X124920755Y-114709500D01*
X124881822Y-114719932D01*
X124846866Y-114729298D01*
X124780633Y-114767538D01*
X121716367Y-117831804D01*
X121661850Y-117859581D01*
X121646363Y-117860800D01*
X120663413Y-117860800D01*
X120605222Y-117841893D01*
X120569258Y-117792393D01*
X120567786Y-117736180D01*
X120590500Y-117651410D01*
X120590500Y-117548590D01*
X120563888Y-117449272D01*
X120512478Y-117360227D01*
X120491751Y-117339500D01*
X120469496Y-117317244D01*
X120441719Y-117262727D01*
X120440500Y-117247241D01*
X120440500Y-102548590D01*
X121009500Y-102548590D01*
X121009500Y-102651410D01*
X121036112Y-102750728D01*
X121087522Y-102839773D01*
X121130505Y-102882756D01*
X121158281Y-102937271D01*
X121159500Y-102952758D01*
X121159500Y-116047241D01*
X121140593Y-116105432D01*
X121130504Y-116117244D01*
X121087524Y-116160224D01*
X121087522Y-116160226D01*
X121087522Y-116160227D01*
X121036112Y-116249272D01*
X121009500Y-116348590D01*
X121009500Y-116451410D01*
X121036112Y-116550728D01*
X121087522Y-116639773D01*
X121160227Y-116712478D01*
X121249272Y-116763888D01*
X121348590Y-116790500D01*
X121348592Y-116790500D01*
X121451408Y-116790500D01*
X121451410Y-116790500D01*
X121550728Y-116763888D01*
X121639773Y-116712478D01*
X121712478Y-116639773D01*
X121763888Y-116550728D01*
X121790500Y-116451410D01*
X121790500Y-116348590D01*
X121763888Y-116249272D01*
X121712478Y-116160227D01*
X121702978Y-116150727D01*
X121669496Y-116117244D01*
X121641719Y-116062727D01*
X121640500Y-116047241D01*
X121640500Y-102952758D01*
X121659407Y-102894567D01*
X121669490Y-102882760D01*
X121712478Y-102839773D01*
X121763888Y-102750728D01*
X121790500Y-102651410D01*
X121790500Y-102548590D01*
X121763888Y-102449272D01*
X121712478Y-102360227D01*
X121639773Y-102287522D01*
X121550728Y-102236112D01*
X121451410Y-102209500D01*
X121348590Y-102209500D01*
X121249272Y-102236112D01*
X121160227Y-102287522D01*
X121087522Y-102360227D01*
X121036112Y-102449272D01*
X121009500Y-102548590D01*
X120440500Y-102548590D01*
X120440500Y-101839500D01*
X120459407Y-101781309D01*
X120508907Y-101745345D01*
X120539500Y-101740500D01*
X142502568Y-101740500D01*
X142560759Y-101759407D01*
G37*
G04 #@! TD.AperFunction*
G04 #@! TA.AperFunction,Conductor*
G36*
X189709191Y-100268907D02*
G01*
X189745155Y-100318407D01*
X189750000Y-100349000D01*
X189750000Y-133651000D01*
X189731093Y-133709191D01*
X189681593Y-133745155D01*
X189651000Y-133750000D01*
X100349000Y-133750000D01*
X100290809Y-133731093D01*
X100254845Y-133681593D01*
X100250000Y-133651000D01*
X100250000Y-124175278D01*
X100268907Y-124117087D01*
X100318407Y-124081123D01*
X100355476Y-124076490D01*
X100379782Y-124078083D01*
X100807415Y-123650449D01*
X100842822Y-123699181D01*
X100970819Y-123827178D01*
X101019548Y-123862582D01*
X100591915Y-124290216D01*
X100745667Y-124408194D01*
X100944341Y-124522898D01*
X101156268Y-124610680D01*
X101156281Y-124610684D01*
X101377863Y-124670057D01*
X101605297Y-124699999D01*
X101605300Y-124700000D01*
X101834700Y-124700000D01*
X101834702Y-124699999D01*
X102062133Y-124670057D01*
X102062138Y-124670057D01*
X102283718Y-124610684D01*
X102283731Y-124610680D01*
X102495658Y-124522898D01*
X102694342Y-124408188D01*
X102848083Y-124290216D01*
X102420450Y-123862583D01*
X102469181Y-123827178D01*
X102597178Y-123699181D01*
X102632583Y-123650450D01*
X103060216Y-124078083D01*
X103178188Y-123924342D01*
X103292898Y-123725658D01*
X103380680Y-123513731D01*
X103380684Y-123513718D01*
X103440057Y-123292138D01*
X103440057Y-123292133D01*
X103469999Y-123064702D01*
X103470000Y-123064700D01*
X103470000Y-122835300D01*
X103469999Y-122835297D01*
X103440057Y-122607866D01*
X103440057Y-122607861D01*
X103380684Y-122386281D01*
X103380680Y-122386268D01*
X103292898Y-122174341D01*
X103178194Y-121975667D01*
X103060215Y-121821915D01*
X102632582Y-122249548D01*
X102597178Y-122200819D01*
X102469181Y-122072822D01*
X102420449Y-122037416D01*
X102848083Y-121609783D01*
X102694332Y-121491805D01*
X102495658Y-121377101D01*
X102283731Y-121289319D01*
X102283718Y-121289315D01*
X102062136Y-121229942D01*
X101834702Y-121200000D01*
X101605297Y-121200000D01*
X101377866Y-121229942D01*
X101377861Y-121229942D01*
X101156281Y-121289315D01*
X101156268Y-121289319D01*
X100944341Y-121377101D01*
X100745662Y-121491808D01*
X100591915Y-121609782D01*
X101019549Y-122037416D01*
X100970819Y-122072822D01*
X100842822Y-122200819D01*
X100807416Y-122249549D01*
X100379781Y-121821914D01*
X100355475Y-121823508D01*
X100337232Y-121818875D01*
X100318407Y-121818875D01*
X100308290Y-121811524D01*
X100296172Y-121808447D01*
X100284136Y-121793976D01*
X100268907Y-121782911D01*
X100265042Y-121771017D01*
X100257048Y-121761405D01*
X100250000Y-121724720D01*
X100250000Y-119162290D01*
X100639500Y-119162290D01*
X100639500Y-119337709D01*
X100653780Y-119409500D01*
X100671926Y-119500727D01*
X100673721Y-119509748D01*
X100673721Y-119509750D01*
X100740847Y-119671807D01*
X100820154Y-119790500D01*
X100838303Y-119817661D01*
X100962339Y-119941697D01*
X101108190Y-120039151D01*
X101108191Y-120039151D01*
X101108192Y-120039152D01*
X101144904Y-120054358D01*
X101270251Y-120106279D01*
X101442293Y-120140500D01*
X101442294Y-120140500D01*
X101617706Y-120140500D01*
X101617707Y-120140500D01*
X101789749Y-120106279D01*
X101951810Y-120039151D01*
X102097661Y-119941697D01*
X102221697Y-119817661D01*
X102319151Y-119671810D01*
X102386279Y-119509749D01*
X102420500Y-119337707D01*
X102420500Y-119162293D01*
X102386279Y-118990251D01*
X102319151Y-118828190D01*
X102221697Y-118682339D01*
X102097661Y-118558303D01*
X102074981Y-118543149D01*
X101951807Y-118460847D01*
X101789749Y-118393721D01*
X101617709Y-118359500D01*
X101617707Y-118359500D01*
X101442293Y-118359500D01*
X101442290Y-118359500D01*
X101270251Y-118393721D01*
X101270249Y-118393721D01*
X101108192Y-118460847D01*
X100962342Y-118558300D01*
X100838300Y-118682342D01*
X100740847Y-118828192D01*
X100673721Y-118990249D01*
X100673721Y-118990251D01*
X100639500Y-119162290D01*
X100250000Y-119162290D01*
X100250000Y-115907366D01*
X102939500Y-115907366D01*
X102939500Y-116092633D01*
X102948086Y-116135795D01*
X102973211Y-116262110D01*
X102975643Y-116274333D01*
X102975643Y-116274335D01*
X103046537Y-116445491D01*
X103046537Y-116445492D01*
X103149465Y-116599533D01*
X103149466Y-116599534D01*
X103280466Y-116730534D01*
X103434506Y-116833461D01*
X103434507Y-116833461D01*
X103434508Y-116833462D01*
X103519852Y-116868812D01*
X103605666Y-116904357D01*
X103605670Y-116904357D01*
X103608657Y-116905264D01*
X103609830Y-116906081D01*
X103610159Y-116906218D01*
X103610129Y-116906290D01*
X103658852Y-116940252D01*
X103678895Y-116998061D01*
X103661131Y-117056611D01*
X103612345Y-117093537D01*
X103608657Y-117094736D01*
X103605661Y-117095644D01*
X103434508Y-117166537D01*
X103434507Y-117166537D01*
X103280466Y-117269465D01*
X103149465Y-117400466D01*
X103046537Y-117554507D01*
X103046537Y-117554508D01*
X102975643Y-117725664D01*
X102975643Y-117725666D01*
X102939500Y-117907366D01*
X102939500Y-118092633D01*
X102958967Y-118190500D01*
X102972574Y-118258907D01*
X102975643Y-118274333D01*
X102975643Y-118274335D01*
X103046537Y-118445491D01*
X103046537Y-118445492D01*
X103130344Y-118570916D01*
X103149466Y-118599534D01*
X103280466Y-118730534D01*
X103434506Y-118833461D01*
X103434507Y-118833461D01*
X103434508Y-118833462D01*
X103447065Y-118838663D01*
X103605666Y-118904357D01*
X103787369Y-118940500D01*
X103787370Y-118940500D01*
X103972630Y-118940500D01*
X103972631Y-118940500D01*
X104154334Y-118904357D01*
X104325494Y-118833461D01*
X104479534Y-118730534D01*
X104610534Y-118599534D01*
X104713461Y-118445494D01*
X104784357Y-118274334D01*
X104820500Y-118092631D01*
X104820500Y-117907369D01*
X104784357Y-117725666D01*
X104724759Y-117581783D01*
X104719959Y-117520790D01*
X104746218Y-117473899D01*
X105461322Y-116758796D01*
X105515839Y-116731019D01*
X105531326Y-116729800D01*
X108839105Y-116729800D01*
X108897296Y-116748707D01*
X108933260Y-116798207D01*
X108934731Y-116854422D01*
X108909500Y-116948590D01*
X108909500Y-117051410D01*
X108936112Y-117150728D01*
X108987522Y-117239773D01*
X108987524Y-117239775D01*
X108987527Y-117239780D01*
X108989043Y-117241756D01*
X108989638Y-117243436D01*
X108990767Y-117245392D01*
X108990404Y-117245601D01*
X109009466Y-117299432D01*
X109009500Y-117302021D01*
X109009500Y-118838663D01*
X108990593Y-118896854D01*
X108980504Y-118908667D01*
X107708667Y-120180504D01*
X107654150Y-120208281D01*
X107638663Y-120209500D01*
X104919499Y-120209500D01*
X104861308Y-120190593D01*
X104825344Y-120141093D01*
X104820499Y-120110500D01*
X104820499Y-119686158D01*
X104813588Y-119651408D01*
X104812349Y-119645179D01*
X104781295Y-119598705D01*
X104734821Y-119567651D01*
X104734818Y-119567650D01*
X104693842Y-119559500D01*
X103066158Y-119559500D01*
X103025180Y-119567650D01*
X102978706Y-119598704D01*
X102978704Y-119598706D01*
X102947650Y-119645180D01*
X102947650Y-119645181D01*
X102939500Y-119686154D01*
X102939500Y-121313841D01*
X102947650Y-121354819D01*
X102947650Y-121354820D01*
X102947651Y-121354821D01*
X102978705Y-121401295D01*
X103025179Y-121432349D01*
X103066159Y-121440500D01*
X104693840Y-121440499D01*
X104693841Y-121440499D01*
X104707500Y-121437782D01*
X104734821Y-121432349D01*
X104781295Y-121401295D01*
X104812349Y-121354821D01*
X104820500Y-121313841D01*
X104820500Y-120889500D01*
X104839407Y-120831309D01*
X104888907Y-120795345D01*
X104919500Y-120790500D01*
X107838243Y-120790500D01*
X107838245Y-120790500D01*
X107912129Y-120770703D01*
X107912131Y-120770701D01*
X107912133Y-120770701D01*
X107978366Y-120732461D01*
X107978366Y-120732460D01*
X107978371Y-120732458D01*
X109229999Y-119480829D01*
X109284512Y-119453055D01*
X109344944Y-119462626D01*
X109370003Y-119480832D01*
X110456717Y-120567546D01*
X110484494Y-120622063D01*
X110474923Y-120682495D01*
X110456717Y-120707554D01*
X109400629Y-121763642D01*
X109400628Y-121763641D01*
X109346542Y-121817728D01*
X109346538Y-121817733D01*
X109308298Y-121883966D01*
X109308297Y-121883971D01*
X109288500Y-121957855D01*
X109288500Y-122737255D01*
X109288500Y-122813745D01*
X109294275Y-122835297D01*
X109308298Y-122887633D01*
X109346538Y-122953866D01*
X109346540Y-122953868D01*
X109346542Y-122953871D01*
X111680505Y-125287834D01*
X111708281Y-125342349D01*
X111709500Y-125357836D01*
X111709500Y-126118242D01*
X111690593Y-126176433D01*
X111641093Y-126212397D01*
X111579907Y-126212397D01*
X111540498Y-126188247D01*
X111489773Y-126137522D01*
X111400728Y-126086112D01*
X111301410Y-126059500D01*
X111198590Y-126059500D01*
X111099272Y-126086112D01*
X111010227Y-126137522D01*
X110937522Y-126210227D01*
X110886112Y-126299272D01*
X110859500Y-126398590D01*
X110859500Y-126501410D01*
X110886112Y-126600728D01*
X110937522Y-126689773D01*
X110980505Y-126732756D01*
X111008281Y-126787271D01*
X111009500Y-126802758D01*
X111009500Y-129979242D01*
X111004860Y-130005923D01*
X111009500Y-130026623D01*
X111009500Y-130047838D01*
X111019863Y-130072858D01*
X111025787Y-130099283D01*
X111037995Y-130116631D01*
X111046114Y-130136232D01*
X111065264Y-130155382D01*
X111080849Y-130177529D01*
X111098767Y-130188885D01*
X111113117Y-130203235D01*
X111113120Y-130203239D01*
X111113767Y-130203885D01*
X111113768Y-130203886D01*
X111130889Y-130210977D01*
X111146001Y-130218822D01*
X111161659Y-130228746D01*
X111161660Y-130228746D01*
X111161662Y-130228747D01*
X111171768Y-130230504D01*
X111192691Y-130236577D01*
X111202161Y-130240500D01*
X111202162Y-130240500D01*
X111220697Y-130240500D01*
X111237660Y-130241964D01*
X116609806Y-131176250D01*
X116663896Y-131204848D01*
X116678578Y-131224283D01*
X116687520Y-131239770D01*
X116687522Y-131239773D01*
X116760227Y-131312478D01*
X116849272Y-131363888D01*
X116948590Y-131390500D01*
X116948592Y-131390500D01*
X117051408Y-131390500D01*
X117051410Y-131390500D01*
X117150728Y-131363888D01*
X117239773Y-131312478D01*
X117312478Y-131239773D01*
X117363888Y-131150728D01*
X117390500Y-131051410D01*
X117390500Y-130948590D01*
X117363888Y-130849272D01*
X117312478Y-130760227D01*
X117239773Y-130687522D01*
X117150728Y-130636112D01*
X117051410Y-130609500D01*
X116948590Y-130609500D01*
X116849272Y-130636112D01*
X116760227Y-130687522D01*
X116760225Y-130687523D01*
X116755822Y-130690066D01*
X116695974Y-130702787D01*
X116689359Y-130701865D01*
X111572537Y-129811983D01*
X111518447Y-129783385D01*
X111491496Y-129728455D01*
X111490500Y-129714447D01*
X111490500Y-127567993D01*
X111509407Y-127509802D01*
X111558907Y-127473838D01*
X111620093Y-127473838D01*
X111669593Y-127509802D01*
X111675228Y-127518479D01*
X111687522Y-127539773D01*
X111760227Y-127612478D01*
X111849272Y-127663888D01*
X111948590Y-127690500D01*
X111948592Y-127690500D01*
X112051408Y-127690500D01*
X112051410Y-127690500D01*
X112150728Y-127663888D01*
X112239773Y-127612478D01*
X112312478Y-127539773D01*
X112363888Y-127450728D01*
X112390500Y-127351410D01*
X112390500Y-127248590D01*
X112363888Y-127149272D01*
X112312478Y-127060227D01*
X112312475Y-127060224D01*
X112312474Y-127060222D01*
X112310952Y-127058238D01*
X112310354Y-127056551D01*
X112309233Y-127054608D01*
X112309593Y-127054399D01*
X112290534Y-127000560D01*
X112290500Y-126997978D01*
X112290500Y-126683826D01*
X112309407Y-126625635D01*
X112358907Y-126589671D01*
X112420093Y-126589671D01*
X112459501Y-126613820D01*
X113979267Y-128133586D01*
X114067661Y-128170200D01*
X122232339Y-128170200D01*
X122320733Y-128133586D01*
X131005728Y-119448590D01*
X131709500Y-119448590D01*
X131709500Y-119551410D01*
X131736112Y-119650728D01*
X131787522Y-119739773D01*
X131860227Y-119812478D01*
X131949272Y-119863888D01*
X132048590Y-119890500D01*
X132064011Y-119890500D01*
X132122202Y-119909407D01*
X132140336Y-119926449D01*
X133797950Y-121933034D01*
X133806695Y-121945448D01*
X136251106Y-126052059D01*
X136264859Y-126096784D01*
X136573838Y-131261813D01*
X136558440Y-131321029D01*
X136545021Y-131337726D01*
X136522524Y-131360224D01*
X136522522Y-131360226D01*
X136522522Y-131360227D01*
X136471112Y-131449272D01*
X136444500Y-131548590D01*
X136444500Y-131651410D01*
X136471112Y-131750728D01*
X136522522Y-131839773D01*
X136595227Y-131912478D01*
X136684272Y-131963888D01*
X136783590Y-131990500D01*
X136783592Y-131990500D01*
X136886408Y-131990500D01*
X136886410Y-131990500D01*
X136985728Y-131963888D01*
X137074773Y-131912478D01*
X137147478Y-131839773D01*
X137198888Y-131750728D01*
X137225500Y-131651410D01*
X137225500Y-131548590D01*
X137198888Y-131449272D01*
X137147478Y-131360227D01*
X137082693Y-131295442D01*
X137054918Y-131240928D01*
X137053876Y-131231353D01*
X137053453Y-131224283D01*
X136742301Y-126022933D01*
X136744878Y-126012779D01*
X136739463Y-125975497D01*
X136737214Y-125937886D01*
X136732633Y-125928462D01*
X136731128Y-125918095D01*
X136711857Y-125885720D01*
X136695387Y-125851836D01*
X136687549Y-125844883D01*
X134227522Y-121712036D01*
X134217949Y-121690442D01*
X134215884Y-121683711D01*
X134202043Y-121666956D01*
X134193303Y-121654548D01*
X134182191Y-121635880D01*
X134176547Y-121631668D01*
X134159435Y-121615379D01*
X134154812Y-121609783D01*
X132930959Y-120128277D01*
X132512994Y-119622319D01*
X132490510Y-119565415D01*
X132490771Y-119557899D01*
X132490500Y-119557899D01*
X132490500Y-119448591D01*
X132487341Y-119436800D01*
X132463888Y-119349272D01*
X132412478Y-119260227D01*
X132339773Y-119187522D01*
X132250728Y-119136112D01*
X132151410Y-119109500D01*
X132048590Y-119109500D01*
X131949272Y-119136112D01*
X131860227Y-119187522D01*
X131787522Y-119260227D01*
X131736112Y-119349272D01*
X131709500Y-119448590D01*
X131005728Y-119448590D01*
X132775185Y-117679133D01*
X132775186Y-117679132D01*
X132811800Y-117590738D01*
X132811800Y-115179458D01*
X132830707Y-115121267D01*
X132840790Y-115109460D01*
X132883778Y-115066473D01*
X132935188Y-114977428D01*
X132949093Y-114925531D01*
X132982415Y-114874219D01*
X133039537Y-114852292D01*
X133098637Y-114868127D01*
X133114723Y-114881152D01*
X134558942Y-116325371D01*
X134558941Y-116325371D01*
X134613028Y-116379457D01*
X134613033Y-116379461D01*
X134679267Y-116417701D01*
X134679265Y-116417701D01*
X134679269Y-116417702D01*
X134679271Y-116417703D01*
X134753155Y-116437500D01*
X139238523Y-116437500D01*
X139296714Y-116456407D01*
X139332678Y-116505907D01*
X139332678Y-116567093D01*
X139296714Y-116616593D01*
X139264148Y-116632125D01*
X139249272Y-116636112D01*
X139160227Y-116687522D01*
X139087521Y-116760228D01*
X139037854Y-116846254D01*
X138992384Y-116887194D01*
X138931534Y-116893589D01*
X138902621Y-116882491D01*
X138878928Y-116868812D01*
X138779610Y-116842200D01*
X138676790Y-116842200D01*
X138577472Y-116868812D01*
X138488427Y-116920222D01*
X138415722Y-116992927D01*
X138364312Y-117081972D01*
X138341653Y-117166539D01*
X138337700Y-117181291D01*
X138337700Y-117242073D01*
X138318793Y-117300264D01*
X138308704Y-117312076D01*
X137833413Y-117787367D01*
X137798259Y-117872240D01*
X137798257Y-117872245D01*
X137796800Y-117875762D01*
X137796800Y-122898573D01*
X137777893Y-122956764D01*
X137728393Y-122992728D01*
X137667207Y-122992728D01*
X137627796Y-122968577D01*
X133784896Y-119125677D01*
X133757119Y-119071160D01*
X133755900Y-119055673D01*
X133755900Y-118994891D01*
X133741326Y-118940500D01*
X133729288Y-118895572D01*
X133677878Y-118806527D01*
X133605173Y-118733822D01*
X133516128Y-118682412D01*
X133416810Y-118655800D01*
X133313990Y-118655800D01*
X133214672Y-118682412D01*
X133125627Y-118733822D01*
X133052922Y-118806527D01*
X133001512Y-118895572D01*
X132974900Y-118994890D01*
X132974900Y-119097710D01*
X133001512Y-119197028D01*
X133052922Y-119286073D01*
X133125627Y-119358778D01*
X133214672Y-119410188D01*
X133313990Y-119436800D01*
X133374773Y-119436800D01*
X133432964Y-119455707D01*
X133444777Y-119465796D01*
X137262304Y-123283322D01*
X137290081Y-123337839D01*
X137291300Y-123353326D01*
X137291300Y-125286441D01*
X137272393Y-125344632D01*
X137262304Y-125356444D01*
X137219324Y-125399424D01*
X137219322Y-125399426D01*
X137219322Y-125399427D01*
X137167912Y-125488472D01*
X137141300Y-125587790D01*
X137141300Y-125690610D01*
X137167912Y-125789928D01*
X137219322Y-125878973D01*
X137292027Y-125951678D01*
X137381072Y-126003088D01*
X137480390Y-126029700D01*
X137480392Y-126029700D01*
X137583208Y-126029700D01*
X137583210Y-126029700D01*
X137672178Y-126005861D01*
X137733279Y-126009064D01*
X137780828Y-126047569D01*
X137796800Y-126101488D01*
X137796800Y-132429573D01*
X137777893Y-132487764D01*
X137767804Y-132499577D01*
X137766877Y-132500504D01*
X137712360Y-132528281D01*
X137696873Y-132529500D01*
X137636090Y-132529500D01*
X137536772Y-132556112D01*
X137447727Y-132607522D01*
X137375022Y-132680227D01*
X137323612Y-132769272D01*
X137297000Y-132868590D01*
X137297000Y-132971410D01*
X137323612Y-133070728D01*
X137375022Y-133159773D01*
X137447727Y-133232478D01*
X137536772Y-133283888D01*
X137636090Y-133310500D01*
X137636092Y-133310500D01*
X137738908Y-133310500D01*
X137738910Y-133310500D01*
X137838228Y-133283888D01*
X137927273Y-133232478D01*
X137999978Y-133159773D01*
X138051388Y-133070728D01*
X138078000Y-132971410D01*
X138078000Y-132910626D01*
X138096907Y-132852435D01*
X138106990Y-132840628D01*
X138241186Y-132706433D01*
X138277800Y-132618039D01*
X138277800Y-132522361D01*
X138277800Y-124248590D01*
X144209500Y-124248590D01*
X144209500Y-124351410D01*
X144236112Y-124450728D01*
X144287522Y-124539773D01*
X144360227Y-124612478D01*
X144449272Y-124663888D01*
X144548590Y-124690500D01*
X144548592Y-124690500D01*
X144651408Y-124690500D01*
X144651410Y-124690500D01*
X144750728Y-124663888D01*
X144839773Y-124612478D01*
X144912478Y-124539773D01*
X144914263Y-124536680D01*
X144916165Y-124534968D01*
X144916427Y-124534627D01*
X144916490Y-124534675D01*
X144959730Y-124495740D01*
X145020579Y-124489342D01*
X145073569Y-124519932D01*
X145085735Y-124536678D01*
X145087522Y-124539773D01*
X145160227Y-124612478D01*
X145249272Y-124663888D01*
X145348590Y-124690500D01*
X145348592Y-124690500D01*
X145451408Y-124690500D01*
X145451410Y-124690500D01*
X145550728Y-124663888D01*
X145639773Y-124612478D01*
X145712478Y-124539773D01*
X145714263Y-124536680D01*
X145716165Y-124534968D01*
X145716427Y-124534627D01*
X145716490Y-124534675D01*
X145759730Y-124495740D01*
X145820579Y-124489342D01*
X145873569Y-124519932D01*
X145885735Y-124536678D01*
X145887522Y-124539773D01*
X145960227Y-124612478D01*
X146049272Y-124663888D01*
X146148590Y-124690500D01*
X146148592Y-124690500D01*
X146251408Y-124690500D01*
X146251410Y-124690500D01*
X146350728Y-124663888D01*
X146439773Y-124612478D01*
X146512478Y-124539773D01*
X146563888Y-124450728D01*
X146590500Y-124351410D01*
X146590500Y-124248590D01*
X146563888Y-124149272D01*
X146512478Y-124060227D01*
X146439773Y-123987522D01*
X146350728Y-123936112D01*
X146251410Y-123909500D01*
X146148590Y-123909500D01*
X146093199Y-123924342D01*
X146049272Y-123936112D01*
X145960227Y-123987522D01*
X145887521Y-124060228D01*
X145885736Y-124063321D01*
X145883832Y-124065035D01*
X145883573Y-124065373D01*
X145883510Y-124065324D01*
X145840266Y-124104261D01*
X145779416Y-124110656D01*
X145726428Y-124080063D01*
X145714264Y-124063321D01*
X145712478Y-124060227D01*
X145639773Y-123987522D01*
X145550728Y-123936112D01*
X145451410Y-123909500D01*
X145348590Y-123909500D01*
X145293199Y-123924342D01*
X145249272Y-123936112D01*
X145160227Y-123987522D01*
X145087521Y-124060228D01*
X145085736Y-124063321D01*
X145083832Y-124065035D01*
X145083573Y-124065373D01*
X145083510Y-124065324D01*
X145040266Y-124104261D01*
X144979416Y-124110656D01*
X144926428Y-124080063D01*
X144914264Y-124063321D01*
X144912478Y-124060227D01*
X144839773Y-123987522D01*
X144750728Y-123936112D01*
X144651410Y-123909500D01*
X144548590Y-123909500D01*
X144449272Y-123936112D01*
X144360227Y-123987522D01*
X144287522Y-124060227D01*
X144236112Y-124149272D01*
X144209500Y-124248590D01*
X138277800Y-124248590D01*
X138277800Y-118064227D01*
X138296707Y-118006036D01*
X138306796Y-117994223D01*
X138648823Y-117652196D01*
X138703340Y-117624419D01*
X138718827Y-117623200D01*
X138779608Y-117623200D01*
X138779610Y-117623200D01*
X138878928Y-117596588D01*
X138967973Y-117545178D01*
X138990498Y-117522652D01*
X139045013Y-117494877D01*
X139105445Y-117504448D01*
X139148710Y-117547713D01*
X139159500Y-117592658D01*
X139159500Y-119947837D01*
X139196112Y-120036229D01*
X139196113Y-120036230D01*
X139196114Y-120036232D01*
X139263768Y-120103886D01*
X139352162Y-120140500D01*
X149960973Y-120140500D01*
X149969331Y-120143286D01*
X150008535Y-120140500D01*
X150047838Y-120140500D01*
X150055977Y-120137128D01*
X150064767Y-120136504D01*
X150099926Y-120118924D01*
X150136232Y-120103886D01*
X150142461Y-120097656D01*
X150790096Y-119773837D01*
X150850597Y-119764725D01*
X150859964Y-119766753D01*
X150948590Y-119790500D01*
X150948593Y-119790500D01*
X151051408Y-119790500D01*
X151051410Y-119790500D01*
X151150728Y-119763888D01*
X151239773Y-119712478D01*
X151266097Y-119686154D01*
X151282756Y-119669496D01*
X151337273Y-119641719D01*
X151352759Y-119640500D01*
X152608439Y-119640500D01*
X152696833Y-119603886D01*
X153711598Y-118589120D01*
X153766113Y-118561345D01*
X153826545Y-118570916D01*
X153869810Y-118614181D01*
X153880600Y-118659126D01*
X153880600Y-131450038D01*
X153917212Y-131538430D01*
X153917213Y-131538431D01*
X153917214Y-131538433D01*
X154514667Y-132135886D01*
X154603061Y-132172500D01*
X159536242Y-132172500D01*
X159594433Y-132191407D01*
X159630397Y-132240907D01*
X159630397Y-132302093D01*
X159606247Y-132341501D01*
X159587522Y-132360227D01*
X159536112Y-132449272D01*
X159509500Y-132548590D01*
X159509500Y-132651410D01*
X159536112Y-132750728D01*
X159587522Y-132839773D01*
X159660227Y-132912478D01*
X159749272Y-132963888D01*
X159848590Y-132990500D01*
X159848592Y-132990500D01*
X159951408Y-132990500D01*
X159951410Y-132990500D01*
X160050728Y-132963888D01*
X160139773Y-132912478D01*
X160212478Y-132839773D01*
X160263888Y-132750728D01*
X160263888Y-132750725D01*
X160264263Y-132750077D01*
X160309733Y-132709136D01*
X160370583Y-132702740D01*
X160423571Y-132733333D01*
X160435737Y-132750077D01*
X160436111Y-132750725D01*
X160436112Y-132750728D01*
X160487522Y-132839773D01*
X160560227Y-132912478D01*
X160649272Y-132963888D01*
X160748590Y-132990500D01*
X160748592Y-132990500D01*
X160851408Y-132990500D01*
X160851410Y-132990500D01*
X160950728Y-132963888D01*
X161039773Y-132912478D01*
X161112478Y-132839773D01*
X161163888Y-132750728D01*
X161190500Y-132651410D01*
X161190500Y-132548590D01*
X161163888Y-132449272D01*
X161112478Y-132360227D01*
X161093752Y-132341501D01*
X161065977Y-132286987D01*
X161075548Y-132226555D01*
X161118813Y-132183290D01*
X161163758Y-132172500D01*
X162326039Y-132172500D01*
X162414433Y-132135886D01*
X165577023Y-128973296D01*
X165631540Y-128945519D01*
X165647027Y-128944300D01*
X171786000Y-128944300D01*
X171844191Y-128963207D01*
X171880155Y-129012707D01*
X171885000Y-129043300D01*
X171885000Y-129849999D01*
X171885001Y-129850000D01*
X172512201Y-129850000D01*
X172490000Y-129932857D01*
X172490000Y-130067143D01*
X172512201Y-130150000D01*
X171885001Y-130150000D01*
X171885000Y-130150001D01*
X171885000Y-131039624D01*
X171899506Y-131112546D01*
X171899507Y-131112548D01*
X171954758Y-131195237D01*
X171954762Y-131195241D01*
X172037451Y-131250492D01*
X172037453Y-131250493D01*
X172110375Y-131264999D01*
X172110377Y-131265000D01*
X172849999Y-131265000D01*
X172850000Y-131264999D01*
X172850000Y-130487798D01*
X172932857Y-130510000D01*
X173067143Y-130510000D01*
X173150000Y-130487798D01*
X173150000Y-131264999D01*
X173150001Y-131265000D01*
X173889623Y-131265000D01*
X173889624Y-131264999D01*
X173962546Y-131250493D01*
X173962548Y-131250492D01*
X174045237Y-131195241D01*
X174045241Y-131195237D01*
X174100492Y-131112548D01*
X174100493Y-131112546D01*
X174114999Y-131039624D01*
X174115000Y-131039622D01*
X174115000Y-130150001D01*
X174114999Y-130150000D01*
X173487799Y-130150000D01*
X173510000Y-130067143D01*
X173510000Y-129932857D01*
X173487799Y-129850000D01*
X174114999Y-129850000D01*
X174115000Y-129849999D01*
X174115000Y-129043300D01*
X174133907Y-128985109D01*
X174183407Y-128949145D01*
X174214000Y-128944300D01*
X174784701Y-128944300D01*
X174842892Y-128963207D01*
X174878856Y-129012707D01*
X174878856Y-129073893D01*
X174854706Y-129113301D01*
X174758977Y-129209031D01*
X174758974Y-129209034D01*
X174648936Y-129373719D01*
X174573141Y-129556705D01*
X174573141Y-129556707D01*
X174534500Y-129750964D01*
X174534500Y-130249035D01*
X174573141Y-130443292D01*
X174573141Y-130443294D01*
X174648936Y-130626280D01*
X174648937Y-130626282D01*
X174648938Y-130626283D01*
X174758977Y-130790969D01*
X174899031Y-130931023D01*
X175063717Y-131041062D01*
X175246707Y-131116859D01*
X175440967Y-131155500D01*
X175440968Y-131155500D01*
X175639032Y-131155500D01*
X175639033Y-131155500D01*
X175833293Y-131116859D01*
X176016283Y-131041062D01*
X176180969Y-130931023D01*
X176321023Y-130790969D01*
X176382985Y-130698234D01*
X176431033Y-130660356D01*
X176492171Y-130657953D01*
X176535301Y-130683230D01*
X177356742Y-131504671D01*
X177356741Y-131504671D01*
X177410828Y-131558757D01*
X177410833Y-131558761D01*
X177477067Y-131597001D01*
X177477065Y-131597001D01*
X177477069Y-131597002D01*
X177477071Y-131597003D01*
X177550955Y-131616800D01*
X177550957Y-131616800D01*
X181159743Y-131616800D01*
X181159745Y-131616800D01*
X181233629Y-131597003D01*
X181233631Y-131597001D01*
X181233633Y-131597001D01*
X181299866Y-131558761D01*
X181299866Y-131558760D01*
X181299871Y-131558758D01*
X184632458Y-128226171D01*
X184664774Y-128170199D01*
X184670701Y-128159933D01*
X184670701Y-128159931D01*
X184670703Y-128159929D01*
X184690500Y-128086045D01*
X184690500Y-128009555D01*
X184690500Y-125602021D01*
X184709407Y-125543830D01*
X184710957Y-125541756D01*
X184712472Y-125539780D01*
X184712473Y-125539777D01*
X184712478Y-125539773D01*
X184763888Y-125450728D01*
X184790500Y-125351410D01*
X184790500Y-125351402D01*
X184790824Y-125348943D01*
X184791592Y-125347332D01*
X184792179Y-125345142D01*
X184792584Y-125345250D01*
X184817161Y-125293716D01*
X184818937Y-125291892D01*
X185232458Y-124878371D01*
X185270703Y-124812129D01*
X185290500Y-124738245D01*
X185290500Y-124661755D01*
X185290500Y-121502021D01*
X185309407Y-121443830D01*
X185310957Y-121441756D01*
X185312472Y-121439780D01*
X185312473Y-121439777D01*
X185312478Y-121439773D01*
X185363888Y-121350728D01*
X185390500Y-121251410D01*
X185390500Y-121148590D01*
X185363888Y-121049272D01*
X185312478Y-120960227D01*
X185239773Y-120887522D01*
X185150728Y-120836112D01*
X185051410Y-120809500D01*
X184948590Y-120809500D01*
X184849272Y-120836112D01*
X184760227Y-120887522D01*
X184687522Y-120960227D01*
X184636112Y-121049272D01*
X184609500Y-121148590D01*
X184609500Y-121251410D01*
X184636112Y-121350728D01*
X184687522Y-121439773D01*
X184687524Y-121439775D01*
X184687527Y-121439780D01*
X184689043Y-121441756D01*
X184689638Y-121443436D01*
X184690767Y-121445392D01*
X184690404Y-121445601D01*
X184709466Y-121499432D01*
X184709500Y-121502021D01*
X184709500Y-124538663D01*
X184690593Y-124596854D01*
X184680503Y-124608667D01*
X184408144Y-124881025D01*
X184353628Y-124908802D01*
X184351069Y-124909173D01*
X184348597Y-124909498D01*
X184348590Y-124909500D01*
X184249272Y-124936112D01*
X184160227Y-124987522D01*
X184087522Y-125060227D01*
X184036112Y-125149272D01*
X184009500Y-125248590D01*
X184009500Y-125351410D01*
X184036112Y-125450728D01*
X184087522Y-125539773D01*
X184087524Y-125539775D01*
X184087527Y-125539780D01*
X184089043Y-125541756D01*
X184089638Y-125543436D01*
X184090767Y-125545392D01*
X184090404Y-125545601D01*
X184109466Y-125599432D01*
X184109500Y-125602021D01*
X184109500Y-127886462D01*
X184090593Y-127944653D01*
X184080504Y-127956466D01*
X181794504Y-130242466D01*
X181739987Y-130270243D01*
X181679555Y-130260672D01*
X181636290Y-130217407D01*
X181625500Y-130172462D01*
X181625500Y-129750968D01*
X181625499Y-129750964D01*
X181625203Y-129749476D01*
X181586859Y-129556707D01*
X181511062Y-129373717D01*
X181401023Y-129209031D01*
X181260969Y-129068977D01*
X181245718Y-129058787D01*
X181096280Y-128958936D01*
X180913293Y-128883141D01*
X180719035Y-128844500D01*
X180719033Y-128844500D01*
X180520967Y-128844500D01*
X180520964Y-128844500D01*
X180326707Y-128883141D01*
X180326705Y-128883141D01*
X180143719Y-128958936D01*
X179979034Y-129068974D01*
X179838974Y-129209034D01*
X179728936Y-129373719D01*
X179653141Y-129556705D01*
X179653141Y-129556707D01*
X179614500Y-129750964D01*
X179614500Y-130249035D01*
X179653141Y-130443292D01*
X179653141Y-130443294D01*
X179728936Y-130626280D01*
X179728937Y-130626282D01*
X179728938Y-130626283D01*
X179838977Y-130790969D01*
X179914806Y-130866798D01*
X179942582Y-130921313D01*
X179933011Y-130981745D01*
X179889746Y-131025010D01*
X179844801Y-131035800D01*
X178855199Y-131035800D01*
X178797008Y-131016893D01*
X178761044Y-130967393D01*
X178761044Y-130906207D01*
X178785193Y-130866798D01*
X178861023Y-130790969D01*
X178971062Y-130626283D01*
X179046859Y-130443293D01*
X179085500Y-130249033D01*
X179085500Y-129750967D01*
X179046859Y-129556707D01*
X178971062Y-129373717D01*
X178861023Y-129209031D01*
X178720969Y-129068977D01*
X178705718Y-129058787D01*
X178556280Y-128958936D01*
X178373293Y-128883141D01*
X178179035Y-128844500D01*
X178179033Y-128844500D01*
X177980967Y-128844500D01*
X177980964Y-128844500D01*
X177786707Y-128883141D01*
X177786705Y-128883141D01*
X177603720Y-128958936D01*
X177536595Y-129003786D01*
X177477706Y-129020393D01*
X177420303Y-128999214D01*
X177411591Y-128991473D01*
X177264618Y-128844500D01*
X176920033Y-128499914D01*
X176920031Y-128499913D01*
X176920030Y-128499912D01*
X176831639Y-128463300D01*
X176831638Y-128463300D01*
X165554238Y-128463300D01*
X165458561Y-128463300D01*
X165370169Y-128499912D01*
X162207577Y-131662504D01*
X162153060Y-131690281D01*
X162137573Y-131691500D01*
X162053742Y-131691500D01*
X161995551Y-131672593D01*
X161959587Y-131623093D01*
X161959587Y-131561907D01*
X161962278Y-131554613D01*
X161963881Y-131550739D01*
X161963888Y-131550728D01*
X161990500Y-131451410D01*
X161990500Y-131348590D01*
X161983383Y-131322029D01*
X161986584Y-131260928D01*
X161993049Y-131247294D01*
X162606301Y-130174102D01*
X162622256Y-130153216D01*
X162625080Y-130150393D01*
X162636460Y-130122917D01*
X162641964Y-130111692D01*
X162656720Y-130085872D01*
X162657223Y-130081909D01*
X162663970Y-130056503D01*
X162665500Y-130052811D01*
X162665500Y-130023075D01*
X162666290Y-130010591D01*
X162666883Y-130005923D01*
X162670040Y-129981093D01*
X162668988Y-129977234D01*
X162665500Y-129951188D01*
X162665500Y-127771991D01*
X177389500Y-127771991D01*
X177389500Y-127908008D01*
X177416036Y-128041412D01*
X177468084Y-128167069D01*
X177468090Y-128167080D01*
X177507571Y-128226166D01*
X177543654Y-128280168D01*
X177639832Y-128376346D01*
X177707256Y-128421397D01*
X177752919Y-128451909D01*
X177752930Y-128451915D01*
X177836701Y-128486613D01*
X177878589Y-128503964D01*
X178011992Y-128530500D01*
X178011993Y-128530500D01*
X178148007Y-128530500D01*
X178148008Y-128530500D01*
X178281411Y-128503964D01*
X178407074Y-128451913D01*
X178520168Y-128376346D01*
X178616346Y-128280168D01*
X178691913Y-128167074D01*
X178743964Y-128041411D01*
X178770500Y-127908008D01*
X178770500Y-127771992D01*
X178743964Y-127638589D01*
X178708229Y-127552316D01*
X178691915Y-127512930D01*
X178691909Y-127512919D01*
X178650808Y-127451408D01*
X178616346Y-127399832D01*
X178520168Y-127303654D01*
X178438780Y-127249272D01*
X178407080Y-127228090D01*
X178407069Y-127228084D01*
X178281412Y-127176036D01*
X178148008Y-127149500D01*
X178011992Y-127149500D01*
X178011991Y-127149500D01*
X177878587Y-127176036D01*
X177752930Y-127228084D01*
X177752919Y-127228090D01*
X177639832Y-127303654D01*
X177639828Y-127303657D01*
X177543657Y-127399828D01*
X177543654Y-127399832D01*
X177468090Y-127512919D01*
X177468084Y-127512930D01*
X177416036Y-127638587D01*
X177389500Y-127771991D01*
X162665500Y-127771991D01*
X162665500Y-121148590D01*
X182609500Y-121148590D01*
X182609500Y-121251410D01*
X182636112Y-121350728D01*
X182687522Y-121439773D01*
X182760227Y-121512478D01*
X182849272Y-121563888D01*
X182948590Y-121590500D01*
X182948592Y-121590500D01*
X183051408Y-121590500D01*
X183051410Y-121590500D01*
X183150728Y-121563888D01*
X183239773Y-121512478D01*
X183312478Y-121439773D01*
X183363888Y-121350728D01*
X183390500Y-121251410D01*
X183390500Y-121148590D01*
X183363888Y-121049272D01*
X183312478Y-120960227D01*
X183239773Y-120887522D01*
X183150728Y-120836112D01*
X183051410Y-120809500D01*
X182948590Y-120809500D01*
X182849272Y-120836112D01*
X182760227Y-120887522D01*
X182687522Y-120960227D01*
X182636112Y-121049272D01*
X182609500Y-121148590D01*
X162665500Y-121148590D01*
X162665500Y-121024107D01*
X162666363Y-121011065D01*
X162668669Y-120993716D01*
X162670143Y-120982619D01*
X162670142Y-120982615D01*
X162668842Y-120977737D01*
X162665500Y-120952232D01*
X162665500Y-120947189D01*
X162654516Y-120920671D01*
X162650325Y-120908303D01*
X162642928Y-120880562D01*
X162639858Y-120876552D01*
X162627008Y-120854263D01*
X162625080Y-120849607D01*
X162624063Y-120848590D01*
X162604783Y-120829309D01*
X162596174Y-120819481D01*
X162578730Y-120796691D01*
X162578727Y-120796688D01*
X162574361Y-120794161D01*
X162553966Y-120778492D01*
X162550394Y-120774921D01*
X162550389Y-120774917D01*
X162523874Y-120763934D01*
X162512158Y-120758148D01*
X159966637Y-119284425D01*
X159925751Y-119238907D01*
X159920613Y-119224370D01*
X159913889Y-119199275D01*
X159913888Y-119199274D01*
X159913888Y-119199272D01*
X159862478Y-119110227D01*
X159789773Y-119037522D01*
X159700728Y-118986112D01*
X159601410Y-118959500D01*
X159498590Y-118959500D01*
X159399272Y-118986112D01*
X159310227Y-119037522D01*
X159237522Y-119110227D01*
X159186112Y-119199272D01*
X159159500Y-119298590D01*
X159159500Y-119401410D01*
X159186112Y-119500728D01*
X159237522Y-119589773D01*
X159310227Y-119662478D01*
X159399272Y-119713888D01*
X159498590Y-119740500D01*
X159498592Y-119740500D01*
X159601411Y-119740500D01*
X159601411Y-119740499D01*
X159625437Y-119734062D01*
X159686538Y-119737263D01*
X159700663Y-119744010D01*
X162085104Y-121124476D01*
X162125989Y-121169993D01*
X162134500Y-121210152D01*
X162134500Y-129903200D01*
X162121456Y-129952318D01*
X161532178Y-130983554D01*
X161486891Y-131024697D01*
X161471848Y-131030062D01*
X161449274Y-131036111D01*
X161449272Y-131036111D01*
X161449272Y-131036112D01*
X161360227Y-131087522D01*
X161287522Y-131160227D01*
X161236112Y-131249272D01*
X161209500Y-131348590D01*
X161209500Y-131451410D01*
X161236112Y-131550728D01*
X161236114Y-131550733D01*
X161237722Y-131554613D01*
X161242523Y-131615610D01*
X161210554Y-131667779D01*
X161154027Y-131691195D01*
X161146258Y-131691500D01*
X154791527Y-131691500D01*
X154733336Y-131672593D01*
X154721523Y-131662504D01*
X154390596Y-131331577D01*
X154362819Y-131277060D01*
X154361600Y-131261573D01*
X154361600Y-121250890D01*
X155650900Y-121250890D01*
X155650900Y-121353710D01*
X155677512Y-121453028D01*
X155728922Y-121542073D01*
X155801627Y-121614778D01*
X155890672Y-121666188D01*
X155989990Y-121692800D01*
X156050774Y-121692800D01*
X156108965Y-121711707D01*
X156120778Y-121721796D01*
X156135214Y-121736232D01*
X156135213Y-121736232D01*
X156169999Y-121771017D01*
X156202868Y-121803886D01*
X156291262Y-121840500D01*
X158881941Y-121840500D01*
X158940132Y-121859407D01*
X158951944Y-121869496D01*
X158994924Y-121912475D01*
X158994927Y-121912478D01*
X159083972Y-121963888D01*
X159183290Y-121990500D01*
X159183292Y-121990500D01*
X159286108Y-121990500D01*
X159286110Y-121990500D01*
X159385428Y-121963888D01*
X159474473Y-121912478D01*
X159547178Y-121839773D01*
X159598588Y-121750728D01*
X159625200Y-121651410D01*
X159625200Y-121548590D01*
X159598588Y-121449272D01*
X159547178Y-121360227D01*
X159474473Y-121287522D01*
X159385428Y-121236112D01*
X159286110Y-121209500D01*
X159183290Y-121209500D01*
X159083972Y-121236112D01*
X159035863Y-121263888D01*
X158994924Y-121287524D01*
X158951944Y-121330504D01*
X158897427Y-121358281D01*
X158881941Y-121359500D01*
X156530900Y-121359500D01*
X156472709Y-121340593D01*
X156436745Y-121291093D01*
X156431900Y-121260500D01*
X156431900Y-121250891D01*
X156430008Y-121243830D01*
X156405288Y-121151572D01*
X156353878Y-121062527D01*
X156281173Y-120989822D01*
X156192128Y-120938412D01*
X156092810Y-120911800D01*
X155989990Y-120911800D01*
X155890672Y-120938412D01*
X155801627Y-120989822D01*
X155728922Y-121062527D01*
X155677512Y-121151572D01*
X155650900Y-121250890D01*
X154361600Y-121250890D01*
X154361600Y-118582026D01*
X154380507Y-118523835D01*
X154390596Y-118512022D01*
X156998896Y-115903722D01*
X157053413Y-115875945D01*
X157113845Y-115885516D01*
X157157110Y-115928781D01*
X157167900Y-115973726D01*
X157167900Y-116137761D01*
X157167900Y-116233439D01*
X157170524Y-116239773D01*
X157204512Y-116321830D01*
X157204513Y-116321831D01*
X157204514Y-116321833D01*
X159268914Y-118386232D01*
X159268913Y-118386232D01*
X159302801Y-118420119D01*
X159336568Y-118453886D01*
X159423204Y-118489772D01*
X159429448Y-118492358D01*
X159461566Y-118513818D01*
X159488248Y-118540499D01*
X159510227Y-118562478D01*
X159599272Y-118613888D01*
X159698590Y-118640500D01*
X159698592Y-118640500D01*
X159801408Y-118640500D01*
X159801410Y-118640500D01*
X159900728Y-118613888D01*
X159989773Y-118562478D01*
X160062478Y-118489773D01*
X160113888Y-118400728D01*
X160140500Y-118301410D01*
X160140500Y-118198590D01*
X160113888Y-118099272D01*
X160062478Y-118010227D01*
X159989773Y-117937522D01*
X159900728Y-117886112D01*
X159801410Y-117859500D01*
X159698590Y-117859500D01*
X159599272Y-117886112D01*
X159569808Y-117903122D01*
X159509963Y-117915843D01*
X159454067Y-117890956D01*
X159450307Y-117887389D01*
X158579262Y-117016344D01*
X158511508Y-116948590D01*
X159209500Y-116948590D01*
X159209500Y-117051410D01*
X159236112Y-117150728D01*
X159287522Y-117239773D01*
X159360227Y-117312478D01*
X159449272Y-117363888D01*
X159548590Y-117390500D01*
X159548592Y-117390500D01*
X159651408Y-117390500D01*
X159651410Y-117390500D01*
X159750728Y-117363888D01*
X159839773Y-117312478D01*
X159869497Y-117282754D01*
X159882756Y-117269496D01*
X159937273Y-117241719D01*
X159952759Y-117240500D01*
X160510500Y-117240500D01*
X160568691Y-117259407D01*
X160604655Y-117308907D01*
X160609500Y-117339500D01*
X160609500Y-118697241D01*
X160590593Y-118755432D01*
X160580504Y-118767244D01*
X160537524Y-118810224D01*
X160537522Y-118810226D01*
X160537522Y-118810227D01*
X160486112Y-118899272D01*
X160459500Y-118998590D01*
X160459500Y-119101410D01*
X160486112Y-119200728D01*
X160537522Y-119289773D01*
X160610227Y-119362478D01*
X160699272Y-119413888D01*
X160798590Y-119440500D01*
X160798592Y-119440500D01*
X160901408Y-119440500D01*
X160901410Y-119440500D01*
X161000728Y-119413888D01*
X161089773Y-119362478D01*
X161162478Y-119289773D01*
X161213888Y-119200728D01*
X161240500Y-119101410D01*
X161240500Y-118998590D01*
X161213888Y-118899272D01*
X161162478Y-118810227D01*
X161148469Y-118796218D01*
X161119496Y-118767244D01*
X161091719Y-118712727D01*
X161090500Y-118697241D01*
X161090500Y-116952162D01*
X161053887Y-116863770D01*
X161053886Y-116863769D01*
X161053886Y-116863768D01*
X160986232Y-116796114D01*
X160986230Y-116796113D01*
X160986229Y-116796112D01*
X160897838Y-116759500D01*
X159952759Y-116759500D01*
X159894568Y-116740593D01*
X159882756Y-116730504D01*
X159839775Y-116687524D01*
X159839773Y-116687522D01*
X159750728Y-116636112D01*
X159651410Y-116609500D01*
X159548590Y-116609500D01*
X159449272Y-116636112D01*
X159360227Y-116687522D01*
X159287522Y-116760227D01*
X159236112Y-116849272D01*
X159209500Y-116948590D01*
X158511508Y-116948590D01*
X157677896Y-116114977D01*
X157650119Y-116060460D01*
X157648900Y-116044973D01*
X157648900Y-106848062D01*
X157648681Y-106847532D01*
X157648681Y-106847531D01*
X157612287Y-106759669D01*
X157612286Y-106759668D01*
X157612286Y-106759667D01*
X156749730Y-105897111D01*
X156721953Y-105842594D01*
X156731524Y-105782162D01*
X156770232Y-105741372D01*
X156837773Y-105702378D01*
X156849615Y-105690536D01*
X156880756Y-105659396D01*
X156935273Y-105631619D01*
X156950759Y-105630400D01*
X157965173Y-105630400D01*
X158023364Y-105649307D01*
X158035177Y-105659396D01*
X165066704Y-112690922D01*
X165094481Y-112745439D01*
X165095700Y-112760926D01*
X165095700Y-112821710D01*
X165122312Y-112921028D01*
X165173722Y-113010073D01*
X165246427Y-113082778D01*
X165335472Y-113134188D01*
X165434790Y-113160800D01*
X165434792Y-113160800D01*
X165537608Y-113160800D01*
X165537610Y-113160800D01*
X165634878Y-113134737D01*
X165695979Y-113137940D01*
X165743528Y-113176445D01*
X165759500Y-113230364D01*
X165759500Y-119460500D01*
X165740593Y-119518691D01*
X165691093Y-119554655D01*
X165660500Y-119559500D01*
X165652759Y-119559500D01*
X165594568Y-119540593D01*
X165582756Y-119530504D01*
X165539775Y-119487524D01*
X165539773Y-119487522D01*
X165450728Y-119436112D01*
X165351410Y-119409500D01*
X165248590Y-119409500D01*
X165149272Y-119436112D01*
X165060227Y-119487522D01*
X164987522Y-119560227D01*
X164936112Y-119649272D01*
X164909500Y-119748590D01*
X164909500Y-119851410D01*
X164936112Y-119950728D01*
X164987522Y-120039773D01*
X165060227Y-120112478D01*
X165149272Y-120163888D01*
X165248590Y-120190500D01*
X165248592Y-120190500D01*
X165351408Y-120190500D01*
X165351410Y-120190500D01*
X165450728Y-120163888D01*
X165539773Y-120112478D01*
X165568476Y-120083775D01*
X165582756Y-120069496D01*
X165637273Y-120041719D01*
X165652759Y-120040500D01*
X166047838Y-120040500D01*
X166136232Y-120003886D01*
X166203886Y-119936232D01*
X166240500Y-119847838D01*
X166240500Y-111348590D01*
X166909500Y-111348590D01*
X166909500Y-111451410D01*
X166936112Y-111550728D01*
X166987522Y-111639773D01*
X167060227Y-111712478D01*
X167149272Y-111763888D01*
X167248590Y-111790500D01*
X167248592Y-111790500D01*
X167351408Y-111790500D01*
X167351410Y-111790500D01*
X167450074Y-111764063D01*
X167511172Y-111767265D01*
X167518257Y-111770307D01*
X168420633Y-112200010D01*
X171077169Y-113465027D01*
X171121579Y-113507116D01*
X171130232Y-113528786D01*
X171136111Y-113550727D01*
X171136113Y-113550731D01*
X171166532Y-113603418D01*
X171187522Y-113639773D01*
X171260227Y-113712478D01*
X171349272Y-113763888D01*
X171448590Y-113790500D01*
X171448592Y-113790500D01*
X171551408Y-113790500D01*
X171551410Y-113790500D01*
X171650728Y-113763888D01*
X171739773Y-113712478D01*
X171812478Y-113639773D01*
X171863888Y-113550728D01*
X171877835Y-113498674D01*
X171911157Y-113447362D01*
X171968278Y-113425434D01*
X172027379Y-113441269D01*
X172043465Y-113454294D01*
X175450129Y-116860958D01*
X175450131Y-116860959D01*
X175450132Y-116860960D01*
X175450133Y-116860961D01*
X175516367Y-116899201D01*
X175516365Y-116899201D01*
X175516369Y-116899202D01*
X175516371Y-116899203D01*
X175590255Y-116919000D01*
X175590257Y-116919000D01*
X176935243Y-116919000D01*
X176935245Y-116919000D01*
X177009129Y-116899203D01*
X177009131Y-116899201D01*
X177009133Y-116899201D01*
X177075366Y-116860961D01*
X177075366Y-116860960D01*
X177075371Y-116860958D01*
X178910498Y-115025830D01*
X178965013Y-114998055D01*
X179025445Y-115007626D01*
X179068710Y-115050891D01*
X179079500Y-115095836D01*
X179079500Y-115466181D01*
X179060593Y-115524372D01*
X179052874Y-115533730D01*
X178036838Y-116622339D01*
X178036834Y-116622344D01*
X178027002Y-116632880D01*
X177996114Y-116663768D01*
X177994470Y-116667734D01*
X177991540Y-116670875D01*
X177976216Y-116711804D01*
X177959500Y-116752162D01*
X177959500Y-116756455D01*
X177957994Y-116760478D01*
X177959500Y-116804141D01*
X177959500Y-116818511D01*
X177959500Y-119247241D01*
X177940593Y-119305432D01*
X177930504Y-119317244D01*
X177887524Y-119360224D01*
X177887522Y-119360226D01*
X177887522Y-119360227D01*
X177836112Y-119449272D01*
X177809500Y-119548590D01*
X177809500Y-119651410D01*
X177836112Y-119750728D01*
X177887522Y-119839773D01*
X177960227Y-119912478D01*
X178049272Y-119963888D01*
X178148590Y-119990500D01*
X178148592Y-119990500D01*
X178251408Y-119990500D01*
X178251410Y-119990500D01*
X178350728Y-119963888D01*
X178439773Y-119912478D01*
X178512478Y-119839773D01*
X178563888Y-119750728D01*
X178590500Y-119651410D01*
X178590500Y-119548590D01*
X178563888Y-119449272D01*
X178512478Y-119360227D01*
X178492242Y-119339991D01*
X178469496Y-119317244D01*
X178441719Y-119262727D01*
X178440500Y-119247241D01*
X178440500Y-118131758D01*
X178459407Y-118073567D01*
X178508907Y-118037603D01*
X178570093Y-118037603D01*
X178609501Y-118061752D01*
X178660227Y-118112478D01*
X178749272Y-118163888D01*
X178848590Y-118190500D01*
X178848592Y-118190500D01*
X178951408Y-118190500D01*
X178951410Y-118190500D01*
X179050728Y-118163888D01*
X179139773Y-118112478D01*
X179212478Y-118039773D01*
X179263888Y-117950728D01*
X179290500Y-117851410D01*
X179290500Y-117851402D01*
X179290824Y-117848943D01*
X179291592Y-117847332D01*
X179292179Y-117845142D01*
X179292584Y-117845250D01*
X179317161Y-117793716D01*
X179318937Y-117791892D01*
X180132458Y-116978371D01*
X180134627Y-116974614D01*
X180170703Y-116912129D01*
X180190500Y-116838245D01*
X180190500Y-114752021D01*
X180209407Y-114693830D01*
X180210957Y-114691756D01*
X180212474Y-114689778D01*
X180212475Y-114689775D01*
X180212478Y-114689773D01*
X180214263Y-114686680D01*
X180216165Y-114684968D01*
X180216427Y-114684627D01*
X180216490Y-114684675D01*
X180259730Y-114645740D01*
X180320579Y-114639342D01*
X180373569Y-114669932D01*
X180385735Y-114686678D01*
X180387273Y-114689342D01*
X180387525Y-114689778D01*
X180389043Y-114691756D01*
X180389639Y-114693439D01*
X180390768Y-114695395D01*
X180390405Y-114695604D01*
X180409466Y-114749432D01*
X180409500Y-114752021D01*
X180409500Y-115462055D01*
X180409500Y-115538545D01*
X180424817Y-115595708D01*
X180429298Y-115612433D01*
X180467538Y-115678666D01*
X180467539Y-115678667D01*
X180467540Y-115678668D01*
X180467542Y-115678671D01*
X182367242Y-117578371D01*
X182367241Y-117578371D01*
X182421328Y-117632457D01*
X182421333Y-117632461D01*
X182487567Y-117670701D01*
X182487565Y-117670701D01*
X182487569Y-117670702D01*
X182487571Y-117670703D01*
X182561455Y-117690500D01*
X182637946Y-117690500D01*
X183697979Y-117690500D01*
X183756170Y-117709407D01*
X183758244Y-117710957D01*
X183760219Y-117712472D01*
X183760223Y-117712474D01*
X183760227Y-117712478D01*
X183849272Y-117763888D01*
X183948590Y-117790500D01*
X183948592Y-117790500D01*
X184051408Y-117790500D01*
X184051410Y-117790500D01*
X184150728Y-117763888D01*
X184239773Y-117712478D01*
X184312478Y-117639773D01*
X184363888Y-117550728D01*
X184390500Y-117451410D01*
X184390500Y-117348590D01*
X184363888Y-117249272D01*
X184312478Y-117160227D01*
X184312475Y-117160224D01*
X184309233Y-117154608D01*
X184311857Y-117153092D01*
X184295561Y-117107222D01*
X184312878Y-117048538D01*
X184356639Y-117013064D01*
X184425255Y-116984642D01*
X184548093Y-116902565D01*
X184652565Y-116798093D01*
X184734641Y-116675257D01*
X184791177Y-116538767D01*
X184804857Y-116470000D01*
X184329808Y-116470000D01*
X184349556Y-116435796D01*
X184370000Y-116359496D01*
X184370000Y-116280504D01*
X184349556Y-116204204D01*
X184329808Y-116170000D01*
X184804857Y-116170000D01*
X186665143Y-116170000D01*
X187140192Y-116170000D01*
X187120444Y-116204204D01*
X187100000Y-116280504D01*
X187100000Y-116359496D01*
X187120444Y-116435796D01*
X187140192Y-116470000D01*
X186665143Y-116470000D01*
X186678822Y-116538767D01*
X186735358Y-116675257D01*
X186817434Y-116798093D01*
X186921906Y-116902565D01*
X187044742Y-116984641D01*
X187181229Y-117041176D01*
X187181235Y-117041178D01*
X187326128Y-117069999D01*
X187326132Y-117070000D01*
X187549999Y-117070000D01*
X187550000Y-117069999D01*
X187550000Y-116620000D01*
X187850000Y-116620000D01*
X187850000Y-117069999D01*
X187850001Y-117070000D01*
X188073868Y-117070000D01*
X188073871Y-117069999D01*
X188218764Y-117041178D01*
X188218770Y-117041176D01*
X188355257Y-116984641D01*
X188478093Y-116902565D01*
X188582565Y-116798093D01*
X188664641Y-116675257D01*
X188721177Y-116538767D01*
X188734857Y-116470000D01*
X188259808Y-116470000D01*
X188279556Y-116435796D01*
X188300000Y-116359496D01*
X188300000Y-116280504D01*
X188279556Y-116204204D01*
X188259808Y-116170000D01*
X188734857Y-116170000D01*
X188721177Y-116101232D01*
X188664641Y-115964742D01*
X188582565Y-115841906D01*
X188478093Y-115737434D01*
X188355257Y-115655358D01*
X188218770Y-115598823D01*
X188218764Y-115598821D01*
X188073871Y-115570000D01*
X187850001Y-115570000D01*
X187850000Y-115570001D01*
X187850000Y-116020000D01*
X187550000Y-116020000D01*
X187550000Y-115570001D01*
X187549999Y-115570000D01*
X187326128Y-115570000D01*
X187181235Y-115598821D01*
X187181229Y-115598823D01*
X187044742Y-115655358D01*
X186921906Y-115737434D01*
X186817434Y-115841906D01*
X186735358Y-115964742D01*
X186678822Y-116101232D01*
X186665143Y-116170000D01*
X184804857Y-116170000D01*
X184791177Y-116101232D01*
X184734641Y-115964742D01*
X184652565Y-115841906D01*
X184548093Y-115737434D01*
X184425257Y-115655358D01*
X184288770Y-115598823D01*
X184288764Y-115598821D01*
X184143871Y-115570000D01*
X183670001Y-115570000D01*
X183670000Y-115570001D01*
X183670000Y-116020000D01*
X183370000Y-116020000D01*
X183370000Y-115570001D01*
X183369999Y-115570000D01*
X182896128Y-115570000D01*
X182751235Y-115598821D01*
X182751229Y-115598823D01*
X182614742Y-115655358D01*
X182491906Y-115737434D01*
X182387434Y-115841906D01*
X182305358Y-115964742D01*
X182248822Y-116101232D01*
X182235143Y-116170000D01*
X182710192Y-116170000D01*
X182690444Y-116204204D01*
X182670000Y-116280504D01*
X182670000Y-116359496D01*
X182690444Y-116435796D01*
X182710192Y-116470000D01*
X182235142Y-116470000D01*
X182234743Y-116470486D01*
X182183211Y-116503472D01*
X182122131Y-116499869D01*
X182088212Y-116477683D01*
X181019496Y-115408967D01*
X180991719Y-115354450D01*
X180990500Y-115338963D01*
X180990500Y-114828716D01*
X183584500Y-114828716D01*
X183584500Y-114951284D01*
X183616223Y-115069676D01*
X183677507Y-115175824D01*
X183764176Y-115262493D01*
X183870324Y-115323777D01*
X183988716Y-115355500D01*
X183988718Y-115355500D01*
X184111282Y-115355500D01*
X184111284Y-115355500D01*
X184229676Y-115323777D01*
X184335824Y-115262493D01*
X184422493Y-115175824D01*
X184483777Y-115069676D01*
X184515500Y-114951284D01*
X184515500Y-114828716D01*
X184483777Y-114710324D01*
X184422493Y-114604176D01*
X184335824Y-114517507D01*
X184229676Y-114456223D01*
X184111284Y-114424500D01*
X183988716Y-114424500D01*
X183870324Y-114456223D01*
X183764176Y-114517507D01*
X183677507Y-114604176D01*
X183616223Y-114710324D01*
X183584500Y-114828716D01*
X180990500Y-114828716D01*
X180990500Y-114752021D01*
X181009407Y-114693830D01*
X181010957Y-114691756D01*
X181012472Y-114689780D01*
X181012473Y-114689777D01*
X181012478Y-114689773D01*
X181063888Y-114600728D01*
X181090500Y-114501410D01*
X181090500Y-114398590D01*
X181063888Y-114299272D01*
X181012478Y-114210227D01*
X180939773Y-114137522D01*
X180850728Y-114086112D01*
X180751410Y-114059500D01*
X180671701Y-114059500D01*
X180613510Y-114040593D01*
X180577546Y-113991093D01*
X180577546Y-113929907D01*
X180580237Y-113922615D01*
X180590500Y-113897838D01*
X180590500Y-112702758D01*
X180609407Y-112644567D01*
X180619490Y-112632760D01*
X180662478Y-112589773D01*
X180713888Y-112500728D01*
X180740500Y-112401410D01*
X180740500Y-112298590D01*
X180713888Y-112199272D01*
X180707680Y-112188520D01*
X180704433Y-112182895D01*
X180691711Y-112123047D01*
X180716598Y-112067151D01*
X180769586Y-112036558D01*
X180830436Y-112042954D01*
X180860173Y-112063391D01*
X180930504Y-112133722D01*
X180958281Y-112188239D01*
X180959500Y-112203726D01*
X180959500Y-112547241D01*
X180940593Y-112605432D01*
X180930504Y-112617244D01*
X180887524Y-112660224D01*
X180887522Y-112660226D01*
X180887522Y-112660227D01*
X180836112Y-112749272D01*
X180809500Y-112848590D01*
X180809500Y-112951410D01*
X180836112Y-113050728D01*
X180887522Y-113139773D01*
X180960227Y-113212478D01*
X181049272Y-113263888D01*
X181148590Y-113290500D01*
X181148592Y-113290500D01*
X181251408Y-113290500D01*
X181251410Y-113290500D01*
X181350728Y-113263888D01*
X181439773Y-113212478D01*
X181512478Y-113139773D01*
X181563888Y-113050728D01*
X181590500Y-112951410D01*
X181590500Y-112848590D01*
X181563888Y-112749272D01*
X181512478Y-112660227D01*
X181496818Y-112644567D01*
X181469496Y-112617244D01*
X181441719Y-112562727D01*
X181440500Y-112547241D01*
X181440500Y-112015262D01*
X181403886Y-111926868D01*
X181336232Y-111859213D01*
X181336232Y-111859214D01*
X180323133Y-110846114D01*
X180323131Y-110846113D01*
X180323129Y-110846111D01*
X180311876Y-110841450D01*
X180265351Y-110801713D01*
X180251068Y-110742218D01*
X180262012Y-110706973D01*
X180261405Y-110706722D01*
X180263883Y-110700735D01*
X180263888Y-110700728D01*
X180290500Y-110601410D01*
X180290500Y-110498590D01*
X180263888Y-110399272D01*
X180212478Y-110310227D01*
X180139773Y-110237522D01*
X180050728Y-110186112D01*
X179951410Y-110159500D01*
X179848590Y-110159500D01*
X179749272Y-110186112D01*
X179662670Y-110236112D01*
X179660224Y-110237524D01*
X179617244Y-110280504D01*
X179562727Y-110308281D01*
X179547241Y-110309500D01*
X179214326Y-110309500D01*
X179156135Y-110290593D01*
X179144322Y-110280504D01*
X178882266Y-110018448D01*
X178854489Y-109963931D01*
X178864060Y-109903499D01*
X178902767Y-109862710D01*
X178989773Y-109812478D01*
X179062478Y-109739773D01*
X179113888Y-109650728D01*
X179140500Y-109551410D01*
X179140500Y-109498590D01*
X179509500Y-109498590D01*
X179509500Y-109601410D01*
X179536112Y-109700728D01*
X179587522Y-109789773D01*
X179660227Y-109862478D01*
X179749272Y-109913888D01*
X179848590Y-109940500D01*
X179848592Y-109940500D01*
X179951408Y-109940500D01*
X179951410Y-109940500D01*
X180050728Y-109913888D01*
X180139773Y-109862478D01*
X180212478Y-109789773D01*
X180214263Y-109786680D01*
X180216165Y-109784968D01*
X180216427Y-109784627D01*
X180216490Y-109784675D01*
X180259730Y-109745740D01*
X180320579Y-109739342D01*
X180373569Y-109769932D01*
X180385735Y-109786678D01*
X180387522Y-109789773D01*
X180460227Y-109862478D01*
X180549272Y-109913888D01*
X180648590Y-109940500D01*
X180648592Y-109940500D01*
X180751408Y-109940500D01*
X180751410Y-109940500D01*
X180850728Y-109913888D01*
X180939773Y-109862478D01*
X181012478Y-109789773D01*
X181063888Y-109700728D01*
X181090500Y-109601410D01*
X181090500Y-109498590D01*
X181063888Y-109399272D01*
X181012478Y-109310227D01*
X180939773Y-109237522D01*
X180850728Y-109186112D01*
X180751410Y-109159500D01*
X180648590Y-109159500D01*
X180580383Y-109177776D01*
X180549272Y-109186112D01*
X180460227Y-109237522D01*
X180387521Y-109310228D01*
X180385736Y-109313321D01*
X180383832Y-109315035D01*
X180383573Y-109315373D01*
X180383510Y-109315324D01*
X180340266Y-109354261D01*
X180279416Y-109360656D01*
X180226428Y-109330063D01*
X180214264Y-109313321D01*
X180212478Y-109310227D01*
X180139773Y-109237522D01*
X180050728Y-109186112D01*
X179951410Y-109159500D01*
X179848590Y-109159500D01*
X179749272Y-109186112D01*
X179660227Y-109237522D01*
X179587522Y-109310227D01*
X179536112Y-109399272D01*
X179509500Y-109498590D01*
X179140500Y-109498590D01*
X179140500Y-109448590D01*
X179113888Y-109349272D01*
X179062478Y-109260227D01*
X178989773Y-109187522D01*
X178900728Y-109136112D01*
X178811575Y-109112223D01*
X178760262Y-109078899D01*
X178738336Y-109021778D01*
X178738200Y-109016597D01*
X178738200Y-107698590D01*
X179729500Y-107698590D01*
X179729500Y-107801410D01*
X179756112Y-107900728D01*
X179807522Y-107989773D01*
X179880227Y-108062478D01*
X179969272Y-108113888D01*
X180068590Y-108140500D01*
X180129373Y-108140500D01*
X180187564Y-108159407D01*
X180199377Y-108169496D01*
X181272204Y-109242322D01*
X181299981Y-109296839D01*
X181301200Y-109312326D01*
X181301200Y-110110500D01*
X181282293Y-110168691D01*
X181232793Y-110204655D01*
X181202200Y-110209500D01*
X181148590Y-110209500D01*
X181049272Y-110236112D01*
X180960227Y-110287522D01*
X180887522Y-110360227D01*
X180836112Y-110449272D01*
X180809500Y-110548590D01*
X180809500Y-110651410D01*
X180836112Y-110750728D01*
X180887522Y-110839773D01*
X180960227Y-110912478D01*
X181049272Y-110963888D01*
X181148590Y-110990500D01*
X181148592Y-110990500D01*
X181251408Y-110990500D01*
X181251410Y-110990500D01*
X181350728Y-110963888D01*
X181439773Y-110912478D01*
X181512478Y-110839773D01*
X181563888Y-110750728D01*
X181590500Y-110651410D01*
X181590500Y-110590625D01*
X181609407Y-110532434D01*
X181619490Y-110520627D01*
X181745586Y-110394532D01*
X181782200Y-110306138D01*
X181782200Y-110210461D01*
X181782200Y-109123862D01*
X181751074Y-109048716D01*
X183584500Y-109048716D01*
X183584500Y-109171284D01*
X183616223Y-109289676D01*
X183677507Y-109395824D01*
X183764176Y-109482493D01*
X183870324Y-109543777D01*
X183988716Y-109575500D01*
X183988718Y-109575500D01*
X184111282Y-109575500D01*
X184111284Y-109575500D01*
X184229676Y-109543777D01*
X184335824Y-109482493D01*
X184422493Y-109395824D01*
X184483777Y-109289676D01*
X184515500Y-109171284D01*
X184515500Y-109048716D01*
X184483777Y-108930324D01*
X184422493Y-108824176D01*
X184335824Y-108737507D01*
X184229676Y-108676223D01*
X184111284Y-108644500D01*
X183988716Y-108644500D01*
X183870324Y-108676223D01*
X183764176Y-108737507D01*
X183677507Y-108824176D01*
X183616223Y-108930324D01*
X183584500Y-109048716D01*
X181751074Y-109048716D01*
X181745586Y-109035468D01*
X181721023Y-109010905D01*
X181677932Y-108967813D01*
X181677932Y-108967814D01*
X180583514Y-107873395D01*
X180539496Y-107829377D01*
X180511719Y-107774860D01*
X180510500Y-107759373D01*
X180510500Y-107698591D01*
X180507467Y-107687271D01*
X180483888Y-107599272D01*
X180443894Y-107530000D01*
X182235143Y-107530000D01*
X182710192Y-107530000D01*
X182690444Y-107564204D01*
X182670000Y-107640504D01*
X182670000Y-107719496D01*
X182690444Y-107795796D01*
X182710192Y-107830000D01*
X182235143Y-107830000D01*
X182248822Y-107898767D01*
X182305358Y-108035257D01*
X182387434Y-108158093D01*
X182491906Y-108262565D01*
X182614742Y-108344641D01*
X182751229Y-108401176D01*
X182751235Y-108401178D01*
X182896128Y-108429999D01*
X182896132Y-108430000D01*
X183369999Y-108430000D01*
X183370000Y-108429999D01*
X183370000Y-107980000D01*
X183670000Y-107980000D01*
X183670000Y-108429999D01*
X183670001Y-108430000D01*
X184143868Y-108430000D01*
X184143871Y-108429999D01*
X184288764Y-108401178D01*
X184288770Y-108401176D01*
X184425257Y-108344641D01*
X184548093Y-108262565D01*
X184652565Y-108158093D01*
X184734641Y-108035257D01*
X184791177Y-107898767D01*
X184804857Y-107830000D01*
X184329808Y-107830000D01*
X184349556Y-107795796D01*
X184370000Y-107719496D01*
X184370000Y-107640504D01*
X184349556Y-107564204D01*
X184329808Y-107530000D01*
X184804857Y-107530000D01*
X186665143Y-107530000D01*
X187140192Y-107530000D01*
X187120444Y-107564204D01*
X187100000Y-107640504D01*
X187100000Y-107719496D01*
X187120444Y-107795796D01*
X187140192Y-107830000D01*
X186665143Y-107830000D01*
X186678822Y-107898767D01*
X186735358Y-108035257D01*
X186817434Y-108158093D01*
X186921906Y-108262565D01*
X187044742Y-108344641D01*
X187181229Y-108401176D01*
X187181235Y-108401178D01*
X187326128Y-108429999D01*
X187326132Y-108430000D01*
X187549999Y-108430000D01*
X187550000Y-108429999D01*
X187550000Y-107980000D01*
X187850000Y-107980000D01*
X187850000Y-108429999D01*
X187850001Y-108430000D01*
X188073868Y-108430000D01*
X188073871Y-108429999D01*
X188218764Y-108401178D01*
X188218770Y-108401176D01*
X188355257Y-108344641D01*
X188478093Y-108262565D01*
X188582565Y-108158093D01*
X188664641Y-108035257D01*
X188721177Y-107898767D01*
X188734857Y-107830000D01*
X188259808Y-107830000D01*
X188279556Y-107795796D01*
X188300000Y-107719496D01*
X188300000Y-107640504D01*
X188279556Y-107564204D01*
X188259808Y-107530000D01*
X188734857Y-107530000D01*
X188721177Y-107461232D01*
X188664641Y-107324742D01*
X188582565Y-107201906D01*
X188478093Y-107097434D01*
X188355257Y-107015358D01*
X188218770Y-106958823D01*
X188218764Y-106958821D01*
X188073871Y-106930000D01*
X187850001Y-106930000D01*
X187850000Y-106930001D01*
X187850000Y-107380000D01*
X187550000Y-107380000D01*
X187550000Y-106930001D01*
X187549999Y-106930000D01*
X187326128Y-106930000D01*
X187181235Y-106958821D01*
X187181229Y-106958823D01*
X187044742Y-107015358D01*
X186921906Y-107097434D01*
X186817434Y-107201906D01*
X186735358Y-107324742D01*
X186678822Y-107461232D01*
X186665143Y-107530000D01*
X184804857Y-107530000D01*
X184791177Y-107461232D01*
X184734641Y-107324742D01*
X184652565Y-107201906D01*
X184548093Y-107097434D01*
X184425257Y-107015358D01*
X184288770Y-106958823D01*
X184288764Y-106958821D01*
X184143871Y-106930000D01*
X183670001Y-106930000D01*
X183670000Y-106930001D01*
X183670000Y-107380000D01*
X183370000Y-107380000D01*
X183370000Y-106930001D01*
X183369999Y-106930000D01*
X182896128Y-106930000D01*
X182751235Y-106958821D01*
X182751229Y-106958823D01*
X182614742Y-107015358D01*
X182491906Y-107097434D01*
X182387434Y-107201906D01*
X182305358Y-107324742D01*
X182248822Y-107461232D01*
X182235143Y-107530000D01*
X180443894Y-107530000D01*
X180432478Y-107510227D01*
X180359773Y-107437522D01*
X180270728Y-107386112D01*
X180171410Y-107359500D01*
X180068590Y-107359500D01*
X179969272Y-107386112D01*
X179880227Y-107437522D01*
X179807522Y-107510227D01*
X179756112Y-107599272D01*
X179729500Y-107698590D01*
X178738200Y-107698590D01*
X178738200Y-101728278D01*
X178757107Y-101670087D01*
X178787698Y-101642542D01*
X178839773Y-101612478D01*
X178912478Y-101539773D01*
X178963888Y-101450728D01*
X178990500Y-101351410D01*
X178990500Y-101248590D01*
X178963888Y-101149272D01*
X178912478Y-101060227D01*
X178839773Y-100987522D01*
X178750728Y-100936112D01*
X178651410Y-100909500D01*
X178651408Y-100909500D01*
X178648932Y-100909174D01*
X178647317Y-100908404D01*
X178645142Y-100907821D01*
X178645250Y-100907417D01*
X178593708Y-100882831D01*
X178591890Y-100881061D01*
X178578371Y-100867542D01*
X178578368Y-100867540D01*
X178578366Y-100867538D01*
X178512132Y-100829298D01*
X178512134Y-100829298D01*
X178483465Y-100821616D01*
X178438245Y-100809500D01*
X178438243Y-100809500D01*
X171502021Y-100809500D01*
X171443830Y-100790593D01*
X171441756Y-100789043D01*
X171439780Y-100787527D01*
X171439775Y-100787524D01*
X171439773Y-100787522D01*
X171350728Y-100736112D01*
X171251410Y-100709500D01*
X171148590Y-100709500D01*
X171049272Y-100736112D01*
X170960227Y-100787522D01*
X170887522Y-100860227D01*
X170836112Y-100949272D01*
X170809500Y-101048590D01*
X170809500Y-101151410D01*
X170836112Y-101250728D01*
X170887522Y-101339773D01*
X170960227Y-101412478D01*
X171049272Y-101463888D01*
X171148590Y-101490500D01*
X171148592Y-101490500D01*
X171251408Y-101490500D01*
X171251410Y-101490500D01*
X171350728Y-101463888D01*
X171439773Y-101412478D01*
X171439777Y-101412473D01*
X171439780Y-101412472D01*
X171441756Y-101410957D01*
X171443436Y-101410361D01*
X171445392Y-101409233D01*
X171445601Y-101409595D01*
X171499432Y-101390534D01*
X171502021Y-101390500D01*
X178058200Y-101390500D01*
X178116391Y-101409407D01*
X178152355Y-101458907D01*
X178157200Y-101489500D01*
X178157200Y-107709473D01*
X178138293Y-107767664D01*
X178088793Y-107803628D01*
X178027607Y-107803628D01*
X177988196Y-107779477D01*
X174352105Y-104143386D01*
X174342504Y-104131685D01*
X174273332Y-104062513D01*
X174273332Y-104062514D01*
X173175033Y-102964214D01*
X173175031Y-102964213D01*
X173173513Y-102962695D01*
X173161812Y-102953093D01*
X172641015Y-102432296D01*
X172089733Y-101881014D01*
X172089731Y-101881013D01*
X172089730Y-101881012D01*
X172001339Y-101844400D01*
X172001338Y-101844400D01*
X170713559Y-101844400D01*
X170655368Y-101825493D01*
X170643556Y-101815404D01*
X170600575Y-101772424D01*
X170600573Y-101772422D01*
X170511528Y-101721012D01*
X170412210Y-101694400D01*
X170309390Y-101694400D01*
X170210072Y-101721012D01*
X170121027Y-101772422D01*
X170048322Y-101845127D01*
X169996912Y-101934172D01*
X169973333Y-102022173D01*
X169970300Y-102033491D01*
X169970300Y-102136312D01*
X169976088Y-102157914D01*
X169972885Y-102219016D01*
X169934378Y-102266565D01*
X169875277Y-102282399D01*
X169818156Y-102260471D01*
X169810462Y-102253543D01*
X169224596Y-101667677D01*
X169196819Y-101613160D01*
X169195600Y-101597673D01*
X169195600Y-101536891D01*
X169185651Y-101499761D01*
X169168988Y-101437572D01*
X169117578Y-101348527D01*
X169044873Y-101275822D01*
X168955828Y-101224412D01*
X168856510Y-101197800D01*
X168753690Y-101197800D01*
X168654372Y-101224412D01*
X168565327Y-101275822D01*
X168492622Y-101348527D01*
X168441212Y-101437572D01*
X168414600Y-101536890D01*
X168414600Y-101639710D01*
X168441212Y-101739028D01*
X168492622Y-101828073D01*
X168565327Y-101900778D01*
X168654372Y-101952188D01*
X168753690Y-101978800D01*
X168814473Y-101978800D01*
X168872664Y-101997707D01*
X168884477Y-102007796D01*
X170328868Y-103452186D01*
X170417262Y-103488800D01*
X170512939Y-103488800D01*
X172473073Y-103488800D01*
X172531264Y-103507707D01*
X172543077Y-103517796D01*
X173930504Y-104905223D01*
X173958281Y-104959740D01*
X173959500Y-104975227D01*
X173959500Y-105447241D01*
X173940593Y-105505432D01*
X173930504Y-105517244D01*
X173887524Y-105560224D01*
X173887522Y-105560226D01*
X173887522Y-105560227D01*
X173836112Y-105649272D01*
X173809500Y-105748590D01*
X173809500Y-105851410D01*
X173836112Y-105950728D01*
X173887522Y-106039773D01*
X173960227Y-106112478D01*
X174049272Y-106163888D01*
X174148590Y-106190500D01*
X174148592Y-106190500D01*
X174251408Y-106190500D01*
X174251410Y-106190500D01*
X174350728Y-106163888D01*
X174439773Y-106112478D01*
X174512478Y-106039773D01*
X174563888Y-105950728D01*
X174590500Y-105851410D01*
X174590500Y-105748590D01*
X174563888Y-105649272D01*
X174512478Y-105560227D01*
X174496988Y-105544737D01*
X174469496Y-105517244D01*
X174441719Y-105462727D01*
X174440500Y-105447241D01*
X174440500Y-105151027D01*
X174459407Y-105092836D01*
X174508907Y-105056872D01*
X174570093Y-105056872D01*
X174609504Y-105081023D01*
X177511804Y-107983323D01*
X177539581Y-108037840D01*
X177540800Y-108053327D01*
X177540800Y-108921173D01*
X177521893Y-108979364D01*
X177472393Y-109015328D01*
X177411207Y-109015328D01*
X177371796Y-108991177D01*
X175436296Y-107055677D01*
X175408519Y-107001160D01*
X175407300Y-106985673D01*
X175407300Y-106898458D01*
X175426207Y-106840267D01*
X175436290Y-106828460D01*
X175479278Y-106785473D01*
X175530688Y-106696428D01*
X175557300Y-106597110D01*
X175557300Y-106494290D01*
X175530688Y-106394972D01*
X175479278Y-106305927D01*
X175406573Y-106233222D01*
X175317528Y-106181812D01*
X175218210Y-106155200D01*
X175115390Y-106155200D01*
X175016072Y-106181812D01*
X174927027Y-106233222D01*
X174854322Y-106305927D01*
X174802912Y-106394972D01*
X174776300Y-106494290D01*
X174776300Y-106597110D01*
X174802912Y-106696428D01*
X174854322Y-106785473D01*
X174897305Y-106828456D01*
X174925081Y-106882971D01*
X174926300Y-106898458D01*
X174926300Y-107078461D01*
X174926300Y-107174139D01*
X174939244Y-107205389D01*
X174962912Y-107262530D01*
X174962913Y-107262531D01*
X174962914Y-107262533D01*
X176188978Y-108488597D01*
X176216754Y-108543112D01*
X176207183Y-108603544D01*
X176188977Y-108628603D01*
X175006877Y-109810704D01*
X174952360Y-109838481D01*
X174936873Y-109839700D01*
X174876090Y-109839700D01*
X174776772Y-109866312D01*
X174687727Y-109917722D01*
X174615022Y-109990427D01*
X174563612Y-110079472D01*
X174537000Y-110178790D01*
X174537000Y-110281610D01*
X174563612Y-110380928D01*
X174615022Y-110469973D01*
X174687727Y-110542678D01*
X174776772Y-110594088D01*
X174876090Y-110620700D01*
X174876092Y-110620700D01*
X174978908Y-110620700D01*
X174978910Y-110620700D01*
X175078228Y-110594088D01*
X175167273Y-110542678D01*
X175239978Y-110469973D01*
X175291388Y-110380928D01*
X175318000Y-110281610D01*
X175318000Y-110220825D01*
X175336907Y-110162634D01*
X175346990Y-110150827D01*
X176529097Y-108968719D01*
X176583612Y-108940944D01*
X176644044Y-108950515D01*
X176669099Y-108968718D01*
X177243231Y-109542850D01*
X177271008Y-109597366D01*
X177261437Y-109657798D01*
X177218172Y-109701063D01*
X177157740Y-109710634D01*
X177154020Y-109709843D01*
X177151410Y-109709500D01*
X177048590Y-109709500D01*
X176949272Y-109736112D01*
X176860227Y-109787522D01*
X176787522Y-109860227D01*
X176786223Y-109862478D01*
X176785736Y-109863321D01*
X176783832Y-109865035D01*
X176783573Y-109865373D01*
X176783510Y-109865324D01*
X176740266Y-109904261D01*
X176679416Y-109910656D01*
X176626428Y-109880063D01*
X176614264Y-109863321D01*
X176612478Y-109860227D01*
X176539773Y-109787522D01*
X176450728Y-109736112D01*
X176351410Y-109709500D01*
X176248590Y-109709500D01*
X176149272Y-109736112D01*
X176060227Y-109787522D01*
X175987522Y-109860227D01*
X175936112Y-109949272D01*
X175909500Y-110048590D01*
X175909500Y-110151410D01*
X175936112Y-110250728D01*
X175987522Y-110339773D01*
X176060227Y-110412478D01*
X176149272Y-110463888D01*
X176248590Y-110490500D01*
X176248592Y-110490500D01*
X176351408Y-110490500D01*
X176351410Y-110490500D01*
X176450728Y-110463888D01*
X176539773Y-110412478D01*
X176612478Y-110339773D01*
X176614263Y-110336680D01*
X176616165Y-110334968D01*
X176616427Y-110334627D01*
X176616490Y-110334675D01*
X176659730Y-110295740D01*
X176720579Y-110289342D01*
X176773569Y-110319932D01*
X176785735Y-110336678D01*
X176787522Y-110339773D01*
X176860227Y-110412478D01*
X176949272Y-110463888D01*
X177048590Y-110490500D01*
X177048592Y-110490500D01*
X177151408Y-110490500D01*
X177151410Y-110490500D01*
X177250728Y-110463888D01*
X177339773Y-110412478D01*
X177412478Y-110339773D01*
X177463888Y-110250728D01*
X177490500Y-110151410D01*
X177490500Y-110048590D01*
X177490499Y-110048589D01*
X177489653Y-110042158D01*
X177492073Y-110041839D01*
X177494721Y-109991295D01*
X177533225Y-109943744D01*
X177592326Y-109927908D01*
X177649448Y-109949834D01*
X177657144Y-109956763D01*
X178954268Y-111253886D01*
X179042662Y-111290500D01*
X179138339Y-111290500D01*
X179486238Y-111290500D01*
X179544429Y-111309407D01*
X179580393Y-111358907D01*
X179581864Y-111415122D01*
X179566109Y-111473927D01*
X179559500Y-111498591D01*
X179559500Y-111559373D01*
X179540593Y-111617564D01*
X179530504Y-111629377D01*
X178659077Y-112500804D01*
X178604560Y-112528581D01*
X178589073Y-112529800D01*
X173965559Y-112529800D01*
X173907368Y-112510893D01*
X173895556Y-112500804D01*
X173852575Y-112457824D01*
X173852573Y-112457822D01*
X173763528Y-112406412D01*
X173664210Y-112379800D01*
X173561390Y-112379800D01*
X173462072Y-112406412D01*
X173373027Y-112457822D01*
X173300322Y-112530527D01*
X173248912Y-112619572D01*
X173222300Y-112718890D01*
X173222300Y-112821710D01*
X173248912Y-112921028D01*
X173300322Y-113010073D01*
X173373027Y-113082778D01*
X173462072Y-113134188D01*
X173561390Y-113160800D01*
X173561392Y-113160800D01*
X173664208Y-113160800D01*
X173664210Y-113160800D01*
X173763528Y-113134188D01*
X173852573Y-113082778D01*
X173884624Y-113050727D01*
X173895556Y-113039796D01*
X173950073Y-113012019D01*
X173965559Y-113010800D01*
X178777539Y-113010800D01*
X178865933Y-112974186D01*
X179870622Y-111969495D01*
X179925139Y-111941719D01*
X179940626Y-111940500D01*
X179968242Y-111940500D01*
X180026433Y-111959407D01*
X180062397Y-112008907D01*
X180062397Y-112070093D01*
X180041123Y-112104808D01*
X180041473Y-112105077D01*
X180038919Y-112108404D01*
X180038247Y-112109501D01*
X180037522Y-112110227D01*
X179986112Y-112199272D01*
X179959500Y-112298590D01*
X179959500Y-112401410D01*
X179986112Y-112500728D01*
X180037522Y-112589773D01*
X180080505Y-112632756D01*
X180108281Y-112687271D01*
X180109500Y-112702758D01*
X180109500Y-112835173D01*
X180090593Y-112893364D01*
X180041093Y-112929328D01*
X179979907Y-112929328D01*
X179961001Y-112920910D01*
X179900729Y-112886112D01*
X179867622Y-112877241D01*
X179801410Y-112859500D01*
X179698590Y-112859500D01*
X179599272Y-112886112D01*
X179524420Y-112929328D01*
X179510224Y-112937524D01*
X179467244Y-112980504D01*
X179412727Y-113008281D01*
X179397241Y-113009500D01*
X179333762Y-113009500D01*
X179245370Y-113046112D01*
X177658886Y-114632594D01*
X177604369Y-114660371D01*
X177543937Y-114650800D01*
X177500672Y-114607535D01*
X177492145Y-114557899D01*
X177490500Y-114557899D01*
X177490500Y-114448591D01*
X177490500Y-114448590D01*
X177463888Y-114349272D01*
X177412478Y-114260227D01*
X177339773Y-114187522D01*
X177250728Y-114136112D01*
X177151410Y-114109500D01*
X177048590Y-114109500D01*
X176949272Y-114136112D01*
X176860227Y-114187522D01*
X176787521Y-114260228D01*
X176785736Y-114263321D01*
X176783832Y-114265035D01*
X176783573Y-114265373D01*
X176783510Y-114265324D01*
X176740266Y-114304261D01*
X176679416Y-114310656D01*
X176626428Y-114280063D01*
X176614264Y-114263321D01*
X176612478Y-114260227D01*
X176539773Y-114187522D01*
X176450728Y-114136112D01*
X176351410Y-114109500D01*
X176248590Y-114109500D01*
X176149272Y-114136112D01*
X176060227Y-114187522D01*
X175987522Y-114260227D01*
X175936112Y-114349272D01*
X175909500Y-114448590D01*
X175909500Y-114551410D01*
X175936112Y-114650728D01*
X175987522Y-114739773D01*
X176060227Y-114812478D01*
X176149272Y-114863888D01*
X176248590Y-114890500D01*
X176248592Y-114890500D01*
X176351408Y-114890500D01*
X176351410Y-114890500D01*
X176450728Y-114863888D01*
X176539773Y-114812478D01*
X176612478Y-114739773D01*
X176614263Y-114736680D01*
X176616165Y-114734968D01*
X176616427Y-114734627D01*
X176616490Y-114734675D01*
X176659730Y-114695740D01*
X176720579Y-114689342D01*
X176773569Y-114719932D01*
X176785735Y-114736678D01*
X176787522Y-114739773D01*
X176860227Y-114812478D01*
X176949272Y-114863888D01*
X177048590Y-114890500D01*
X177048592Y-114890500D01*
X177157899Y-114890500D01*
X177157899Y-114892256D01*
X177209821Y-114901875D01*
X177251942Y-114946254D01*
X177259934Y-115006915D01*
X177232594Y-115058886D01*
X176647163Y-115644316D01*
X176602783Y-115669938D01*
X176543172Y-115685911D01*
X176543168Y-115685913D01*
X176454129Y-115737320D01*
X176454127Y-115737322D01*
X176381422Y-115810027D01*
X176330012Y-115899072D01*
X176303400Y-115998390D01*
X176303400Y-116101210D01*
X176321141Y-116167422D01*
X176330012Y-116200529D01*
X176330255Y-116201114D01*
X176330290Y-116201565D01*
X176331692Y-116206796D01*
X176330722Y-116207055D01*
X176335056Y-116262110D01*
X176303087Y-116314280D01*
X176246559Y-116337695D01*
X176238791Y-116338000D01*
X175789837Y-116338000D01*
X175731646Y-116319093D01*
X175719833Y-116309004D01*
X168540719Y-109129890D01*
X169253000Y-109129890D01*
X169253000Y-109232710D01*
X169279612Y-109332028D01*
X169331022Y-109421073D01*
X169403727Y-109493778D01*
X169492772Y-109545188D01*
X169592090Y-109571800D01*
X169592092Y-109571800D01*
X169694908Y-109571800D01*
X169694910Y-109571800D01*
X169794228Y-109545188D01*
X169883273Y-109493778D01*
X169904765Y-109472285D01*
X169926256Y-109450796D01*
X169980773Y-109423019D01*
X169996259Y-109421800D01*
X171666539Y-109421800D01*
X171754933Y-109385186D01*
X173420623Y-107719496D01*
X173475140Y-107691719D01*
X173490627Y-107690500D01*
X173551408Y-107690500D01*
X173551410Y-107690500D01*
X173650728Y-107663888D01*
X173739773Y-107612478D01*
X173812478Y-107539773D01*
X173863888Y-107450728D01*
X173890500Y-107351410D01*
X173890500Y-107248590D01*
X173863888Y-107149272D01*
X173812478Y-107060227D01*
X173739773Y-106987522D01*
X173650728Y-106936112D01*
X173551410Y-106909500D01*
X173448590Y-106909500D01*
X173349272Y-106936112D01*
X173260227Y-106987522D01*
X173187522Y-107060227D01*
X173136112Y-107149272D01*
X173113175Y-107234877D01*
X173109500Y-107248591D01*
X173109500Y-107309373D01*
X173090593Y-107367564D01*
X173080504Y-107379377D01*
X171548077Y-108911804D01*
X171493560Y-108939581D01*
X171478073Y-108940800D01*
X169996259Y-108940800D01*
X169938068Y-108921893D01*
X169926256Y-108911804D01*
X169883275Y-108868824D01*
X169883273Y-108868822D01*
X169794228Y-108817412D01*
X169694910Y-108790800D01*
X169592090Y-108790800D01*
X169492772Y-108817412D01*
X169403727Y-108868822D01*
X169331022Y-108941527D01*
X169279612Y-109030572D01*
X169253000Y-109129890D01*
X168540719Y-109129890D01*
X167818974Y-108408145D01*
X167791197Y-108353628D01*
X167790824Y-108351058D01*
X167790500Y-108348602D01*
X167790500Y-108348590D01*
X167763888Y-108249272D01*
X167712478Y-108160227D01*
X167639773Y-108087522D01*
X167550728Y-108036112D01*
X167451410Y-108009500D01*
X167348590Y-108009500D01*
X167249272Y-108036112D01*
X167160227Y-108087522D01*
X167087522Y-108160227D01*
X167036112Y-108249272D01*
X167009500Y-108348590D01*
X167009500Y-108451410D01*
X167036112Y-108550728D01*
X167087522Y-108639773D01*
X167160227Y-108712478D01*
X167249272Y-108763888D01*
X167348590Y-108790500D01*
X167348602Y-108790500D01*
X167351058Y-108790824D01*
X167352669Y-108791592D01*
X167354858Y-108792179D01*
X167354749Y-108792584D01*
X167406284Y-108817162D01*
X167408145Y-108818974D01*
X171445705Y-112856534D01*
X171473482Y-112911051D01*
X171463911Y-112971483D01*
X171420646Y-113014748D01*
X171401325Y-113022164D01*
X171349929Y-113035936D01*
X171288827Y-113032733D01*
X171281743Y-113029692D01*
X167722830Y-111334971D01*
X167678420Y-111292882D01*
X167669767Y-111271215D01*
X167663888Y-111249272D01*
X167612478Y-111160227D01*
X167539773Y-111087522D01*
X167450728Y-111036112D01*
X167351410Y-111009500D01*
X167248590Y-111009500D01*
X167149272Y-111036112D01*
X167060227Y-111087522D01*
X166987522Y-111160227D01*
X166936112Y-111249272D01*
X166909500Y-111348590D01*
X166240500Y-111348590D01*
X166240500Y-101822026D01*
X166259407Y-101763835D01*
X166308907Y-101727871D01*
X166370093Y-101727871D01*
X166409501Y-101752020D01*
X167302624Y-102645142D01*
X168230504Y-103573022D01*
X168258281Y-103627539D01*
X168259500Y-103643026D01*
X168259500Y-103851441D01*
X168240593Y-103909632D01*
X168230504Y-103921444D01*
X168187524Y-103964424D01*
X168187522Y-103964426D01*
X168187522Y-103964427D01*
X168136112Y-104053472D01*
X168109500Y-104152790D01*
X168109500Y-104255610D01*
X168136112Y-104354928D01*
X168187522Y-104443973D01*
X168260227Y-104516678D01*
X168349272Y-104568088D01*
X168448590Y-104594700D01*
X168448592Y-104594700D01*
X168551408Y-104594700D01*
X168551410Y-104594700D01*
X168650728Y-104568088D01*
X168739773Y-104516678D01*
X168812478Y-104443973D01*
X168863888Y-104354928D01*
X168890500Y-104255610D01*
X168890500Y-104152790D01*
X168863888Y-104053472D01*
X168812478Y-103964427D01*
X168795151Y-103947100D01*
X168769496Y-103921444D01*
X168741719Y-103866927D01*
X168740500Y-103851441D01*
X168740500Y-103454562D01*
X168703886Y-103366168D01*
X168636232Y-103298513D01*
X168636232Y-103298514D01*
X166814696Y-101476977D01*
X166786919Y-101422460D01*
X166785700Y-101406973D01*
X166785700Y-101274458D01*
X166804607Y-101216267D01*
X166814690Y-101204460D01*
X166857678Y-101161473D01*
X166909088Y-101072428D01*
X166935700Y-100973110D01*
X166935700Y-100870290D01*
X166909088Y-100770972D01*
X166857678Y-100681927D01*
X166784973Y-100609222D01*
X166695928Y-100557812D01*
X166596610Y-100531200D01*
X166493790Y-100531200D01*
X166394472Y-100557812D01*
X166305424Y-100609224D01*
X166241203Y-100673445D01*
X166186686Y-100701222D01*
X166133315Y-100694905D01*
X166047838Y-100659500D01*
X121752759Y-100659500D01*
X121694568Y-100640593D01*
X121682756Y-100630504D01*
X121639775Y-100587524D01*
X121639773Y-100587522D01*
X121550728Y-100536112D01*
X121451410Y-100509500D01*
X121348590Y-100509500D01*
X121249272Y-100536112D01*
X121160227Y-100587522D01*
X121087522Y-100660227D01*
X121036112Y-100749272D01*
X121009500Y-100848590D01*
X121009500Y-100951410D01*
X121036112Y-101050728D01*
X121036113Y-101050730D01*
X121070910Y-101111000D01*
X121083632Y-101170848D01*
X121058746Y-101226744D01*
X121005758Y-101257337D01*
X120985174Y-101259500D01*
X120152162Y-101259500D01*
X120063770Y-101296112D01*
X119996112Y-101363770D01*
X119959500Y-101452162D01*
X119959500Y-117247241D01*
X119940593Y-117305432D01*
X119930504Y-117317244D01*
X119887524Y-117360224D01*
X119887522Y-117360226D01*
X119887522Y-117360227D01*
X119836112Y-117449272D01*
X119809500Y-117548590D01*
X119809500Y-117651410D01*
X119832213Y-117736179D01*
X119829012Y-117797278D01*
X119790506Y-117844828D01*
X119736587Y-117860800D01*
X117939937Y-117860800D01*
X117881746Y-117841893D01*
X117869934Y-117831804D01*
X117639671Y-117601542D01*
X117639666Y-117601538D01*
X117573432Y-117563298D01*
X117573434Y-117563298D01*
X117540221Y-117554399D01*
X117499545Y-117543500D01*
X117499543Y-117543500D01*
X115989500Y-117543500D01*
X115931309Y-117524593D01*
X115895345Y-117475093D01*
X115890500Y-117444500D01*
X115890500Y-113502021D01*
X115909407Y-113443830D01*
X115910957Y-113441756D01*
X115912472Y-113439780D01*
X115912473Y-113439777D01*
X115912478Y-113439773D01*
X115963888Y-113350728D01*
X115990500Y-113251410D01*
X115990500Y-113148590D01*
X115963888Y-113049272D01*
X115912478Y-112960227D01*
X115839773Y-112887522D01*
X115750728Y-112836112D01*
X115651410Y-112809500D01*
X115548590Y-112809500D01*
X115449272Y-112836112D01*
X115360227Y-112887522D01*
X115287522Y-112960227D01*
X115236112Y-113049272D01*
X115209500Y-113148590D01*
X115209500Y-113251410D01*
X115236112Y-113350728D01*
X115287522Y-113439773D01*
X115287524Y-113439775D01*
X115287527Y-113439780D01*
X115289043Y-113441756D01*
X115289638Y-113443436D01*
X115290767Y-113445392D01*
X115290404Y-113445601D01*
X115309466Y-113499432D01*
X115309500Y-113502021D01*
X115309500Y-120238663D01*
X115290593Y-120296854D01*
X115280503Y-120308667D01*
X115008144Y-120581025D01*
X114953628Y-120608802D01*
X114951069Y-120609173D01*
X114948597Y-120609498D01*
X114849272Y-120636112D01*
X114760227Y-120687522D01*
X114687521Y-120760228D01*
X114685736Y-120763321D01*
X114683832Y-120765035D01*
X114683573Y-120765373D01*
X114683510Y-120765324D01*
X114640266Y-120804261D01*
X114579416Y-120810656D01*
X114526428Y-120780063D01*
X114514264Y-120763321D01*
X114512478Y-120760227D01*
X114439773Y-120687522D01*
X114350728Y-120636112D01*
X114251410Y-120609500D01*
X114148590Y-120609500D01*
X114049272Y-120636112D01*
X113960227Y-120687522D01*
X113887522Y-120760227D01*
X113836112Y-120849272D01*
X113809500Y-120948590D01*
X113809500Y-121051410D01*
X113836112Y-121150728D01*
X113887522Y-121239773D01*
X113887524Y-121239775D01*
X113887527Y-121239780D01*
X113889043Y-121241756D01*
X113889638Y-121243436D01*
X113890767Y-121245392D01*
X113890404Y-121245601D01*
X113909466Y-121299432D01*
X113909500Y-121302021D01*
X113909500Y-127144573D01*
X113890593Y-127202764D01*
X113841093Y-127238728D01*
X113779907Y-127238728D01*
X113740496Y-127214577D01*
X112759696Y-126233777D01*
X112731919Y-126179260D01*
X112730700Y-126163773D01*
X112730700Y-124042364D01*
X112730700Y-124042362D01*
X112725289Y-124029297D01*
X112719680Y-124015756D01*
X112694087Y-123953969D01*
X112694086Y-123953968D01*
X112694086Y-123953967D01*
X111419496Y-122679377D01*
X111391719Y-122624860D01*
X111390500Y-122609373D01*
X111390500Y-122548591D01*
X111379771Y-122508549D01*
X111363888Y-122449272D01*
X111312478Y-122360227D01*
X111239773Y-122287522D01*
X111150728Y-122236112D01*
X111051410Y-122209500D01*
X110948590Y-122209500D01*
X110849272Y-122236112D01*
X110760227Y-122287522D01*
X110687522Y-122360227D01*
X110636112Y-122449272D01*
X110609500Y-122548590D01*
X110609500Y-122651410D01*
X110636112Y-122750728D01*
X110687522Y-122839773D01*
X110760227Y-122912478D01*
X110849272Y-122963888D01*
X110948590Y-122990500D01*
X111009373Y-122990500D01*
X111067564Y-123009407D01*
X111079377Y-123019496D01*
X112220704Y-124160823D01*
X112248481Y-124215340D01*
X112249700Y-124230827D01*
X112249700Y-124796363D01*
X112230793Y-124854554D01*
X112181293Y-124890518D01*
X112120107Y-124890518D01*
X112080696Y-124866367D01*
X109898496Y-122684167D01*
X109870719Y-122629650D01*
X109869500Y-122614163D01*
X109869500Y-122157437D01*
X109888407Y-122099246D01*
X109898496Y-122087433D01*
X110766433Y-121219496D01*
X110820950Y-121191719D01*
X110836437Y-121190500D01*
X110897979Y-121190500D01*
X110956170Y-121209407D01*
X110958244Y-121210957D01*
X110960219Y-121212472D01*
X110960223Y-121212474D01*
X110960227Y-121212478D01*
X111049272Y-121263888D01*
X111148590Y-121290500D01*
X111148592Y-121290500D01*
X111251408Y-121290500D01*
X111251410Y-121290500D01*
X111350728Y-121263888D01*
X111439773Y-121212478D01*
X111512478Y-121139773D01*
X111514263Y-121136680D01*
X111516165Y-121134968D01*
X111516427Y-121134627D01*
X111516490Y-121134675D01*
X111559730Y-121095740D01*
X111620579Y-121089342D01*
X111673569Y-121119932D01*
X111685735Y-121136678D01*
X111687522Y-121139773D01*
X111760227Y-121212478D01*
X111849272Y-121263888D01*
X111948590Y-121290500D01*
X111948592Y-121290500D01*
X112051408Y-121290500D01*
X112051410Y-121290500D01*
X112150728Y-121263888D01*
X112239773Y-121212478D01*
X112312478Y-121139773D01*
X112363888Y-121050728D01*
X112390500Y-120951410D01*
X112390500Y-120848590D01*
X112363888Y-120749272D01*
X112312478Y-120660227D01*
X112239773Y-120587522D01*
X112150728Y-120536112D01*
X112051410Y-120509500D01*
X111948590Y-120509500D01*
X111849272Y-120536112D01*
X111760227Y-120587522D01*
X111687521Y-120660228D01*
X111685736Y-120663321D01*
X111683832Y-120665035D01*
X111683573Y-120665373D01*
X111683510Y-120665324D01*
X111640266Y-120704261D01*
X111579416Y-120710656D01*
X111526428Y-120680063D01*
X111514264Y-120663321D01*
X111512478Y-120660227D01*
X111439773Y-120587522D01*
X111350728Y-120536112D01*
X111251410Y-120509500D01*
X111251408Y-120509500D01*
X111248932Y-120509174D01*
X111247317Y-120508404D01*
X111245142Y-120507821D01*
X111245250Y-120507417D01*
X111193708Y-120482830D01*
X111191854Y-120481025D01*
X109619496Y-118908667D01*
X109591719Y-118854150D01*
X109590500Y-118838663D01*
X109590500Y-117302021D01*
X109609407Y-117243830D01*
X109610957Y-117241756D01*
X109612472Y-117239780D01*
X109612473Y-117239777D01*
X109612478Y-117239773D01*
X109663888Y-117150728D01*
X109690500Y-117051410D01*
X109690500Y-116948590D01*
X109665268Y-116854422D01*
X109668471Y-116793321D01*
X109706976Y-116745771D01*
X109760895Y-116729800D01*
X110343673Y-116729800D01*
X110401864Y-116748707D01*
X110413677Y-116758796D01*
X112422104Y-118767222D01*
X112449881Y-118821739D01*
X112451100Y-118837226D01*
X112451100Y-118898010D01*
X112477712Y-118997328D01*
X112529122Y-119086373D01*
X112601827Y-119159078D01*
X112690872Y-119210488D01*
X112766207Y-119230673D01*
X112817520Y-119263997D01*
X112839447Y-119321119D01*
X112823612Y-119380219D01*
X112776062Y-119418724D01*
X112740583Y-119425300D01*
X112737890Y-119425300D01*
X112638572Y-119451912D01*
X112549527Y-119503322D01*
X112476822Y-119576027D01*
X112425412Y-119665072D01*
X112398800Y-119764390D01*
X112398800Y-119867210D01*
X112425412Y-119966528D01*
X112476822Y-120055573D01*
X112549527Y-120128278D01*
X112638572Y-120179688D01*
X112737890Y-120206300D01*
X112737892Y-120206300D01*
X112840708Y-120206300D01*
X112840710Y-120206300D01*
X112940028Y-120179688D01*
X113029073Y-120128278D01*
X113101778Y-120055573D01*
X113153188Y-119966528D01*
X113179800Y-119867210D01*
X113179800Y-119806425D01*
X113198707Y-119748234D01*
X113208790Y-119736427D01*
X113537286Y-119407932D01*
X113573900Y-119319538D01*
X113573900Y-119223861D01*
X113573900Y-117648262D01*
X113573725Y-117647838D01*
X113567354Y-117632457D01*
X113537286Y-117559866D01*
X113517695Y-117540275D01*
X113489919Y-117485758D01*
X113488700Y-117470273D01*
X113488700Y-107873527D01*
X113507607Y-107815336D01*
X113517696Y-107803523D01*
X117345123Y-103976096D01*
X117399640Y-103948319D01*
X117415127Y-103947100D01*
X117984974Y-103947100D01*
X118043165Y-103966007D01*
X118054977Y-103976096D01*
X118149603Y-104070721D01*
X118177381Y-104125237D01*
X118178600Y-104140725D01*
X118178600Y-104201510D01*
X118205212Y-104300828D01*
X118256622Y-104389873D01*
X118329327Y-104462578D01*
X118418372Y-104513988D01*
X118517690Y-104540600D01*
X118517692Y-104540600D01*
X118620508Y-104540600D01*
X118620510Y-104540600D01*
X118719828Y-104513988D01*
X118808873Y-104462578D01*
X118881578Y-104389873D01*
X118932988Y-104300828D01*
X118959600Y-104201510D01*
X118959600Y-104098690D01*
X118932988Y-103999372D01*
X118881578Y-103910327D01*
X118808873Y-103837622D01*
X118719828Y-103786212D01*
X118620510Y-103759600D01*
X118620508Y-103759600D01*
X118559725Y-103759600D01*
X118501534Y-103740693D01*
X118489721Y-103730603D01*
X118386657Y-103627539D01*
X118261833Y-103502714D01*
X118261832Y-103502713D01*
X118261831Y-103502712D01*
X118173439Y-103466100D01*
X118173438Y-103466100D01*
X117322339Y-103466100D01*
X117226661Y-103466100D01*
X117138269Y-103502712D01*
X117138267Y-103502714D01*
X113044314Y-107596667D01*
X113013028Y-107672200D01*
X113007700Y-107685062D01*
X113007700Y-117563061D01*
X113007700Y-117658739D01*
X113016715Y-117680504D01*
X113044312Y-117747130D01*
X113044313Y-117747131D01*
X113044314Y-117747133D01*
X113063905Y-117766724D01*
X113091681Y-117821239D01*
X113092900Y-117836726D01*
X113092900Y-118380641D01*
X113073993Y-118438832D01*
X113024493Y-118474796D01*
X112968278Y-118476267D01*
X112893010Y-118456100D01*
X112893008Y-118456100D01*
X112832226Y-118456100D01*
X112774035Y-118437193D01*
X112762222Y-118427104D01*
X111716143Y-117381025D01*
X110620533Y-116285414D01*
X110620531Y-116285413D01*
X110620530Y-116285412D01*
X110532139Y-116248800D01*
X110532138Y-116248800D01*
X105342862Y-116248800D01*
X105254468Y-116285413D01*
X105254466Y-116285414D01*
X105254461Y-116285420D01*
X104406101Y-117133778D01*
X104351585Y-117161555D01*
X104298213Y-117155238D01*
X104154340Y-117095645D01*
X104154335Y-117095643D01*
X104154334Y-117095643D01*
X104154332Y-117095642D01*
X104151345Y-117094737D01*
X104150170Y-117093918D01*
X104149841Y-117093782D01*
X104149870Y-117093709D01*
X104101149Y-117059751D01*
X104081104Y-117001942D01*
X104098866Y-116943392D01*
X104147651Y-116906464D01*
X104151345Y-116905263D01*
X104154322Y-116904359D01*
X104154334Y-116904357D01*
X104325494Y-116833461D01*
X104479534Y-116730534D01*
X104610534Y-116599534D01*
X104713461Y-116445494D01*
X104784357Y-116274334D01*
X104820500Y-116092631D01*
X104820500Y-115907369D01*
X104784357Y-115725666D01*
X104732190Y-115599722D01*
X104713462Y-115554508D01*
X104713462Y-115554507D01*
X104610534Y-115400466D01*
X104479533Y-115269465D01*
X104325491Y-115166537D01*
X104154334Y-115095643D01*
X103972633Y-115059500D01*
X103972631Y-115059500D01*
X103787369Y-115059500D01*
X103787366Y-115059500D01*
X103605666Y-115095643D01*
X103605664Y-115095643D01*
X103434508Y-115166537D01*
X103434507Y-115166537D01*
X103280466Y-115269465D01*
X103149465Y-115400466D01*
X103046537Y-115554507D01*
X103046537Y-115554508D01*
X102975643Y-115725664D01*
X102975643Y-115725666D01*
X102939500Y-115907366D01*
X100250000Y-115907366D01*
X100250000Y-114662290D01*
X100639500Y-114662290D01*
X100639500Y-114837709D01*
X100673721Y-115009748D01*
X100673721Y-115009750D01*
X100740847Y-115171807D01*
X100830826Y-115306472D01*
X100838303Y-115317661D01*
X100962339Y-115441697D01*
X101108190Y-115539151D01*
X101270251Y-115606279D01*
X101442293Y-115640500D01*
X101442294Y-115640500D01*
X101617706Y-115640500D01*
X101617707Y-115640500D01*
X101789749Y-115606279D01*
X101951810Y-115539151D01*
X102097661Y-115441697D01*
X102221697Y-115317661D01*
X102319151Y-115171810D01*
X102386279Y-115009749D01*
X102420500Y-114837707D01*
X102420500Y-114662293D01*
X102386279Y-114490251D01*
X102319151Y-114328190D01*
X102221697Y-114182339D01*
X102097661Y-114058303D01*
X102091050Y-114053886D01*
X101951807Y-113960847D01*
X101789749Y-113893721D01*
X101617709Y-113859500D01*
X101617707Y-113859500D01*
X101442293Y-113859500D01*
X101442290Y-113859500D01*
X101270251Y-113893721D01*
X101270249Y-113893721D01*
X101108192Y-113960847D01*
X100962342Y-114058300D01*
X100838300Y-114182342D01*
X100740847Y-114328192D01*
X100673721Y-114490249D01*
X100673721Y-114490251D01*
X100639500Y-114662290D01*
X100250000Y-114662290D01*
X100250000Y-113396581D01*
X102830000Y-113396581D01*
X102830000Y-113603418D01*
X102870349Y-113806272D01*
X102949501Y-113997361D01*
X103038022Y-114129843D01*
X103465614Y-113702250D01*
X103511913Y-113782443D01*
X103597557Y-113868087D01*
X103677746Y-113914384D01*
X103250154Y-114341977D01*
X103382625Y-114430491D01*
X103382639Y-114430498D01*
X103573727Y-114509650D01*
X103776581Y-114549999D01*
X103776586Y-114550000D01*
X103983414Y-114550000D01*
X103983418Y-114549999D01*
X104186272Y-114509650D01*
X104377360Y-114430498D01*
X104509843Y-114341976D01*
X104082251Y-113914384D01*
X104162443Y-113868087D01*
X104248087Y-113782443D01*
X104294384Y-113702251D01*
X104721976Y-114129843D01*
X104810498Y-113997360D01*
X104889650Y-113806272D01*
X104929999Y-113603418D01*
X104930000Y-113603413D01*
X104930000Y-113396586D01*
X104929999Y-113396581D01*
X104889650Y-113193727D01*
X104810498Y-113002639D01*
X104810491Y-113002625D01*
X104721976Y-112870154D01*
X104294384Y-113297746D01*
X104248087Y-113217557D01*
X104162443Y-113131913D01*
X104082250Y-113085614D01*
X104509843Y-112658022D01*
X104377361Y-112569501D01*
X104186272Y-112490349D01*
X103983418Y-112450000D01*
X103776581Y-112450000D01*
X103573727Y-112490349D01*
X103382638Y-112569501D01*
X103250155Y-112658022D01*
X103677748Y-113085615D01*
X103597557Y-113131913D01*
X103511913Y-113217557D01*
X103465615Y-113297748D01*
X103038022Y-112870155D01*
X102949501Y-113002638D01*
X102870349Y-113193727D01*
X102830000Y-113396581D01*
X100250000Y-113396581D01*
X100250000Y-112275278D01*
X100268907Y-112217087D01*
X100318407Y-112181123D01*
X100355476Y-112176490D01*
X100379782Y-112178083D01*
X100807415Y-111750449D01*
X100842822Y-111799181D01*
X100970819Y-111927178D01*
X101019548Y-111962582D01*
X100591915Y-112390216D01*
X100745667Y-112508194D01*
X100944341Y-112622898D01*
X101156268Y-112710680D01*
X101156281Y-112710684D01*
X101377863Y-112770057D01*
X101605297Y-112799999D01*
X101605300Y-112800000D01*
X101834700Y-112800000D01*
X101834702Y-112799999D01*
X102062133Y-112770057D01*
X102062138Y-112770057D01*
X102283718Y-112710684D01*
X102283731Y-112710680D01*
X102495658Y-112622898D01*
X102519420Y-112609180D01*
X102694342Y-112508188D01*
X102848083Y-112390216D01*
X102420450Y-111962583D01*
X102469181Y-111927178D01*
X102597178Y-111799181D01*
X102632583Y-111750450D01*
X103060216Y-112178083D01*
X103178188Y-112024342D01*
X103292898Y-111825658D01*
X103380680Y-111613731D01*
X103380684Y-111613718D01*
X103440057Y-111392138D01*
X103440057Y-111392133D01*
X103469999Y-111164702D01*
X103470000Y-111164700D01*
X103470000Y-110935300D01*
X103469999Y-110935297D01*
X103440057Y-110707866D01*
X103440057Y-110707861D01*
X103380684Y-110486281D01*
X103380680Y-110486268D01*
X103292898Y-110274341D01*
X103178194Y-110075667D01*
X103060215Y-109921915D01*
X102632582Y-110349548D01*
X102597178Y-110300819D01*
X102469181Y-110172822D01*
X102420449Y-110137416D01*
X102848083Y-109709783D01*
X102694332Y-109591805D01*
X102495658Y-109477101D01*
X102283731Y-109389319D01*
X102283718Y-109389315D01*
X102062136Y-109329942D01*
X101834702Y-109300000D01*
X101605297Y-109300000D01*
X101377866Y-109329942D01*
X101377861Y-109329942D01*
X101156281Y-109389315D01*
X101156268Y-109389319D01*
X100944341Y-109477101D01*
X100745662Y-109591808D01*
X100591915Y-109709782D01*
X101019549Y-110137416D01*
X100970819Y-110172822D01*
X100842822Y-110300819D01*
X100807416Y-110349549D01*
X100379781Y-109921914D01*
X100355475Y-109923508D01*
X100337232Y-109918875D01*
X100318407Y-109918875D01*
X100308290Y-109911524D01*
X100296172Y-109908447D01*
X100284136Y-109893976D01*
X100268907Y-109882911D01*
X100265042Y-109871017D01*
X100257048Y-109861405D01*
X100250000Y-109824720D01*
X100250000Y-102548590D01*
X114009500Y-102548590D01*
X114009500Y-102651410D01*
X114036112Y-102750728D01*
X114087522Y-102839773D01*
X114160227Y-102912478D01*
X114249272Y-102963888D01*
X114348590Y-102990500D01*
X114348592Y-102990500D01*
X114451408Y-102990500D01*
X114451410Y-102990500D01*
X114550728Y-102963888D01*
X114639773Y-102912478D01*
X114712478Y-102839773D01*
X114763888Y-102750728D01*
X114790500Y-102651410D01*
X114790500Y-102651402D01*
X114790824Y-102648943D01*
X114791592Y-102647332D01*
X114792179Y-102645142D01*
X114792584Y-102645250D01*
X114817161Y-102593716D01*
X114818975Y-102591854D01*
X115091334Y-102319496D01*
X115145850Y-102291719D01*
X115161337Y-102290500D01*
X115297979Y-102290500D01*
X115356170Y-102309407D01*
X115358244Y-102310957D01*
X115360219Y-102312472D01*
X115360223Y-102312474D01*
X115360227Y-102312478D01*
X115449272Y-102363888D01*
X115548590Y-102390500D01*
X115548592Y-102390500D01*
X115651408Y-102390500D01*
X115651410Y-102390500D01*
X115750728Y-102363888D01*
X115839773Y-102312478D01*
X115912478Y-102239773D01*
X115963888Y-102150728D01*
X115990500Y-102051410D01*
X115990500Y-101948590D01*
X118009500Y-101948590D01*
X118009500Y-102051410D01*
X118036112Y-102150728D01*
X118087522Y-102239773D01*
X118160227Y-102312478D01*
X118249272Y-102363888D01*
X118348590Y-102390500D01*
X118348592Y-102390500D01*
X118451408Y-102390500D01*
X118451410Y-102390500D01*
X118550728Y-102363888D01*
X118639773Y-102312478D01*
X118712478Y-102239773D01*
X118763888Y-102150728D01*
X118790500Y-102051410D01*
X118790500Y-101948590D01*
X118763888Y-101849272D01*
X118712478Y-101760227D01*
X118639773Y-101687522D01*
X118550728Y-101636112D01*
X118451410Y-101609500D01*
X118348590Y-101609500D01*
X118249272Y-101636112D01*
X118160227Y-101687522D01*
X118087522Y-101760227D01*
X118036112Y-101849272D01*
X118009500Y-101948590D01*
X115990500Y-101948590D01*
X115963888Y-101849272D01*
X115912478Y-101760227D01*
X115839773Y-101687522D01*
X115750728Y-101636112D01*
X115651410Y-101609500D01*
X115548590Y-101609500D01*
X115449272Y-101636112D01*
X115360227Y-101687522D01*
X115360226Y-101687522D01*
X115360219Y-101687527D01*
X115358244Y-101689043D01*
X115356563Y-101689638D01*
X115354608Y-101690767D01*
X115354398Y-101690404D01*
X115300568Y-101709466D01*
X115297979Y-101709500D01*
X115038245Y-101709500D01*
X114961755Y-101709500D01*
X114918791Y-101721012D01*
X114887866Y-101729298D01*
X114821633Y-101767538D01*
X114821628Y-101767542D01*
X114408144Y-102181025D01*
X114353628Y-102208802D01*
X114351069Y-102209173D01*
X114348597Y-102209498D01*
X114253527Y-102234972D01*
X114249272Y-102236112D01*
X114160227Y-102287522D01*
X114087522Y-102360227D01*
X114036112Y-102449272D01*
X114009500Y-102548590D01*
X100250000Y-102548590D01*
X100250000Y-100349000D01*
X100268907Y-100290809D01*
X100318407Y-100254845D01*
X100349000Y-100250000D01*
X189651000Y-100250000D01*
X189709191Y-100268907D01*
G37*
G04 #@! TD.AperFunction*
G04 #@! TD*
M02*
